M48
; DRILL file {KiCad (6.0.4-0)} date 
; FORMAT={-:-/ absolute / inch / decimal}
; #@! TF.CreationDate,2022-06-11T07:19:36+09:00
; #@! TF.GenerationSoftware,Kicad,Pcbnew,(6.0.4-0)
; #@! TF.FileFunction,MixedPlating,1,2
FMAT,2
INCH
; #@! TA.AperFunction,Plated,PTH,ViaDrill
T1C0.0118
; #@! TA.AperFunction,Plated,PTH,ComponentDrill
T2C0.0276
; #@! TA.AperFunction,Plated,PTH,ComponentDrill
T3C0.0394
%
G90
G05
T1
X5.8465Y-4.1181
X5.8817Y-4.3297
X5.8957Y-4.2677
X5.917Y-3.6853
X5.9764Y-4.2677
X6.0699Y-4.1417
X6.3268Y-4.1181
X6.3268Y-4.1535
X6.4232Y-4.2835
X6.5669Y-3.9252
X6.5717Y-4.2554
T2
X5.9862Y-3.5039
X5.9862Y-3.574
X5.9862Y-3.6441
X5.9862Y-3.7142
X5.9862Y-3.7843
X5.9862Y-3.8543
X5.9862Y-3.9244
X5.9862Y-3.9945
X6.4075Y-3.4689
X6.4075Y-3.539
X6.4075Y-3.6091
X6.4075Y-3.6791
X6.4075Y-3.7492
X6.4075Y-3.8193
X6.4075Y-3.8894
X6.4075Y-3.9594
T3
X5.8976Y-4.2126
X5.9976Y-4.2126
X6.0976Y-4.2126
X6.1976Y-4.2126
X6.2976Y-4.2126
X6.3976Y-4.2126
X6.4976Y-4.2126
T0
M30
