G04 %TF.GenerationSoftware,KiCad,Pcbnew,(6.0.4-0)@% jlc*
G04 %TF.CreationDate,2022-06-11T07:19:30+09:00@% jlc*
G04 %TF.ProjectId,KeyBall,4b657942-616c-46c2-9e6b-696361645f70,rev?@% jlc*
G04 %TF.SameCoordinates,Original@% jlc*
G04 %TF.FileFunction,Copper,L1,Top@% jlc*
G04 %TF.FilePolarity,Positive@% jlc*
%FSLAX46Y46*%
G04 Gerber Fmt 4.6, Leading zero omitted, Abs format (unit mm)*
G04 Created by KiCad (PCBNEW (6.0.4-0)) date 2022-06-11 07:19:30*
%MOMM*%
%LPD*%
G01*
G04 APERTURE LIST*
G04 Aperture macros list*
%AMRoundRect*
0 Rectangle with rounded corners*
0 $1 Rounding radius*
0 $2 $3 $4 $5 $6 $7 $8 $9 X,Y pos of 4 corners*
0 Add a 4 corners polygon primitive as box body*
4,1,4,$2,$3,$4,$5,$6,$7,$8,$9,$2,$3,0*
0 Add four circle primitives for the rounded corners*
1,1,$1+$1,$2,$3*
1,1,$1+$1,$4,$5*
1,1,$1+$1,$6,$7*
1,1,$1+$1,$8,$9*
0 Add four rect primitives between the rounded corners*
20,1,$1+$1,$2,$3,$4,$5,0*
20,1,$1+$1,$4,$5,$6,$7,0*
20,1,$1+$1,$6,$7,$8,$9,0*
20,1,$1+$1,$8,$9,$2,$3,0*%
G04 Aperture macros list end*
G04 %TA.AperFunction,SMDPad,CuDef@% jlc*
%ADD10RoundRect,0.140000X0.140000X0.170000X-0.140000X0.170000X-0.140000X-0.170000X0.140000X-0.170000X0*%
G04 %TD@% jlc*
G04 %TA.AperFunction,SMDPad,CuDef@% jlc*
%ADD11RoundRect,0.135000X-0.135000X-0.185000X0.135000X-0.185000X0.135000X0.185000X-0.135000X0.185000X0*%
G04 %TD@% jlc*
G04 %TA.AperFunction,SMDPad,CuDef@% jlc*
%ADD12RoundRect,0.135000X0.135000X0.185000X-0.135000X0.185000X-0.135000X-0.185000X0.135000X-0.185000X0*%
G04 %TD@% jlc*
G04 %TA.AperFunction,SMDPad,CuDef@% jlc*
%ADD13RoundRect,0.200000X-0.275000X0.200000X-0.275000X-0.200000X0.275000X-0.200000X0.275000X0.200000X0*%
G04 %TD@% jlc*
G04 %TA.AperFunction,SMDPad,CuDef@% jlc*
%ADD14RoundRect,0.225000X-0.250000X0.225000X-0.250000X-0.225000X0.250000X-0.225000X0.250000X0.225000X0*%
G04 %TD@% jlc*
G04 %TA.AperFunction,SMDPad,CuDef@% jlc*
%ADD15R,0.800000X0.300000*%
G04 %TD@% jlc*
G04 %TA.AperFunction,SMDPad,CuDef@% jlc*
%ADD16RoundRect,0.200000X0.275000X-0.200000X0.275000X0.200000X-0.275000X0.200000X-0.275000X-0.200000X0*%
G04 %TD@% jlc*
G04 %TA.AperFunction,SMDPad,CuDef@% jlc*
%ADD17RoundRect,0.225000X0.250000X-0.225000X0.250000X0.225000X-0.250000X0.225000X-0.250000X-0.225000X0*%
G04 %TD@% jlc*
G04 %TA.AperFunction,SMDPad,CuDef@% jlc*
%ADD18RoundRect,0.225000X-0.225000X-0.250000X0.225000X-0.250000X0.225000X0.250000X-0.225000X0.250000X0*%
G04 %TD@% jlc*
G04 %TA.AperFunction,SMDPad,CuDef@% jlc*
%ADD19RoundRect,0.225000X0.225000X0.250000X-0.225000X0.250000X-0.225000X-0.250000X0.225000X-0.250000X0*%
G04 %TD@% jlc*
G04 %TA.AperFunction,ComponentPad@% jlc*
%ADD20R,1.700000X1.700000*%
G04 %TD@% jlc*
G04 %TA.AperFunction,ComponentPad@% jlc*
%ADD21O,1.700000X1.700000*%
G04 %TD@% jlc*
G04 %TA.AperFunction,SMDPad,CuDef@% jlc*
%ADD22RoundRect,0.150000X-0.512500X-0.150000X0.512500X-0.150000X0.512500X0.150000X-0.512500X0.150000X0*%
G04 %TD@% jlc*
G04 %TA.AperFunction,ComponentPad@% jlc*
%ADD23R,1.400000X1.400000*%
G04 %TD@% jlc*
G04 %TA.AperFunction,ComponentPad@% jlc*
%ADD24C,1.400000*%
G04 %TD@% jlc*
G04 %TA.AperFunction,ViaPad@% jlc*
%ADD25C,0.500000*%
G04 %TD@% jlc*
G04 %TA.AperFunction,Conductor@% jlc*
%ADD26C,0.200000*%
G04 %TD@% jlc*
G04 APERTURE END LIST*
D10*
G04 %TO.P,C3,1@% jlc*
G04 %TO.N,/1.9V@% jlc*
X160380000Y-108900000D03*
G04 %TO.P,C3,2@% jlc*
G04 %TO.N,Net-(C3-Pad2)@% jlc*
X159420000Y-108900000D03*
G04 %TD@% jlc*
D11*
G04 %TO.P,R2,1@% jlc*
G04 %TO.N,Net-(C3-Pad2)@% jlc*
X159390000Y-110900000D03*
G04 %TO.P,R2,2@% jlc*
G04 %TO.N,GND@% jlc*
X160410000Y-110900000D03*
G04 %TD@% jlc*
D12*
G04 %TO.P,R1,1@% jlc*
G04 %TO.N,/1.9V@% jlc*
X160410000Y-109900000D03*
G04 %TO.P,R1,2@% jlc*
G04 %TO.N,Net-(C3-Pad2)@% jlc*
X159390000Y-109900000D03*
G04 %TD@% jlc*
D13*
G04 %TO.P,R6,1@% jlc*
G04 %TO.N,/1.9V@% jlc*
X162200000Y-109075000D03*
G04 %TO.P,R6,2@% jlc*
G04 %TO.N,GND@% jlc*
X162200000Y-110725000D03*
G04 %TD@% jlc*
G04 %TO.P,R4,1@% jlc*
G04 %TO.N,/1.9V@% jlc*
X153000000Y-109075000D03*
G04 %TO.P,R4,2@% jlc*
G04 %TO.N,GND@% jlc*
X153000000Y-110725000D03*
G04 %TD@% jlc*
D14*
G04 %TO.P,C6,1@% jlc*
G04 %TO.N,Net-(C5-Pad1)@% jlc*
X165900000Y-97225000D03*
G04 %TO.P,C6,2@% jlc*
G04 %TO.N,GND@% jlc*
X165900000Y-98775000D03*
G04 %TD@% jlc*
D15*
G04 %TO.P,U2,1,B2@% jlc*
G04 %TO.N,/NCS_5@% jlc*
X148050000Y-109250000D03*
G04 %TO.P,U2,2,GND@% jlc*
G04 %TO.N,GND@% jlc*
X148050000Y-109750000D03*
G04 %TO.P,U2,3,VCCA@% jlc*
G04 %TO.N,/1.9V@% jlc*
X148050000Y-110250000D03*
G04 %TO.P,U2,4,A2@% jlc*
G04 %TO.N,/NCS@% jlc*
X148050000Y-110750000D03*
G04 %TO.P,U2,5,A1@% jlc*
G04 %TO.N,/SCLK@% jlc*
X151150000Y-110750000D03*
G04 %TO.P,U2,6,OE@% jlc*
G04 %TO.N,/1.9V@% jlc*
X151150000Y-110250000D03*
G04 %TO.P,U2,7,VCCB@% jlc*
G04 %TO.N,/5V@% jlc*
X151150000Y-109750000D03*
G04 %TO.P,U2,8,B1@% jlc*
G04 %TO.N,/SCLK_5@% jlc*
X151150000Y-109250000D03*
G04 %TD@% jlc*
D16*
G04 %TO.P,R8,1@% jlc*
G04 %TO.N,/1.9V@% jlc*
X148900000Y-98425000D03*
G04 %TO.P,R8,2@% jlc*
G04 %TO.N,Net-(R8-Pad2)@% jlc*
X148900000Y-96775000D03*
G04 %TD@% jlc*
D17*
G04 %TO.P,C5,1@% jlc*
G04 %TO.N,Net-(C5-Pad1)@% jlc*
X165900000Y-91950000D03*
G04 %TO.P,C5,2@% jlc*
G04 %TO.N,GND@% jlc*
X165900000Y-90400000D03*
G04 %TD@% jlc*
D18*
G04 %TO.P,C2,1@% jlc*
G04 %TO.N,/5V@% jlc*
X161725000Y-105100000D03*
G04 %TO.P,C2,2@% jlc*
G04 %TO.N,GND@% jlc*
X163275000Y-105100000D03*
G04 %TD@% jlc*
D13*
G04 %TO.P,R9,1@% jlc*
G04 %TO.N,/NCS@% jlc*
X148900000Y-92875000D03*
G04 %TO.P,R9,2@% jlc*
G04 %TO.N,Net-(R10-Pad2)@% jlc*
X148900000Y-94525000D03*
G04 %TD@% jlc*
D19*
G04 %TO.P,C1,1@% jlc*
G04 %TO.N,/5V@% jlc*
X153075000Y-105100000D03*
G04 %TO.P,C1,2@% jlc*
G04 %TO.N,GND@% jlc*
X151525000Y-105100000D03*
G04 %TD@% jlc*
D15*
G04 %TO.P,U3,1,B2@% jlc*
G04 %TO.N,/MISO_5@% jlc*
X166950000Y-110650000D03*
G04 %TO.P,U3,2,GND@% jlc*
G04 %TO.N,GND@% jlc*
X166950000Y-110150000D03*
G04 %TO.P,U3,3,VCCA@% jlc*
G04 %TO.N,/1.9V@% jlc*
X166950000Y-109650000D03*
G04 %TO.P,U3,4,A2@% jlc*
G04 %TO.N,/MISO@% jlc*
X166950000Y-109150000D03*
G04 %TO.P,U3,5,A1@% jlc*
G04 %TO.N,/MOSI@% jlc*
X163850000Y-109150000D03*
G04 %TO.P,U3,6,OE@% jlc*
G04 %TO.N,/1.9V@% jlc*
X163850000Y-109650000D03*
G04 %TO.P,U3,7,VCCB@% jlc*
G04 %TO.N,/5V@% jlc*
X163850000Y-110150000D03*
G04 %TO.P,U3,8,B1@% jlc*
G04 %TO.N,/MOSI_5@% jlc*
X163850000Y-110650000D03*
G04 %TD@% jlc*
D16*
G04 %TO.P,R7,1@% jlc*
G04 %TO.N,/NCS@% jlc*
X148900000Y-90625000D03*
G04 %TO.P,R7,2@% jlc*
G04 %TO.N,Net-(R7-Pad2)@% jlc*
X148900000Y-88975000D03*
G04 %TD@% jlc*
G04 %TO.P,R10,1@% jlc*
G04 %TO.N,/1.9V@% jlc*
X148900000Y-102325000D03*
G04 %TO.P,R10,2@% jlc*
G04 %TO.N,Net-(R10-Pad2)@% jlc*
X148900000Y-100675000D03*
G04 %TD@% jlc*
D14*
G04 %TO.P,C7,1@% jlc*
G04 %TO.N,/1.9V@% jlc*
X165900000Y-93825000D03*
G04 %TO.P,C7,2@% jlc*
G04 %TO.N,GND@% jlc*
X165900000Y-95375000D03*
G04 %TD@% jlc*
D13*
G04 %TO.P,R11,1@% jlc*
G04 %TO.N,/1.9V@% jlc*
X165900000Y-100575000D03*
G04 %TO.P,R11,2@% jlc*
G04 %TO.N,Net-(R11-Pad2)@% jlc*
X165900000Y-102225000D03*
G04 %TD@% jlc*
D20*
G04 %TO.P,J1,1,Pin_1@% jlc*
G04 %TO.N,/SCLK_5@% jlc*
X149800000Y-107000000D03*
D21*
G04 %TO.P,J1,2,Pin_2@% jlc*
G04 %TO.N,/NCS_5@% jlc*
X152340000Y-107000000D03*
G04 %TO.P,J1,3,Pin_3@% jlc*
G04 %TO.N,GND@% jlc*
X154880000Y-107000000D03*
G04 %TO.P,J1,4,Pin_4@% jlc*
G04 %TO.N,/5V@% jlc*
X157420000Y-107000000D03*
G04 %TO.P,J1,5,Pin_5@% jlc*
G04 %TO.N,GND@% jlc*
X159960000Y-107000000D03*
G04 %TO.P,J1,6,Pin_6@% jlc*
G04 %TO.N,/MOSI_5@% jlc*
X162500000Y-107000000D03*
G04 %TO.P,J1,7,Pin_7@% jlc*
G04 %TO.N,/MISO_5@% jlc*
X165040000Y-107000000D03*
G04 %TD@% jlc*
D22*
G04 %TO.P,U1,1,IN@% jlc*
G04 %TO.N,/5V@% jlc*
X155362500Y-108950000D03*
G04 %TO.P,U1,2,GND@% jlc*
G04 %TO.N,GND@% jlc*
X155362500Y-109900000D03*
G04 %TO.P,U1,3,EN@% jlc*
G04 %TO.N,/5V@% jlc*
X155362500Y-110850000D03*
G04 %TO.P,U1,4,FB@% jlc*
G04 %TO.N,Net-(C3-Pad2)@% jlc*
X157637500Y-110850000D03*
G04 %TO.P,U1,5,OUT@% jlc*
G04 %TO.N,/1.9V@% jlc*
X157637500Y-108950000D03*
G04 %TD@% jlc*
D19*
G04 %TO.P,C4,1@% jlc*
G04 %TO.N,/1.9V@% jlc*
X166675000Y-105100000D03*
G04 %TO.P,C4,2@% jlc*
G04 %TO.N,GND@% jlc*
X165125000Y-105100000D03*
G04 %TD@% jlc*
D23*
G04 %TO.P,U4,1,NC@% jlc*
G04 %TO.N,unconnected-(U4-Pad1)@% jlc*
X162750000Y-88110000D03*
D24*
G04 %TO.P,U4,2,NC@% jlc*
G04 %TO.N,unconnected-(U4-Pad2)@% jlc*
X162750000Y-89890000D03*
G04 %TO.P,U4,3,VDDPIX@% jlc*
G04 %TO.N,Net-(C5-Pad1)@% jlc*
X162750000Y-91670000D03*
G04 %TO.P,U4,4,VDD@% jlc*
G04 %TO.N,/1.9V@% jlc*
X162750000Y-93450000D03*
G04 %TO.P,U4,5,VDDIO@% jlc*
G04 %TO.N,Net-(R11-Pad2)@% jlc*
X162750000Y-95230000D03*
G04 %TO.P,U4,6,NC@% jlc*
G04 %TO.N,unconnected-(U4-Pad6)@% jlc*
X162750000Y-97010000D03*
G04 %TO.P,U4,7,NRESET@% jlc*
G04 %TO.N,Net-(R10-Pad2)@% jlc*
X162750000Y-98790000D03*
G04 %TO.P,U4,8,GND@% jlc*
G04 %TO.N,GND@% jlc*
X162750000Y-100570000D03*
G04 %TO.P,U4,9,MOTION@% jlc*
G04 %TO.N,unconnected-(U4-Pad9)@% jlc*
X152050000Y-101460000D03*
G04 %TO.P,U4,10,SCLK@% jlc*
G04 %TO.N,/SCLK@% jlc*
X152050000Y-99680000D03*
G04 %TO.P,U4,11,MOSI@% jlc*
G04 %TO.N,/MOSI@% jlc*
X152050000Y-97900000D03*
G04 %TO.P,U4,12,MISO@% jlc*
G04 %TO.N,/MISO@% jlc*
X152050000Y-96120000D03*
G04 %TO.P,U4,13,NCS@% jlc*
G04 %TO.N,Net-(R7-Pad2)@% jlc*
X152050000Y-94340000D03*
G04 %TO.P,U4,14,NC@% jlc*
G04 %TO.N,unconnected-(U4-Pad14)@% jlc*
X152050000Y-92560000D03*
G04 %TO.P,U4,15,LED_P@% jlc*
G04 %TO.N,Net-(R8-Pad2)@% jlc*
X152050000Y-90780000D03*
G04 %TO.P,U4,16,NC@% jlc*
G04 %TO.N,unconnected-(U4-Pad16)@% jlc*
X152050000Y-89000000D03*
G04 %TD@% jlc*
D25*
G04 %TO.N,/5V@% jlc*
X160700000Y-105500000D03*
X151800000Y-108400000D03*
X154175500Y-105200000D03*
G04 %TO.N,GND@% jlc*
X160700000Y-104600000D03*
X149394008Y-109974011D03*
G04 %TO.N,/NCS_5@% jlc*
X148500000Y-104600000D03*
G04 %TO.N,Net-(R8-Pad2)@% jlc*
X150292701Y-93607299D03*
G04 %TO.N,Net-(R11-Pad2)@% jlc*
X166800000Y-99700000D03*
G04 %TO.N,/SCLK@% jlc*
X149750500Y-108400000D03*
G04 %TO.N,/MISO@% jlc*
X166920905Y-108087910D03*
G04 %TO.N,/MOSI@% jlc*
X163150500Y-108800000D03*
G04 %TD@% jlc*
D26*
G04 %TO.N,/1.9V@% jlc*
X158775480Y-108375480D02*
X158950960Y-108200000D01*
X158950960Y-108200000D02*
X159680000Y-108200000D01*
X159680000Y-108200000D02*
X160380000Y-108900000D01*
X160380000Y-108900000D02*
X160380000Y-109870000D01*
X160380000Y-109870000D02*
X160410000Y-109900000D01*
G04 %TO.N,Net-(C3-Pad2)@% jlc*
X159420000Y-108900000D02*
X159420000Y-109870000D01*
X159420000Y-109870000D02*
X159390000Y-109900000D01*
G04 %TO.N,GND@% jlc*
X160410000Y-110900000D02*
X161010000Y-111500000D01*
X161010000Y-111500000D02*
X161425000Y-111500000D01*
X161425000Y-111500000D02*
X162200000Y-110725000D01*
X153000000Y-110725000D02*
X153000000Y-111100000D01*
X153000000Y-111100000D02*
X153419520Y-111519520D01*
X153419520Y-111519520D02*
X159790480Y-111519520D01*
X159790480Y-111519520D02*
X160410000Y-110900000D01*
G04 %TO.N,Net-(C3-Pad2)@% jlc*
X158800000Y-109900000D02*
X158800000Y-110300000D01*
X158800000Y-110300000D02*
X158800000Y-110900000D01*
X157637500Y-110850000D02*
X158250000Y-110850000D01*
X158250000Y-110850000D02*
X158800000Y-110300000D01*
X159390000Y-109900000D02*
X158800000Y-109900000D01*
X158800000Y-110900000D02*
X159390000Y-110900000D01*
G04 %TO.N,GND@% jlc*
X149394008Y-109974011D02*
X149394008Y-110758036D01*
X149394008Y-110758036D02*
X150135972Y-111500000D01*
X150135972Y-111500000D02*
X152665000Y-111500000D01*
X152665000Y-111500000D02*
X153000000Y-111165000D01*
G04 %TO.N,Net-(R10-Pad2)@% jlc*
X149800000Y-100650000D02*
X149800000Y-101400000D01*
X149800000Y-101400000D02*
X151749520Y-103349520D01*
X151749520Y-103349520D02*
X162050480Y-103349520D01*
X162050480Y-103349520D02*
X163900000Y-101500000D01*
X163900000Y-101500000D02*
X163900000Y-99940000D01*
X163900000Y-99940000D02*
X162750000Y-98790000D01*
G04 %TO.N,GND@% jlc*
X155362500Y-109900000D02*
X154000000Y-109900000D01*
X154000000Y-109900000D02*
X153825000Y-109900000D01*
X154880000Y-107000000D02*
X154000000Y-107880000D01*
X154000000Y-107880000D02*
X154000000Y-109900000D01*
X153825000Y-109900000D02*
X153000000Y-110725000D01*
G04 %TO.N,/1.9V@% jlc*
X153000000Y-109075000D02*
X153000000Y-109200000D01*
X153000000Y-109200000D02*
X151950000Y-110250000D01*
X151950000Y-110250000D02*
X151150000Y-110250000D01*
G04 %TO.N,/5V@% jlc*
X151800000Y-108400000D02*
X151849511Y-108449511D01*
X151849511Y-109699511D02*
X151799022Y-109750000D01*
X151849511Y-108449511D02*
X151849511Y-109699511D01*
X151799022Y-109750000D02*
X151150000Y-109750000D01*
G04 %TO.N,GND@% jlc*
X162200000Y-110725000D02*
X162974030Y-111499030D01*
X162974030Y-111499030D02*
X167100970Y-111499030D01*
G04 %TO.N,/1.9V@% jlc*
X163850000Y-109650000D02*
X163150000Y-109650000D01*
X162575000Y-109075000D02*
X162200000Y-109075000D01*
X163150000Y-109650000D02*
X162575000Y-109075000D01*
X160380000Y-109000000D02*
X162125000Y-109000000D01*
X162125000Y-109000000D02*
X162200000Y-109075000D01*
G04 %TO.N,/MOSI@% jlc*
X163150500Y-108800000D02*
X163500500Y-109150000D01*
X163500500Y-109150000D02*
X163850000Y-109150000D01*
G04 %TO.N,/5V@% jlc*
X156324520Y-110475480D02*
X155950000Y-110850000D01*
X160700000Y-105500000D02*
X161125000Y-105500000D01*
X163150489Y-111099511D02*
X164614517Y-111099511D01*
X163150489Y-110200489D02*
X163150489Y-111099511D01*
X163100000Y-105900000D02*
X162849511Y-105900000D01*
X162049511Y-105100000D02*
X161725000Y-105100000D01*
X156324520Y-109563803D02*
X156324520Y-110475480D01*
X155362500Y-108950000D02*
X155710717Y-108950000D01*
X163700000Y-106500000D02*
X163100000Y-105900000D01*
X163850000Y-110150000D02*
X163200978Y-110150000D01*
X155950000Y-110850000D02*
X155362500Y-110850000D01*
X164614517Y-111099511D02*
X164949031Y-110764997D01*
X153175000Y-105200000D02*
X153075000Y-105100000D01*
X164949031Y-108549031D02*
X163700000Y-107300000D01*
X161125000Y-105500000D02*
X161925000Y-104700000D01*
X163200978Y-110150000D02*
X163150489Y-110200489D01*
X155710717Y-108950000D02*
X156324520Y-109563803D01*
X162849511Y-105900000D02*
X162049511Y-105100000D01*
X163700000Y-107300000D02*
X163700000Y-106500000D01*
X154175500Y-105200000D02*
X153175000Y-105200000D01*
X164949031Y-110764997D02*
X164949031Y-108549031D01*
X157420000Y-107000000D02*
X155370000Y-109050000D01*
G04 %TO.N,GND@% jlc*
X148650489Y-108350489D02*
X149400000Y-109100000D01*
X164800000Y-96475000D02*
X164800000Y-97675000D01*
X148050000Y-109750000D02*
X149169997Y-109750000D01*
X167664028Y-110150000D02*
X168050480Y-109763548D01*
X168050480Y-109763548D02*
X168050480Y-99657737D01*
X149169997Y-109750000D02*
X149394008Y-109974011D01*
X149400000Y-109100000D02*
X149400000Y-109968019D01*
X162142264Y-104300481D02*
X162941783Y-105100000D01*
X149400978Y-105100000D02*
X148650489Y-105850489D01*
X163275000Y-105100000D02*
X165125000Y-105100000D01*
X164800000Y-97675000D02*
X165900000Y-98775000D01*
X148650489Y-105850489D02*
X148650489Y-108350489D01*
X168050480Y-99657737D02*
X167167743Y-98775000D01*
X149400000Y-109968019D02*
X149394008Y-109974011D01*
X166950000Y-110150000D02*
X167664028Y-110150000D01*
X160999519Y-104300481D02*
X162142264Y-104300481D01*
X167100970Y-111499030D02*
X167649511Y-110950489D01*
X151525000Y-105100000D02*
X149400978Y-105100000D01*
X162941783Y-105100000D02*
X163275000Y-105100000D01*
X165900000Y-95375000D02*
X164800000Y-96475000D01*
X167167743Y-98775000D02*
X165900000Y-98775000D01*
X167649511Y-110200489D02*
X167599022Y-110150000D01*
X167649511Y-110950489D02*
X167649511Y-110200489D01*
X160700000Y-104600000D02*
X160999519Y-104300481D01*
X167599022Y-110150000D02*
X166950000Y-110150000D01*
G04 %TO.N,/1.9V@% jlc*
X148000000Y-101425000D02*
X148000000Y-99325000D01*
X147225490Y-103999510D02*
X147225490Y-110074512D01*
X157637500Y-108950000D02*
X158200960Y-108950000D01*
X165100480Y-101374520D02*
X165100480Y-103586450D01*
X166675000Y-105100000D02*
X166675000Y-105195000D01*
X165900000Y-100575000D02*
X165100480Y-101374520D01*
X148000000Y-99325000D02*
X148900000Y-98425000D01*
X162750000Y-93450000D02*
X163850000Y-93450000D01*
X167649511Y-109599511D02*
X167649511Y-106169511D01*
X164785969Y-103900961D02*
X159599039Y-103900961D01*
X154500000Y-105700000D02*
X157800000Y-105700000D01*
X165100480Y-103586450D02*
X165086930Y-103600000D01*
X166586930Y-105100000D02*
X165086930Y-103600000D01*
X153514511Y-108275489D02*
X153514511Y-106685489D01*
X154900000Y-104300000D02*
X154900000Y-105700000D01*
X164300000Y-93900000D02*
X164300000Y-98975000D01*
X159599039Y-103900961D02*
X157800000Y-105700000D01*
X147225490Y-110074512D02*
X147400978Y-110250000D01*
X166950000Y-109650000D02*
X167599022Y-109650000D01*
X148900000Y-102325000D02*
X148000000Y-101425000D01*
X164300000Y-93900000D02*
X165825000Y-93900000D01*
X166675000Y-105100000D02*
X166586930Y-105100000D01*
X153514511Y-106685489D02*
X154500000Y-105700000D01*
X148900000Y-103200000D02*
X148900000Y-102325000D01*
X165825000Y-93900000D02*
X165900000Y-93825000D01*
X153000000Y-108790000D02*
X153514511Y-108275489D01*
X157800000Y-105700000D02*
X158775480Y-106675480D01*
X148900000Y-103200000D02*
X149700000Y-104000000D01*
X163850000Y-93450000D02*
X164300000Y-93900000D01*
X147400978Y-110250000D02*
X148050000Y-110250000D01*
X148900000Y-102325000D02*
X147225490Y-103999510D01*
X158200960Y-108950000D02*
X158775480Y-108375480D01*
X166675000Y-105195000D02*
X167649511Y-106169511D01*
X165086930Y-103600000D02*
X164785969Y-103900961D01*
X167599022Y-109650000D02*
X167649511Y-109599511D01*
X158775480Y-106675480D02*
X158775480Y-108375480D01*
X149700000Y-104000000D02*
X154600000Y-104000000D01*
X154600000Y-104000000D02*
X154900000Y-104300000D01*
X164300000Y-98975000D02*
X165900000Y-100575000D01*
G04 %TO.N,Net-(C5-Pad1)@% jlc*
X163170000Y-91670000D02*
X162750000Y-91670000D01*
X163450000Y-91950000D02*
X163170000Y-91670000D01*
X165900000Y-91950000D02*
X163450000Y-91950000D01*
X166699520Y-96425480D02*
X166699520Y-92749520D01*
X165900000Y-97225000D02*
X166699520Y-96425480D01*
X166699520Y-92749520D02*
X165900000Y-91950000D01*
G04 %TO.N,/SCLK_5@% jlc*
X151150000Y-108350000D02*
X149800000Y-107000000D01*
X151150000Y-109250000D02*
X151150000Y-108350000D01*
G04 %TO.N,/NCS_5@% jlc*
X147625009Y-105474991D02*
X147625009Y-108825009D01*
X147625009Y-108825009D02*
X148050000Y-109250000D01*
X148500000Y-104600000D02*
X147625009Y-105474991D01*
G04 %TO.N,/MOSI_5@% jlc*
X164524022Y-108700000D02*
X164549511Y-108725489D01*
X164499022Y-110650000D02*
X163850000Y-110650000D01*
X164549511Y-110599511D02*
X164499022Y-110650000D01*
X164549511Y-108725489D02*
X164549511Y-110599511D01*
X162500000Y-107000000D02*
X164200000Y-108700000D01*
X164200000Y-108700000D02*
X164524022Y-108700000D01*
G04 %TO.N,/MISO_5@% jlc*
X166200000Y-110549022D02*
X166200000Y-108160000D01*
X166950000Y-110650000D02*
X166300978Y-110650000D01*
X165040000Y-107000000D02*
X166200000Y-108160000D01*
X166300978Y-110650000D02*
X166200000Y-110549022D01*
G04 %TO.N,/NCS@% jlc*
X148050000Y-110750000D02*
X147035972Y-110750000D01*
X148900000Y-92875000D02*
X148900000Y-90625000D01*
X146775970Y-94999030D02*
X148900000Y-92875000D01*
X147035972Y-110750000D02*
X146775970Y-110489998D01*
X146775970Y-110489998D02*
X146775970Y-94999030D01*
G04 %TO.N,Net-(R7-Pad2)@% jlc*
X148975000Y-88975000D02*
X149800000Y-89800000D01*
X149800000Y-89800000D02*
X149800000Y-92090000D01*
X148900000Y-88975000D02*
X148975000Y-88975000D01*
X149800000Y-92090000D02*
X152050000Y-94340000D01*
G04 %TO.N,Net-(R8-Pad2)@% jlc*
X148900000Y-96775000D02*
X150292701Y-95382299D01*
X150292701Y-95382299D02*
X150292701Y-93607299D01*
G04 %TO.N,Net-(R10-Pad2)@% jlc*
X148900000Y-100675000D02*
X149775000Y-100675000D01*
X149800000Y-100650000D02*
X149775000Y-100675000D01*
X148900000Y-94525000D02*
X148000000Y-95425000D01*
X148000000Y-97100000D02*
X148600480Y-97700480D01*
X148600480Y-97700480D02*
X149400480Y-97700480D01*
X149400480Y-97700480D02*
X149800000Y-98100000D01*
X149800000Y-98100000D02*
X149800000Y-100650000D01*
X148000000Y-95425000D02*
X148000000Y-97100000D01*
G04 %TO.N,Net-(R11-Pad2)@% jlc*
X166800000Y-101325000D02*
X165900000Y-102225000D01*
X166800000Y-99700000D02*
X166800000Y-101325000D01*
G04 %TO.N,/SCLK@% jlc*
X150450489Y-109099989D02*
X150450489Y-110699511D01*
X150450489Y-110699511D02*
X150500978Y-110750000D01*
X150500978Y-110750000D02*
X151150000Y-110750000D01*
X149750500Y-108400000D02*
X150450489Y-109099989D01*
G04 %TO.N,/MISO@% jlc*
X166920905Y-108087910D02*
X166920905Y-109120905D01*
X166920905Y-109120905D02*
X166950000Y-109150000D01*
G04 %TD@% jlc*
G04 %TA.AperFunction,Conductor@% jlc*
G04 %TO.N,GND@% jlc*
G36*
X149135250Y-108864171D02*
G01*
X149167597Y-108888350D01*
X149263955Y-108988132D01*
X149269851Y-108991990D01*
X149366573Y-109055283D01*
X149406346Y-109081310D01*
X149412950Y-109083766D01*
X149412952Y-109083767D01*
X149559231Y-109138168D01*
X149559233Y-109138169D01*
X149565841Y-109140626D01*
X149572826Y-109141558D01*
X149572830Y-109141559D01*
X149593210Y-109144278D01*
X149598270Y-109144953D01*
X149663147Y-109173788D01*
X149670701Y-109180750D01*
X149805084Y-109315132D01*
X149839109Y-109377444D01*
X149841989Y-109404228D01*
X149841989Y-110651375D01*
X149840911Y-110667818D01*
X149836739Y-110699511D01*
X149841989Y-110739391D01*
X149841989Y-110739396D01*
X149847536Y-110781524D01*
X149851087Y-110808498D01*
X149851087Y-110808500D01*
X149856305Y-110848134D01*
X149857651Y-110858362D01*
X149918965Y-111006387D01*
X149923992Y-111012938D01*
X149923993Y-111012940D01*
X149992009Y-111101580D01*
X149992015Y-111101586D01*
X150016502Y-111133498D01*
X150023052Y-111138524D01*
X150023057Y-111138529D01*
X150031912Y-111145324D01*
X150055165Y-111168577D01*
X150061960Y-111177432D01*
X150061965Y-111177437D01*
X150066991Y-111183987D01*
X150098903Y-111208474D01*
X150098906Y-111208477D01*
X150170745Y-111263601D01*
X150173269Y-111265538D01*
X150215136Y-111322876D01*
X150219358Y-111393747D01*
X150184594Y-111455650D01*
X150121881Y-111488931D01*
X150096565Y-111491500D01*
X148886941Y-111491500D01*
X148818820Y-111471498D01*
X148772327Y-111417842D01*
X148762223Y-111347568D01*
X148791717Y-111282988D01*
X148800005Y-111275266D01*
X148799731Y-111274992D01*
X148806081Y-111268642D01*
X148813261Y-111263261D01*
X148900615Y-111146705D01*
X148951745Y-111010316D01*
X148958500Y-110948134D01*
X148958500Y-110551866D01*
X148954344Y-110513606D01*
X148954344Y-110486393D01*
X148954763Y-110482541D01*
X148956016Y-110471000D01*
X148958131Y-110451533D01*
X148958131Y-110451529D01*
X148958500Y-110448134D01*
X148958500Y-110051866D01*
X148954091Y-110011280D01*
X148954091Y-109984067D01*
X148957631Y-109951483D01*
X148958000Y-109944672D01*
X148958000Y-109918115D01*
X148953525Y-109902876D01*
X148927830Y-109880611D01*
X148928288Y-109880082D01*
X148915900Y-109873318D01*
X148900792Y-109853160D01*
X148900614Y-109853294D01*
X148879832Y-109825564D01*
X148854985Y-109759057D01*
X148870039Y-109689675D01*
X148879832Y-109674436D01*
X148895231Y-109653889D01*
X148900614Y-109646706D01*
X148900903Y-109646922D01*
X148947065Y-109600861D01*
X148952418Y-109598647D01*
X148956328Y-109594135D01*
X148957999Y-109586452D01*
X148957999Y-109555330D01*
X148957630Y-109548509D01*
X148954091Y-109515930D01*
X148954091Y-109488716D01*
X148958131Y-109451528D01*
X148958500Y-109448134D01*
X148958500Y-109051866D01*
X148951745Y-108989684D01*
X148955192Y-108989310D01*
X148958096Y-108934080D01*
X148999563Y-108876452D01*
X149065604Y-108850391D01*
X149135250Y-108864171D01*
G37*
G04 %TD.AperFunction@% jlc*
G04 %TA.AperFunction,Conductor@% jlc*
G36*
X162396121Y-110491002D02*
G01*
X162442614Y-110544658D01*
X162454000Y-110597000D01*
X162454000Y-110853000D01*
X162433998Y-110921121D01*
X162380342Y-110967614D01*
X162328000Y-110979000D01*
X161246115Y-110979000D01*
X161230876Y-110983475D01*
X161229671Y-110984865D01*
X161228000Y-110992548D01*
X161228000Y-111028000D01*
X161207998Y-111096121D01*
X161154342Y-111142614D01*
X161102000Y-111154000D01*
X160294500Y-111154000D01*
X160226379Y-111133998D01*
X160179886Y-111080342D01*
X160168500Y-111028001D01*
X160168500Y-110943334D01*
X160168499Y-110854500D01*
X160188501Y-110786380D01*
X160242156Y-110739887D01*
X160294499Y-110728500D01*
X160598618Y-110728499D01*
X160609988Y-110728499D01*
X160646466Y-110725629D01*
X160764548Y-110691323D01*
X160794983Y-110682481D01*
X160794985Y-110682480D01*
X160802596Y-110680269D01*
X160809421Y-110676233D01*
X160809425Y-110676231D01*
X160830873Y-110663547D01*
X160895012Y-110646000D01*
X161158885Y-110646000D01*
X161174124Y-110641525D01*
X161175329Y-110640135D01*
X161177000Y-110632452D01*
X161177000Y-110597000D01*
X161197002Y-110528879D01*
X161250658Y-110482386D01*
X161303000Y-110471000D01*
X162328000Y-110471000D01*
X162396121Y-110491002D01*
G37*
G04 %TD.AperFunction@% jlc*
G04 %TA.AperFunction,Conductor@% jlc*
G36*
X154198585Y-109269652D02*
G01*
X154228703Y-109321774D01*
X154240855Y-109363601D01*
X154244889Y-109370423D01*
X154247128Y-109375596D01*
X154255824Y-109446058D01*
X154247128Y-109475674D01*
X154239107Y-109494210D01*
X154200061Y-109628605D01*
X154200101Y-109642706D01*
X154207370Y-109646000D01*
X154445158Y-109646000D01*
X154509297Y-109663547D01*
X154586399Y-109709145D01*
X154594010Y-109711356D01*
X154594012Y-109711357D01*
X154626368Y-109720757D01*
X154746169Y-109755562D01*
X154752574Y-109756066D01*
X154752579Y-109756067D01*
X154781042Y-109758307D01*
X154781050Y-109758307D01*
X154783498Y-109758500D01*
X155490500Y-109758500D01*
X155558621Y-109778502D01*
X155605114Y-109832158D01*
X155616500Y-109884500D01*
X155616500Y-109915500D01*
X155596498Y-109983621D01*
X155542842Y-110030114D01*
X155490500Y-110041500D01*
X154783498Y-110041500D01*
X154781050Y-110041693D01*
X154781042Y-110041693D01*
X154752579Y-110043933D01*
X154752574Y-110043934D01*
X154746169Y-110044438D01*
X154646231Y-110073472D01*
X154594012Y-110088643D01*
X154594010Y-110088644D01*
X154586399Y-110090855D01*
X154579572Y-110094892D01*
X154579573Y-110094892D01*
X154509297Y-110136453D01*
X154445158Y-110154000D01*
X154213122Y-110154000D01*
X154199591Y-110157973D01*
X154198456Y-110165871D01*
X154239107Y-110305790D01*
X154247128Y-110324326D01*
X154255824Y-110394788D01*
X154247128Y-110424404D01*
X154244889Y-110429577D01*
X154240855Y-110436399D01*
X154238644Y-110444010D01*
X154238643Y-110444012D01*
X154228320Y-110479544D01*
X154190107Y-110539380D01*
X154125610Y-110569057D01*
X154055308Y-110559153D01*
X154001520Y-110512814D01*
X153981851Y-110455918D01*
X153976869Y-110401686D01*
X153974257Y-110388649D01*
X153927285Y-110238757D01*
X153921079Y-110225012D01*
X153840176Y-110091426D01*
X153830869Y-110079557D01*
X153740761Y-109989449D01*
X153706735Y-109927137D01*
X153711800Y-109856322D01*
X153740761Y-109811259D01*
X153836639Y-109715381D01*
X153925472Y-109568699D01*
X153976753Y-109405062D01*
X153982235Y-109345398D01*
X154008385Y-109279394D01*
X154066070Y-109238005D01*
X154136974Y-109234373D01*
X154198585Y-109269652D01*
G37*
G04 %TD.AperFunction@% jlc*
G04 %TA.AperFunction,Conductor@% jlc*
G36*
X148442021Y-107987309D02*
G01*
X148477491Y-108038303D01*
X148499385Y-108096705D01*
X148586739Y-108213261D01*
X148703295Y-108300615D01*
X148839684Y-108351745D01*
X148883339Y-108356487D01*
X148948900Y-108383728D01*
X148989327Y-108442091D01*
X148995130Y-108469454D01*
X149003881Y-108558699D01*
X149020301Y-108608060D01*
X149022823Y-108679009D01*
X148986586Y-108740062D01*
X148923094Y-108771831D01*
X148852505Y-108764230D01*
X148815158Y-108739271D01*
X148813261Y-108736739D01*
X148696705Y-108649385D01*
X148560316Y-108598255D01*
X148498134Y-108591500D01*
X148359509Y-108591500D01*
X148291388Y-108571498D01*
X148244895Y-108517842D01*
X148233509Y-108465500D01*
X148233509Y-108082533D01*
X148253511Y-108014412D01*
X148307167Y-107967919D01*
X148377441Y-107957815D01*
X148442021Y-107987309D01*
G37*
G04 %TD.AperFunction@% jlc*
G04 %TA.AperFunction,Conductor@% jlc*
G36*
X149432424Y-104547803D02*
G01*
X149541149Y-104592838D01*
X149549336Y-104593916D01*
X149549337Y-104593916D01*
X149560542Y-104595391D01*
X149591738Y-104599498D01*
X149660115Y-104608500D01*
X149660118Y-104608500D01*
X149660126Y-104608501D01*
X149691811Y-104612672D01*
X149700000Y-104613750D01*
X149731693Y-104609578D01*
X149748136Y-104608500D01*
X150447184Y-104608500D01*
X150515305Y-104628502D01*
X150561798Y-104682158D01*
X150572528Y-104747342D01*
X150567328Y-104798097D01*
X150567000Y-104804514D01*
X150567000Y-104827885D01*
X150571475Y-104843124D01*
X150572865Y-104844329D01*
X150580548Y-104846000D01*
X151653000Y-104846000D01*
X151721121Y-104866002D01*
X151767614Y-104919658D01*
X151779000Y-104972000D01*
X151779000Y-105228000D01*
X151758998Y-105296121D01*
X151705342Y-105342614D01*
X151653000Y-105354000D01*
X150585115Y-105354000D01*
X150569876Y-105358475D01*
X150568671Y-105359865D01*
X150567000Y-105367548D01*
X150567000Y-105395438D01*
X150567337Y-105401953D01*
X150577606Y-105500916D01*
X150574883Y-105501199D01*
X150570609Y-105559710D01*
X150527977Y-105616482D01*
X150461419Y-105641192D01*
X150452620Y-105641500D01*
X148901866Y-105641500D01*
X148839684Y-105648255D01*
X148703295Y-105699385D01*
X148586739Y-105786739D01*
X148499385Y-105903295D01*
X148496233Y-105911703D01*
X148477491Y-105961697D01*
X148434849Y-106018461D01*
X148368288Y-106043161D01*
X148298939Y-106027954D01*
X148248821Y-105977668D01*
X148233509Y-105917467D01*
X148233509Y-105779230D01*
X148253511Y-105711109D01*
X148270414Y-105690135D01*
X148576621Y-105383928D01*
X148640382Y-105349596D01*
X148646463Y-105348348D01*
X148653483Y-105347709D01*
X148754514Y-105314882D01*
X148808623Y-105297301D01*
X148808626Y-105297300D01*
X148815322Y-105295124D01*
X148961490Y-105207990D01*
X148966584Y-105203139D01*
X148966588Y-105203136D01*
X149033833Y-105139099D01*
X149084721Y-105090639D01*
X149097439Y-105071498D01*
X149136538Y-105012648D01*
X149178891Y-104948902D01*
X149239319Y-104789825D01*
X149259436Y-104646677D01*
X149288724Y-104582004D01*
X149348327Y-104543430D01*
X149419324Y-104543205D01*
X149432424Y-104547803D01*
G37*
G04 %TD.AperFunction@% jlc*
G04 %TA.AperFunction,Conductor@% jlc*
G36*
X160562927Y-104529463D02*
G01*
X160609420Y-104583119D01*
X160619524Y-104653393D01*
X160590030Y-104717973D01*
X160535411Y-104754739D01*
X160381673Y-104807075D01*
X160381670Y-104807076D01*
X160375003Y-104809346D01*
X160369005Y-104813036D01*
X160369003Y-104813037D01*
X160236065Y-104894821D01*
X160236063Y-104894823D01*
X160230066Y-104898512D01*
X160108486Y-105017573D01*
X160104675Y-105023487D01*
X160104673Y-105023489D01*
X160060843Y-105091500D01*
X160016304Y-105160610D01*
X160013894Y-105167232D01*
X159966553Y-105297301D01*
X159958103Y-105320516D01*
X159936775Y-105489343D01*
X159937463Y-105496360D01*
X159937463Y-105496361D01*
X159938683Y-105508806D01*
X159925426Y-105578554D01*
X159876564Y-105630061D01*
X159832344Y-105645654D01*
X159649321Y-105673661D01*
X159639293Y-105676050D01*
X159436868Y-105742212D01*
X159427359Y-105746209D01*
X159238463Y-105844542D01*
X159229738Y-105850036D01*
X159077770Y-105964138D01*
X159011286Y-105989044D01*
X158941890Y-105974052D01*
X158913022Y-105952473D01*
X158749644Y-105789095D01*
X158715618Y-105726783D01*
X158720683Y-105655968D01*
X158749644Y-105610905D01*
X159814183Y-104546366D01*
X159876495Y-104512340D01*
X159903278Y-104509461D01*
X160494806Y-104509461D01*
X160562927Y-104529463D01*
G37*
G04 %TD.AperFunction@% jlc*
G04 %TA.AperFunction,Conductor@% jlc*
G36*
X167833621Y-87528502D02*
G01*
X167880114Y-87582158D01*
X167891500Y-87634500D01*
X167891500Y-105246761D01*
X167871498Y-105314882D01*
X167817842Y-105361375D01*
X167747568Y-105371479D01*
X167682988Y-105341985D01*
X167676405Y-105335856D01*
X167670405Y-105329856D01*
X167636379Y-105267544D01*
X167633500Y-105240761D01*
X167633500Y-104801268D01*
X167632997Y-104796414D01*
X167626803Y-104736720D01*
X167622887Y-104698981D01*
X167596975Y-104621313D01*
X167571073Y-104543676D01*
X167571072Y-104543674D01*
X167568756Y-104536732D01*
X167478752Y-104391287D01*
X167357702Y-104270448D01*
X167212101Y-104180698D01*
X167049757Y-104126851D01*
X167042920Y-104126151D01*
X167042918Y-104126150D01*
X167001599Y-104121917D01*
X166948732Y-104116500D01*
X166516169Y-104116500D01*
X166448048Y-104096498D01*
X166427074Y-104079595D01*
X165745885Y-103398406D01*
X165711859Y-103336094D01*
X165708980Y-103309311D01*
X165708980Y-103259500D01*
X165728982Y-103191379D01*
X165782638Y-103144886D01*
X165834980Y-103133500D01*
X166219943Y-103133499D01*
X166231634Y-103133499D01*
X166234492Y-103133236D01*
X166234501Y-103133236D01*
X166270004Y-103129974D01*
X166305062Y-103126753D01*
X166311441Y-103124754D01*
X166461450Y-103077744D01*
X166461452Y-103077743D01*
X166468699Y-103075472D01*
X166615381Y-102986639D01*
X166736639Y-102865381D01*
X166825472Y-102718699D01*
X166847503Y-102648400D01*
X166874752Y-102561446D01*
X166876753Y-102555062D01*
X166883500Y-102481635D01*
X166883499Y-102154240D01*
X166903501Y-102086120D01*
X166920404Y-102065145D01*
X167196234Y-101789315D01*
X167208625Y-101778448D01*
X167227437Y-101764013D01*
X167233987Y-101758987D01*
X167258474Y-101727075D01*
X167258480Y-101727069D01*
X167326496Y-101638429D01*
X167326497Y-101638427D01*
X167331524Y-101631876D01*
X167359903Y-101563361D01*
X167392838Y-101483850D01*
X167395336Y-101464880D01*
X167408500Y-101364885D01*
X167408500Y-101364878D01*
X167412672Y-101333188D01*
X167413750Y-101325000D01*
X167409578Y-101293307D01*
X167408500Y-101276864D01*
X167408500Y-100192890D01*
X167429552Y-100123163D01*
X167474990Y-100054773D01*
X167478891Y-100048902D01*
X167539319Y-99889825D01*
X167563001Y-99721313D01*
X167563118Y-99712964D01*
X167563244Y-99703961D01*
X167563244Y-99703955D01*
X167563299Y-99700000D01*
X167544331Y-99530892D01*
X167488368Y-99370189D01*
X167482383Y-99360610D01*
X167422694Y-99265090D01*
X167398192Y-99225879D01*
X167278286Y-99105132D01*
X167236200Y-99078423D01*
X167158321Y-99029000D01*
X167134608Y-99013951D01*
X166974300Y-98956868D01*
X166805329Y-98936720D01*
X166798326Y-98937456D01*
X166798325Y-98937456D01*
X166643101Y-98953770D01*
X166643097Y-98953771D01*
X166636093Y-98954507D01*
X166475003Y-99009346D01*
X166468999Y-99013040D01*
X166462632Y-99016036D01*
X166461524Y-99013682D01*
X166407403Y-99029000D01*
X165772000Y-99029000D01*
X165703879Y-99008998D01*
X165657386Y-98955342D01*
X165646000Y-98903000D01*
X165646000Y-98647000D01*
X165666002Y-98578879D01*
X165719658Y-98532386D01*
X165772000Y-98521000D01*
X166864885Y-98521000D01*
X166880124Y-98516525D01*
X166881329Y-98515135D01*
X166883000Y-98507452D01*
X166883000Y-98504562D01*
X166882663Y-98498047D01*
X166873106Y-98405943D01*
X166870212Y-98392544D01*
X166820619Y-98243893D01*
X166814445Y-98230714D01*
X166732212Y-98097827D01*
X166718629Y-98080689D01*
X166720559Y-98079159D01*
X166692097Y-98027120D01*
X166697113Y-97956301D01*
X166720799Y-97919383D01*
X166719843Y-97918628D01*
X166724381Y-97912882D01*
X166729552Y-97907702D01*
X166734300Y-97900000D01*
X166815462Y-97768331D01*
X166815463Y-97768329D01*
X166819302Y-97762101D01*
X166873149Y-97599757D01*
X166876781Y-97564314D01*
X166879888Y-97533987D01*
X166883500Y-97498732D01*
X166883500Y-97154239D01*
X166903502Y-97086118D01*
X166920405Y-97065144D01*
X167095754Y-96889795D01*
X167108145Y-96878928D01*
X167126957Y-96864493D01*
X167133507Y-96859467D01*
X167157994Y-96827555D01*
X167158000Y-96827549D01*
X167226016Y-96738909D01*
X167226017Y-96738907D01*
X167231044Y-96732356D01*
X167271808Y-96633943D01*
X167289199Y-96591958D01*
X167289199Y-96591957D01*
X167292358Y-96584331D01*
X167296340Y-96554080D01*
X167308020Y-96465365D01*
X167308020Y-96465360D01*
X167313270Y-96425480D01*
X167309098Y-96393787D01*
X167308020Y-96377344D01*
X167308020Y-92797656D01*
X167309098Y-92781210D01*
X167312192Y-92757708D01*
X167313270Y-92749520D01*
X167308020Y-92709640D01*
X167308020Y-92709635D01*
X167305369Y-92689496D01*
X167294411Y-92606261D01*
X167294410Y-92606259D01*
X167292358Y-92590670D01*
X167292358Y-92590669D01*
X167231044Y-92442644D01*
X167157997Y-92347448D01*
X167157994Y-92347445D01*
X167133507Y-92315533D01*
X167126952Y-92310503D01*
X167108141Y-92296068D01*
X167095750Y-92285201D01*
X166920405Y-92109856D01*
X166886379Y-92047544D01*
X166883500Y-92020761D01*
X166883500Y-91676268D01*
X166872887Y-91573981D01*
X166818756Y-91411732D01*
X166728752Y-91266287D01*
X166723570Y-91261114D01*
X166719023Y-91255377D01*
X166720830Y-91253945D01*
X166692098Y-91201425D01*
X166697108Y-91130605D01*
X166720499Y-91094147D01*
X166719448Y-91093317D01*
X166732998Y-91076160D01*
X166815004Y-90943120D01*
X166821151Y-90929939D01*
X166870491Y-90781186D01*
X166873358Y-90767810D01*
X166882672Y-90676903D01*
X166882929Y-90671874D01*
X166878525Y-90656876D01*
X166877135Y-90655671D01*
X166869452Y-90654000D01*
X164935115Y-90654000D01*
X164919876Y-90658475D01*
X164918671Y-90659865D01*
X164917000Y-90667548D01*
X164917000Y-90670438D01*
X164917337Y-90676953D01*
X164926894Y-90769057D01*
X164929788Y-90782456D01*
X164979381Y-90931107D01*
X164985555Y-90944286D01*
X165067788Y-91077173D01*
X165081371Y-91094311D01*
X165079441Y-91095841D01*
X165107903Y-91147880D01*
X165102887Y-91218699D01*
X165079201Y-91255617D01*
X165080157Y-91256372D01*
X165075620Y-91262117D01*
X165070448Y-91267298D01*
X165066606Y-91273530D01*
X165066605Y-91273532D01*
X165061621Y-91281617D01*
X165008848Y-91329110D01*
X164954362Y-91341500D01*
X164009122Y-91341500D01*
X163941001Y-91321498D01*
X163894508Y-91267842D01*
X163891225Y-91259826D01*
X163889956Y-91255090D01*
X163861894Y-91194910D01*
X163802912Y-91068423D01*
X163802910Y-91068420D01*
X163800589Y-91063442D01*
X163679301Y-90890224D01*
X163658172Y-90869095D01*
X163624146Y-90806783D01*
X163629211Y-90735968D01*
X163658172Y-90690905D01*
X163679301Y-90669776D01*
X163800589Y-90496558D01*
X163859418Y-90370400D01*
X163887633Y-90309892D01*
X163887634Y-90309891D01*
X163889956Y-90304910D01*
X163933307Y-90143124D01*
X163937326Y-90128126D01*
X164917071Y-90128126D01*
X164921475Y-90143124D01*
X164922865Y-90144329D01*
X164930548Y-90146000D01*
X165627885Y-90146000D01*
X165643124Y-90141525D01*
X165644329Y-90140135D01*
X165646000Y-90132452D01*
X165646000Y-90127885D01*
X166154000Y-90127885D01*
X166158475Y-90143124D01*
X166159865Y-90144329D01*
X166167548Y-90146000D01*
X166864885Y-90146000D01*
X166880124Y-90141525D01*
X166881329Y-90140135D01*
X166883000Y-90132452D01*
X166883000Y-90129562D01*
X166882663Y-90123047D01*
X166873106Y-90030943D01*
X166870212Y-90017544D01*
X166820619Y-89868893D01*
X166814445Y-89855714D01*
X166732212Y-89722827D01*
X166723176Y-89711426D01*
X166612571Y-89601014D01*
X166601160Y-89592002D01*
X166468120Y-89509996D01*
X166454939Y-89503849D01*
X166306186Y-89454509D01*
X166292810Y-89451642D01*
X166201903Y-89442328D01*
X166195486Y-89442000D01*
X166172115Y-89442000D01*
X166156876Y-89446475D01*
X166155671Y-89447865D01*
X166154000Y-89455548D01*
X166154000Y-90127885D01*
X165646000Y-90127885D01*
X165646000Y-89460115D01*
X165641525Y-89444876D01*
X165640135Y-89443671D01*
X165632452Y-89442000D01*
X165604562Y-89442000D01*
X165598047Y-89442337D01*
X165505943Y-89451894D01*
X165492544Y-89454788D01*
X165343893Y-89504381D01*
X165330714Y-89510555D01*
X165197827Y-89592788D01*
X165186426Y-89601824D01*
X165076014Y-89712429D01*
X165067002Y-89723840D01*
X164984996Y-89856880D01*
X164978849Y-89870061D01*
X164929509Y-90018814D01*
X164926642Y-90032190D01*
X164917328Y-90123097D01*
X164917071Y-90128126D01*
X163937326Y-90128126D01*
X163943262Y-90105970D01*
X163943262Y-90105968D01*
X163944686Y-90100655D01*
X163963116Y-89890000D01*
X163944686Y-89679345D01*
X163934452Y-89641150D01*
X163891379Y-89480400D01*
X163891378Y-89480398D01*
X163889956Y-89475090D01*
X163880844Y-89455548D01*
X163842148Y-89372565D01*
X163805678Y-89294355D01*
X163795017Y-89224165D01*
X163819047Y-89165541D01*
X163895229Y-89063891D01*
X163900615Y-89056705D01*
X163951745Y-88920316D01*
X163958500Y-88858134D01*
X163958500Y-87634500D01*
X163978502Y-87566379D01*
X164032158Y-87519886D01*
X164084500Y-87508500D01*
X167765500Y-87508500D01*
X167833621Y-87528502D01*
G37*
G04 %TD.AperFunction@% jlc*
G04 %TA.AperFunction,Conductor@% jlc*
G36*
X165321121Y-104866002D02*
G01*
X165367614Y-104919658D01*
X165379000Y-104972000D01*
X165379000Y-105228000D01*
X165358998Y-105296121D01*
X165305342Y-105342614D01*
X165253000Y-105354000D01*
X163396991Y-105354000D01*
X163348773Y-105344409D01*
X163258851Y-105307162D01*
X163250664Y-105306084D01*
X163250663Y-105306084D01*
X163239458Y-105304609D01*
X163139932Y-105291506D01*
X163139925Y-105291505D01*
X163139885Y-105291500D01*
X163139880Y-105291500D01*
X163138165Y-105291274D01*
X163073237Y-105262559D01*
X163065506Y-105255446D01*
X163057905Y-105247845D01*
X163023879Y-105185533D01*
X163021000Y-105158750D01*
X163021000Y-104972000D01*
X163041002Y-104903879D01*
X163094658Y-104857386D01*
X163147000Y-104846000D01*
X165253000Y-104846000D01*
X165321121Y-104866002D01*
G37*
G04 %TD.AperFunction@% jlc*
G04 %TD@% jlc*
M02*
