G04 %TF.GenerationSoftware,KiCad,Pcbnew,(6.0.4-0)@% jlc*
G04 %TF.CreationDate,2022-06-11T07:19:30+09:00@% jlc*
G04 %TF.ProjectId,KeyBall,4b657942-616c-46c2-9e6b-696361645f70,rev?@% jlc*
G04 %TF.SameCoordinates,Original@% jlc*
G04 %TF.FileFunction,Paste,Top@% jlc*
G04 %TF.FilePolarity,Positive@% jlc*
%FSLAX46Y46*%
G04 Gerber Fmt 4.6, Leading zero omitted, Abs format (unit mm)*
G04 Created by KiCad (PCBNEW (6.0.4-0)) date 2022-06-11 07:19:30*
%MOMM*%
%LPD*%
G01*
G04 APERTURE LIST*
G04 Aperture macros list*
%AMRoundRect*
0 Rectangle with rounded corners*
0 $1 Rounding radius*
0 $2 $3 $4 $5 $6 $7 $8 $9 X,Y pos of 4 corners*
0 Add a 4 corners polygon primitive as box body*
4,1,4,$2,$3,$4,$5,$6,$7,$8,$9,$2,$3,0*
0 Add four circle primitives for the rounded corners*
1,1,$1+$1,$2,$3*
1,1,$1+$1,$4,$5*
1,1,$1+$1,$6,$7*
1,1,$1+$1,$8,$9*
0 Add four rect primitives between the rounded corners*
20,1,$1+$1,$2,$3,$4,$5,0*
20,1,$1+$1,$4,$5,$6,$7,0*
20,1,$1+$1,$6,$7,$8,$9,0*
20,1,$1+$1,$8,$9,$2,$3,0*%
G04 Aperture macros list end*
%ADD10RoundRect,0.140000X0.140000X0.170000X-0.140000X0.170000X-0.140000X-0.170000X0.140000X-0.170000X0*%
%ADD11RoundRect,0.135000X-0.135000X-0.185000X0.135000X-0.185000X0.135000X0.185000X-0.135000X0.185000X0*%
%ADD12RoundRect,0.135000X0.135000X0.185000X-0.135000X0.185000X-0.135000X-0.185000X0.135000X-0.185000X0*%
%ADD13RoundRect,0.200000X-0.275000X0.200000X-0.275000X-0.200000X0.275000X-0.200000X0.275000X0.200000X0*%
%ADD14RoundRect,0.225000X-0.250000X0.225000X-0.250000X-0.225000X0.250000X-0.225000X0.250000X0.225000X0*%
%ADD15R,0.800000X0.300000*%
%ADD16RoundRect,0.200000X0.275000X-0.200000X0.275000X0.200000X-0.275000X0.200000X-0.275000X-0.200000X0*%
%ADD17RoundRect,0.225000X0.250000X-0.225000X0.250000X0.225000X-0.250000X0.225000X-0.250000X-0.225000X0*%
%ADD18RoundRect,0.225000X-0.225000X-0.250000X0.225000X-0.250000X0.225000X0.250000X-0.225000X0.250000X0*%
%ADD19RoundRect,0.225000X0.225000X0.250000X-0.225000X0.250000X-0.225000X-0.250000X0.225000X-0.250000X0*%
%ADD20RoundRect,0.150000X-0.512500X-0.150000X0.512500X-0.150000X0.512500X0.150000X-0.512500X0.150000X0*%
G04 APERTURE END LIST*
D10*
G04 %TO.C,C3@% jlc*
X160380000Y-108900000D03*
X159420000Y-108900000D03*
G04 %TD@% jlc*
D11*
G04 %TO.C,R2@% jlc*
X159390000Y-110900000D03*
X160410000Y-110900000D03*
G04 %TD@% jlc*
D12*
G04 %TO.C,R1@% jlc*
X160410000Y-109900000D03*
X159390000Y-109900000D03*
G04 %TD@% jlc*
D13*
G04 %TO.C,R6@% jlc*
X162200000Y-109075000D03*
X162200000Y-110725000D03*
G04 %TD@% jlc*
G04 %TO.C,R4@% jlc*
X153000000Y-109075000D03*
X153000000Y-110725000D03*
G04 %TD@% jlc*
D14*
G04 %TO.C,C6@% jlc*
X165900000Y-97225000D03*
X165900000Y-98775000D03*
G04 %TD@% jlc*
D15*
G04 %TO.C,U2@% jlc*
X148050000Y-109250000D03*
X148050000Y-109750000D03*
X148050000Y-110250000D03*
X148050000Y-110750000D03*
X151150000Y-110750000D03*
X151150000Y-110250000D03*
X151150000Y-109750000D03*
X151150000Y-109250000D03*
G04 %TD@% jlc*
D16*
G04 %TO.C,R8@% jlc*
X148900000Y-98425000D03*
X148900000Y-96775000D03*
G04 %TD@% jlc*
D17*
G04 %TO.C,C5@% jlc*
X165900000Y-91950000D03*
X165900000Y-90400000D03*
G04 %TD@% jlc*
D18*
G04 %TO.C,C2@% jlc*
X161725000Y-105100000D03*
X163275000Y-105100000D03*
G04 %TD@% jlc*
D13*
G04 %TO.C,R9@% jlc*
X148900000Y-92875000D03*
X148900000Y-94525000D03*
G04 %TD@% jlc*
D19*
G04 %TO.C,C1@% jlc*
X153075000Y-105100000D03*
X151525000Y-105100000D03*
G04 %TD@% jlc*
D15*
G04 %TO.C,U3@% jlc*
X166950000Y-110650000D03*
X166950000Y-110150000D03*
X166950000Y-109650000D03*
X166950000Y-109150000D03*
X163850000Y-109150000D03*
X163850000Y-109650000D03*
X163850000Y-110150000D03*
X163850000Y-110650000D03*
G04 %TD@% jlc*
D16*
G04 %TO.C,R7@% jlc*
X148900000Y-90625000D03*
X148900000Y-88975000D03*
G04 %TD@% jlc*
G04 %TO.C,R10@% jlc*
X148900000Y-102325000D03*
X148900000Y-100675000D03*
G04 %TD@% jlc*
D14*
G04 %TO.C,C7@% jlc*
X165900000Y-93825000D03*
X165900000Y-95375000D03*
G04 %TD@% jlc*
D13*
G04 %TO.C,R11@% jlc*
X165900000Y-100575000D03*
X165900000Y-102225000D03*
G04 %TD@% jlc*
D20*
G04 %TO.C,U1@% jlc*
X155362500Y-108950000D03*
X155362500Y-109900000D03*
X155362500Y-110850000D03*
X157637500Y-110850000D03*
X157637500Y-108950000D03*
G04 %TD@% jlc*
D19*
G04 %TO.C,C4@% jlc*
X166675000Y-105100000D03*
X165125000Y-105100000D03*
G04 %TD@% jlc*
M02*
