<?xml version="1.0" standalone="no"?>
 <!DOCTYPE svg PUBLIC "-//W3C//DTD SVG 1.1//EN" 
 "http://www.w3.org/Graphics/SVG/1.1/DTD/svg11.dtd"> 
<svg
  xmlns:svg="http://www.w3.org/2000/svg"
  xmlns="http://www.w3.org/2000/svg"
  xmlns:xlink="http://www.w3.org/1999/xlink"
  version="1.1"
  width="16.068040cm" height="15.102840cm" viewBox="0 0 160680400 151028400">
<title>SVG Picture created as KB62_R_rev1-Edge_Cuts.svg date 2022/08/29 14:06:01 </title>
  <desc>Picture generated by PCBNEW </desc>
<g style="fill:#000000; fill-opacity:1.000000;stroke:#000000; stroke-opacity:1.000000;
stroke-linecap:round; stroke-linejoin:round;"
 transform="translate(0 0) scale(1 1)">
</g>
<g style="fill:#000000; fill-opacity:0.0; 
stroke:#000000; stroke-width:0.000000; stroke-opacity:1; 
stroke-linecap:round; stroke-linejoin:round;">
</g>
<g style="fill:#000000; fill-opacity:0.0; 
stroke:#000000; stroke-width:50000.000000; stroke-opacity:1; 
stroke-linecap:round; stroke-linejoin:round;">
<path d="M100694679.767616 102102089.959243 A1999989.000000 1999989.000000 0.0 0 0 102316559.758810 104417063.023586" />
<path d="M129516350 5525000
L129516350 12525000
" />
<path d="M56978970 80225000
L56978970 79725000
" />
<path d="M102316560 104417060
L119428920 107441230
" />
<path d="M127482890 110313852
L140595508 133025575
" />
<path d="M140595508.000113 150025575.000000 A999992.000000 999992.000000 0.0 0 0 141595508.000056 151025581.999968" />
<path d="M19070400 105975000
L46009030 105975000
" />
<path d="M133016350 5025000
L130016350 5025000
" />
<path d="M118716350.000100 12525000.000000 A500050.000000 500050.000000 0.0 0 0 119216349.996000 13025039.997500" />
<path d="M129016350 13025000
L119216350 13025000
" />
<path d="M103470399.999983 83225000.000000 A3000000.000000 3000000.000000 0.0 0 0 100470400.000000 80224990.000000" />
<path d="M58170400.000000 25000.000000 A999990.000000 999990.000000 0.0 0 0 57170410.000050 1024999.999900" />
<path d="M157916016 123025575
L160655400 133025575
" />
<path d="M94270400 4025000
L94270400 3525000
" />
<path d="M38120400 5725000
L38120400 10725000
" />
<path d="M140595508 133025575
L140595508 150025575
" />
<path d="M75220400.000050 1525000.000000 A1000000.000000 1000000.000000 0.0 0 0 76220400.000000 2524990.000000" />
<path d="M57978970.000000 78725000.000450 A999990.000000 999990.000000 0.0 0 0 56979010.000050 79724999.999600" />
<path d="M47509030.000000 81225000.000450 A999990.000000 999990.000000 0.0 0 0 46509010.000050 82225000.000200" />
<path d="M129016350.000000 13024999.997500 A500010.000000 500010.000000 0.0 0 0 129516309.999900 12524999.999200" />
<path d="M39120400.000000 4725000.000000 A999990.000000 999990.000000 0.0 0 0 38120410.000050 5724999.999900" />
<path d="M56170400.000000 4725000.000000 A1000010.000000 1000010.000000 0.0 0 0 57170409.999950 3725000.000100" />
<path d="M46509030 95275000
L46509030 82225000
" />
<path d="M93270400 2525000
L76220400 2525000
" />
<path d="M1020400 105975000
L19070400 105975000
" />
<path d="M46509030 105475000
L46509030 95275000
" />
<path d="M118716349.999900 5525000.000000 A500050.000000 500050.000000 0.0 0 0 118216350.006000 5024940.002500" />
<path d="M94270399.999950 3525000.000000 A1000000.000000 1000000.000000 0.0 0 0 93270400.000000 2524990.000000" />
<path d="M94270400.000050 4025000.000000 A1000000.000000 1000000.000000 0.0 0 0 95270400.000000 5024990.000000" />
<path d="M57978970 78725000
L93333910 78725000
" />
<path d="M74220400 25000
L58170400 25000
" />
<path d="M96456400 80225000
L100470400 80225000
" />
<path d="M46009030.000000 105974999.999100 A500010.000000 500010.000000 0.0 0 0 46509009.999900 105474999.999600" />
<path d="M103425300.420649 86532150.073778 A3000005.000000 3000005.000000 0.0 0 0 103470404.999733 86013930.000093" />
<path d="M160655400 150025575
L160655400 133025575
" />
<path d="M103425300 86532150
L100694680 102102090
" />
<path d="M94895160.041433 79474999.966828 A2000002.000000 2000002.000000 0.0 0 0 93333910.000060 78724988.000025" />
<path d="M142916016 97044813
L157916016 123025575
" />
<path d="M134016349.999950 6025000.000000 A1000050.000000 1000050.000000 0.0 0 0 133016350.003000 5024940.001250" />
<path d="M1020400.000000 11725000.000000 A999990.000000 999990.000000 0.0 0 0 20410.000050 12724999.999900" />
<path d="M57170400 1025000
L57170400 3725000
" />
<path d="M141595508 151025575
L159655400 151025575
" />
<path d="M103470400 83225000
L103470400 86013930
" />
<path d="M127482890 110313852
L119920400 107576380
" />
<path d="M134016350 81730290
L142916016 97035290
" />
<path d="M94895159.870749 79475000.103485 A1999999.000000 1999999.000000 0.0 0 0 96456400.000000 80224989.000000" />
<path d="M119932909.947443 107576380.144395 A3000047.000000 3000047.000000 0.0 0 0 119428920.939129 107441226.686222" />
<path d="M37120400 11725000
L19070400 11725000
" />
<path d="M20400.000050 104975000.000000 A1000000.000000 1000000.000000 0.0 0 0 1020400.000000 105974990.000000" />
<path d="M134016350 29075000
L134016350 6025000
" />
<path d="M159655400.000000 151025575.000000 A999985.000000 999985.000000 0.0 0 0 160655384.999887 150025575.000225" />
<path d="M75220399.999950 1025000.000000 A1000000.000000 1000000.000000 0.0 0 0 74220400.000000 24990.000000" />
<path d="M130016350.000000 5025000.002500 A499990.000000 499990.000000 0.0 0 0 129516410.000100 5524999.998800" />
<path d="M118716350 12525000
L118716350 5525000
" />
<path d="M20400 12725000
L20400 104975000
" />
<path d="M118216350 5025000
L95270400 5025000
" />
<path d="M19070400 11725000
L1020400 11725000
" />
<path d="M75220400 1525000
L75220400 1025000
" />
<path d="M37120400.000000 11725000.000000 A1000010.000000 1000010.000000 0.0 0 0 38120409.999950 10725000.000100" />
<path d="M55978970.000000 81224999.999550 A1000010.000000 1000010.000000 0.0 0 0 56979009.999950 80225000.000400" />
<path d="M56170400 4725000
L39120400 4725000
" />
<path d="M47509030 81225000
L55978970 81225000
" />
<path d="M134016350 65130290
L134016350 29075000
" />
<path d="M134016350 65130290
L134016350 81730290
" />
</g>
<g style="fill:#000000; fill-opacity:0.0; 
stroke:#000000; stroke-width:150000.000000; stroke-opacity:1; 
stroke-linecap:round; stroke-linejoin:round;">
<text x="131773375.000000" y="3480290.000000"
textLength="8861667.000000" font-size="1333333.000000" lengthAdjust="spacingAndGlyphs"
text-anchor="middle" opacity="0">4.4859 mm</text>
<g class="stroked-text"><desc>4.4859 mm</desc>
<path d="M135440042 2766004
L135440042 3432670
" />
<path d="M135678137 2385051
L135916233 3099337
L135297185 3099337
" />
<path d="M134916233 3337432
L134868614 3385051
L134916233 3432670
L134963852 3385051
L134916233 3337432
L134916233 3432670
" />
<path d="M134011471 2766004
L134011471 3432670
" />
<path d="M134249566 2385051
L134487661 3099337
L133868614 3099337
" />
<path d="M133344804 2861242
L133440042 2813623
L133487661 2766004
L133535280 2670766
L133535280 2623147
L133487661 2527909
L133440042 2480290
L133344804 2432670
L133154328 2432670
L133059090 2480290
L133011471 2527909
L132963852 2623147
L132963852 2670766
L133011471 2766004
L133059090 2813623
L133154328 2861242
L133344804 2861242
L133440042 2908861
L133487661 2956480
L133535280 3051718
L133535280 3242194
L133487661 3337432
L133440042 3385051
L133344804 3432670
L133154328 3432670
L133059090 3385051
L133011471 3337432
L132963852 3242194
L132963852 3051718
L133011471 2956480
L133059090 2908861
L133154328 2861242
" />
<path d="M132059090 2432670
L132535280 2432670
L132582899 2908861
L132535280 2861242
L132440042 2813623
L132201947 2813623
L132106709 2861242
L132059090 2908861
L132011471 3004099
L132011471 3242194
L132059090 3337432
L132106709 3385051
L132201947 3432670
L132440042 3432670
L132535280 3385051
L132582899 3337432
" />
<path d="M131535280 3432670
L131344804 3432670
L131249566 3385051
L131201947 3337432
L131106709 3194575
L131059090 3004099
L131059090 2623147
L131106709 2527909
L131154328 2480290
L131249566 2432670
L131440042 2432670
L131535280 2480290
L131582899 2527909
L131630518 2623147
L131630518 2861242
L131582899 2956480
L131535280 3004099
L131440042 3051718
L131249566 3051718
L131154328 3004099
L131106709 2956480
L131059090 2861242
" />
<path d="M129868614 3432670
L129868614 2766004
" />
<path d="M129868614 2861242
L129820995 2813623
L129725756 2766004
L129582899 2766004
L129487661 2813623
L129440042 2908861
L129440042 3432670
" />
<path d="M129440042 2908861
L129392423 2813623
L129297185 2766004
L129154328 2766004
L129059090 2813623
L129011471 2908861
L129011471 3432670
" />
<path d="M128535280 3432670
L128535280 2766004
" />
<path d="M128535280 2861242
L128487661 2813623
L128392423 2766004
L128249566 2766004
L128154328 2813623
L128106709 2908861
L128106709 3432670
" />
<path d="M128106709 2908861
L128059090 2813623
L127963852 2766004
L127820995 2766004
L127725756 2813623
L127678137 2908861
L127678137 3432670
" />
</g></g>
<g style="fill:#000000; fill-opacity:0.0; 
stroke:#000000; stroke-width:50000.000000; stroke-opacity:1; 
stroke-linecap:round; stroke-linejoin:round;">
<path d="M134016350 5555290
L134016350 3543870
" />
<path d="M129530400 3543870
L129530400 5555290
" />
<path d="M134016350 4130290
L129530400 4130290
" />
<path d="M134016350 4130290
L129530400 4130290
" />
<path d="M134016350 4130290
L132889846 4716711
" />
<path d="M134016350 4130290
L132889846 3543869
" />
<path d="M129530400 4130290
L130656904 3543869
" />
<path d="M129530400 4130290
L130656904 4716711
" />
<g >
</g>
<g >
</g>
<g >
</g>
<g >
</g>
<g >
</g>
<g >
</g>
<g >
</g>
<g >
</g>
<g >
</g>
<g >
</g>
<g >
</g>
<g >
</g>
<g >
</g>
<g >
</g>
<g >
</g>
<g >
</g>
<g >
</g>
<g >
</g>
<g >
</g>
<g >
</g>
<g >
</g>
<g >
</g>
<g >
</g>
<g >
</g>
<g >
</g>
<g >
</g>
<g >
</g>
<g >
</g>
<g >
</g>
<g >
</g>
<g >
</g>
<g >
</g>
<g >
</g>
<g >
</g>
<g >
</g>
<g >
</g>
<g >
</g>
<g >
</g>
<g >
</g>
<g >
</g>
<g >
</g>
<g >
</g>
<g >
</g>
<g >
</g>
<g >
</g>
</g> 
</svg>
