M48
; DRILL file {KiCad (6.0.4-0)} date 
; FORMAT={-:-/ absolute / inch / decimal}
; #@! TF.CreationDate,2022-08-10T17:19:43+09:00
; #@! TF.GenerationSoftware,Kicad,Pcbnew,(6.0.4-0)
; #@! TF.FileFunction,NonPlated,1,2,NPTH
FMAT,2
INCH
; #@! TA.AperFunction,NonPlated,NPTH,ComponentDrill
T1C0.0197
; #@! TA.AperFunction,NonPlated,NPTH,ComponentDrill
T2C0.0472
; #@! TA.AperFunction,NonPlated,NPTH,ComponentDrill
T3C0.0669
; #@! TA.AperFunction,NonPlated,NPTH,ComponentDrill
T4C0.0748
; #@! TA.AperFunction,NonPlated,NPTH,ComponentDrill
T5C0.1181
; #@! TA.AperFunction,NonPlated,NPTH,ComponentDrill
T6C0.1240
; #@! TA.AperFunction,NonPlated,NPTH,ComponentDrill
T7C0.1575
%
G90
G05
T2
X3.6575Y-3.5943
X3.6575Y-3.6634
X3.9331Y-3.5943
X3.9331Y-3.6634
T3
X2.9495Y-6.0884
X3.2959Y-6.2884
T4
X2.9352Y-6.0802
X3.3102Y-6.2967
T5
X2.8794Y-6.2162
X3.0066Y-6.3896
X3.0428Y-6.0268
X3.1361Y-5.9652
X3.2203Y-6.413
X3.3026Y-6.1768
X3.3093Y-6.0652
T7
X3.1227Y-6.1884
T1
G00X3.8706Y-4.517
M15
G01X3.8706Y-4.6193
M16
G05
G00X3.8706Y-4.517
M15
G01X3.9926Y-4.517
M16
G05
G00X3.8706Y-4.6213
M15
G01X3.9926Y-4.6213
M16
G05
G00X3.9589Y-4.8254
M15
G01X3.9589Y-4.9278
M16
G05
G00X3.9926Y-4.517
M15
G01X3.9926Y-4.6193
M16
G05
G00X3.9589Y-4.8254
M15
G01X4.0809Y-4.8254
M16
G05
G00X3.9589Y-4.9297
M15
G01X4.0809Y-4.9297
M16
G05
G00X4.0809Y-4.8254
M15
G01X4.0809Y-4.9278
M16
G05
G00X4.6205Y-2.129
M15
G01X4.6205Y-2.2314
M16
G05
G00X4.6205Y-3.6292
M15
G01X4.6205Y-3.7316
M16
G05
G00X4.6208Y-2.8794
M15
G01X4.6208Y-2.9818
M16
G05
G00X4.6208Y-4.3793
M15
G01X4.6208Y-4.4817
M16
G05
G00X4.6205Y-2.129
M15
G01X4.7426Y-2.129
M16
G05
G00X4.6205Y-2.2333
M15
G01X4.7426Y-2.2333
M16
G05
G00X4.6205Y-3.6292
M15
G01X4.7426Y-3.6292
M16
G05
G00X4.6205Y-3.7335
M15
G01X4.7426Y-3.7335
M16
G05
G00X4.6208Y-2.8794
M15
G01X4.7428Y-2.8794
M16
G05
G00X4.6208Y-2.9837
M15
G01X4.7428Y-2.9837
M16
G05
G00X4.6208Y-4.3793
M15
G01X4.7429Y-4.3793
M16
G05
G00X4.6208Y-4.4837
M15
G01X4.7429Y-4.4837
M16
G05
G00X4.7426Y-2.129
M15
G01X4.7426Y-2.2314
M16
G05
G00X4.7426Y-3.6292
M15
G01X4.7426Y-3.7316
M16
G05
G00X4.7428Y-2.8794
M15
G01X4.7428Y-2.9818
M16
G05
G00X4.7429Y-4.3793
M15
G01X4.7429Y-4.4817
M16
G05
G00X4.7508Y-4.8247
M15
G01X4.7508Y-4.9271
M16
G05
G00X4.7508Y-4.8247
M15
G01X4.8728Y-4.8247
M16
G05
G00X4.7508Y-4.9291
M15
G01X4.8728Y-4.9291
M16
G05
G00X4.8728Y-4.8247
M15
G01X4.8728Y-4.9271
M16
G05
G00X5.3701Y-2.7809
M15
G01X5.3701Y-2.8832
M16
G05
G00X5.3704Y-3.5305
M15
G01X5.3704Y-3.6329
M16
G05
G00X5.3704Y-2.0307
M15
G01X5.3704Y-2.1331
M16
G05
G00X5.3707Y-4.2811
M15
G01X5.3707Y-4.3834
M16
G05
G00X5.4221Y-4.5381
M15
G01X5.4221Y-4.6405
M16
G05
G00X5.3701Y-2.7809
M15
G01X5.4922Y-2.7809
M16
G05
G00X5.3701Y-2.8852
M15
G01X5.4922Y-2.8852
M16
G05
G00X5.3704Y-3.5305
M15
G01X5.4924Y-3.5305
M16
G05
G00X5.3704Y-3.6348
M15
G01X5.4924Y-3.6348
M16
G05
G00X5.3704Y-2.0307
M15
G01X5.4924Y-2.0307
M16
G05
G00X5.3704Y-2.1351
M15
G01X5.4924Y-2.1351
M16
G05
G00X5.3707Y-4.2811
M15
G01X5.4927Y-4.2811
M16
G05
G00X5.3707Y-4.3854
M15
G01X5.4927Y-4.3854
M16
G05
G00X5.4221Y-4.5381
M15
G01X5.5442Y-4.5381
M16
G05
G00X5.4221Y-4.6424
M15
G01X5.5442Y-4.6424
M16
G05
G00X5.4922Y-2.7809
M15
G01X5.4922Y-2.8832
M16
G05
G00X5.4924Y-3.5305
M15
G01X5.4924Y-3.6329
M16
G05
G00X5.4924Y-2.0307
M15
G01X5.4924Y-2.1331
M16
G05
G00X5.4927Y-4.2811
M15
G01X5.4927Y-4.3834
M16
G05
G00X5.5442Y-4.5381
M15
G01X5.5442Y-4.6405
M16
G05
G00X5.6206Y-2.2144
M15
G01X5.6206Y-2.3168
M16
G05
G00X5.6206Y-2.2144
M15
G01X5.7427Y-2.2144
M16
G05
G00X5.6206Y-2.3187
M15
G01X5.7427Y-2.3187
M16
G05
G00X5.7427Y-2.2144
M15
G01X5.7427Y-2.3168
M16
G05
G00X6.1205Y-3.4329
M15
G01X6.1205Y-3.5353
M16
G05
G00X6.1206Y-4.9321
M15
G01X6.1206Y-5.0344
M16
G05
G00X6.1206Y-4.1822
M15
G01X6.1206Y-4.2846
M16
G05
G00X6.1207Y-2.6826
M15
G01X6.1207Y-2.785
M16
G05
G00X6.1209Y-1.9321
M15
G01X6.1209Y-2.0345
M16
G05
G00X6.1205Y-3.4329
M15
G01X6.2425Y-3.4329
M16
G05
G00X6.1205Y-3.5372
M15
G01X6.2425Y-3.5372
M16
G05
G00X6.1206Y-4.9321
M15
G01X6.2426Y-4.9321
M16
G05
G00X6.1206Y-5.0364
M15
G01X6.2426Y-5.0364
M16
G05
G00X6.1206Y-4.1822
M15
G01X6.2427Y-4.1822
M16
G05
G00X6.1206Y-4.2865
M15
G01X6.2427Y-4.2865
M16
G05
G00X6.1207Y-2.6826
M15
G01X6.2428Y-2.6826
M16
G05
G00X6.1207Y-2.7869
M15
G01X6.2428Y-2.7869
M16
G05
G00X6.1209Y-1.9321
M15
G01X6.243Y-1.9321
M16
G05
G00X6.1209Y-2.0365
M15
G01X6.243Y-2.0365
M16
G05
G00X6.2425Y-3.4329
M15
G01X6.2425Y-3.5353
M16
G05
G00X6.2426Y-4.9321
M15
G01X6.2426Y-5.0344
M16
G05
G00X6.2427Y-4.1822
M15
G01X6.2427Y-4.2846
M16
G05
G00X6.2428Y-2.6826
M15
G01X6.2428Y-2.785
M16
G05
G00X6.243Y-1.9321
M15
G01X6.243Y-2.0345
M16
G05
G00X6.8703Y-4.5687
M15
G01X6.8703Y-4.6711
M16
G05
G00X6.8704Y-4.3672
M15
G01X6.8704Y-4.4695
M16
G05
G00X6.8704Y-3.6176
M15
G01X6.8704Y-3.72
M16
G05
G00X6.8707Y-2.8674
M15
G01X6.8707Y-2.9698
M16
G05
G00X6.8707Y-5.1173
M15
G01X6.8707Y-5.2197
M16
G05
G00X6.8707Y-2.1172
M15
G01X6.8707Y-2.2196
M16
G05
G00X6.8703Y-4.5687
M15
G01X6.9924Y-4.5687
M16
G05
G00X6.8703Y-4.673
M15
G01X6.9924Y-4.673
M16
G05
G00X6.8704Y-4.3672
M15
G01X6.9924Y-4.3672
M16
G05
G00X6.8704Y-4.4715
M15
G01X6.9924Y-4.4715
M16
G05
G00X6.8704Y-3.6176
M15
G01X6.9925Y-3.6176
M16
G05
G00X6.8704Y-3.7219
M15
G01X6.9925Y-3.7219
M16
G05
G00X6.8707Y-2.8674
M15
G01X6.9927Y-2.8674
M16
G05
G00X6.8707Y-2.9717
M15
G01X6.9927Y-2.9717
M16
G05
G00X6.8707Y-5.1173
M15
G01X6.9927Y-5.1173
M16
G05
G00X6.8707Y-5.2217
M15
G01X6.9927Y-5.2217
M16
G05
G00X6.8707Y-2.1172
M15
G01X6.9928Y-2.1172
M16
G05
G00X6.8707Y-2.2215
M15
G01X6.9928Y-2.2215
M16
G05
G00X6.9924Y-4.5687
M15
G01X6.9924Y-4.6711
M16
G05
G00X6.9924Y-4.3672
M15
G01X6.9924Y-4.4695
M16
G05
G00X6.9925Y-3.6176
M15
G01X6.9925Y-3.72
M16
G05
G00X6.9927Y-2.8674
M15
G01X6.9927Y-2.9698
M16
G05
G00X6.9927Y-5.1173
M15
G01X6.9927Y-5.2197
M16
G05
G00X6.9928Y-2.1172
M15
G01X6.9928Y-2.2196
M16
G05
G00X7.2087Y-2.2916
M15
G01X7.2087Y-2.394
M16
G05
G00X7.2087Y-2.2916
M15
G01X7.3308Y-2.2916
M16
G05
G00X7.2087Y-2.3959
M15
G01X7.3308Y-2.3959
M16
G05
G00X7.3308Y-2.2916
M15
G01X7.3308Y-2.394
M16
G05
G00X7.6205Y-3.893
M15
G01X7.6205Y-3.9954
M16
G05
G00X7.6205Y-2.3929
M15
G01X7.6205Y-2.4952
M16
G05
G00X7.6205Y-4.6428
M15
G01X7.6205Y-4.7452
M16
G05
G00X7.6206Y-5.393
M15
G01X7.6206Y-5.4954
M16
G05
G00X7.6206Y-3.1429
M15
G01X7.6206Y-3.2453
M16
G05
G00X7.6205Y-3.893
M15
G01X7.7425Y-3.893
M16
G05
G00X7.6205Y-3.9974
M15
G01X7.7425Y-3.9974
M16
G05
G00X7.6205Y-2.3929
M15
G01X7.7426Y-2.3929
M16
G05
G00X7.6205Y-2.4972
M15
G01X7.7426Y-2.4972
M16
G05
G00X7.6205Y-4.6428
M15
G01X7.7426Y-4.6428
M16
G05
G00X7.6205Y-4.7472
M15
G01X7.7426Y-4.7472
M16
G05
G00X7.6206Y-5.393
M15
G01X7.7426Y-5.393
M16
G05
G00X7.6206Y-5.4973
M15
G01X7.7426Y-5.4973
M16
G05
G00X7.6206Y-3.1429
M15
G01X7.7426Y-3.1429
M16
G05
G00X7.6206Y-3.2472
M15
G01X7.7426Y-3.2472
M16
G05
G00X7.7425Y-3.893
M15
G01X7.7425Y-3.9954
M16
G05
G00X7.7426Y-2.3929
M15
G01X7.7426Y-2.4952
M16
G05
G00X7.7426Y-4.6428
M15
G01X7.7426Y-4.7452
M16
G05
G00X7.7426Y-5.393
M15
G01X7.7426Y-5.4954
M16
G05
G00X7.7426Y-3.1429
M15
G01X7.7426Y-3.2453
M16
G05
G00X8.37Y-4.8391
M15
G01X8.37Y-4.9415
M16
G05
G00X8.3704Y-4.6427
M15
G01X8.3704Y-4.7451
M16
G05
G00X8.3705Y-2.3929
M15
G01X8.3705Y-2.4953
M16
G05
G00X8.3705Y-3.1429
M15
G01X8.3705Y-3.2452
M16
G05
G00X8.3707Y-3.8926
M15
G01X8.3707Y-3.995
M16
G05
G00X8.3707Y-5.3929
M15
G01X8.3707Y-5.4952
M16
G05
G00X8.3713Y-3.3465
M15
G01X8.3713Y-3.4489
M16
G05
G00X8.37Y-4.8391
M15
G01X8.492Y-4.8391
M16
G05
G00X8.37Y-4.9435
M15
G01X8.492Y-4.9435
M16
G05
G00X8.3704Y-4.6427
M15
G01X8.4924Y-4.6427
M16
G05
G00X8.3704Y-4.747
M15
G01X8.4924Y-4.747
M16
G05
G00X8.3705Y-2.3929
M15
G01X8.4925Y-2.3929
M16
G05
G00X8.3705Y-2.4972
M15
G01X8.4925Y-2.4972
M16
G05
G00X8.3705Y-3.1429
M15
G01X8.4925Y-3.1429
M16
G05
G00X8.3705Y-3.2472
M15
G01X8.4925Y-3.2472
M16
G05
G00X8.3707Y-3.8926
M15
G01X8.4928Y-3.8926
M16
G05
G00X8.3707Y-3.997
M15
G01X8.4928Y-3.997
M16
G05
G00X8.3707Y-5.3929
M15
G01X8.4928Y-5.3929
M16
G05
G00X8.3707Y-5.4972
M15
G01X8.4928Y-5.4972
M16
G05
G00X8.3713Y-3.3465
M15
G01X8.4933Y-3.3465
M16
G05
G00X8.3713Y-3.4509
M15
G01X8.4933Y-3.4509
M16
G05
G00X8.492Y-4.8391
M15
G01X8.492Y-4.9415
M16
G05
G00X8.4924Y-4.6427
M15
G01X8.4924Y-4.7451
M16
G05
G00X8.4925Y-2.3929
M15
G01X8.4925Y-2.4953
M16
G05
G00X8.4925Y-3.1429
M15
G01X8.4925Y-3.2452
M16
G05
G00X8.4928Y-3.8926
M15
G01X8.4928Y-3.995
M16
G05
G00X8.4928Y-5.3929
M15
G01X8.4928Y-5.4952
M16
G05
G00X8.4933Y-3.3465
M15
G01X8.4933Y-3.4489
M16
G05
T6
G00X3.9227Y-4.5691
M15
G01X3.9404Y-4.5691
M16
G05
G00X4.011Y-4.8776
M15
G01X4.0287Y-4.8776
M16
G05
G00X4.6727Y-2.1812
M15
G01X4.6904Y-2.1812
M16
G05
G00X4.6727Y-3.6814
M15
G01X4.6904Y-3.6814
M16
G05
G00X4.673Y-2.9316
M15
G01X4.6907Y-2.9316
M16
G05
G00X4.673Y-4.4315
M15
G01X4.6907Y-4.4315
M16
G05
G00X4.803Y-4.8769
M15
G01X4.8207Y-4.8769
M16
G05
G00X5.4223Y-2.833
M15
G01X5.44Y-2.833
M16
G05
G00X5.4225Y-3.5827
M15
G01X5.4402Y-3.5827
M16
G05
G00X5.4225Y-3.5827
M15
G01X5.4402Y-3.5827
M16
G05
G00X5.4226Y-2.0829
M15
G01X5.4403Y-2.0829
M16
G05
G00X5.4228Y-4.3332
M15
G01X5.4406Y-4.3332
M16
G05
G00X5.4228Y-4.3332
M15
G01X5.4406Y-4.3332
M16
G05
G00X5.4743Y-4.5903
M15
G01X5.492Y-4.5903
M16
G05
G00X5.6728Y-2.2666
M15
G01X5.6905Y-2.2666
M16
G05
G00X6.1726Y-3.4851
M15
G01X6.1904Y-3.4851
M16
G05
G00X6.1726Y-3.4851
M15
G01X6.1904Y-3.4851
M16
G05
G00X6.1727Y-4.9843
M15
G01X6.1904Y-4.9843
M16
G05
G00X6.1727Y-4.9843
M15
G01X6.1904Y-4.9843
M16
G05
G00X6.1728Y-4.2344
M15
G01X6.1905Y-4.2344
M16
G05
G00X6.1728Y-4.2344
M15
G01X6.1905Y-4.2344
M16
G05
G00X6.1729Y-2.7348
M15
G01X6.1906Y-2.7348
M16
G05
G00X6.1729Y-2.7348
M15
G01X6.1906Y-2.7348
M16
G05
G00X6.1731Y-1.9843
M15
G01X6.1908Y-1.9843
M16
G05
G00X6.1731Y-1.9843
M15
G01X6.1908Y-1.9843
M16
G05
G00X6.9225Y-4.6209
M15
G01X6.9402Y-4.6209
M16
G05
G00X6.9226Y-4.4193
M15
G01X6.9403Y-4.4193
M16
G05
G00X6.9226Y-4.4193
M15
G01X6.9403Y-4.4193
M16
G05
G00X6.9226Y-3.6698
M15
G01X6.9403Y-3.6698
M16
G05
G00X6.9226Y-3.6698
M15
G01X6.9403Y-3.6698
M16
G05
G00X6.9228Y-2.9196
M15
G01X6.9406Y-2.9196
M16
G05
G00X6.9228Y-2.9196
M15
G01X6.9406Y-2.9196
M16
G05
G00X6.9228Y-5.1695
M15
G01X6.9406Y-5.1695
M16
G05
G00X6.9228Y-5.1695
M15
G01X6.9406Y-5.1695
M16
G05
G00X6.9229Y-2.1694
M15
G01X6.9406Y-2.1694
M16
G05
G00X6.9229Y-2.1694
M15
G01X6.9406Y-2.1694
M16
G05
G00X7.2609Y-2.3438
M15
G01X7.2786Y-2.3438
M16
G05
G00X7.6726Y-3.9452
M15
G01X7.6904Y-3.9452
M16
G05
G00X7.6726Y-3.9452
M15
G01X7.6904Y-3.9452
M16
G05
G00X7.6727Y-2.445
M15
G01X7.6904Y-2.445
M16
G05
G00X7.6727Y-2.445
M15
G01X7.6904Y-2.445
M16
G05
G00X7.6727Y-4.695
M15
G01X7.6904Y-4.695
M16
G05
G00X7.6727Y-4.695
M15
G01X7.6904Y-4.695
M16
G05
G00X7.6727Y-5.4452
M15
G01X7.6904Y-5.4452
M16
G05
G00X7.6727Y-5.4452
M15
G01X7.6904Y-5.4452
M16
G05
G00X7.6728Y-3.1951
M15
G01X7.6905Y-3.1951
M16
G05
G00X7.6728Y-3.1951
M15
G01X7.6905Y-3.1951
M16
G05
G00X8.4222Y-4.8913
M15
G01X8.4399Y-4.8913
M16
G05
G00X8.4225Y-4.6949
M15
G01X8.4402Y-4.6949
M16
G05
G00X8.4226Y-2.4451
M15
G01X8.4404Y-2.4451
M16
G05
G00X8.4226Y-2.4451
M15
G01X8.4404Y-2.4451
M16
G05
G00X8.4226Y-3.195
M15
G01X8.4404Y-3.195
M16
G05
G00X8.4226Y-3.195
M15
G01X8.4404Y-3.195
M16
G05
G00X8.4229Y-3.9448
M15
G01X8.4406Y-3.9448
M16
G05
G00X8.4229Y-5.445
M15
G01X8.4406Y-5.445
M16
G05
G00X8.4235Y-3.3987
M15
G01X8.4412Y-3.3987
M16
G05
T0
M30
