  0
SECTION
  2
HEADER
  9
$ANGBASE
  50
0.0
  9
$ANGDIR
  70
1
  9
$MEASUREMENT
  70
1
  0
ENDSEC
  0
SECTION
  2
TABLES
  0
TABLE
  2
LTYPE
  70
4
  0
LTYPE
  5
40F
  2
CONTINUOUS
  70
0
  3
Solid line
  72
65
  73
0
  40
0.0
  0
LTYPE
  5
410
  2
DASHDOT
 70
0
  3
Dash Dot ____ _ ____ _
 72
65
 73
4
 40
2.0
 49
1.25
 49
-0.25
 49
0.25
 49
-0.25
  0
LTYPE
  5
411
  2
DASHED
 70
0
  3
Dashed __ __ __ __ __
 72
65
 73
2
 40
0.75
 49
0.5
 49
-0.25
  0
LTYPE
  5
43B
  2
DOTTED
 70
0
  3
Dotted .  .  .  .
 72
65
 73
2
 40
0.2
 49
0.0
 49
-0.2
  0
ENDTAB
  0
TABLE
  2
STYLE
  70
4
  0
STYLE
  2
KICAD
  70
0
  40
0
  41
1
  42
1
  50
0
  71
0
  3
isocp.shx
  0
STYLE
  2
KICADB
  70
0
  40
0
  41
1
  42
1
  50
0
  71
0
  3
isocp.shx
  0
STYLE
  2
KICADI
  70
0
  40
0
  41
1
  42
1
  50
15
  71
0
  3
isocp.shx
  0
STYLE
  2
KICADBI
  70
0
  40
0
  41
1
  42
1
  50
15
  71
0
  3
isocp.shx
  0
ENDTAB
  0
TABLE
  2
LAYER
  70
1
  0
LAYER
  2
BLACK
  70
0
  62
7
  6
CONTINUOUS
  0
ENDTAB
  0
ENDSEC
  0
SECTION
  2
ENTITIES
0
LINE
8
BLACK
6
CONTINUOUS
10
184.264
20
-41.1703
11
184.437
21
-41.2165
0
LINE
8
BLACK
6
CONTINUOUS
10
184.437
20
-41.2165
11
184.598
21
-41.292
0
LINE
8
BLACK
6
CONTINUOUS
10
184.598
20
-41.292
11
184.745
21
-41.3945
0
LINE
8
BLACK
6
CONTINUOUS
10
184.745
20
-41.3945
11
184.871
21
-41.5208
0
LINE
8
BLACK
6
CONTINUOUS
10
184.871
20
-41.5208
11
184.974
21
-41.6672
0
LINE
8
BLACK
6
CONTINUOUS
10
184.974
20
-41.6672
11
185.049
21
-41.8291
0
LINE
8
BLACK
6
CONTINUOUS
10
185.049
20
-41.8291
11
185.095
21
-42.0017
0
LINE
8
BLACK
6
CONTINUOUS
10
185.095
20
-42.0017
11
185.111
21
-42.1797
0
LINE
8
BLACK
6
CONTINUOUS
10
185.111
20
-42.1797
11
185.111
21
-42.1797
0
LINE
8
BLACK
6
CONTINUOUS
10
185.111
20
-42.1797
11
185.111
21
-47.1797
0
LINE
8
BLACK
6
CONTINUOUS
10
185.111
20
-47.1797
11
185.108
21
-47.186
0
LINE
8
BLACK
6
CONTINUOUS
10
185.108
20
-47.186
11
185.108
21
-47.1873
0
LINE
8
BLACK
6
CONTINUOUS
10
185.108
20
-47.1873
11
185.122
21
-47.3497
0
LINE
8
BLACK
6
CONTINUOUS
10
185.122
20
-47.3497
11
185.166
21
-47.5145
0
LINE
8
BLACK
6
CONTINUOUS
10
185.166
20
-47.5145
11
185.238
21
-47.6691
0
LINE
8
BLACK
6
CONTINUOUS
10
185.238
20
-47.6691
11
185.336
21
-47.8088
0
LINE
8
BLACK
6
CONTINUOUS
10
185.336
20
-47.8088
11
185.457
21
-47.9295
0
LINE
8
BLACK
6
CONTINUOUS
10
185.457
20
-47.9295
11
185.597
21
-48.0273
0
LINE
8
BLACK
6
CONTINUOUS
10
185.597
20
-48.0273
11
185.751
21
-48.0994
0
LINE
8
BLACK
6
CONTINUOUS
10
185.751
20
-48.0994
11
185.916
21
-48.1436
0
LINE
8
BLACK
6
CONTINUOUS
10
185.916
20
-48.1436
11
186.079
21
-48.1578
0
LINE
8
BLACK
6
CONTINUOUS
10
186.079
20
-48.1578
11
186.086
21
-48.1547
0
LINE
8
BLACK
6
CONTINUOUS
10
186.086
20
-48.1547
11
222.186
21
-48.1547
0
LINE
8
BLACK
6
CONTINUOUS
10
222.186
20
-48.1547
11
222.364
21
-48.1703
0
LINE
8
BLACK
6
CONTINUOUS
10
222.364
20
-48.1703
11
222.537
21
-48.2165
0
LINE
8
BLACK
6
CONTINUOUS
10
222.537
20
-48.2165
11
222.698
21
-48.292
0
LINE
8
BLACK
6
CONTINUOUS
10
222.698
20
-48.292
11
222.845
21
-48.3945
0
LINE
8
BLACK
6
CONTINUOUS
10
222.845
20
-48.3945
11
222.971
21
-48.5208
0
LINE
8
BLACK
6
CONTINUOUS
10
222.971
20
-48.5208
11
223.074
21
-48.6672
0
LINE
8
BLACK
6
CONTINUOUS
10
223.074
20
-48.6672
11
223.149
21
-48.8291
0
LINE
8
BLACK
6
CONTINUOUS
10
223.149
20
-48.8291
11
223.195
21
-49.0017
0
LINE
8
BLACK
6
CONTINUOUS
10
223.195
20
-49.0017
11
223.211
21
-49.1797
0
LINE
8
BLACK
6
CONTINUOUS
10
223.211
20
-49.1797
11
223.211
21
-49.1797
0
LINE
8
BLACK
6
CONTINUOUS
10
223.211
20
-49.1797
11
223.211
21
-141.43
0
LINE
8
BLACK
6
CONTINUOUS
10
223.211
20
-141.43
11
223.195
21
-141.608
0
LINE
8
BLACK
6
CONTINUOUS
10
223.195
20
-141.608
11
223.149
21
-141.78
0
LINE
8
BLACK
6
CONTINUOUS
10
223.149
20
-141.78
11
223.074
21
-141.942
0
LINE
8
BLACK
6
CONTINUOUS
10
223.074
20
-141.942
11
222.971
21
-142.089
0
LINE
8
BLACK
6
CONTINUOUS
10
222.971
20
-142.089
11
222.845
21
-142.215
0
LINE
8
BLACK
6
CONTINUOUS
10
222.845
20
-142.215
11
222.698
21
-142.317
0
LINE
8
BLACK
6
CONTINUOUS
10
222.698
20
-142.317
11
222.537
21
-142.393
0
LINE
8
BLACK
6
CONTINUOUS
10
222.537
20
-142.393
11
222.364
21
-142.439
0
LINE
8
BLACK
6
CONTINUOUS
10
222.364
20
-142.439
11
222.186
21
-142.455
0
LINE
8
BLACK
6
CONTINUOUS
10
222.186
20
-142.455
11
222.186
21
-142.455
0
LINE
8
BLACK
6
CONTINUOUS
10
222.186
20
-142.455
11
187.086
21
-142.455
0
LINE
8
BLACK
6
CONTINUOUS
10
187.086
20
-142.455
11
186.908
21
-142.439
0
LINE
8
BLACK
6
CONTINUOUS
10
186.908
20
-142.439
11
186.735
21
-142.393
0
LINE
8
BLACK
6
CONTINUOUS
10
186.735
20
-142.393
11
186.573
21
-142.317
0
LINE
8
BLACK
6
CONTINUOUS
10
186.573
20
-142.317
11
186.427
21
-142.215
0
LINE
8
BLACK
6
CONTINUOUS
10
186.427
20
-142.215
11
186.301
21
-142.089
0
LINE
8
BLACK
6
CONTINUOUS
10
186.301
20
-142.089
11
186.198
21
-141.942
0
LINE
8
BLACK
6
CONTINUOUS
10
186.198
20
-141.942
11
186.123
21
-141.78
0
LINE
8
BLACK
6
CONTINUOUS
10
186.123
20
-141.78
11
186.076
21
-141.608
0
LINE
8
BLACK
6
CONTINUOUS
10
186.076
20
-141.608
11
186.061
21
-141.43
0
LINE
8
BLACK
6
CONTINUOUS
10
186.061
20
-141.43
11
186.061
21
-141.43
0
LINE
8
BLACK
6
CONTINUOUS
10
186.061
20
-141.43
11
186.061
21
-136.43
0
LINE
8
BLACK
6
CONTINUOUS
10
186.061
20
-136.43
11
186.064
21
-136.422
0
LINE
8
BLACK
6
CONTINUOUS
10
186.064
20
-136.422
11
186.05
21
-136.26
0
LINE
8
BLACK
6
CONTINUOUS
10
186.05
20
-136.26
11
186.006
21
-136.095
0
LINE
8
BLACK
6
CONTINUOUS
10
186.006
20
-136.095
11
185.934
21
-135.94
0
LINE
8
BLACK
6
CONTINUOUS
10
185.934
20
-135.94
11
185.836
21
-135.801
0
LINE
8
BLACK
6
CONTINUOUS
10
185.836
20
-135.801
11
185.715
21
-135.68
0
LINE
8
BLACK
6
CONTINUOUS
10
185.715
20
-135.68
11
185.575
21
-135.582
0
LINE
8
BLACK
6
CONTINUOUS
10
185.575
20
-135.582
11
185.421
21
-135.51
0
LINE
8
BLACK
6
CONTINUOUS
10
185.421
20
-135.51
11
185.256
21
-135.466
0
LINE
8
BLACK
6
CONTINUOUS
10
185.256
20
-135.466
11
185.093
21
-135.452
0
LINE
8
BLACK
6
CONTINUOUS
10
185.093
20
-135.452
11
185.086
21
-135.455
0
LINE
8
BLACK
6
CONTINUOUS
10
185.086
20
-135.455
11
168.036
21
-135.455
0
LINE
8
BLACK
6
CONTINUOUS
10
168.036
20
-135.455
11
167.858
21
-135.439
0
LINE
8
BLACK
6
CONTINUOUS
10
167.858
20
-135.439
11
167.685
21
-135.393
0
LINE
8
BLACK
6
CONTINUOUS
10
167.685
20
-135.393
11
167.523
21
-135.317
0
LINE
8
BLACK
6
CONTINUOUS
10
167.523
20
-135.317
11
167.377
21
-135.215
0
LINE
8
BLACK
6
CONTINUOUS
10
167.377
20
-135.215
11
167.251
21
-135.089
0
LINE
8
BLACK
6
CONTINUOUS
10
167.251
20
-135.089
11
167.148
21
-134.942
0
LINE
8
BLACK
6
CONTINUOUS
10
167.148
20
-134.942
11
167.073
21
-134.78
0
LINE
8
BLACK
6
CONTINUOUS
10
167.073
20
-134.78
11
167.026
21
-134.608
0
LINE
8
BLACK
6
CONTINUOUS
10
167.026
20
-134.608
11
167.011
21
-134.43
0
LINE
8
BLACK
6
CONTINUOUS
10
167.011
20
-134.43
11
167.011
21
-134.43
0
LINE
8
BLACK
6
CONTINUOUS
10
167.011
20
-134.43
11
167.011
21
-131.73
0
LINE
8
BLACK
6
CONTINUOUS
10
167.011
20
-131.73
11
167.014
21
-131.722
0
LINE
8
BLACK
6
CONTINUOUS
10
167.014
20
-131.722
11
167
21
-131.56
0
LINE
8
BLACK
6
CONTINUOUS
10
167
20
-131.56
11
166.956
21
-131.395
0
LINE
8
BLACK
6
CONTINUOUS
10
166.956
20
-131.395
11
166.884
21
-131.24
0
LINE
8
BLACK
6
CONTINUOUS
10
166.884
20
-131.24
11
166.786
21
-131.101
0
LINE
8
BLACK
6
CONTINUOUS
10
166.786
20
-131.101
11
166.665
21
-130.98
0
LINE
8
BLACK
6
CONTINUOUS
10
166.665
20
-130.98
11
166.525
21
-130.882
0
LINE
8
BLACK
6
CONTINUOUS
10
166.525
20
-130.882
11
166.371
21
-130.81
0
LINE
8
BLACK
6
CONTINUOUS
10
166.371
20
-130.81
11
166.206
21
-130.766
0
LINE
8
BLACK
6
CONTINUOUS
10
166.206
20
-130.766
11
166.043
21
-130.752
0
LINE
8
BLACK
6
CONTINUOUS
10
166.043
20
-130.752
11
166.036
21
-130.755
0
LINE
8
BLACK
6
CONTINUOUS
10
166.036
20
-130.755
11
148.986
21
-130.755
0
LINE
8
BLACK
6
CONTINUOUS
10
148.986
20
-130.755
11
148.808
21
-130.739
0
LINE
8
BLACK
6
CONTINUOUS
10
148.808
20
-130.739
11
148.635
21
-130.693
0
LINE
8
BLACK
6
CONTINUOUS
10
148.635
20
-130.693
11
148.473
21
-130.617
0
LINE
8
BLACK
6
CONTINUOUS
10
148.473
20
-130.617
11
148.327
21
-130.515
0
LINE
8
BLACK
6
CONTINUOUS
10
148.327
20
-130.515
11
148.201
21
-130.389
0
LINE
8
BLACK
6
CONTINUOUS
10
148.201
20
-130.389
11
148.098
21
-130.242
0
LINE
8
BLACK
6
CONTINUOUS
10
148.098
20
-130.242
11
148.023
21
-130.08
0
LINE
8
BLACK
6
CONTINUOUS
10
148.023
20
-130.08
11
147.976
21
-129.908
0
LINE
8
BLACK
6
CONTINUOUS
10
147.976
20
-129.908
11
147.961
21
-129.73
0
LINE
8
BLACK
6
CONTINUOUS
10
147.961
20
-129.73
11
147.961
21
-129.73
0
LINE
8
BLACK
6
CONTINUOUS
10
147.961
20
-129.73
11
147.961
21
-121.112
0
LINE
8
BLACK
6
CONTINUOUS
10
147.961
20
-121.112
11
147.964
21
-121.104
0
LINE
8
BLACK
6
CONTINUOUS
10
147.964
20
-121.104
11
147.95
21
-120.941
0
LINE
8
BLACK
6
CONTINUOUS
10
147.95
20
-120.941
11
147.906
21
-120.776
0
LINE
8
BLACK
6
CONTINUOUS
10
147.906
20
-120.776
11
147.833
21
-120.621
0
LINE
8
BLACK
6
CONTINUOUS
10
147.833
20
-120.621
11
147.735
21
-120.482
0
LINE
8
BLACK
6
CONTINUOUS
10
147.735
20
-120.482
11
147.614
21
-120.361
0
LINE
8
BLACK
6
CONTINUOUS
10
147.614
20
-120.361
11
147.474
21
-120.263
0
LINE
8
BLACK
6
CONTINUOUS
10
147.474
20
-120.263
11
147.319
21
-120.191
0
LINE
8
BLACK
6
CONTINUOUS
10
147.319
20
-120.191
11
147.154
21
-120.147
0
LINE
8
BLACK
6
CONTINUOUS
10
147.154
20
-120.147
11
146.991
21
-120.133
0
LINE
8
BLACK
6
CONTINUOUS
10
146.991
20
-120.133
11
146.984
21
-120.137
0
LINE
8
BLACK
6
CONTINUOUS
10
146.984
20
-120.137
11
146.984
21
-120.137
0
LINE
8
BLACK
6
CONTINUOUS
10
146.984
20
-120.137
11
143.485
21
-120.145
0
LINE
8
BLACK
6
CONTINUOUS
10
143.485
20
-120.145
11
143.477
21
-120.142
0
LINE
8
BLACK
6
CONTINUOUS
10
143.477
20
-120.142
11
143.361
21
-120.158
0
LINE
8
BLACK
6
CONTINUOUS
10
143.361
20
-120.158
11
143.246
21
-120.206
0
LINE
8
BLACK
6
CONTINUOUS
10
143.246
20
-120.206
11
143.147
21
-120.282
0
LINE
8
BLACK
6
CONTINUOUS
10
143.147
20
-120.282
11
143.071
21
-120.381
0
LINE
8
BLACK
6
CONTINUOUS
10
143.071
20
-120.381
11
143.023
21
-120.496
0
LINE
8
BLACK
6
CONTINUOUS
10
143.023
20
-120.496
11
143.008
21
-120.613
0
LINE
8
BLACK
6
CONTINUOUS
10
143.008
20
-120.613
11
143.01
21
-120.617
0
LINE
8
BLACK
6
CONTINUOUS
10
143.01
20
-120.617
11
143.011
21
-120.62
0
LINE
8
BLACK
6
CONTINUOUS
10
143.011
20
-120.62
11
143.011
21
-139.434
0
LINE
8
BLACK
6
CONTINUOUS
10
143.011
20
-139.434
11
142.995
21
-139.612
0
LINE
8
BLACK
6
CONTINUOUS
10
142.995
20
-139.612
11
142.949
21
-139.784
0
LINE
8
BLACK
6
CONTINUOUS
10
142.949
20
-139.784
11
142.874
21
-139.946
0
LINE
8
BLACK
6
CONTINUOUS
10
142.874
20
-139.946
11
142.773
21
-140.092
0
LINE
8
BLACK
6
CONTINUOUS
10
142.773
20
-140.092
11
142.647
21
-140.218
0
LINE
8
BLACK
6
CONTINUOUS
10
142.647
20
-140.218
11
142.501
21
-140.32
0
LINE
8
BLACK
6
CONTINUOUS
10
142.501
20
-140.32
11
142.34
21
-140.396
0
LINE
8
BLACK
6
CONTINUOUS
10
142.34
20
-140.396
11
142.168
21
-140.443
0
LINE
8
BLACK
6
CONTINUOUS
10
142.168
20
-140.443
11
141.991
21
-140.459
0
LINE
8
BLACK
6
CONTINUOUS
10
141.991
20
-140.459
11
141.991
21
-140.459
0
LINE
8
BLACK
6
CONTINUOUS
10
141.991
20
-140.459
11
141.991
21
-140.459
0
LINE
8
BLACK
6
CONTINUOUS
10
141.991
20
-140.459
11
123.113
21
-140.548
0
LINE
8
BLACK
6
CONTINUOUS
10
123.113
20
-140.548
11
123.113
21
-140.548
0
LINE
8
BLACK
6
CONTINUOUS
10
123.113
20
-140.548
11
123.11
21
-140.547
0
LINE
8
BLACK
6
CONTINUOUS
10
123.11
20
-140.547
11
122.944
21
-140.552
0
LINE
8
BLACK
6
CONTINUOUS
10
122.944
20
-140.552
11
122.776
21
-140.568
0
LINE
8
BLACK
6
CONTINUOUS
10
122.776
20
-140.568
11
122.611
21
-140.592
0
LINE
8
BLACK
6
CONTINUOUS
10
122.611
20
-140.592
11
122.609
21
-140.593
0
LINE
8
BLACK
6
CONTINUOUS
10
122.609
20
-140.593
11
122.609
21
-140.593
0
LINE
8
BLACK
6
CONTINUOUS
10
122.609
20
-140.593
11
103.782
21
-143.921
0
LINE
8
BLACK
6
CONTINUOUS
10
103.782
20
-143.921
11
103.779
21
-143.92
0
LINE
8
BLACK
6
CONTINUOUS
10
103.779
20
-143.92
11
103.612
21
-143.954
0
LINE
8
BLACK
6
CONTINUOUS
10
103.612
20
-143.954
11
103.446
21
-143.999
0
LINE
8
BLACK
6
CONTINUOUS
10
103.446
20
-143.999
11
103.284
21
-144.053
0
LINE
8
BLACK
6
CONTINUOUS
10
103.284
20
-144.053
11
103.282
21
-144.055
0
LINE
8
BLACK
6
CONTINUOUS
10
103.282
20
-144.055
11
95.7386
21
-146.802
0
LINE
8
BLACK
6
CONTINUOUS
10
95.7386
20
-146.802
11
95.7331
21
-146.802
0
LINE
8
BLACK
6
CONTINUOUS
10
95.7331
20
-146.802
11
83.1325
21
-168.627
0
LINE
8
BLACK
6
CONTINUOUS
10
83.1325
20
-168.627
11
83.1325
21
-168.627
0
LINE
8
BLACK
6
CONTINUOUS
10
83.1325
20
-168.627
11
83.03
21
-168.773
0
LINE
8
BLACK
6
CONTINUOUS
10
83.03
20
-168.773
11
82.9037
21
-168.899
0
LINE
8
BLACK
6
CONTINUOUS
10
82.9037
20
-168.899
11
82.7573
21
-169.002
0
LINE
8
BLACK
6
CONTINUOUS
10
82.7573
20
-169.002
11
82.5954
21
-169.077
0
LINE
8
BLACK
6
CONTINUOUS
10
82.5954
20
-169.077
11
82.4228
21
-169.124
0
LINE
8
BLACK
6
CONTINUOUS
10
82.4228
20
-169.124
11
82.2448
21
-169.139
0
LINE
8
BLACK
6
CONTINUOUS
10
82.2448
20
-169.139
11
82.0668
21
-169.124
0
LINE
8
BLACK
6
CONTINUOUS
10
82.0668
20
-169.124
11
81.8942
21
-169.077
0
LINE
8
BLACK
6
CONTINUOUS
10
81.8942
20
-169.077
11
81.7323
21
-169.002
0
LINE
8
BLACK
6
CONTINUOUS
10
81.7323
20
-169.002
11
81.7323
21
-169.002
0
LINE
8
BLACK
6
CONTINUOUS
10
81.7323
20
-169.002
11
66.1438
21
-160.002
0
LINE
8
BLACK
6
CONTINUOUS
10
66.1438
20
-160.002
11
66.1438
21
-160.002
0
LINE
8
BLACK
6
CONTINUOUS
10
66.1438
20
-160.002
11
65.9975
21
-159.899
0
LINE
8
BLACK
6
CONTINUOUS
10
65.9975
20
-159.899
11
65.8712
21
-159.773
0
LINE
8
BLACK
6
CONTINUOUS
10
65.8712
20
-159.773
11
65.7687
21
-159.627
0
LINE
8
BLACK
6
CONTINUOUS
10
65.7687
20
-159.627
11
65.6932
21
-159.465
0
LINE
8
BLACK
6
CONTINUOUS
10
65.6932
20
-159.465
11
65.6469
21
-159.292
0
LINE
8
BLACK
6
CONTINUOUS
10
65.6469
20
-159.292
11
65.6314
21
-159.114
0
LINE
8
BLACK
6
CONTINUOUS
10
65.6314
20
-159.114
11
65.6469
21
-158.936
0
LINE
8
BLACK
6
CONTINUOUS
10
65.6469
20
-158.936
11
65.6932
21
-158.764
0
LINE
8
BLACK
6
CONTINUOUS
10
65.6932
20
-158.764
11
65.7687
21
-158.602
0
LINE
8
BLACK
6
CONTINUOUS
10
65.7687
20
-158.602
11
65.7687
21
-158.602
0
LINE
8
BLACK
6
CONTINUOUS
10
65.7687
20
-158.602
11
80.2687
21
-133.487
0
LINE
8
BLACK
6
CONTINUOUS
10
80.2687
20
-133.487
11
80.269
21
-133.487
0
LINE
8
BLACK
6
CONTINUOUS
10
80.269
20
-133.487
11
80.269
21
-133.486
0
LINE
8
BLACK
6
CONTINUOUS
10
80.269
20
-133.486
11
89.165
21
-118.993
0
LINE
8
BLACK
6
CONTINUOUS
10
89.165
20
-118.993
11
89.165
21
-42.4797
0
LINE
8
BLACK
6
CONTINUOUS
10
89.165
20
-42.4797
11
89.1806
21
-42.3017
0
LINE
8
BLACK
6
CONTINUOUS
10
89.1806
20
-42.3017
11
89.2268
21
-42.1291
0
LINE
8
BLACK
6
CONTINUOUS
10
89.2268
20
-42.1291
11
89.3023
21
-41.9672
0
LINE
8
BLACK
6
CONTINUOUS
10
89.3023
20
-41.9672
11
89.4048
21
-41.8208
0
LINE
8
BLACK
6
CONTINUOUS
10
89.4048
20
-41.8208
11
89.5311
21
-41.6945
0
LINE
8
BLACK
6
CONTINUOUS
10
89.5311
20
-41.6945
11
89.6775
21
-41.592
0
LINE
8
BLACK
6
CONTINUOUS
10
89.6775
20
-41.592
11
89.8394
21
-41.5165
0
LINE
8
BLACK
6
CONTINUOUS
10
89.8394
20
-41.5165
11
90.012
21
-41.4703
0
LINE
8
BLACK
6
CONTINUOUS
10
90.012
20
-41.4703
11
90.19
21
-41.4547
0
LINE
8
BLACK
6
CONTINUOUS
10
90.19
20
-41.4547
11
90.19
21
-41.4547
0
LINE
8
BLACK
6
CONTINUOUS
10
90.19
20
-41.4547
11
93.19
21
-41.4547
0
LINE
8
BLACK
6
CONTINUOUS
10
93.19
20
-41.4547
11
93.3068
21
-41.4679
0
LINE
8
BLACK
6
CONTINUOUS
10
93.3068
20
-41.4679
11
93.4178
21
-41.5067
0
LINE
8
BLACK
6
CONTINUOUS
10
93.4178
20
-41.5067
11
93.5173
21
-41.5692
0
LINE
8
BLACK
6
CONTINUOUS
10
93.5173
20
-41.5692
11
93.6005
21
-41.6524
0
LINE
8
BLACK
6
CONTINUOUS
10
93.6005
20
-41.6524
11
93.663
21
-41.7519
0
LINE
8
BLACK
6
CONTINUOUS
10
93.663
20
-41.7519
11
93.7018
21
-41.8629
0
LINE
8
BLACK
6
CONTINUOUS
10
93.7018
20
-41.8629
11
93.715
21
-41.9797
0
LINE
8
BLACK
6
CONTINUOUS
10
93.715
20
-41.9797
11
93.715
21
-41.9797
0
LINE
8
BLACK
6
CONTINUOUS
10
93.715
20
-41.9797
11
93.715
21
-48.9797
0
LINE
8
BLACK
6
CONTINUOUS
10
93.715
20
-48.9797
11
93.7119
21
-48.9872
0
LINE
8
BLACK
6
CONTINUOUS
10
93.7119
20
-48.9872
11
93.7272
21
-49.1037
0
LINE
8
BLACK
6
CONTINUOUS
10
93.7272
20
-49.1037
11
93.7751
21
-49.2193
0
LINE
8
BLACK
6
CONTINUOUS
10
93.7751
20
-49.2193
11
93.8512
21
-49.3185
0
LINE
8
BLACK
6
CONTINUOUS
10
93.8512
20
-49.3185
11
93.9504
21
-49.3946
0
LINE
8
BLACK
6
CONTINUOUS
10
93.9504
20
-49.3946
11
94.066
21
-49.4425
0
LINE
8
BLACK
6
CONTINUOUS
10
94.066
20
-49.4425
11
94.1825
21
-49.4578
0
LINE
8
BLACK
6
CONTINUOUS
10
94.1825
20
-49.4578
11
94.19
21
-49.4547
0
LINE
8
BLACK
6
CONTINUOUS
10
94.19
20
-49.4547
11
103.99
21
-49.4547
0
LINE
8
BLACK
6
CONTINUOUS
10
103.99
20
-49.4547
11
103.997
21
-49.4578
0
LINE
8
BLACK
6
CONTINUOUS
10
103.997
20
-49.4578
11
104.114
21
-49.4425
0
LINE
8
BLACK
6
CONTINUOUS
10
104.114
20
-49.4425
11
104.23
21
-49.3946
0
LINE
8
BLACK
6
CONTINUOUS
10
104.23
20
-49.3946
11
104.329
21
-49.3185
0
LINE
8
BLACK
6
CONTINUOUS
10
104.329
20
-49.3185
11
104.405
21
-49.2193
0
LINE
8
BLACK
6
CONTINUOUS
10
104.405
20
-49.2193
11
104.453
21
-49.1037
0
LINE
8
BLACK
6
CONTINUOUS
10
104.453
20
-49.1037
11
104.468
21
-48.9872
0
LINE
8
BLACK
6
CONTINUOUS
10
104.468
20
-48.9872
11
104.465
21
-48.9797
0
LINE
8
BLACK
6
CONTINUOUS
10
104.465
20
-48.9797
11
104.465
21
-41.9797
0
LINE
8
BLACK
6
CONTINUOUS
10
104.465
20
-41.9797
11
104.478
21
-41.8629
0
LINE
8
BLACK
6
CONTINUOUS
10
104.478
20
-41.8629
11
104.517
21
-41.7519
0
LINE
8
BLACK
6
CONTINUOUS
10
104.517
20
-41.7519
11
104.58
21
-41.6524
0
LINE
8
BLACK
6
CONTINUOUS
10
104.58
20
-41.6524
11
104.663
21
-41.5692
0
LINE
8
BLACK
6
CONTINUOUS
10
104.663
20
-41.5692
11
104.762
21
-41.5067
0
LINE
8
BLACK
6
CONTINUOUS
10
104.762
20
-41.5067
11
104.873
21
-41.4679
0
LINE
8
BLACK
6
CONTINUOUS
10
104.873
20
-41.4679
11
104.99
21
-41.4547
0
LINE
8
BLACK
6
CONTINUOUS
10
104.99
20
-41.4547
11
104.99
21
-41.4547
0
LINE
8
BLACK
6
CONTINUOUS
10
104.99
20
-41.4547
11
127.936
21
-41.4547
0
LINE
8
BLACK
6
CONTINUOUS
10
127.936
20
-41.4547
11
127.943
21
-41.4577
0
LINE
8
BLACK
6
CONTINUOUS
10
127.943
20
-41.4577
11
128.106
21
-41.4435
0
LINE
8
BLACK
6
CONTINUOUS
10
128.106
20
-41.4435
11
128.271
21
-41.3994
0
LINE
8
BLACK
6
CONTINUOUS
10
128.271
20
-41.3994
11
128.425
21
-41.3273
0
LINE
8
BLACK
6
CONTINUOUS
10
128.425
20
-41.3273
11
128.565
21
-41.2294
0
LINE
8
BLACK
6
CONTINUOUS
10
128.565
20
-41.2294
11
128.686
21
-41.1088
0
LINE
8
BLACK
6
CONTINUOUS
10
128.686
20
-41.1088
11
128.784
21
-40.9691
0
LINE
8
BLACK
6
CONTINUOUS
10
128.784
20
-40.9691
11
128.856
21
-40.8144
0
LINE
8
BLACK
6
CONTINUOUS
10
128.856
20
-40.8144
11
128.9
21
-40.6497
0
LINE
8
BLACK
6
CONTINUOUS
10
128.9
20
-40.6497
11
128.914
21
-40.4871
0
LINE
8
BLACK
6
CONTINUOUS
10
128.914
20
-40.4871
11
128.911
21
-40.4797
0
LINE
8
BLACK
6
CONTINUOUS
10
128.911
20
-40.4797
11
128.911
21
-39.9797
0
LINE
8
BLACK
6
CONTINUOUS
10
128.911
20
-39.9797
11
128.927
21
-39.8017
0
LINE
8
BLACK
6
CONTINUOUS
10
128.927
20
-39.8017
11
128.973
21
-39.6292
0
LINE
8
BLACK
6
CONTINUOUS
10
128.973
20
-39.6292
11
129.048
21
-39.4672
0
LINE
8
BLACK
6
CONTINUOUS
10
129.048
20
-39.4672
11
129.151
21
-39.3209
0
LINE
8
BLACK
6
CONTINUOUS
10
129.151
20
-39.3209
11
129.277
21
-39.1945
0
LINE
8
BLACK
6
CONTINUOUS
10
129.277
20
-39.1945
11
129.423
21
-39.0921
0
LINE
8
BLACK
6
CONTINUOUS
10
129.423
20
-39.0921
11
129.585
21
-39.0165
0
LINE
8
BLACK
6
CONTINUOUS
10
129.585
20
-39.0165
11
129.758
21
-38.9703
0
LINE
8
BLACK
6
CONTINUOUS
10
129.758
20
-38.9703
11
129.936
21
-38.9548
0
LINE
8
BLACK
6
CONTINUOUS
10
129.936
20
-38.9548
11
129.936
21
-38.9547
0
LINE
8
BLACK
6
CONTINUOUS
10
129.936
20
-38.9547
11
146.986
21
-38.9547
0
LINE
8
BLACK
6
CONTINUOUS
10
146.986
20
-38.9547
11
146.993
21
-38.9577
0
LINE
8
BLACK
6
CONTINUOUS
10
146.993
20
-38.9577
11
147.156
21
-38.9435
0
LINE
8
BLACK
6
CONTINUOUS
10
147.156
20
-38.9435
11
147.321
21
-38.8994
0
LINE
8
BLACK
6
CONTINUOUS
10
147.321
20
-38.8994
11
147.475
21
-38.8273
0
LINE
8
BLACK
6
CONTINUOUS
10
147.475
20
-38.8273
11
147.615
21
-38.7294
0
LINE
8
BLACK
6
CONTINUOUS
10
147.615
20
-38.7294
11
147.736
21
-38.6088
0
LINE
8
BLACK
6
CONTINUOUS
10
147.736
20
-38.6088
11
147.834
21
-38.4691
0
LINE
8
BLACK
6
CONTINUOUS
10
147.834
20
-38.4691
11
147.906
21
-38.3145
0
LINE
8
BLACK
6
CONTINUOUS
10
147.906
20
-38.3145
11
147.95
21
-38.1497
0
LINE
8
BLACK
6
CONTINUOUS
10
147.95
20
-38.1497
11
147.964
21
-37.9871
0
LINE
8
BLACK
6
CONTINUOUS
10
147.964
20
-37.9871
11
147.963
21
-37.9857
0
LINE
8
BLACK
6
CONTINUOUS
10
147.963
20
-37.9857
11
147.961
21
-37.9797
0
LINE
8
BLACK
6
CONTINUOUS
10
147.961
20
-37.9797
11
147.961
21
-37.4797
0
LINE
8
BLACK
6
CONTINUOUS
10
147.961
20
-37.4797
11
147.977
21
-37.3017
0
LINE
8
BLACK
6
CONTINUOUS
10
147.977
20
-37.3017
11
148.023
21
-37.1292
0
LINE
8
BLACK
6
CONTINUOUS
10
148.023
20
-37.1292
11
148.098
21
-36.9672
0
LINE
8
BLACK
6
CONTINUOUS
10
148.098
20
-36.9672
11
148.201
21
-36.8209
0
LINE
8
BLACK
6
CONTINUOUS
10
148.201
20
-36.8209
11
148.327
21
-36.6945
0
LINE
8
BLACK
6
CONTINUOUS
10
148.327
20
-36.6945
11
148.473
21
-36.5921
0
LINE
8
BLACK
6
CONTINUOUS
10
148.473
20
-36.5921
11
148.635
21
-36.5165
0
LINE
8
BLACK
6
CONTINUOUS
10
148.635
20
-36.5165
11
148.808
21
-36.4703
0
LINE
8
BLACK
6
CONTINUOUS
10
148.808
20
-36.4703
11
148.986
21
-36.4548
0
LINE
8
BLACK
6
CONTINUOUS
10
148.986
20
-36.4548
11
148.986
21
-36.4547
0
LINE
8
BLACK
6
CONTINUOUS
10
148.986
20
-36.4547
11
165.036
21
-36.4547
0
LINE
8
BLACK
6
CONTINUOUS
10
165.036
20
-36.4547
11
165.214
21
-36.4703
0
LINE
8
BLACK
6
CONTINUOUS
10
165.214
20
-36.4703
11
165.387
21
-36.5165
0
LINE
8
BLACK
6
CONTINUOUS
10
165.387
20
-36.5165
11
165.548
21
-36.592
0
LINE
8
BLACK
6
CONTINUOUS
10
165.548
20
-36.592
11
165.695
21
-36.6945
0
LINE
8
BLACK
6
CONTINUOUS
10
165.695
20
-36.6945
11
165.821
21
-36.8208
0
LINE
8
BLACK
6
CONTINUOUS
10
165.821
20
-36.8208
11
165.924
21
-36.9672
0
LINE
8
BLACK
6
CONTINUOUS
10
165.924
20
-36.9672
11
165.999
21
-37.1291
0
LINE
8
BLACK
6
CONTINUOUS
10
165.999
20
-37.1291
11
166.045
21
-37.3017
0
LINE
8
BLACK
6
CONTINUOUS
10
166.045
20
-37.3017
11
166.061
21
-37.4797
0
LINE
8
BLACK
6
CONTINUOUS
10
166.061
20
-37.4797
11
166.061
21
-37.4797
0
LINE
8
BLACK
6
CONTINUOUS
10
166.061
20
-37.4797
11
166.061
21
-40.1797
0
LINE
8
BLACK
6
CONTINUOUS
10
166.061
20
-40.1797
11
166.058
21
-40.186
0
LINE
8
BLACK
6
CONTINUOUS
10
166.058
20
-40.186
11
166.058
21
-40.1873
0
LINE
8
BLACK
6
CONTINUOUS
10
166.058
20
-40.1873
11
166.072
21
-40.3497
0
LINE
8
BLACK
6
CONTINUOUS
10
166.072
20
-40.3497
11
166.116
21
-40.5145
0
LINE
8
BLACK
6
CONTINUOUS
10
166.116
20
-40.5145
11
166.188
21
-40.6691
0
LINE
8
BLACK
6
CONTINUOUS
10
166.188
20
-40.6691
11
166.286
21
-40.8088
0
LINE
8
BLACK
6
CONTINUOUS
10
166.286
20
-40.8088
11
166.407
21
-40.9295
0
LINE
8
BLACK
6
CONTINUOUS
10
166.407
20
-40.9295
11
166.547
21
-41.0273
0
LINE
8
BLACK
6
CONTINUOUS
10
166.547
20
-41.0273
11
166.701
21
-41.0994
0
LINE
8
BLACK
6
CONTINUOUS
10
166.701
20
-41.0994
11
166.866
21
-41.1436
0
LINE
8
BLACK
6
CONTINUOUS
10
166.866
20
-41.1436
11
167.029
21
-41.1578
0
LINE
8
BLACK
6
CONTINUOUS
10
167.029
20
-41.1578
11
167.036
21
-41.1547
0
LINE
8
BLACK
6
CONTINUOUS
10
167.036
20
-41.1547
11
184.086
21
-41.1547
0
LINE
8
BLACK
6
CONTINUOUS
10
184.086
20
-41.1547
11
184.264
21
-41.1703
0
LINE
8
BLACK
6
CONTINUOUS
10
148.979
20
-36.5017
11
148.816
21
-36.5159
0
LINE
8
BLACK
6
CONTINUOUS
10
148.816
20
-36.5159
11
148.651
21
-36.56
0
LINE
8
BLACK
6
CONTINUOUS
10
148.651
20
-36.56
11
148.497
21
-36.6321
0
LINE
8
BLACK
6
CONTINUOUS
10
148.497
20
-36.6321
11
148.357
21
-36.73
0
LINE
8
BLACK
6
CONTINUOUS
10
148.357
20
-36.73
11
148.236
21
-36.8506
0
LINE
8
BLACK
6
CONTINUOUS
10
148.236
20
-36.8506
11
148.138
21
-36.9904
0
LINE
8
BLACK
6
CONTINUOUS
10
148.138
20
-36.9904
11
148.066
21
-37.145
0
LINE
8
BLACK
6
CONTINUOUS
10
148.066
20
-37.145
11
148.022
21
-37.3098
0
LINE
8
BLACK
6
CONTINUOUS
10
148.022
20
-37.3098
11
148.008
21
-37.4723
0
LINE
8
BLACK
6
CONTINUOUS
10
148.008
20
-37.4723
11
148.011
21
-37.4797
0
LINE
8
BLACK
6
CONTINUOUS
10
148.011
20
-37.4797
11
148.011
21
-37.9797
0
LINE
8
BLACK
6
CONTINUOUS
10
148.011
20
-37.9797
11
147.995
21
-38.1577
0
LINE
8
BLACK
6
CONTINUOUS
10
147.995
20
-38.1577
11
147.949
21
-38.3303
0
LINE
8
BLACK
6
CONTINUOUS
10
147.949
20
-38.3303
11
147.874
21
-38.4922
0
LINE
8
BLACK
6
CONTINUOUS
10
147.874
20
-38.4922
11
147.771
21
-38.6386
0
LINE
8
BLACK
6
CONTINUOUS
10
147.771
20
-38.6386
11
147.645
21
-38.7649
0
LINE
8
BLACK
6
CONTINUOUS
10
147.645
20
-38.7649
11
147.498
21
-38.8674
0
LINE
8
BLACK
6
CONTINUOUS
10
147.498
20
-38.8674
11
147.337
21
-38.9429
0
LINE
8
BLACK
6
CONTINUOUS
10
147.337
20
-38.9429
11
147.164
21
-38.9891
0
LINE
8
BLACK
6
CONTINUOUS
10
147.164
20
-38.9891
11
146.986
21
-39.0046
0
LINE
8
BLACK
6
CONTINUOUS
10
146.986
20
-39.0046
11
146.986
21
-39.0047
0
LINE
8
BLACK
6
CONTINUOUS
10
146.986
20
-39.0047
11
129.936
21
-39.0047
0
LINE
8
BLACK
6
CONTINUOUS
10
129.936
20
-39.0047
11
129.929
21
-39.0017
0
LINE
8
BLACK
6
CONTINUOUS
10
129.929
20
-39.0017
11
129.766
21
-39.0159
0
LINE
8
BLACK
6
CONTINUOUS
10
129.766
20
-39.0159
11
129.601
21
-39.06
0
LINE
8
BLACK
6
CONTINUOUS
10
129.601
20
-39.06
11
129.447
21
-39.1321
0
LINE
8
BLACK
6
CONTINUOUS
10
129.447
20
-39.1321
11
129.307
21
-39.23
0
LINE
8
BLACK
6
CONTINUOUS
10
129.307
20
-39.23
11
129.186
21
-39.3506
0
LINE
8
BLACK
6
CONTINUOUS
10
129.186
20
-39.3506
11
129.088
21
-39.4904
0
LINE
8
BLACK
6
CONTINUOUS
10
129.088
20
-39.4904
11
129.016
21
-39.645
0
LINE
8
BLACK
6
CONTINUOUS
10
129.016
20
-39.645
11
128.972
21
-39.8098
0
LINE
8
BLACK
6
CONTINUOUS
10
128.972
20
-39.8098
11
128.958
21
-39.9723
0
LINE
8
BLACK
6
CONTINUOUS
10
128.958
20
-39.9723
11
128.961
21
-39.9797
0
LINE
8
BLACK
6
CONTINUOUS
10
128.961
20
-39.9797
11
128.961
21
-40.4797
0
LINE
8
BLACK
6
CONTINUOUS
10
128.961
20
-40.4797
11
128.945
21
-40.6577
0
LINE
8
BLACK
6
CONTINUOUS
10
128.945
20
-40.6577
11
128.899
21
-40.8303
0
LINE
8
BLACK
6
CONTINUOUS
10
128.899
20
-40.8303
11
128.824
21
-40.9922
0
LINE
8
BLACK
6
CONTINUOUS
10
128.824
20
-40.9922
11
128.721
21
-41.1385
0
LINE
8
BLACK
6
CONTINUOUS
10
128.721
20
-41.1385
11
128.595
21
-41.2649
0
LINE
8
BLACK
6
CONTINUOUS
10
128.595
20
-41.2649
11
128.448
21
-41.3674
0
LINE
8
BLACK
6
CONTINUOUS
10
128.448
20
-41.3674
11
128.287
21
-41.4429
0
LINE
8
BLACK
6
CONTINUOUS
10
128.287
20
-41.4429
11
128.114
21
-41.4891
0
LINE
8
BLACK
6
CONTINUOUS
10
128.114
20
-41.4891
11
127.936
21
-41.5046
0
LINE
8
BLACK
6
CONTINUOUS
10
127.936
20
-41.5046
11
127.936
21
-41.5047
0
LINE
8
BLACK
6
CONTINUOUS
10
127.936
20
-41.5047
11
104.99
21
-41.5047
0
LINE
8
BLACK
6
CONTINUOUS
10
104.99
20
-41.5047
11
104.982
21
-41.5016
0
LINE
8
BLACK
6
CONTINUOUS
10
104.982
20
-41.5016
11
104.866
21
-41.5169
0
LINE
8
BLACK
6
CONTINUOUS
10
104.866
20
-41.5169
11
104.75
21
-41.5648
0
LINE
8
BLACK
6
CONTINUOUS
10
104.75
20
-41.5648
11
104.651
21
-41.6409
0
LINE
8
BLACK
6
CONTINUOUS
10
104.651
20
-41.6409
11
104.575
21
-41.7402
0
LINE
8
BLACK
6
CONTINUOUS
10
104.575
20
-41.7402
11
104.527
21
-41.8557
0
LINE
8
BLACK
6
CONTINUOUS
10
104.527
20
-41.8557
11
104.512
21
-41.9722
0
LINE
8
BLACK
6
CONTINUOUS
10
104.512
20
-41.9722
11
104.512
21
-41.9722
0
LINE
8
BLACK
6
CONTINUOUS
10
104.512
20
-41.9722
11
104.515
21
-41.9797
0
LINE
8
BLACK
6
CONTINUOUS
10
104.515
20
-41.9797
11
104.515
21
-48.9797
0
LINE
8
BLACK
6
CONTINUOUS
10
104.515
20
-48.9797
11
104.502
21
-49.0965
0
LINE
8
BLACK
6
CONTINUOUS
10
104.502
20
-49.0965
11
104.463
21
-49.2075
0
LINE
8
BLACK
6
CONTINUOUS
10
104.463
20
-49.2075
11
104.4
21
-49.307
0
LINE
8
BLACK
6
CONTINUOUS
10
104.4
20
-49.307
11
104.317
21
-49.3902
0
LINE
8
BLACK
6
CONTINUOUS
10
104.317
20
-49.3902
11
104.218
21
-49.4527
0
LINE
8
BLACK
6
CONTINUOUS
10
104.218
20
-49.4527
11
104.107
21
-49.4915
0
LINE
8
BLACK
6
CONTINUOUS
10
104.107
20
-49.4915
11
103.99
21
-49.5047
0
LINE
8
BLACK
6
CONTINUOUS
10
103.99
20
-49.5047
11
103.99
21
-49.5047
0
LINE
8
BLACK
6
CONTINUOUS
10
103.99
20
-49.5047
11
94.19
21
-49.5047
0
LINE
8
BLACK
6
CONTINUOUS
10
94.19
20
-49.5047
11
94.0732
21
-49.4915
0
LINE
8
BLACK
6
CONTINUOUS
10
94.0732
20
-49.4915
11
93.9622
21
-49.4527
0
LINE
8
BLACK
6
CONTINUOUS
10
93.9622
20
-49.4527
11
93.8627
21
-49.3902
0
LINE
8
BLACK
6
CONTINUOUS
10
93.8627
20
-49.3902
11
93.7795
21
-49.307
0
LINE
8
BLACK
6
CONTINUOUS
10
93.7795
20
-49.307
11
93.717
21
-49.2075
0
LINE
8
BLACK
6
CONTINUOUS
10
93.717
20
-49.2075
11
93.6782
21
-49.0965
0
LINE
8
BLACK
6
CONTINUOUS
10
93.6782
20
-49.0965
11
93.665
21
-48.9797
0
LINE
8
BLACK
6
CONTINUOUS
10
93.665
20
-48.9797
11
93.665
21
-48.9797
0
LINE
8
BLACK
6
CONTINUOUS
10
93.665
20
-48.9797
11
93.665
21
-41.9797
0
LINE
8
BLACK
6
CONTINUOUS
10
93.665
20
-41.9797
11
93.6681
21
-41.9722
0
LINE
8
BLACK
6
CONTINUOUS
10
93.6681
20
-41.9722
11
93.6528
21
-41.8557
0
LINE
8
BLACK
6
CONTINUOUS
10
93.6528
20
-41.8557
11
93.6049
21
-41.7402
0
LINE
8
BLACK
6
CONTINUOUS
10
93.6049
20
-41.7402
11
93.5288
21
-41.6409
0
LINE
8
BLACK
6
CONTINUOUS
10
93.5288
20
-41.6409
11
93.4295
21
-41.5648
0
LINE
8
BLACK
6
CONTINUOUS
10
93.4295
20
-41.5648
11
93.314
21
-41.5169
0
LINE
8
BLACK
6
CONTINUOUS
10
93.314
20
-41.5169
11
93.1975
21
-41.5016
0
LINE
8
BLACK
6
CONTINUOUS
10
93.1975
20
-41.5016
11
93.19
21
-41.5047
0
LINE
8
BLACK
6
CONTINUOUS
10
93.19
20
-41.5047
11
90.19
21
-41.5047
0
LINE
8
BLACK
6
CONTINUOUS
10
90.19
20
-41.5047
11
90.1826
21
-41.5016
0
LINE
8
BLACK
6
CONTINUOUS
10
90.1826
20
-41.5016
11
90.02
21
-41.5158
0
LINE
8
BLACK
6
CONTINUOUS
10
90.02
20
-41.5158
11
89.8553
21
-41.56
0
LINE
8
BLACK
6
CONTINUOUS
10
89.8553
20
-41.56
11
89.7006
21
-41.6321
0
LINE
8
BLACK
6
CONTINUOUS
10
89.7006
20
-41.6321
11
89.5609
21
-41.73
0
LINE
8
BLACK
6
CONTINUOUS
10
89.5609
20
-41.73
11
89.4402
21
-41.8506
0
LINE
8
BLACK
6
CONTINUOUS
10
89.4402
20
-41.8506
11
89.3424
21
-41.9903
0
LINE
8
BLACK
6
CONTINUOUS
10
89.3424
20
-41.9903
11
89.2703
21
-42.145
0
LINE
8
BLACK
6
CONTINUOUS
10
89.2703
20
-42.145
11
89.2261
21
-42.3098
0
LINE
8
BLACK
6
CONTINUOUS
10
89.2261
20
-42.3098
11
89.2119
21
-42.4723
0
LINE
8
BLACK
6
CONTINUOUS
10
89.2119
20
-42.4723
11
89.215
21
-42.4797
0
LINE
8
BLACK
6
CONTINUOUS
10
89.215
20
-42.4797
11
89.215
21
-119
0
LINE
8
BLACK
6
CONTINUOUS
10
89.215
20
-119
11
89.2124
21
-119.006
0
LINE
8
BLACK
6
CONTINUOUS
10
89.2124
20
-119.006
11
89.2113
21
-119.013
0
LINE
8
BLACK
6
CONTINUOUS
10
89.2113
20
-119.013
11
80.3118
21
-133.512
0
LINE
8
BLACK
6
CONTINUOUS
10
80.3118
20
-133.512
11
65.812
21
-158.627
0
LINE
8
BLACK
6
CONTINUOUS
10
65.812
20
-158.627
11
65.8057
21
-158.632
0
LINE
8
BLACK
6
CONTINUOUS
10
65.8057
20
-158.632
11
65.7367
21
-158.78
0
LINE
8
BLACK
6
CONTINUOUS
10
65.7367
20
-158.78
11
65.6925
21
-158.944
0
LINE
8
BLACK
6
CONTINUOUS
10
65.6925
20
-158.944
11
65.6776
21
-159.114
0
LINE
8
BLACK
6
CONTINUOUS
10
65.6776
20
-159.114
11
65.6925
21
-159.284
0
LINE
8
BLACK
6
CONTINUOUS
10
65.6925
20
-159.284
11
65.7367
21
-159.449
0
LINE
8
BLACK
6
CONTINUOUS
10
65.7367
20
-159.449
11
65.8088
21
-159.604
0
LINE
8
BLACK
6
CONTINUOUS
10
65.8088
20
-159.604
11
65.9066
21
-159.743
0
LINE
8
BLACK
6
CONTINUOUS
10
65.9066
20
-159.743
11
66.0272
21
-159.864
0
LINE
8
BLACK
6
CONTINUOUS
10
66.0272
20
-159.864
11
66.1609
21
-159.958
0
LINE
8
BLACK
6
CONTINUOUS
10
66.1609
20
-159.958
11
66.1688
21
-159.959
0
LINE
8
BLACK
6
CONTINUOUS
10
66.1688
20
-159.959
11
81.7573
21
-168.959
0
LINE
8
BLACK
6
CONTINUOUS
10
81.7573
20
-168.959
11
81.7622
21
-168.965
0
LINE
8
BLACK
6
CONTINUOUS
10
81.7622
20
-168.965
11
81.9101
21
-169.034
0
LINE
8
BLACK
6
CONTINUOUS
10
81.9101
20
-169.034
11
82.0748
21
-169.078
0
LINE
8
BLACK
6
CONTINUOUS
10
82.0748
20
-169.078
11
82.2448
21
-169.093
0
LINE
8
BLACK
6
CONTINUOUS
10
82.2448
20
-169.093
11
82.4148
21
-169.078
0
LINE
8
BLACK
6
CONTINUOUS
10
82.4148
20
-169.078
11
82.5796
21
-169.034
0
LINE
8
BLACK
6
CONTINUOUS
10
82.5796
20
-169.034
11
82.7342
21
-168.962
0
LINE
8
BLACK
6
CONTINUOUS
10
82.7342
20
-168.962
11
82.8739
21
-168.864
0
LINE
8
BLACK
6
CONTINUOUS
10
82.8739
20
-168.864
11
82.9946
21
-168.743
0
LINE
8
BLACK
6
CONTINUOUS
10
82.9946
20
-168.743
11
83.0881
21
-168.61
0
LINE
8
BLACK
6
CONTINUOUS
10
83.0881
20
-168.61
11
83.0892
21
-168.602
0
LINE
8
BLACK
6
CONTINUOUS
10
83.0892
20
-168.602
11
83.0892
21
-168.602
0
LINE
8
BLACK
6
CONTINUOUS
10
83.0892
20
-168.602
11
95.696
21
-146.766
0
LINE
8
BLACK
6
CONTINUOUS
10
95.696
20
-146.766
11
95.7112
21
-146.754
0
LINE
8
BLACK
6
CONTINUOUS
10
95.7112
20
-146.754
11
95.7208
21
-146.756
0
LINE
8
BLACK
6
CONTINUOUS
10
95.7208
20
-146.756
11
95.7214
21
-146.755
0
LINE
8
BLACK
6
CONTINUOUS
10
95.7214
20
-146.755
11
103.265
21
-144.008
0
LINE
8
BLACK
6
CONTINUOUS
10
103.265
20
-144.008
11
103.265
21
-144.008
0
LINE
8
BLACK
6
CONTINUOUS
10
103.265
20
-144.008
11
103.265
21
-144.008
0
LINE
8
BLACK
6
CONTINUOUS
10
103.265
20
-144.008
11
103.432
21
-143.952
0
LINE
8
BLACK
6
CONTINUOUS
10
103.432
20
-143.952
11
103.601
21
-143.907
0
LINE
8
BLACK
6
CONTINUOUS
10
103.601
20
-143.907
11
103.773
21
-143.871
0
LINE
8
BLACK
6
CONTINUOUS
10
103.773
20
-143.871
11
103.773
21
-143.871
0
LINE
8
BLACK
6
CONTINUOUS
10
103.773
20
-143.871
11
103.773
21
-143.871
0
LINE
8
BLACK
6
CONTINUOUS
10
103.773
20
-143.871
11
122.6
21
-140.544
0
LINE
8
BLACK
6
CONTINUOUS
10
122.6
20
-140.544
11
122.6
21
-140.544
0
LINE
8
BLACK
6
CONTINUOUS
10
122.6
20
-140.544
11
122.6
21
-140.544
0
LINE
8
BLACK
6
CONTINUOUS
10
122.6
20
-140.544
11
122.6
21
-140.544
0
LINE
8
BLACK
6
CONTINUOUS
10
122.6
20
-140.544
11
122.77
21
-140.519
0
LINE
8
BLACK
6
CONTINUOUS
10
122.77
20
-140.519
11
122.941
21
-140.504
0
LINE
8
BLACK
6
CONTINUOUS
10
122.941
20
-140.504
11
123.113
21
-140.498
0
LINE
8
BLACK
6
CONTINUOUS
10
123.113
20
-140.498
11
123.113
21
-140.498
0
LINE
8
BLACK
6
CONTINUOUS
10
123.113
20
-140.498
11
141.991
21
-140.409
0
LINE
8
BLACK
6
CONTINUOUS
10
141.991
20
-140.409
11
141.998
21
-140.412
0
LINE
8
BLACK
6
CONTINUOUS
10
141.998
20
-140.412
11
142.16
21
-140.397
0
LINE
8
BLACK
6
CONTINUOUS
10
142.16
20
-140.397
11
142.324
21
-140.353
0
LINE
8
BLACK
6
CONTINUOUS
10
142.324
20
-140.353
11
142.478
21
-140.28
0
LINE
8
BLACK
6
CONTINUOUS
10
142.478
20
-140.28
11
142.617
21
-140.182
0
LINE
8
BLACK
6
CONTINUOUS
10
142.617
20
-140.182
11
142.737
21
-140.062
0
LINE
8
BLACK
6
CONTINUOUS
10
142.737
20
-140.062
11
142.834
21
-139.922
0
LINE
8
BLACK
6
CONTINUOUS
10
142.834
20
-139.922
11
142.906
21
-139.768
0
LINE
8
BLACK
6
CONTINUOUS
10
142.906
20
-139.768
11
142.95
21
-139.604
0
LINE
8
BLACK
6
CONTINUOUS
10
142.95
20
-139.604
11
142.964
21
-139.442
0
LINE
8
BLACK
6
CONTINUOUS
10
142.964
20
-139.442
11
142.961
21
-139.434
0
LINE
8
BLACK
6
CONTINUOUS
10
142.961
20
-139.434
11
142.961
21
-120.62
0
LINE
8
BLACK
6
CONTINUOUS
10
142.961
20
-120.62
11
142.974
21
-120.504
0
LINE
8
BLACK
6
CONTINUOUS
10
142.974
20
-120.504
11
143.013
21
-120.393
0
LINE
8
BLACK
6
CONTINUOUS
10
143.013
20
-120.393
11
143.075
21
-120.293
0
LINE
8
BLACK
6
CONTINUOUS
10
143.075
20
-120.293
11
143.158
21
-120.21
0
LINE
8
BLACK
6
CONTINUOUS
10
143.158
20
-120.21
11
143.257
21
-120.148
0
LINE
8
BLACK
6
CONTINUOUS
10
143.257
20
-120.148
11
143.368
21
-120.109
0
LINE
8
BLACK
6
CONTINUOUS
10
143.368
20
-120.109
11
143.484
21
-120.095
0
LINE
8
BLACK
6
CONTINUOUS
10
143.484
20
-120.095
11
143.485
21
-120.095
0
LINE
8
BLACK
6
CONTINUOUS
10
143.485
20
-120.095
11
143.485
21
-120.095
0
LINE
8
BLACK
6
CONTINUOUS
10
143.485
20
-120.095
11
146.983
21
-120.087
0
LINE
8
BLACK
6
CONTINUOUS
10
146.983
20
-120.087
11
146.983
21
-120.087
0
LINE
8
BLACK
6
CONTINUOUS
10
146.983
20
-120.087
11
147.162
21
-120.102
0
LINE
8
BLACK
6
CONTINUOUS
10
147.162
20
-120.102
11
147.335
21
-120.148
0
LINE
8
BLACK
6
CONTINUOUS
10
147.335
20
-120.148
11
147.497
21
-120.223
0
LINE
8
BLACK
6
CONTINUOUS
10
147.497
20
-120.223
11
147.644
21
-120.325
0
LINE
8
BLACK
6
CONTINUOUS
10
147.644
20
-120.325
11
147.77
21
-120.452
0
LINE
8
BLACK
6
CONTINUOUS
10
147.77
20
-120.452
11
147.873
21
-120.598
0
LINE
8
BLACK
6
CONTINUOUS
10
147.873
20
-120.598
11
147.949
21
-120.76
0
LINE
8
BLACK
6
CONTINUOUS
10
147.949
20
-120.76
11
147.995
21
-120.933
0
LINE
8
BLACK
6
CONTINUOUS
10
147.995
20
-120.933
11
148.011
21
-121.112
0
LINE
8
BLACK
6
CONTINUOUS
10
148.011
20
-121.112
11
148.011
21
-121.112
0
LINE
8
BLACK
6
CONTINUOUS
10
148.011
20
-121.112
11
148.011
21
-121.112
0
LINE
8
BLACK
6
CONTINUOUS
10
148.011
20
-121.112
11
148.011
21
-129.73
0
LINE
8
BLACK
6
CONTINUOUS
10
148.011
20
-129.73
11
148.008
21
-129.737
0
LINE
8
BLACK
6
CONTINUOUS
10
148.008
20
-129.737
11
148.022
21
-129.9
0
LINE
8
BLACK
6
CONTINUOUS
10
148.022
20
-129.9
11
148.066
21
-130.064
0
LINE
8
BLACK
6
CONTINUOUS
10
148.066
20
-130.064
11
148.138
21
-130.219
0
LINE
8
BLACK
6
CONTINUOUS
10
148.138
20
-130.219
11
148.236
21
-130.359
0
LINE
8
BLACK
6
CONTINUOUS
10
148.236
20
-130.359
11
148.357
21
-130.479
0
LINE
8
BLACK
6
CONTINUOUS
10
148.357
20
-130.479
11
148.497
21
-130.577
0
LINE
8
BLACK
6
CONTINUOUS
10
148.497
20
-130.577
11
148.651
21
-130.649
0
LINE
8
BLACK
6
CONTINUOUS
10
148.651
20
-130.649
11
148.816
21
-130.694
0
LINE
8
BLACK
6
CONTINUOUS
10
148.816
20
-130.694
11
148.979
21
-130.708
0
LINE
8
BLACK
6
CONTINUOUS
10
148.979
20
-130.708
11
148.986
21
-130.705
0
LINE
8
BLACK
6
CONTINUOUS
10
148.986
20
-130.705
11
166.036
21
-130.705
0
LINE
8
BLACK
6
CONTINUOUS
10
166.036
20
-130.705
11
166.214
21
-130.72
0
LINE
8
BLACK
6
CONTINUOUS
10
166.214
20
-130.72
11
166.387
21
-130.767
0
LINE
8
BLACK
6
CONTINUOUS
10
166.387
20
-130.767
11
166.548
21
-130.842
0
LINE
8
BLACK
6
CONTINUOUS
10
166.548
20
-130.842
11
166.695
21
-130.944
0
LINE
8
BLACK
6
CONTINUOUS
10
166.695
20
-130.944
11
166.821
21
-131.071
0
LINE
8
BLACK
6
CONTINUOUS
10
166.821
20
-131.071
11
166.924
21
-131.217
0
LINE
8
BLACK
6
CONTINUOUS
10
166.924
20
-131.217
11
166.999
21
-131.379
0
LINE
8
BLACK
6
CONTINUOUS
10
166.999
20
-131.379
11
167.045
21
-131.552
0
LINE
8
BLACK
6
CONTINUOUS
10
167.045
20
-131.552
11
167.061
21
-131.73
0
LINE
8
BLACK
6
CONTINUOUS
10
167.061
20
-131.73
11
167.061
21
-131.73
0
LINE
8
BLACK
6
CONTINUOUS
10
167.061
20
-131.73
11
167.061
21
-134.43
0
LINE
8
BLACK
6
CONTINUOUS
10
167.061
20
-134.43
11
167.058
21
-134.437
0
LINE
8
BLACK
6
CONTINUOUS
10
167.058
20
-134.437
11
167.072
21
-134.6
0
LINE
8
BLACK
6
CONTINUOUS
10
167.072
20
-134.6
11
167.116
21
-134.764
0
LINE
8
BLACK
6
CONTINUOUS
10
167.116
20
-134.764
11
167.188
21
-134.919
0
LINE
8
BLACK
6
CONTINUOUS
10
167.188
20
-134.919
11
167.286
21
-135.059
0
LINE
8
BLACK
6
CONTINUOUS
10
167.286
20
-135.059
11
167.407
21
-135.179
0
LINE
8
BLACK
6
CONTINUOUS
10
167.407
20
-135.179
11
167.547
21
-135.277
0
LINE
8
BLACK
6
CONTINUOUS
10
167.547
20
-135.277
11
167.701
21
-135.349
0
LINE
8
BLACK
6
CONTINUOUS
10
167.701
20
-135.349
11
167.866
21
-135.394
0
LINE
8
BLACK
6
CONTINUOUS
10
167.866
20
-135.394
11
168.029
21
-135.408
0
LINE
8
BLACK
6
CONTINUOUS
10
168.029
20
-135.408
11
168.036
21
-135.405
0
LINE
8
BLACK
6
CONTINUOUS
10
168.036
20
-135.405
11
185.086
21
-135.405
0
LINE
8
BLACK
6
CONTINUOUS
10
185.086
20
-135.405
11
185.264
21
-135.42
0
LINE
8
BLACK
6
CONTINUOUS
10
185.264
20
-135.42
11
185.437
21
-135.467
0
LINE
8
BLACK
6
CONTINUOUS
10
185.437
20
-135.467
11
185.598
21
-135.542
0
LINE
8
BLACK
6
CONTINUOUS
10
185.598
20
-135.542
11
185.745
21
-135.644
0
LINE
8
BLACK
6
CONTINUOUS
10
185.745
20
-135.644
11
185.871
21
-135.771
0
LINE
8
BLACK
6
CONTINUOUS
10
185.871
20
-135.771
11
185.974
21
-135.917
0
LINE
8
BLACK
6
CONTINUOUS
10
185.974
20
-135.917
11
186.049
21
-136.079
0
LINE
8
BLACK
6
CONTINUOUS
10
186.049
20
-136.079
11
186.095
21
-136.252
0
LINE
8
BLACK
6
CONTINUOUS
10
186.095
20
-136.252
11
186.111
21
-136.43
0
LINE
8
BLACK
6
CONTINUOUS
10
186.111
20
-136.43
11
186.111
21
-136.43
0
LINE
8
BLACK
6
CONTINUOUS
10
186.111
20
-136.43
11
186.111
21
-141.43
0
LINE
8
BLACK
6
CONTINUOUS
10
186.111
20
-141.43
11
186.108
21
-141.437
0
LINE
8
BLACK
6
CONTINUOUS
10
186.108
20
-141.437
11
186.122
21
-141.6
0
LINE
8
BLACK
6
CONTINUOUS
10
186.122
20
-141.6
11
186.166
21
-141.764
0
LINE
8
BLACK
6
CONTINUOUS
10
186.166
20
-141.764
11
186.238
21
-141.919
0
LINE
8
BLACK
6
CONTINUOUS
10
186.238
20
-141.919
11
186.336
21
-142.059
0
LINE
8
BLACK
6
CONTINUOUS
10
186.336
20
-142.059
11
186.457
21
-142.179
0
LINE
8
BLACK
6
CONTINUOUS
10
186.457
20
-142.179
11
186.597
21
-142.277
0
LINE
8
BLACK
6
CONTINUOUS
10
186.597
20
-142.277
11
186.751
21
-142.349
0
LINE
8
BLACK
6
CONTINUOUS
10
186.751
20
-142.349
11
186.916
21
-142.394
0
LINE
8
BLACK
6
CONTINUOUS
10
186.916
20
-142.394
11
187.079
21
-142.408
0
LINE
8
BLACK
6
CONTINUOUS
10
187.079
20
-142.408
11
187.086
21
-142.405
0
LINE
8
BLACK
6
CONTINUOUS
10
187.086
20
-142.405
11
222.186
21
-142.405
0
LINE
8
BLACK
6
CONTINUOUS
10
222.186
20
-142.405
11
222.193
21
-142.408
0
LINE
8
BLACK
6
CONTINUOUS
10
222.193
20
-142.408
11
222.356
21
-142.394
0
LINE
8
BLACK
6
CONTINUOUS
10
222.356
20
-142.394
11
222.521
21
-142.349
0
LINE
8
BLACK
6
CONTINUOUS
10
222.521
20
-142.349
11
222.675
21
-142.277
0
LINE
8
BLACK
6
CONTINUOUS
10
222.675
20
-142.277
11
222.815
21
-142.179
0
LINE
8
BLACK
6
CONTINUOUS
10
222.815
20
-142.179
11
222.936
21
-142.059
0
LINE
8
BLACK
6
CONTINUOUS
10
222.936
20
-142.059
11
223.034
21
-141.919
0
LINE
8
BLACK
6
CONTINUOUS
10
223.034
20
-141.919
11
223.106
21
-141.764
0
LINE
8
BLACK
6
CONTINUOUS
10
223.106
20
-141.764
11
223.15
21
-141.6
0
LINE
8
BLACK
6
CONTINUOUS
10
223.15
20
-141.6
11
223.164
21
-141.437
0
LINE
8
BLACK
6
CONTINUOUS
10
223.164
20
-141.437
11
223.161
21
-141.43
0
LINE
8
BLACK
6
CONTINUOUS
10
223.161
20
-141.43
11
223.161
21
-49.1797
0
LINE
8
BLACK
6
CONTINUOUS
10
223.161
20
-49.1797
11
223.164
21
-49.1722
0
LINE
8
BLACK
6
CONTINUOUS
10
223.164
20
-49.1722
11
223.15
21
-49.0098
0
LINE
8
BLACK
6
CONTINUOUS
10
223.15
20
-49.0098
11
223.106
21
-48.845
0
LINE
8
BLACK
6
CONTINUOUS
10
223.106
20
-48.845
11
223.034
21
-48.6903
0
LINE
8
BLACK
6
CONTINUOUS
10
223.034
20
-48.6903
11
222.936
21
-48.5506
0
LINE
8
BLACK
6
CONTINUOUS
10
222.936
20
-48.5506
11
222.815
21
-48.43
0
LINE
8
BLACK
6
CONTINUOUS
10
222.815
20
-48.43
11
222.675
21
-48.3321
0
LINE
8
BLACK
6
CONTINUOUS
10
222.675
20
-48.3321
11
222.521
21
-48.26
0
LINE
8
BLACK
6
CONTINUOUS
10
222.521
20
-48.26
11
222.356
21
-48.2159
0
LINE
8
BLACK
6
CONTINUOUS
10
222.356
20
-48.2159
11
222.193
21
-48.2016
0
LINE
8
BLACK
6
CONTINUOUS
10
222.193
20
-48.2016
11
222.186
21
-48.2047
0
LINE
8
BLACK
6
CONTINUOUS
10
222.186
20
-48.2047
11
186.086
21
-48.2047
0
LINE
8
BLACK
6
CONTINUOUS
10
186.086
20
-48.2047
11
185.908
21
-48.1892
0
LINE
8
BLACK
6
CONTINUOUS
10
185.908
20
-48.1892
11
185.735
21
-48.1429
0
LINE
8
BLACK
6
CONTINUOUS
10
185.735
20
-48.1429
11
185.573
21
-48.0674
0
LINE
8
BLACK
6
CONTINUOUS
10
185.573
20
-48.0674
11
185.427
21
-47.9649
0
LINE
8
BLACK
6
CONTINUOUS
10
185.427
20
-47.9649
11
185.301
21
-47.8386
0
LINE
8
BLACK
6
CONTINUOUS
10
185.301
20
-47.8386
11
185.198
21
-47.6922
0
LINE
8
BLACK
6
CONTINUOUS
10
185.198
20
-47.6922
11
185.123
21
-47.5303
0
LINE
8
BLACK
6
CONTINUOUS
10
185.123
20
-47.5303
11
185.076
21
-47.3577
0
LINE
8
BLACK
6
CONTINUOUS
10
185.076
20
-47.3577
11
185.061
21
-47.1797
0
LINE
8
BLACK
6
CONTINUOUS
10
185.061
20
-47.1797
11
185.061
21
-47.1797
0
LINE
8
BLACK
6
CONTINUOUS
10
185.061
20
-47.1797
11
185.061
21
-42.1797
0
LINE
8
BLACK
6
CONTINUOUS
10
185.061
20
-42.1797
11
185.064
21
-42.1722
0
LINE
8
BLACK
6
CONTINUOUS
10
185.064
20
-42.1722
11
185.05
21
-42.0098
0
LINE
8
BLACK
6
CONTINUOUS
10
185.05
20
-42.0098
11
185.006
21
-41.845
0
LINE
8
BLACK
6
CONTINUOUS
10
185.006
20
-41.845
11
184.934
21
-41.6903
0
LINE
8
BLACK
6
CONTINUOUS
10
184.934
20
-41.6903
11
184.836
21
-41.5506
0
LINE
8
BLACK
6
CONTINUOUS
10
184.836
20
-41.5506
11
184.715
21
-41.43
0
LINE
8
BLACK
6
CONTINUOUS
10
184.715
20
-41.43
11
184.575
21
-41.3321
0
LINE
8
BLACK
6
CONTINUOUS
10
184.575
20
-41.3321
11
184.421
21
-41.26
0
LINE
8
BLACK
6
CONTINUOUS
10
184.421
20
-41.26
11
184.256
21
-41.2159
0
LINE
8
BLACK
6
CONTINUOUS
10
184.256
20
-41.2159
11
184.093
21
-41.2016
0
LINE
8
BLACK
6
CONTINUOUS
10
184.093
20
-41.2016
11
184.086
21
-41.2047
0
LINE
8
BLACK
6
CONTINUOUS
10
184.086
20
-41.2047
11
167.036
21
-41.2047
0
LINE
8
BLACK
6
CONTINUOUS
10
167.036
20
-41.2047
11
166.858
21
-41.1892
0
LINE
8
BLACK
6
CONTINUOUS
10
166.858
20
-41.1892
11
166.685
21
-41.1429
0
LINE
8
BLACK
6
CONTINUOUS
10
166.685
20
-41.1429
11
166.523
21
-41.0674
0
LINE
8
BLACK
6
CONTINUOUS
10
166.523
20
-41.0674
11
166.377
21
-40.9649
0
LINE
8
BLACK
6
CONTINUOUS
10
166.377
20
-40.9649
11
166.251
21
-40.8386
0
LINE
8
BLACK
6
CONTINUOUS
10
166.251
20
-40.8386
11
166.148
21
-40.6922
0
LINE
8
BLACK
6
CONTINUOUS
10
166.148
20
-40.6922
11
166.073
21
-40.5303
0
LINE
8
BLACK
6
CONTINUOUS
10
166.073
20
-40.5303
11
166.026
21
-40.3577
0
LINE
8
BLACK
6
CONTINUOUS
10
166.026
20
-40.3577
11
166.011
21
-40.1797
0
LINE
8
BLACK
6
CONTINUOUS
10
166.011
20
-40.1797
11
166.011
21
-40.1797
0
LINE
8
BLACK
6
CONTINUOUS
10
166.011
20
-40.1797
11
166.011
21
-37.4797
0
LINE
8
BLACK
6
CONTINUOUS
10
166.011
20
-37.4797
11
166.014
21
-37.4722
0
LINE
8
BLACK
6
CONTINUOUS
10
166.014
20
-37.4722
11
166
21
-37.3098
0
LINE
8
BLACK
6
CONTINUOUS
10
166
20
-37.3098
11
165.956
21
-37.145
0
LINE
8
BLACK
6
CONTINUOUS
10
165.956
20
-37.145
11
165.884
21
-36.9903
0
LINE
8
BLACK
6
CONTINUOUS
10
165.884
20
-36.9903
11
165.786
21
-36.8506
0
LINE
8
BLACK
6
CONTINUOUS
10
165.786
20
-36.8506
11
165.665
21
-36.73
0
LINE
8
BLACK
6
CONTINUOUS
10
165.665
20
-36.73
11
165.525
21
-36.6321
0
LINE
8
BLACK
6
CONTINUOUS
10
165.525
20
-36.6321
11
165.371
21
-36.56
0
LINE
8
BLACK
6
CONTINUOUS
10
165.371
20
-36.56
11
165.206
21
-36.5159
0
LINE
8
BLACK
6
CONTINUOUS
10
165.206
20
-36.5159
11
165.043
21
-36.5016
0
LINE
8
BLACK
6
CONTINUOUS
10
165.043
20
-36.5016
11
165.036
21
-36.5047
0
LINE
8
BLACK
6
CONTINUOUS
10
165.036
20
-36.5047
11
148.986
21
-36.5047
0
LINE
8
BLACK
6
CONTINUOUS
10
148.986
20
-36.5047
11
148.979
21
-36.5017
  0
ENDSEC
  0
EOF
