%TF.GenerationSoftware,KiCad,Pcbnew,(6.0.4-0)*%
%TF.CreationDate,2022-08-10T17:19:40+09:00*%
%TF.ProjectId,KB62_L_rev1,4b423632-5f4c-45f7-9265-76312e6b6963,rev?*%
%TF.SameCoordinates,Original*%
%TF.FileFunction,Profile,NP*%
%FSLAX46Y46*%
G04 Gerber Fmt 4.6, Leading zero omitted, Abs format (unit mm)*
G04 Created by KiCad (PCBNEW (6.0.4-0)) date 2022-08-10 17:19:40*
%MOMM*%
%LPD*%
G01*
G04 APERTURE LIST*
%TA.AperFunction,Profile*%
%ADD10C,0.050000*%
%TD*%
G04 APERTURE END LIST*
D10*
X80290324Y-133499523D02*
X65790325Y-158614260D01*
X103273440Y-144031090D02*
X95730000Y-146778635D01*
X104990000Y-41479700D02*
G75*
G03*
X104490000Y-41979710I0J-500000D01*
G01*
X147985950Y-129729710D02*
X147985950Y-121111560D01*
X143484720Y-120120251D02*
G75*
G03*
X142985950Y-120620180I1180J-499949D01*
G01*
X186085950Y-48179720D02*
X204135950Y-48179720D01*
X129935950Y-38979750D02*
G75*
G03*
X128935950Y-39979720I-50J-999950D01*
G01*
X186085990Y-136429710D02*
G75*
G03*
X185085950Y-135429710I-999990J10D01*
G01*
X89190000Y-65529710D02*
X89190000Y-42479710D01*
X186085890Y-141429710D02*
G75*
G03*
X187085950Y-142429710I1000010J10D01*
G01*
X141990640Y-140434380D02*
X123112650Y-140522960D01*
X185085950Y-135429710D02*
X168035950Y-135429710D01*
X167035890Y-134429710D02*
G75*
G03*
X168035950Y-135429710I1000010J10D01*
G01*
X65790356Y-158614278D02*
G75*
G03*
X66156349Y-159980284I865944J-500022D01*
G01*
X142985950Y-120620180D02*
X142985950Y-139434400D01*
X148985950Y-36479750D02*
G75*
G03*
X147985950Y-37479720I-50J-999950D01*
G01*
X147985890Y-129729710D02*
G75*
G03*
X148985950Y-130729710I1000010J10D01*
G01*
X104490000Y-48979710D02*
X104490000Y-41979710D01*
X166035980Y-37479720D02*
G75*
G03*
X165035950Y-36479720I-999980J20D01*
G01*
X81744795Y-168980305D02*
G75*
G03*
X83110831Y-168614260I500005J866005D01*
G01*
X148985950Y-36479720D02*
X165035950Y-36479720D01*
X93689990Y-48979710D02*
G75*
G03*
X94190000Y-49479710I500010J10D01*
G01*
X147985950Y-37979720D02*
X147985950Y-37479720D01*
X103990000Y-49479700D02*
G75*
G03*
X104490000Y-48979710I0J500000D01*
G01*
X185085880Y-47179720D02*
G75*
G03*
X186085950Y-48179720I1000020J20D01*
G01*
X89190000Y-102400000D02*
X89190000Y-65529710D01*
X167035950Y-41179720D02*
X184085950Y-41179720D01*
X166035880Y-40179720D02*
G75*
G03*
X167035950Y-41179720I1000020J20D01*
G01*
X93690000Y-41979710D02*
X93690000Y-48979710D01*
X166035950Y-37479720D02*
X166035950Y-40179720D01*
X66156349Y-159980284D02*
X81744807Y-168980285D01*
X93689990Y-41979710D02*
G75*
G03*
X93190000Y-41479710I-499990J10D01*
G01*
X89190000Y-119000000D02*
X89190000Y-102400000D01*
X204135950Y-142429710D02*
X187085950Y-142429710D01*
X127935950Y-41479650D02*
G75*
G03*
X128935950Y-40479710I50J999950D01*
G01*
X90190000Y-41479710D02*
X93190000Y-41479710D01*
X166035950Y-130729710D02*
X148985950Y-130729710D01*
X185085950Y-42179720D02*
X185085950Y-47179720D01*
X83110832Y-168614260D02*
X95717636Y-146778635D01*
X147986033Y-121111560D02*
G75*
G03*
X146983490Y-120111570I-1000033J-40D01*
G01*
X185085980Y-42179720D02*
G75*
G03*
X184085950Y-41179720I-999980J20D01*
G01*
X146983490Y-120111570D02*
X143484720Y-120120190D01*
X167035950Y-134429710D02*
X167035950Y-131729710D01*
X94190000Y-49479710D02*
X103990000Y-49479710D01*
X223185950Y-49179720D02*
X223185950Y-141429710D01*
X128935950Y-40479710D02*
X128935950Y-39979720D01*
X223185980Y-49179720D02*
G75*
G03*
X222185950Y-48179720I-999980J20D01*
G01*
X141990640Y-140434339D02*
G75*
G03*
X142985950Y-139434400I-4640J999939D01*
G01*
X89190000Y-119000000D02*
X80290324Y-133499523D01*
X186085950Y-141429710D02*
X186085950Y-136429710D01*
X222185950Y-142429710D02*
X204135950Y-142429710D01*
X122604640Y-140568710D02*
X103777420Y-143895950D01*
X103777419Y-143895942D02*
G75*
G03*
X103273440Y-144031090I522081J-2954158D01*
G01*
X204135950Y-48179720D02*
X222185950Y-48179720D01*
X167035990Y-131729710D02*
G75*
G03*
X166035950Y-130729710I-999990J10D01*
G01*
X146985950Y-38979650D02*
G75*
G03*
X147985950Y-37979720I50J999950D01*
G01*
X90190000Y-41479700D02*
G75*
G03*
X89190000Y-42479710I0J-1000000D01*
G01*
X222185950Y-142429650D02*
G75*
G03*
X223185950Y-141429710I50J999950D01*
G01*
X123112650Y-140522970D02*
G75*
G03*
X122604640Y-140568710I14050J-3000030D01*
G01*
X129935950Y-38979720D02*
X146985950Y-38979720D01*
X104990000Y-41479710D02*
X127935950Y-41479710D01*
M02*
