M48
; DRILL file {KiCad (6.0.4-0)} date 
; FORMAT={-:-/ absolute / inch / decimal}
; #@! TF.CreationDate,2022-08-10T17:19:43+09:00
; #@! TF.GenerationSoftware,Kicad,Pcbnew,(6.0.4-0)
; #@! TF.FileFunction,Plated,1,2,PTH
FMAT,2
INCH
; #@! TA.AperFunction,Plated,PTH,ViaDrill
T1C0.0118
; #@! TA.AperFunction,Plated,PTH,ViaDrill
T2C0.0157
; #@! TA.AperFunction,Plated,PTH,ComponentDrill
T3C0.0157
; #@! TA.AperFunction,Plated,PTH,ViaDrill
T4C0.0320
; #@! TA.AperFunction,Plated,PTH,ViaDrill
T5C0.0472
; #@! TA.AperFunction,Plated,PTH,ViaDrill
T6C0.0512
; #@! TA.AperFunction,Plated,PTH,ViaDrill
T7C0.0669
; #@! TA.AperFunction,Plated,PTH,ViaDrill
T8C0.0748
; #@! TA.AperFunction,Plated,PTH,ViaDrill
T9C0.0866
; #@! TA.AperFunction,Plated,PTH,ViaDrill
T10C0.1181
; #@! TA.AperFunction,Plated,PTH,ViaDrill
T11C0.1614
; #@! TA.AperFunction,Plated,PTH,ViaDrill
T12C0.1693
; #@! TA.AperFunction,Plated,PTH,ViaDrill
T13C0.1969
%
G90
G05
T1
X3.7028Y-3.5118
X3.7028Y-3.7461
X3.8209Y-3.5118
X3.8209Y-3.7461
X3.9783Y-3.5118
X3.9783Y-3.7461
X4.0374Y-3.5807
X4.0374Y-3.6772
T2
X2.6407Y-6.2579
X2.7795Y-6.2795
X2.9646Y-5.7077
X2.9685Y-5.874
X3.1304Y-5.7397
X3.1575Y-5.3652
X3.185Y-6.5236
X3.2333Y-6.6132
X3.2717Y-5.8307
X3.2756Y-5.6919
X3.4724Y-6.185
X3.4756Y-5.2041
X3.4764Y-6.0354
X3.5Y-4.7913
X3.5157Y-6.1407
X3.5159Y-5.1638
X3.5492Y-2.6496
X3.5512Y-3.9675
X3.5772Y-3.5199
X3.5772Y-3.6537
X3.593Y-3.3309
X3.6048Y-1.6852
X3.6048Y-1.7522
X3.6048Y-3.0868
X3.6284Y-4.0829
X3.6428Y-3.0071
X3.6559Y-4.4254
X3.6638Y-5.0711
X3.6702Y-3.4057
X3.6756Y-4.6498
X3.6841Y-5.8435
X3.6965Y-3.432
X3.7002Y-3.3645
X3.7071Y-4.1096
X3.715Y-3.0593
X3.7176Y-2.0997
X3.7317Y-5.7453
X3.7341Y-2.2497
X3.7341Y-2.3316
X3.7535Y-2.1997
X3.7622Y-4.4569
X3.7662Y-2.0474
X3.7898Y-4.8033
X3.8048Y-3.3703
X3.8078Y-2.3384
X3.8146Y-4.0854
X3.8252Y-2.8191
X3.8315Y-2.3997
X3.841Y-5.1774
X3.8449Y-3.823
X3.8554Y-4.4839
X3.8581Y-3.3256
X3.8614Y-4.6967
X3.8646Y-3.6852
X3.8664Y-4.6549
X3.8685Y-5.0002
X3.8777Y-2.1997
X3.8895Y-2.6956
X3.8922Y-2.0514
X3.898Y-4.7493
X3.8999Y-3.0531
X3.9Y-2.7876
X3.904Y-2.4333
X3.904Y-2.5159
X3.9079Y-2.9057
X3.9158Y-3.9923
X3.9173Y-2.7247
X3.925Y-2.1997
X3.9266Y-4.7969
X3.9355Y-3.4411
X3.9397Y-2.5497
X3.9397Y-2.6247
X3.9473Y-2.9057
X3.9512Y-2.6656
X3.9512Y-2.7837
X3.9552Y-2.4057
X3.9612Y-3.3113
X3.9698Y-2.1997
X3.9709Y-5.0553
X3.9867Y-2.9057
X3.9867Y-5.2522
X3.9886Y-3.0123
X3.989Y-2.15
X3.9985Y-3.8191
X4.0137Y-3.9608
X4.0425Y-3.2325
X4.0457Y-2.0514
X4.0727Y-3.9865
X4.0811Y-5.6026
X4.0969Y-3.5317
X4.1304Y-5.2502
X4.1441Y-1.7719
X4.1461Y-1.6715
X4.1476Y-4.9521
X4.157Y-4.1104
X4.1603Y-3.2324
X4.169Y-4.5575
X4.184Y-3.606
X4.1874Y-3.4215
X4.1943Y-3.3178
X4.2347Y-4.0514
X4.2586Y-3.8069
X4.2592Y-3.7539
X4.2622Y-4.201
X4.2701Y-2.7887
X4.2701Y-1.8978
X4.278Y-5.5711
X4.2819Y-4.5278
X4.2933Y-2.5393
X4.2983Y-2.4095
X4.3068Y-4.0198
X4.3163Y-3.3087
X4.335Y-4.4373
X4.3394Y-4.2065
X4.3449Y-3.7167
X4.3563Y-4.26
X4.3567Y-1.9884
X4.3589Y-4.6273
X4.3646Y-2.2364
X4.3787Y-4.0198
X4.3878Y-2.5368
X4.388Y-1.7868
X4.3881Y-3.2868
X4.3882Y-3.4884
X4.3961Y-3.1774
X4.402Y-1.6715
X4.404Y-3.7167
X4.4079Y-4.697
X4.4473Y-2.4569
X4.4473Y-4.8781
X4.4512Y-3.8152
X4.4552Y-3.7167
X4.4591Y-3.0593
X4.463Y-2.2364
X4.4788Y-2.0868
X4.4798Y-2.8141
X4.5142Y-3.5789
X4.5152Y-2.1537
X4.5227Y-2.846
X4.53Y-3.1734
X4.5426Y-5.5152
X4.5472Y-4.5043
X4.5594Y-2.2527
X4.5683Y-2.4154
X4.5733Y-2.0983
X4.5733Y-2.846
X4.6008Y-4.6537
X4.6079Y-3.0733
X4.6105Y-3.5922
X4.6141Y-4.7774
X4.6194Y-2.2722
X4.6466Y-3.5922
X4.6544Y-4.9435
X4.6581Y-3.8716
X4.6776Y-2.3294
X4.6993Y-3.1892
X4.7032Y-2.4648
X4.7036Y-4.7999
X4.7143Y-5.1505
X4.7189Y-1.6695
X4.7606Y-4.3102
X4.7712Y-3.7584
X4.7819Y-4.5199
X4.7838Y-3.0032
X4.7898Y-3.468
X4.7931Y-2.2793
X4.7965Y-3.9346
X4.7975Y-3.1323
X4.7977Y-4.2994
X4.8056Y-5.4766
X4.8252Y-5.0868
X4.8272Y-2.4213
X4.832Y-2.3219
X4.8387Y-4.5075
X4.843Y-4.3684
X4.8556Y-2.901
X4.8703Y-3.8585
X4.8725Y-3.1104
X4.8764Y-3.9411
X4.8854Y-4.527
X4.8869Y-4.4537
X4.8922Y-4.6577
X4.8968Y-2.2793
X4.9213Y-2.9229
X4.9247Y-2.4401
X4.9433Y-3.1931
X4.9433Y-3.5514
X4.9456Y-2.0831
X4.9456Y-2.1611
X4.9523Y-1.9509
X4.9711Y-3.6761
X4.9778Y-4.4798
X4.9778Y-4.9301
X4.9945Y-5.1419
X5.0181Y-4.7443
X5.0221Y-5.4805
X5.03Y-1.7561
X5.0363Y-1.9624
X5.0369Y-1.6695
X5.0386Y-4.5624
X5.0594Y-4.3583
X5.0615Y-4.0081
X5.0615Y-4.2246
X5.0693Y-2.4726
X5.0693Y-3.1498
X5.071Y-4.6683
X5.0745Y-3.6761
X5.0851Y-2.6852
X5.091Y-2.8604
X5.093Y-3.5002
X5.0972Y-2.3915
X5.1185Y-2.0219
X5.1323Y-1.5671
X5.1363Y-1.9215
X5.1377Y-3.9384
X5.138Y-3.1884
X5.1381Y-1.6884
X5.1449Y-4.5624
X5.1481Y-4.4687
X5.1559Y-3.7159
X5.1914Y-5.0396
X5.1953Y-4.7089
X5.2032Y-2.1931
X5.2229Y-2.9254
X5.2245Y-2.2511
X5.2346Y-2.8111
X5.2395Y-3.5922
X5.2465Y-4.4293
X5.2478Y-3.6761
X5.2504Y-4.5435
X5.2646Y-3.0774
X5.2701Y-5.4805
X5.2732Y-4.2451
X5.276Y-4.6683
X5.3039Y-2.1604
X5.3056Y-3.4687
X5.3108Y-4.2451
X5.3173Y-4.6251
X5.3178Y-2.3017
X5.3182Y-2.7614
X5.3233Y-4.4327
X5.3567Y-5.0435
X5.3638Y-3.8072
X5.3648Y-3.0276
X5.3652Y-2.2363
X5.4085Y-2.1711
X5.4148Y-3.9677
X5.4261Y-1.9981
X5.4479Y-4.7612
X5.4488Y-2.4702
X5.467Y-4.6892
X5.4769Y-1.9981
X5.4827Y-1.5671
X5.4846Y-2.2939
X5.5088Y-3.668
X5.5103Y-4.8663
X5.5115Y-2.7117
X5.526Y-3.4963
X5.5428Y-5.1055
X5.5513Y-3.8438
X5.5575Y-5.4726
X5.5624Y-2.9138
X5.5692Y-3.0907
X5.5733Y-4.4411
X5.5748Y-3.0017
X5.5783Y-4.5184
X5.5851Y-4.7915
X5.5861Y-1.9905
X5.589Y-3.4766
X5.589Y-4.9293
X5.593Y-5.1656
X5.5998Y-2.0924
X5.6056Y-4.2857
X5.6272Y-3.6263
X5.6369Y-2.1351
X5.642Y-2.1804
X5.6477Y-4.296
X5.652Y-3.8033
X5.6678Y-2.0159
X5.6678Y-2.9648
X5.6709Y-2.8367
X5.6789Y-4.3652
X5.7032Y-4.4411
X5.7217Y-3.3675
X5.7229Y-3.0789
X5.7258Y-2.4747
X5.7267Y-1.7245
X5.7347Y-2.0632
X5.7369Y-4.3567
X5.7404Y-2.4121
X5.7504Y-2.9096
X5.7575Y-2.8427
X5.7622Y-4.2837
X5.778Y-3.6262
X5.778Y-4.5396
X5.7819Y-1.5671
X5.7859Y-1.6616
X5.7859Y-1.8939
X5.7937Y-3.9254
X5.8253Y-2.1945
X5.8326Y-2.5172
X5.8327Y-4.6121
X5.841Y-2.7758
X5.841Y-4.1341
X5.8464Y-1.9891
X5.8499Y-2.033
X5.8528Y-3.4726
X5.8685Y-4.8467
X5.8725Y-5.0907
X5.8767Y-2.7069
X5.8843Y-1.7955
X5.8864Y-3.84
X5.888Y-4.5853
X5.888Y-3.0546
X5.8882Y-1.59
X5.8898Y-4.3398
X5.8939Y-4.2819
X5.9Y-1.4687
X5.9059Y-2.5036
X5.9152Y-2.1761
X5.9197Y-4.4254
X5.921Y-2.2509
X5.9473Y-1.8821
X5.9473Y-3.5396
X5.9554Y-2.2165
X5.967Y-2.7758
X5.967Y-4.9687
X5.9739Y-2.1664
X5.9824Y-4.908
X5.9941Y-3.483
X6.0024Y-5.0947
X6.006Y-4.2344
X6.0113Y-2.0633
X6.0221Y-3.7679
X6.0401Y-2.2399
X6.058Y-4.4058
X6.0598Y-3.6709
X6.0605Y-2.1264
X6.0618Y-3.4014
X6.0712Y-2.1818
X6.0733Y-3.5604
X6.0733Y-4.3134
X6.0811Y-1.8585
X6.1044Y-5.0843
X6.1088Y-2.873
X6.1347Y-1.6896
X6.154Y-2.39
X6.1756Y-1.4687
X6.1839Y-2.0726
X6.1874Y-4.6616
X6.1981Y-4.4802
X6.215Y-3.0002
X6.2473Y-4.4687
X6.2489Y-3.7388
X6.257Y-2.6426
X6.2794Y-4.0979
X6.2898Y-4.1547
X6.2977Y-4.8309
X6.3019Y-2.1142
X6.3128Y-1.8432
X6.315Y-2.0735
X6.3361Y-1.9106
X6.3361Y-3.6389
X6.3361Y-4.9047
X6.347Y-5.0126
X6.3479Y-2.2785
X6.3489Y-2.9411
X6.3513Y-4.5265
X6.3843Y-5.0829
X6.3913Y-3.0134
X6.3961Y-2.6419
X6.4Y-2.1026
X6.4335Y-4.7552
X6.4355Y-1.4687
X6.4506Y-4.799
X6.4699Y-3.639
X6.4703Y-5.0126
X6.4709Y-3.3033
X6.4768Y-3.8285
X6.4906Y-1.5829
X6.4945Y-2.5435
X6.5063Y-3.0947
X6.5063Y-4.1695
X6.5091Y-1.5014
X6.5174Y-2.7516
X6.5181Y-3.453
X6.5214Y-4.2439
X6.5339Y-4.0356
X6.5378Y-2.9254
X6.5418Y-5.0829
X6.5496Y-1.9884
X6.56Y-2.3102
X6.5615Y-4.9136
X6.5683Y-2.3962
X6.5733Y-4.6341
X6.589Y-1.7364
X6.5944Y-4.3169
X6.6244Y-5.1695
X6.6277Y-2.235
X6.6284Y-5.2797
X6.6378Y-4.025
X6.6379Y-4.775
X6.6379Y-3.275
X6.6381Y-2.525
X6.6402Y-4.9766
X6.6471Y-4.7169
X6.6791Y-4.6848
X6.6792Y-2.4513
X6.6959Y-5.0548
X6.6995Y-1.7119
X6.7032Y-2.9766
X6.7032Y-3.9254
X6.7071Y-2.8703
X6.7071Y-3.7797
X6.7111Y-4.3781
X6.7189Y-2.0711
X6.7229Y-3.138
X6.7255Y-2.2786
X6.7379Y-4.6275
X6.749Y-4.5624
X6.7593Y-5.0902
X6.7701Y-1.697
X6.7701Y-3.1831
X6.7701Y-3.5348
X6.7967Y-3.7483
X6.8064Y-4.4934
X6.8067Y-5.0674
X6.8081Y-2.4071
X6.8089Y-4.6927
X6.8095Y-2.7915
X6.8128Y-4.3459
X6.8292Y-5.2837
X6.8676Y-3.0057
X6.8752Y-3.765
X6.9085Y-2.3098
X6.9197Y-1.701
X6.9461Y-3.9
X6.9464Y-3.0988
X6.9483Y-2.3002
X6.967Y-3.823
X6.9679Y-2.4496
X6.9771Y-4.7126
X7.015Y-5.2519
X7.0245Y-2.242
X7.0335Y-2.0902
X7.0394Y-4.54
X7.0398Y-3.5956
X7.0433Y-4.4994
X7.0457Y-3.9315
X7.0475Y-2.2793
X7.0915Y-2.3205
X7.1064Y-5.0681
X7.1217Y-2.8646
X7.1224Y-3.2114
X7.1276Y-4.6757
X7.1481Y-3.5986
X7.1614Y-2.1783
X7.1615Y-2.2504
X7.1717Y-5.264
X7.1766Y-4.3634
X7.1796Y-4.5632
X7.1816Y-3.8616
X7.1954Y-3.0
X7.201Y-2.1787
X7.2032Y-1.6577
X7.2209Y-3.1689
X7.2209Y-3.9037
X7.2209Y-4.1911
X7.2224Y-4.7226
X7.2256Y-1.8117
X7.2269Y-2.5611
X7.2307Y-3.6419
X7.2307Y-3.7167
X7.2386Y-2.9372
X7.2524Y-1.7069
X7.2577Y-5.2706
X7.2584Y-3.4761
X7.2606Y-3.5615
X7.27Y-1.9777
X7.27Y-2.1922
X7.2741Y-2.7404
X7.2769Y-2.8659
X7.2769Y-3.9175
X7.2831Y-4.0305
X7.2963Y-5.0353
X7.3025Y-4.3224
X7.3105Y-2.5526
X7.3174Y-2.1026
X7.3252Y-3.0514
X7.3292Y-3.3821
X7.3331Y-2.012
X7.3331Y-3.1537
X7.3671Y-4.6494
X7.3684Y-5.2829
X7.3764Y-1.9254
X7.3764Y-3.8388
X7.3764Y-5.4648
X7.3781Y-4.5472
X7.3874Y-3.5506
X7.3876Y-5.0506
X7.3879Y-2.0506
X7.3881Y-2.8006
X7.4059Y-4.4639
X7.4158Y-2.6695
X7.4243Y-2.426
X7.4355Y-2.5868
X7.4394Y-3.2522
X7.4453Y-4.7226
X7.4473Y-2.5081
X7.4473Y-3.8703
X7.4473Y-4.0199
X7.455Y-2.3667
X7.4552Y-5.5553
X7.4766Y-2.4237
X7.4781Y-5.4175
X7.4827Y-4.8309
X7.4906Y-3.9726
X7.4945Y-2.7207
X7.5063Y-4.6864
X7.5082Y-2.3898
X7.5147Y-5.4603
X7.5231Y-3.1293
X7.527Y-2.5239
X7.5421Y-5.3621
X7.5506Y-5.539
X7.5733Y-4.6126
X7.5998Y-4.1694
X7.6599Y-4.8456
X7.661Y-2.6002
X7.6638Y-1.9411
X7.6856Y-4.1556
X7.6912Y-4.083
X7.6962Y-4.9803
X7.6971Y-3.3203
X7.6981Y-3.3628
X7.6987Y-5.0558
X7.703Y-2.5567
X7.7491Y-4.89
X7.7863Y-4.0268
X7.7898Y-4.7856
X7.7935Y-2.5272
X7.7977Y-2.3033
X7.8011Y-2.6962
X7.8029Y-4.123
X7.8174Y-3.0711
X7.8292Y-4.9215
X7.8337Y-4.5978
X7.8474Y-3.9726
X7.8524Y-5.3097
X7.857Y-2.4536
X7.8666Y-2.6516
X7.8685Y-3.3348
X7.871Y-3.2452
X7.892Y-3.4845
X7.8932Y-4.7226
X7.904Y-2.5789
X7.9043Y-3.2228
X7.9079Y-5.4726
X7.9167Y-4.0268
X7.9335Y-4.6163
X7.9433Y-3.0711
X7.9433Y-4.1419
X7.9473Y-5.3506
X7.961Y-5.5258
X7.9754Y-2.087
X7.9759Y-4.3325
X7.9827Y-1.9411
X7.9831Y-4.5793
X7.9831Y-4.7797
X7.9875Y-3.9223
X7.9906Y-3.7679
X7.9945Y-3.2482
X7.9945Y-3.449
X8.0063Y-2.76
X8.0142Y-3.9884
X8.0221Y-5.2404
X8.0319Y-4.7226
X8.047Y-3.8628
X8.0507Y-1.9777
X8.0536Y-5.4648
X8.0693Y-5.0317
X8.0731Y-4.4946
X8.0734Y-2.4163
X8.0787Y-3.4262
X8.0837Y-4.1219
X8.0976Y-2.4891
X8.1087Y-5.3427
X8.1126Y-4.638
X8.1374Y-4.2916
X8.1376Y-5.0482
X8.1378Y-2.8006
X8.1381Y-2.0506
X8.1381Y-3.5506
X8.1657Y-5.5258
X8.1735Y-5.3435
X8.1735Y-5.4301
X8.1946Y-3.9175
X8.2052Y-3.0702
X8.2071Y-3.4726
X8.2071Y-4.6616
X8.2111Y-4.9569
X8.2143Y-4.7734
X8.215Y-4.1695
X8.2159Y-4.0268
X8.2248Y-3.8628
X8.2338Y-3.1675
X8.2342Y-2.4184
X8.2347Y-1.9451
X8.236Y-5.5598
X8.2544Y-2.5199
X8.2937Y-5.575
X8.3213Y-3.8112
X8.3233Y-2.3642
X8.3233Y-2.5189
X8.3241Y-3.3181
X8.3272Y-4.6057
X8.33Y-3.1126
X8.3387Y-4.7734
X8.3464Y-5.5725
X8.3545Y-5.3274
X8.3722Y-3.2875
X8.4109Y-4.0768
X8.4204Y-2.5696
X8.4298Y-4.1504
X8.4508Y-5.5319
X8.4509Y-4.1887
X8.4774Y-3.4889
X8.5168Y-2.7191
X8.5253Y-4.8197
X8.5263Y-4.0167
X8.5266Y-4.7666
X8.53Y-5.5593
X8.5508Y-4.1012
X8.5575Y-1.9451
X8.5603Y-2.5969
X8.5857Y-4.9654
X8.593Y-5.3467
X8.6013Y-3.911
X8.6026Y-3.4262
X8.6153Y-1.9864
X8.6284Y-3.2837
X8.6284Y-4.0593
X8.6323Y-4.6065
X8.6363Y-2.5868
X8.6559Y-2.7369
X8.6559Y-3.4875
X8.7209Y-2.9903
X8.7227Y-4.1972
X8.7227Y-4.4925
X8.7229Y-3.2089
X8.7229Y-4.7561
X8.7259Y-5.0839
X8.7268Y-1.949
X8.7268Y-3.4096
X8.7268Y-5.3152
X8.7347Y-3.9254
X8.7347Y-4.8821
X8.7347Y-5.5553
X8.7386Y-2.4372
X8.7435Y-5.015
X8.7465Y-2.26
X8.7504Y-2.6695
T4
X3.574Y-1.8997
X3.574Y-1.9997
X3.574Y-2.0997
X3.574Y-2.1997
X3.574Y-2.2997
X3.574Y-2.3997
X3.574Y-2.4997
X3.574Y-2.5997
X3.574Y-2.6997
X3.574Y-2.7997
X3.574Y-2.8997
X3.574Y-2.9997
X3.6262Y-1.8497
X3.6262Y-1.9497
X3.6262Y-2.0497
X3.6262Y-2.1497
X3.6262Y-2.2497
X3.6262Y-2.3497
X3.6262Y-2.4497
X3.6262Y-2.5497
X3.6262Y-2.6497
X3.6262Y-2.7497
X3.6262Y-2.8497
X3.6262Y-2.9497
X3.7496Y-3.139
X3.7847Y-3.2522
X3.8496Y-3.139
X3.9024Y-3.2526
X3.9496Y-3.139
X4.0496Y-3.139
X4.174Y-1.8997
X4.174Y-1.9997
X4.174Y-2.0997
X4.174Y-2.1997
X4.174Y-2.2997
X4.174Y-2.3997
X4.174Y-2.4997
X4.174Y-2.5997
X4.174Y-2.6997
X4.174Y-2.7997
X4.174Y-2.8997
X4.174Y-2.9997
X4.2254Y-1.8497
X4.2254Y-1.9497
X4.2254Y-2.0497
X4.2254Y-2.1497
X4.2254Y-2.2497
X4.2254Y-2.3497
X4.2254Y-2.4497
X4.2254Y-2.5497
X4.2254Y-2.6497
X4.2254Y-2.7497
X4.2254Y-2.8497
X4.2254Y-2.9497
T5
X3.6575Y-3.5945
X3.6575Y-3.6634
X3.9331Y-3.5945
X3.9331Y-3.6634
T6
X3.5941Y-3.1575
X3.5941Y-3.4134
T7
X3.5411Y-5.2948
X3.6623Y-5.6278
X3.7544Y-4.3762
X4.1087Y-4.3762
X4.2508Y-5.275
X4.5044Y-1.9884
X4.5044Y-2.7384
X4.5044Y-3.4884
X4.5044Y-4.2384
X4.5998Y-5.2135
X4.8587Y-1.9884
X4.8587Y-2.7384
X4.8587Y-3.4884
X4.8587Y-4.2384
X5.0969Y-5.1734
X5.2544Y-1.89
X5.2544Y-2.64
X5.2544Y-3.39
X5.2544Y-4.14
X5.4512Y-5.1734
X5.6087Y-1.89
X5.6087Y-2.64
X5.6087Y-3.39
X5.6087Y-4.14
X6.0044Y-1.7915
X6.0044Y-2.5415
X6.0044Y-3.2915
X6.0044Y-4.0415
X6.0044Y-4.7915
X6.3587Y-1.7915
X6.3587Y-2.5415
X6.3587Y-3.2915
X6.3587Y-4.0415
X6.3587Y-4.7915
X6.7544Y-1.9766
X6.7544Y-2.7266
X6.7544Y-3.4766
X6.7544Y-4.2266
X6.7544Y-4.9766
X7.1087Y-1.9766
X7.1087Y-2.7266
X7.1087Y-3.4766
X7.1087Y-4.2266
X7.1087Y-4.9766
X7.5044Y-2.2522
X7.5044Y-3.0022
X7.5044Y-3.7522
X7.5044Y-4.5022
X7.5044Y-5.2522
X7.8587Y-2.2522
X7.8587Y-3.0022
X7.8587Y-3.7522
X7.8587Y-4.5022
X7.8587Y-5.2522
X8.2544Y-2.2522
X8.2544Y-3.0022
X8.2544Y-3.7522
X8.2544Y-4.5022
X8.2544Y-5.2522
X8.6087Y-2.2522
X8.6087Y-3.0022
X8.6087Y-3.7522
X8.6087Y-4.5022
X8.6087Y-5.2522
T8
X3.5276Y-5.2579
X3.5333Y-5.2734
X3.6701Y-5.6493
X3.6757Y-5.6648
X3.7315Y-4.3762
X4.1315Y-4.3762
X4.212Y-5.2819
X4.2283Y-5.279
X4.4815Y-1.9884
X4.4815Y-2.7384
X4.4815Y-3.4884
X4.4815Y-4.2384
X4.6222Y-5.2095
X4.6385Y-5.2067
X4.8815Y-1.9884
X4.8815Y-2.7384
X4.8815Y-3.4884
X4.8815Y-4.2384
X5.0575Y-5.1734
X5.0741Y-5.1734
X5.2315Y-1.89
X5.2315Y-2.64
X5.2315Y-3.39
X5.2315Y-4.14
X5.4741Y-5.1734
X5.4906Y-5.1734
X5.6315Y-1.89
X5.6315Y-2.64
X5.6315Y-3.39
X5.6315Y-4.14
X5.9815Y-1.7915
X5.9815Y-2.5415
X5.9815Y-3.2915
X5.9815Y-4.0415
X5.9815Y-4.7915
X6.3815Y-1.7915
X6.3815Y-2.5415
X6.3815Y-3.2915
X6.3815Y-4.0415
X6.3815Y-4.7915
X6.7315Y-1.9766
X6.7315Y-2.7266
X6.7315Y-3.4766
X6.7315Y-4.2266
X6.7315Y-4.9766
X7.1315Y-1.9766
X7.1315Y-2.7266
X7.1315Y-3.4766
X7.1315Y-4.2266
X7.1315Y-4.9766
X7.4815Y-2.2522
X7.4815Y-3.0022
X7.4815Y-3.7522
X7.4815Y-4.5022
X7.4815Y-5.2522
X7.8815Y-2.2522
X7.8815Y-3.0022
X7.8815Y-3.7522
X7.8815Y-4.5022
X7.8815Y-5.2522
X8.2315Y-2.2522
X8.2315Y-3.0022
X8.2315Y-3.7522
X8.2315Y-4.5022
X8.2315Y-5.2522
X8.6315Y-2.2522
X8.6315Y-3.0022
X8.6315Y-3.7522
X8.6315Y-4.5022
X8.6315Y-5.2522
T9
X3.6197Y-3.8772
X4.1709Y-3.8772
T10
X3.3834Y-5.5408
X3.3834Y-5.5408
X3.3975Y-5.3262
X3.5321Y-5.6961
X3.6444Y-5.2862
X3.747Y-5.5681
X3.7554Y-5.299
X3.7815Y-4.2762
X3.8238Y-5.4869
X3.8315Y-4.1762
X4.0315Y-4.1762
X4.0815Y-4.2762
X4.2061Y-5.135
X4.2949Y-5.3688
X4.3615Y-5.4586
X4.3849Y-5.0155
X4.3849Y-5.0155
X4.5315Y-1.8884
X4.5315Y-2.6384
X4.5315Y-3.3884
X4.5315Y-4.1384
X4.5585Y-5.4239
X4.5815Y-1.7884
X4.5815Y-2.5384
X4.5815Y-3.2884
X4.5815Y-4.0384
X4.5904Y-5.3167
X4.5939Y-5.0666
X4.7815Y-1.7884
X4.7815Y-2.5384
X4.7815Y-3.2884
X4.7815Y-4.0384
X4.8315Y-1.8884
X4.8315Y-2.6384
X4.8315Y-3.3884
X4.8315Y-4.1384
X5.0772Y-5.0278
X5.1241Y-5.2734
X5.1741Y-5.3734
X5.2741Y-4.9411
X5.2741Y-4.9411
X5.2815Y-1.79
X5.2815Y-2.54
X5.2815Y-3.29
X5.2815Y-4.04
X5.3315Y-1.69
X5.3315Y-2.44
X5.3315Y-3.19
X5.3315Y-3.94
X5.3741Y-5.3734
X5.4241Y-5.2734
X5.4709Y-5.0278
X5.5315Y-1.69
X5.5315Y-2.44
X5.5315Y-3.19
X5.5315Y-3.94
X5.5815Y-1.79
X5.5815Y-2.54
X5.5815Y-3.29
X5.5815Y-4.04
X6.0315Y-1.6915
X6.0315Y-2.4415
X6.0315Y-3.1915
X6.0315Y-3.9415
X6.0315Y-4.6915
X6.0815Y-1.5915
X6.0815Y-2.3415
X6.0815Y-3.0915
X6.0815Y-3.8415
X6.0815Y-4.5915
X6.2815Y-1.5915
X6.2815Y-2.3415
X6.2815Y-3.0915
X6.2815Y-3.8415
X6.2815Y-4.5915
X6.3315Y-1.6915
X6.3315Y-2.4415
X6.3315Y-3.1915
X6.3315Y-3.9415
X6.3315Y-4.6915
X6.7815Y-1.8766
X6.7815Y-2.6266
X6.7815Y-3.3766
X6.7815Y-4.1266
X6.7815Y-4.8766
X6.8315Y-1.7766
X6.8315Y-2.5266
X6.8315Y-3.2766
X6.8315Y-4.0266
X6.8315Y-4.7766
X7.0315Y-1.7766
X7.0315Y-2.5266
X7.0315Y-3.2766
X7.0315Y-4.0266
X7.0315Y-4.7766
X7.0815Y-1.8766
X7.0815Y-2.6266
X7.0815Y-3.3766
X7.0815Y-4.1266
X7.0815Y-4.8766
X7.5315Y-2.1522
X7.5315Y-2.9022
X7.5315Y-3.6522
X7.5315Y-4.4022
X7.5315Y-5.1522
X7.5815Y-2.0522
X7.5815Y-2.8022
X7.5815Y-3.5522
X7.5815Y-4.3022
X7.5815Y-5.0522
X7.7815Y-2.0522
X7.7815Y-2.8022
X7.7815Y-3.5522
X7.7815Y-4.3022
X7.7815Y-5.0522
X7.8315Y-2.1522
X7.8315Y-2.9022
X7.8315Y-3.6522
X7.8315Y-4.4022
X7.8315Y-5.1522
X8.2815Y-2.1522
X8.2815Y-2.9022
X8.2815Y-3.6522
X8.2815Y-4.4022
X8.2815Y-5.1522
X8.3315Y-2.0522
X8.3315Y-2.8022
X8.3315Y-3.5522
X8.3315Y-4.3022
X8.3315Y-5.0522
X8.5315Y-2.0522
X8.5315Y-2.8022
X8.5315Y-3.5522
X8.5315Y-4.3022
X8.5315Y-5.0522
X8.5815Y-2.1522
X8.5815Y-2.9022
X8.5815Y-3.6522
X8.5815Y-4.4022
X8.5815Y-5.1522
T11
X3.6017Y-5.4613
X3.9315Y-4.3762
X4.4253Y-5.2443
X4.6815Y-1.9884
X4.6815Y-2.7384
X4.6815Y-3.4884
X4.6815Y-4.2384
X5.2741Y-5.1734
X5.4315Y-1.89
X5.4315Y-2.64
X5.4315Y-3.39
X5.4315Y-4.14
X6.1815Y-1.7915
X6.1815Y-2.5415
X6.1815Y-3.2915
X6.1815Y-4.0415
X6.1815Y-4.7915
X6.9315Y-1.9766
X6.9315Y-2.7266
X6.9315Y-3.4766
X6.9315Y-4.2266
X6.9315Y-4.9766
X7.6815Y-2.2522
X7.6815Y-3.0022
X7.6815Y-3.7522
X7.6815Y-4.5022
X7.6815Y-5.2522
X8.4315Y-2.2522
X8.4315Y-3.0022
X8.4315Y-3.7522
X8.4315Y-4.5022
X8.4315Y-5.2522
T12
X3.7254Y-4.9366
X4.037Y-5.4407
X4.8542Y-5.2604
X5.0401Y-3.8634
X5.073Y-2.265
X6.5401Y-2.1665
X6.5401Y-4.4165
X8.0565Y-2.6272
X8.0565Y-4.8772
T13
X3.6017Y-5.4613
X4.4253Y-5.2443
X5.2741Y-5.1734
T3
G00X3.75Y-3.5116
M15
G01X3.7067Y-3.5116
M16
G05
G00X3.7067Y-3.7461
M15
G01X3.75Y-3.7461
M16
G05
G00X3.8681Y-3.5116
M15
G01X3.8248Y-3.5116
M16
G05
G00X3.8248Y-3.7461
M15
G01X3.8681Y-3.7461
M16
G05
G00X4.0256Y-3.5116
M15
G01X3.9823Y-3.5116
M16
G05
G00X3.9823Y-3.7461
M15
G01X4.0256Y-3.7461
M16
G05
G00X4.0413Y-3.5807
M15
G01X4.0846Y-3.5807
M16
G05
G00X4.0846Y-3.677
M15
G01X4.0413Y-3.677
M16
G05
T0
M30
