%TF.GenerationSoftware,KiCad,Pcbnew,(6.0.4-0)*%
%TF.CreationDate,2022-08-10T17:19:40+09:00*%
%TF.ProjectId,KB62_L_rev1,4b423632-5f4c-45f7-9265-76312e6b6963,rev?*%
%TF.SameCoordinates,Original*%
%TF.FileFunction,Soldermask,Bot*%
%TF.FilePolarity,Negative*%
%FSLAX46Y46*%
G04 Gerber Fmt 4.6, Leading zero omitted, Abs format (unit mm)*
G04 Created by KiCad (PCBNEW (6.0.4-0)) date 2022-08-10 17:19:40*
%MOMM*%
%LPD*%
G01*
G04 APERTURE LIST*
G04 Aperture macros list*
%AMRotRect*
0 Rectangle, with rotation*
0 The origin of the aperture is its center*
0 $1 length*
0 $2 width*
0 $3 Rotation angle, in degrees counterclockwise*
0 Add horizontal line*
21,1,$1,$2,0,0,$3*%
%AMFreePoly0*
4,1,34,0.201078,0.979575,0.387516,0.921863,0.559193,0.829038,0.709571,0.704634,0.832921,0.553392,0.924546,0.381070,0.980955,0.194234,1.000000,0.000000,0.999610,-0.027922,0.975149,-0.221548,0.913545,-0.406737,0.817145,-0.576432,0.689620,-0.724172,0.535827,-0.844328,0.361625,-0.932324,0.173648,-0.984808,-0.020942,-0.999781,-0.214735,-0.976672,-0.400349,-0.916363,-0.570714,-0.821149,
-0.719340,-0.694658,-0.840567,-0.541708,-0.929776,-0.368125,-0.983571,-0.180519,-0.999903,0.013962,-0.978148,0.207912,-0.919135,0.393942,-0.825113,0.564967,-0.699663,0.714473,-0.547563,0.836764,-0.374607,0.927184,-0.187381,0.982287,0.006981,0.999976,0.201078,0.979575,0.201078,0.979575,$1*%
%AMFreePoly1*
4,1,16,0.044650,0.194952,0.124776,0.156304,0.180215,0.086732,0.200000,0.000000,0.199999,-0.000698,0.179912,-0.087360,0.124230,-0.156739,0.043969,-0.195107,-0.044990,-0.194874,-0.125049,-0.156086,-0.180367,-0.086417,-0.200000,0.000349,-0.180064,0.087046,-0.124503,0.156522,-0.044310,0.195030,0.044650,0.194952,0.044650,0.194952,$1*%
G04 Aperture macros list end*
%ADD10C,0.000000*%
%ADD11C,2.050000*%
%ADD12C,1.500000*%
%ADD13C,0.762000*%
%ADD14C,0.950000*%
%ADD15C,0.850000*%
%ADD16C,2.150000*%
%ADD17C,0.698500*%
%ADD18C,0.600000*%
%ADD19C,1.800000*%
%ADD20C,1.000000*%
%ADD21FreePoly0,0.000000*%
%ADD22FreePoly1,0.000000*%
%ADD23C,1.210000*%
%ADD24O,1.800000X0.700000*%
%ADD25C,1.700000*%
%ADD26C,3.000000*%
%ADD27C,4.000000*%
%ADD28C,1.900000*%
%ADD29RotRect,2.000000X2.000000X150.000000*%
%ADD30RotRect,1.900000X2.000000X150.000000*%
%ADD31R,1.400000X1.000000*%
G04 APERTURE END LIST*
D10*
G36*
X125821000Y-123675000D02*
G01*
X124121000Y-123675000D01*
X124121000Y-122675000D01*
X125821000Y-122675000D01*
X125821000Y-123675000D01*
G37*
G36*
X122511000Y-113755000D02*
G01*
X120811000Y-113755000D01*
X120811000Y-112755000D01*
X122511000Y-112755000D01*
X122511000Y-113755000D01*
G37*
D11*
X113427000Y-133204000D02*
G75*
G03*
X113427000Y-133204000I-1025000J0D01*
G01*
D10*
G36*
X96632400Y-76122580D02*
G01*
X95489400Y-76122580D01*
X95489400Y-75487580D01*
X96632400Y-75487580D01*
X96632400Y-76122580D01*
G37*
G36*
X125821000Y-125075000D02*
G01*
X124121000Y-125075000D01*
X124121000Y-124075000D01*
X125821000Y-124075000D01*
X125821000Y-125075000D01*
G37*
D12*
X142521000Y-64514700D02*
G75*
G03*
X142521000Y-64514700I-750000J0D01*
G01*
D13*
X107707400Y-59681700D02*
G75*
G03*
X107707400Y-59681700I-381000J0D01*
G01*
D10*
G36*
X125761000Y-65434700D02*
G01*
X123461000Y-65434700D01*
X123461000Y-63434700D01*
X125761000Y-63434700D01*
X125761000Y-65434700D01*
G37*
G36*
X142871000Y-117795000D02*
G01*
X141171000Y-117795000D01*
X141171000Y-116795000D01*
X142871000Y-116795000D01*
X142871000Y-117795000D01*
G37*
G36*
X197451000Y-86185400D02*
G01*
X196151000Y-86185400D01*
X196151000Y-85235400D01*
X197451000Y-85235400D01*
X197451000Y-86185400D01*
G37*
D11*
X177086000Y-69254700D02*
G75*
G03*
X177086000Y-69254700I-1025000J0D01*
G01*
D10*
G36*
X105711000Y-125095000D02*
G01*
X104011000Y-125095000D01*
X104011000Y-124095000D01*
X105711000Y-124095000D01*
X105711000Y-125095000D01*
G37*
D13*
X91161000Y-55871700D02*
G75*
G03*
X91161000Y-55871700I-381000J0D01*
G01*
D14*
X200666000Y-114355000D02*
G75*
G03*
X200666000Y-114355000I-475000J0D01*
G01*
D15*
X210086000Y-114355000D02*
G75*
G03*
X210086000Y-114355000I-425000J0D01*
G01*
D10*
G36*
X113061000Y-67974700D02*
G01*
X110761000Y-67974700D01*
X110761000Y-65974700D01*
X113061000Y-65974700D01*
X113061000Y-67974700D01*
G37*
D16*
X129929000Y-57529700D02*
G75*
G03*
X129929000Y-57529700I-1075000J0D01*
G01*
D15*
X171986000Y-107355000D02*
G75*
G03*
X171986000Y-107355000I-425000J0D01*
G01*
D12*
X97875270Y-139367360D02*
G75*
G03*
X97875270Y-139367360I-750000J0D01*
G01*
D14*
X124466000Y-88604700D02*
G75*
G03*
X124466000Y-88604700I-475000J0D01*
G01*
X162566000Y-102655000D02*
G75*
G03*
X162566000Y-102655000I-475000J0D01*
G01*
D13*
X92487400Y-52061700D02*
G75*
G03*
X92487400Y-52061700I-381000J0D01*
G01*
X106401000Y-76191700D02*
G75*
G03*
X106401000Y-76191700I-381000J0D01*
G01*
D12*
X174271000Y-102275000D02*
G75*
G03*
X174271000Y-102275000I-750000J0D01*
G01*
X134711000Y-125505000D02*
G75*
G03*
X134711000Y-125505000I-750000J0D01*
G01*
D17*
X103209250Y-79729700D02*
G75*
G03*
X103209250Y-79729700I-349250J0D01*
G01*
D12*
X173001000Y-47664700D02*
G75*
G03*
X173001000Y-47664700I-750000J0D01*
G01*
D15*
X108395370Y-133985420D02*
G75*
G03*
X108395370Y-133985420I-425000J0D01*
G01*
D12*
X218721000Y-73714700D02*
G75*
G03*
X218721000Y-73714700I-750000J0D01*
G01*
D10*
G36*
X193211000Y-82354700D02*
G01*
X191511000Y-82354700D01*
X191511000Y-81354700D01*
X193211000Y-81354700D01*
X193211000Y-82354700D01*
G37*
G36*
X163861000Y-117585000D02*
G01*
X161561000Y-117585000D01*
X161561000Y-115585000D01*
X163861000Y-115585000D01*
X163861000Y-117585000D01*
G37*
D12*
X111532720Y-138647890D02*
G75*
G03*
X111532720Y-138647890I-750000J0D01*
G01*
D14*
X152406000Y-45504700D02*
G75*
G03*
X152406000Y-45504700I-475000J0D01*
G01*
D10*
G36*
X216571000Y-104425000D02*
G01*
X215271000Y-104425000D01*
X215271000Y-103475000D01*
X216571000Y-103475000D01*
X216571000Y-104425000D01*
G37*
G36*
X142411000Y-57364700D02*
G01*
X140711000Y-57364700D01*
X140711000Y-56364700D01*
X142411000Y-56364700D01*
X142411000Y-57364700D01*
G37*
G36*
X160611000Y-127805000D02*
G01*
X158911000Y-127805000D01*
X158911000Y-126805000D01*
X160611000Y-126805000D01*
X160611000Y-127805000D01*
G37*
D13*
X92487400Y-46981700D02*
G75*
G03*
X92487400Y-46981700I-381000J0D01*
G01*
D15*
X161936000Y-45504700D02*
G75*
G03*
X161936000Y-45504700I-425000J0D01*
G01*
D17*
X98129250Y-79729700D02*
G75*
G03*
X98129250Y-79729700I-349250J0D01*
G01*
D15*
X161936000Y-121705000D02*
G75*
G03*
X161936000Y-121705000I-425000J0D01*
G01*
D10*
G36*
X155111000Y-107355000D02*
G01*
X153411000Y-107355000D01*
X153411000Y-106355000D01*
X155111000Y-106355000D01*
X155111000Y-107355000D01*
G37*
G36*
X96632400Y-75121820D02*
G01*
X95489400Y-75121820D01*
X95489400Y-74486820D01*
X96632400Y-74486820D01*
X96632400Y-75121820D01*
G37*
D17*
X100669250Y-79729700D02*
G75*
G03*
X100669250Y-79729700I-349250J0D01*
G01*
D10*
G36*
X193211000Y-138105000D02*
G01*
X191511000Y-138105000D01*
X191511000Y-137105000D01*
X193211000Y-137105000D01*
X193211000Y-138105000D01*
G37*
G36*
X121491000Y-61975400D02*
G01*
X120191000Y-61975400D01*
X120191000Y-61025400D01*
X121491000Y-61025400D01*
X121491000Y-61975400D01*
G37*
G36*
X159411000Y-74525400D02*
G01*
X158111000Y-74525400D01*
X158111000Y-73575400D01*
X159411000Y-73575400D01*
X159411000Y-74525400D01*
G37*
D16*
X103615000Y-138193000D02*
G75*
G03*
X103615000Y-138193000I-1075000J0D01*
G01*
D18*
X93200000Y-91299700D02*
G75*
G03*
X93200000Y-91299700I-300000J0D01*
G01*
D10*
G36*
X121241000Y-79635400D02*
G01*
X119941000Y-79635400D01*
X119941000Y-78685400D01*
X121241000Y-78685400D01*
X121241000Y-79635400D01*
G37*
D14*
X162566000Y-83604700D02*
G75*
G03*
X162566000Y-83604700I-475000J0D01*
G01*
D13*
X106401000Y-73651700D02*
G75*
G03*
X106401000Y-73651700I-381000J0D01*
G01*
D10*
G36*
X95700630Y-85172740D02*
G01*
X95734300Y-85181760D01*
X95765900Y-85196490D01*
X95794460Y-85216490D01*
X95819110Y-85241140D01*
X95839110Y-85269700D01*
X95853840Y-85301300D01*
X95862860Y-85334970D01*
X95865900Y-85369700D01*
X95865900Y-85769700D01*
X95862860Y-85804430D01*
X95853840Y-85838100D01*
X95839110Y-85869700D01*
X95819110Y-85898260D01*
X95794460Y-85922910D01*
X95765900Y-85942910D01*
X95734300Y-85957640D01*
X95700630Y-85966660D01*
X95665900Y-85969700D01*
X95115900Y-85969700D01*
X95081170Y-85966660D01*
X95047500Y-85957640D01*
X95015900Y-85942910D01*
X94987340Y-85922910D01*
X94962690Y-85898260D01*
X94942690Y-85869700D01*
X94927960Y-85838100D01*
X94918940Y-85804430D01*
X94915900Y-85769700D01*
X94915900Y-85369700D01*
X94918940Y-85334970D01*
X94927960Y-85301300D01*
X94942690Y-85269700D01*
X94962690Y-85241140D01*
X94987340Y-85216490D01*
X95015900Y-85196490D01*
X95047500Y-85181760D01*
X95081170Y-85172740D01*
X95115900Y-85169700D01*
X95665900Y-85169700D01*
X95700630Y-85172740D01*
G37*
D12*
X161571000Y-119165000D02*
G75*
G03*
X161571000Y-119165000I-750000J0D01*
G01*
D10*
G36*
X163861000Y-98535000D02*
G01*
X161561000Y-98535000D01*
X161561000Y-96535000D01*
X163861000Y-96535000D01*
X163861000Y-98535000D01*
G37*
G36*
X117011000Y-56604700D02*
G01*
X115311000Y-56604700D01*
X115311000Y-55604700D01*
X117011000Y-55604700D01*
X117011000Y-56604700D01*
G37*
D14*
X209556000Y-76254700D02*
G75*
G03*
X209556000Y-76254700I-475000J0D01*
G01*
D12*
X179351000Y-64174700D02*
G75*
G03*
X179351000Y-64174700I-750000J0D01*
G01*
X212371000Y-90224700D02*
G75*
G03*
X212371000Y-90224700I-750000J0D01*
G01*
D10*
G36*
X163861000Y-60434700D02*
G01*
X161561000Y-60434700D01*
X161561000Y-58434700D01*
X163861000Y-58434700D01*
X163861000Y-60434700D01*
G37*
G36*
X151161000Y-43924700D02*
G01*
X148861000Y-43924700D01*
X148861000Y-41924700D01*
X151161000Y-41924700D01*
X151161000Y-43924700D01*
G37*
D12*
X129711000Y-127705000D02*
G75*
G03*
X129711000Y-127705000I-750000J0D01*
G01*
X212371000Y-71174700D02*
G75*
G03*
X212371000Y-71174700I-750000J0D01*
G01*
D10*
G36*
X182911000Y-122285000D02*
G01*
X180611000Y-122285000D01*
X180611000Y-120285000D01*
X182911000Y-120285000D01*
X182911000Y-122285000D01*
G37*
D12*
X174271000Y-45124700D02*
G75*
G03*
X174271000Y-45124700I-750000J0D01*
G01*
D10*
G36*
X132111000Y-84524700D02*
G01*
X129811000Y-84524700D01*
X129811000Y-82524700D01*
X132111000Y-82524700D01*
X132111000Y-84524700D01*
G37*
D14*
X171456000Y-88304700D02*
G75*
G03*
X171456000Y-88304700I-475000J0D01*
G01*
D11*
X215186000Y-95304700D02*
G75*
G03*
X215186000Y-95304700I-1025000J0D01*
G01*
D14*
X219716000Y-114355000D02*
G75*
G03*
X219716000Y-114355000I-475000J0D01*
G01*
D12*
X115851000Y-67014700D02*
G75*
G03*
X115851000Y-67014700I-750000J0D01*
G01*
D10*
G36*
X94010900Y-109575000D02*
G01*
X91710900Y-109575000D01*
X91710900Y-107575000D01*
X94010900Y-107575000D01*
X94010900Y-109575000D01*
G37*
D12*
X142521000Y-83564700D02*
G75*
G03*
X142521000Y-83564700I-750000J0D01*
G01*
X138521000Y-133945000D02*
G75*
G03*
X138521000Y-133945000I-750000J0D01*
G01*
D10*
G36*
X178341000Y-99535400D02*
G01*
X177041000Y-99535400D01*
X177041000Y-98585400D01*
X178341000Y-98585400D01*
X178341000Y-99535400D01*
G37*
G36*
X212261000Y-80954700D02*
G01*
X210561000Y-80954700D01*
X210561000Y-79954700D01*
X212261000Y-79954700D01*
X212261000Y-80954700D01*
G37*
D14*
X200666000Y-133405000D02*
G75*
G03*
X200666000Y-133405000I-475000J0D01*
G01*
D10*
G36*
X174791000Y-79185400D02*
G01*
X173491000Y-79185400D01*
X173491000Y-78235400D01*
X174791000Y-78235400D01*
X174791000Y-79185400D01*
G37*
D12*
X199671000Y-111815000D02*
G75*
G03*
X199671000Y-111815000I-750000J0D01*
G01*
D10*
G36*
X106710900Y-107035000D02*
G01*
X104410900Y-107035000D01*
X104410900Y-105035000D01*
X106710900Y-105035000D01*
X106710900Y-107035000D01*
G37*
D14*
X190506000Y-76254700D02*
G75*
G03*
X190506000Y-76254700I-475000J0D01*
G01*
D11*
X196136000Y-95304700D02*
G75*
G03*
X196136000Y-95304700I-1025000J0D01*
G01*
D12*
X198401000Y-71174700D02*
G75*
G03*
X198401000Y-71174700I-750000J0D01*
G01*
D17*
X95589250Y-79729700D02*
G75*
G03*
X95589250Y-79729700I-349250J0D01*
G01*
D10*
G36*
X151161000Y-62974700D02*
G01*
X148861000Y-62974700D01*
X148861000Y-60974700D01*
X151161000Y-60974700D01*
X151161000Y-62974700D01*
G37*
D15*
X133886000Y-105155000D02*
G75*
G03*
X133886000Y-105155000I-425000J0D01*
G01*
D11*
X100885900Y-111155000D02*
G75*
G03*
X100885900Y-111155000I-1025000J0D01*
G01*
D12*
X180621000Y-66714700D02*
G75*
G03*
X180621000Y-66714700I-750000J0D01*
G01*
D10*
G36*
X174161000Y-113455000D02*
G01*
X172461000Y-113455000D01*
X172461000Y-112455000D01*
X174161000Y-112455000D01*
X174161000Y-113455000D01*
G37*
D11*
X138986000Y-67054700D02*
G75*
G03*
X138986000Y-67054700I-1025000J0D01*
G01*
D10*
G36*
X189261000Y-74674700D02*
G01*
X186961000Y-74674700D01*
X186961000Y-72674700D01*
X189261000Y-72674700D01*
X189261000Y-74674700D01*
G37*
D12*
X155221000Y-40424700D02*
G75*
G03*
X155221000Y-40424700I-750000J0D01*
G01*
X218721000Y-92764700D02*
G75*
G03*
X218721000Y-92764700I-750000J0D01*
G01*
X155221000Y-97575000D02*
G75*
G03*
X155221000Y-97575000I-750000J0D01*
G01*
D15*
X200036000Y-76254700D02*
G75*
G03*
X200036000Y-76254700I-425000J0D01*
G01*
D12*
X96137810Y-134593720D02*
G75*
G03*
X96137810Y-134593720I-750000J0D01*
G01*
D10*
G36*
X170211000Y-67674700D02*
G01*
X167911000Y-67674700D01*
X167911000Y-65674700D01*
X170211000Y-65674700D01*
X170211000Y-67674700D01*
G37*
D14*
X181616000Y-69254700D02*
G75*
G03*
X181616000Y-69254700I-475000J0D01*
G01*
D12*
X153951000Y-81064700D02*
G75*
G03*
X153951000Y-81064700I-750000J0D01*
G01*
D10*
G36*
X155821000Y-93595400D02*
G01*
X154521000Y-93595400D01*
X154521000Y-92645400D01*
X155821000Y-92645400D01*
X155821000Y-93595400D01*
G37*
G36*
X117941000Y-61975400D02*
G01*
X116641000Y-61975400D01*
X116641000Y-61025400D01*
X117941000Y-61025400D01*
X117941000Y-61975400D01*
G37*
D12*
X193321000Y-109275000D02*
G75*
G03*
X193321000Y-109275000I-750000J0D01*
G01*
X198401000Y-52124700D02*
G75*
G03*
X198401000Y-52124700I-750000J0D01*
G01*
X192051000Y-111815000D02*
G75*
G03*
X192051000Y-111815000I-750000J0D01*
G01*
D10*
G36*
X100832500Y-76122580D02*
G01*
X99689500Y-76122580D01*
X99689500Y-75487580D01*
X100832500Y-75487580D01*
X100832500Y-76122580D01*
G37*
G36*
X188251000Y-59334700D02*
G01*
X186551000Y-59334700D01*
X186551000Y-58334700D01*
X188251000Y-58334700D01*
X188251000Y-59334700D01*
G37*
D12*
X117121000Y-64474700D02*
G75*
G03*
X117121000Y-64474700I-750000J0D01*
G01*
D10*
G36*
X155111000Y-69254700D02*
G01*
X153411000Y-69254700D01*
X153411000Y-68254700D01*
X155111000Y-68254700D01*
X155111000Y-69254700D01*
G37*
G36*
X102932500Y-76122580D02*
G01*
X101789500Y-76122580D01*
X101789500Y-75487580D01*
X102932500Y-75487580D01*
X102932500Y-76122580D01*
G37*
D13*
X91161000Y-76191700D02*
G75*
G03*
X91161000Y-76191700I-381000J0D01*
G01*
D14*
X219716000Y-76254700D02*
G75*
G03*
X219716000Y-76254700I-475000J0D01*
G01*
D10*
G36*
X107756000Y-114270000D02*
G01*
X106456000Y-114270000D01*
X106456000Y-113320000D01*
X107756000Y-113320000D01*
X107756000Y-114270000D01*
G37*
D15*
X114836000Y-88604700D02*
G75*
G03*
X114836000Y-88604700I-425000J0D01*
G01*
D12*
X141251000Y-81024700D02*
G75*
G03*
X141251000Y-81024700I-750000J0D01*
G01*
D10*
G36*
X174161000Y-94404700D02*
G01*
X172461000Y-94404700D01*
X172461000Y-93404700D01*
X174161000Y-93404700D01*
X174161000Y-94404700D01*
G37*
D15*
X180986000Y-126405000D02*
G75*
G03*
X180986000Y-126405000I-425000J0D01*
G01*
D10*
G36*
X208311000Y-93724700D02*
G01*
X206011000Y-93724700D01*
X206011000Y-91724700D01*
X208311000Y-91724700D01*
X208311000Y-93724700D01*
G37*
D13*
X91161000Y-71111700D02*
G75*
G03*
X91161000Y-71111700I-381000J0D01*
G01*
D10*
G36*
X136916000Y-76269700D02*
G01*
X135616000Y-76269700D01*
X135616000Y-75319700D01*
X136916000Y-75319700D01*
X136916000Y-76269700D01*
G37*
G36*
X95750000Y-95549700D02*
G01*
X93650000Y-95549700D01*
X93650000Y-94749700D01*
X95750000Y-94749700D01*
X95750000Y-95549700D01*
G37*
D12*
X117345180Y-135043810D02*
G75*
G03*
X117345180Y-135043810I-750000J0D01*
G01*
D10*
G36*
X217761000Y-139505000D02*
G01*
X216061000Y-139505000D01*
X216061000Y-138505000D01*
X217761000Y-138505000D01*
X217761000Y-139505000D01*
G37*
D12*
X211101000Y-73714700D02*
G75*
G03*
X211101000Y-73714700I-750000J0D01*
G01*
D14*
X114306000Y-88604700D02*
G75*
G03*
X114306000Y-88604700I-475000J0D01*
G01*
D10*
G36*
X98750000Y-95549700D02*
G01*
X96650000Y-95549700D01*
X96650000Y-94749700D01*
X98750000Y-94749700D01*
X98750000Y-95549700D01*
G37*
D14*
X209556000Y-114355000D02*
G75*
G03*
X209556000Y-114355000I-475000J0D01*
G01*
D12*
X123471000Y-47964700D02*
G75*
G03*
X123471000Y-47964700I-750000J0D01*
G01*
D10*
G36*
X159411000Y-56895400D02*
G01*
X158111000Y-56895400D01*
X158111000Y-55945400D01*
X159411000Y-55945400D01*
X159411000Y-56895400D01*
G37*
D15*
X152936000Y-45504700D02*
G75*
G03*
X152936000Y-45504700I-425000J0D01*
G01*
X133886000Y-67054700D02*
G75*
G03*
X133886000Y-67054700I-425000J0D01*
G01*
X180986000Y-107355000D02*
G75*
G03*
X180986000Y-107355000I-425000J0D01*
G01*
D10*
G36*
X179661000Y-54904700D02*
G01*
X177961000Y-54904700D01*
X177961000Y-53904700D01*
X179661000Y-53904700D01*
X179661000Y-54904700D01*
G37*
D12*
X218721000Y-130865000D02*
G75*
G03*
X218721000Y-130865000I-750000J0D01*
G01*
X98070900Y-106075000D02*
G75*
G03*
X98070900Y-106075000I-750000J0D01*
G01*
D14*
X171456000Y-50204700D02*
G75*
G03*
X171456000Y-50204700I-475000J0D01*
G01*
D12*
X134901000Y-83564700D02*
G75*
G03*
X134901000Y-83564700I-750000J0D01*
G01*
X112127480Y-127393630D02*
G75*
G03*
X112127480Y-127393630I-750000J0D01*
G01*
D10*
G36*
X212261000Y-61904700D02*
G01*
X210561000Y-61904700D01*
X210561000Y-60904700D01*
X212261000Y-60904700D01*
X212261000Y-61904700D01*
G37*
D14*
X152406000Y-102655000D02*
G75*
G03*
X152406000Y-102655000I-475000J0D01*
G01*
D13*
X107707400Y-57141700D02*
G75*
G03*
X107707400Y-57141700I-381000J0D01*
G01*
D11*
X158036000Y-45504700D02*
G75*
G03*
X158036000Y-45504700I-1025000J0D01*
G01*
D14*
X143516000Y-105155000D02*
G75*
G03*
X143516000Y-105155000I-475000J0D01*
G01*
D10*
G36*
X170211000Y-86724700D02*
G01*
X167911000Y-86724700D01*
X167911000Y-84724700D01*
X170211000Y-84724700D01*
X170211000Y-86724700D01*
G37*
D12*
X132171000Y-136485000D02*
G75*
G03*
X132171000Y-136485000I-750000J0D01*
G01*
D10*
G36*
X179661000Y-132505000D02*
G01*
X177961000Y-132505000D01*
X177961000Y-131505000D01*
X179661000Y-131505000D01*
X179661000Y-132505000D01*
G37*
G36*
X193926000Y-123450000D02*
G01*
X192626000Y-123450000D01*
X192626000Y-122500000D01*
X193926000Y-122500000D01*
X193926000Y-123450000D01*
G37*
G36*
X189261000Y-55624700D02*
G01*
X186961000Y-55624700D01*
X186961000Y-53624700D01*
X189261000Y-53624700D01*
X189261000Y-55624700D01*
G37*
D14*
X171456000Y-69254700D02*
G75*
G03*
X171456000Y-69254700I-475000J0D01*
G01*
D10*
G36*
X193211000Y-63304700D02*
G01*
X191511000Y-63304700D01*
X191511000Y-62304700D01*
X193211000Y-62304700D01*
X193211000Y-63304700D01*
G37*
D15*
X200036000Y-133405000D02*
G75*
G03*
X200036000Y-133405000I-425000J0D01*
G01*
D14*
X162566000Y-64554700D02*
G75*
G03*
X162566000Y-64554700I-475000J0D01*
G01*
D10*
G36*
X151161000Y-82024700D02*
G01*
X148861000Y-82024700D01*
X148861000Y-80024700D01*
X151161000Y-80024700D01*
X151161000Y-82024700D01*
G37*
D11*
X177086000Y-107355000D02*
G75*
G03*
X177086000Y-107355000I-1025000J0D01*
G01*
D15*
X152936000Y-64554700D02*
G75*
G03*
X152936000Y-64554700I-425000J0D01*
G01*
D10*
G36*
X174161000Y-131105000D02*
G01*
X172461000Y-131105000D01*
X172461000Y-130105000D01*
X174161000Y-130105000D01*
X174161000Y-131105000D01*
G37*
D13*
X91161000Y-63491700D02*
G75*
G03*
X91161000Y-63491700I-381000J0D01*
G01*
D10*
G36*
X102750000Y-95549700D02*
G01*
X100650000Y-95549700D01*
X100650000Y-94749700D01*
X102750000Y-94749700D01*
X102750000Y-95549700D01*
G37*
D13*
X92487400Y-64761700D02*
G75*
G03*
X92487400Y-64761700I-381000J0D01*
G01*
D12*
X142521000Y-102615000D02*
G75*
G03*
X142521000Y-102615000I-750000J0D01*
G01*
D13*
X106401000Y-71111700D02*
G75*
G03*
X106401000Y-71111700I-381000J0D01*
G01*
D12*
X117121000Y-83524700D02*
G75*
G03*
X117121000Y-83524700I-750000J0D01*
G01*
D14*
X133356000Y-86104700D02*
G75*
G03*
X133356000Y-86104700I-475000J0D01*
G01*
D10*
G36*
X179661000Y-93004700D02*
G01*
X177961000Y-93004700D01*
X177961000Y-92004700D01*
X179661000Y-92004700D01*
X179661000Y-93004700D01*
G37*
D15*
X180986000Y-69254700D02*
G75*
G03*
X180986000Y-69254700I-425000J0D01*
G01*
D19*
X106840000Y-98479700D02*
G75*
G03*
X106840000Y-98479700I-900000J0D01*
G01*
D10*
G36*
X107816000Y-116710000D02*
G01*
X106516000Y-116710000D01*
X106516000Y-115760000D01*
X107816000Y-115760000D01*
X107816000Y-116710000D01*
G37*
G36*
X136061000Y-109855000D02*
G01*
X134361000Y-109855000D01*
X134361000Y-108855000D01*
X136061000Y-108855000D01*
X136061000Y-109855000D01*
G37*
G36*
X198711000Y-139505000D02*
G01*
X197011000Y-139505000D01*
X197011000Y-138505000D01*
X198711000Y-138505000D01*
X198711000Y-139505000D01*
G37*
G36*
X99576660Y-143061730D02*
G01*
X97697270Y-143745770D01*
X96910630Y-141584480D01*
X98790010Y-140900440D01*
X99576660Y-143061730D01*
G37*
G36*
X104250000Y-93799700D02*
G01*
X102150000Y-93799700D01*
X102150000Y-92999700D01*
X104250000Y-92999700D01*
X104250000Y-93799700D01*
G37*
G36*
X138156000Y-58079700D02*
G01*
X136856000Y-58079700D01*
X136856000Y-57129700D01*
X138156000Y-57129700D01*
X138156000Y-58079700D01*
G37*
G36*
X198711000Y-138105000D02*
G01*
X197011000Y-138105000D01*
X197011000Y-137105000D01*
X198711000Y-137105000D01*
X198711000Y-138105000D01*
G37*
G36*
X193211000Y-120455000D02*
G01*
X191511000Y-120455000D01*
X191511000Y-119455000D01*
X193211000Y-119455000D01*
X193211000Y-120455000D01*
G37*
D15*
X114836000Y-50504700D02*
G75*
G03*
X114836000Y-50504700I-425000J0D01*
G01*
D18*
X100200000Y-91299700D02*
G75*
G03*
X100200000Y-91299700I-300000J0D01*
G01*
D13*
X107707400Y-54601700D02*
G75*
G03*
X107707400Y-54601700I-381000J0D01*
G01*
D10*
G36*
X141561000Y-92204700D02*
G01*
X139861000Y-92204700D01*
X139861000Y-91204700D01*
X141561000Y-91204700D01*
X141561000Y-92204700D01*
G37*
D12*
X192051000Y-130865000D02*
G75*
G03*
X192051000Y-130865000I-750000J0D01*
G01*
D15*
X117258640Y-132422580D02*
G75*
G03*
X117258640Y-132422580I-425000J0D01*
G01*
D12*
X211101000Y-54664700D02*
G75*
G03*
X211101000Y-54664700I-750000J0D01*
G01*
D15*
X123836000Y-88604700D02*
G75*
G03*
X123836000Y-88604700I-425000J0D01*
G01*
D14*
X143516000Y-67054700D02*
G75*
G03*
X143516000Y-67054700I-475000J0D01*
G01*
D12*
X174271000Y-64174700D02*
G75*
G03*
X174271000Y-64174700I-750000J0D01*
G01*
X134901000Y-45464700D02*
G75*
G03*
X134901000Y-45464700I-750000J0D01*
G01*
X103150900Y-106075000D02*
G75*
G03*
X103150900Y-106075000I-750000J0D01*
G01*
D15*
X133886000Y-48004700D02*
G75*
G03*
X133886000Y-48004700I-425000J0D01*
G01*
D20*
X91790000Y-80199700D02*
G75*
G03*
X91790000Y-80199700I-500000J0D01*
G01*
D10*
G36*
X160611000Y-108755000D02*
G01*
X158911000Y-108755000D01*
X158911000Y-107755000D01*
X160611000Y-107755000D01*
X160611000Y-108755000D01*
G37*
G36*
X141561000Y-90804700D02*
G01*
X139861000Y-90804700D01*
X139861000Y-89804700D01*
X141561000Y-89804700D01*
X141561000Y-90804700D01*
G37*
G36*
X140466000Y-76269700D02*
G01*
X139166000Y-76269700D01*
X139166000Y-75319700D01*
X140466000Y-75319700D01*
X140466000Y-76269700D01*
G37*
D14*
X117879820Y-132321870D02*
G75*
G03*
X117879820Y-132321870I-475000J0D01*
G01*
D10*
G36*
X213021000Y-106695000D02*
G01*
X211721000Y-106695000D01*
X211721000Y-105745000D01*
X213021000Y-105745000D01*
X213021000Y-106695000D01*
G37*
G36*
X198711000Y-119055000D02*
G01*
X197011000Y-119055000D01*
X197011000Y-118055000D01*
X198711000Y-118055000D01*
X198711000Y-119055000D01*
G37*
D17*
X96480150Y-82604700D02*
G75*
G03*
X96480150Y-82604700I-349250J0D01*
G01*
D10*
G36*
X144811000Y-101035000D02*
G01*
X142511000Y-101035000D01*
X142511000Y-99035000D01*
X144811000Y-99035000D01*
X144811000Y-101035000D01*
G37*
G36*
X182911000Y-46084700D02*
G01*
X180611000Y-46084700D01*
X180611000Y-44084700D01*
X182911000Y-44084700D01*
X182911000Y-46084700D01*
G37*
G36*
X189261000Y-93724700D02*
G01*
X186961000Y-93724700D01*
X186961000Y-91724700D01*
X189261000Y-91724700D01*
X189261000Y-93724700D01*
G37*
G36*
X198711000Y-63304700D02*
G01*
X197011000Y-63304700D01*
X197011000Y-62304700D01*
X198711000Y-62304700D01*
X198711000Y-63304700D01*
G37*
D12*
X161571000Y-62014700D02*
G75*
G03*
X161571000Y-62014700I-750000J0D01*
G01*
D15*
X171986000Y-126405000D02*
G75*
G03*
X171986000Y-126405000I-425000J0D01*
G01*
D16*
X167193000Y-55029700D02*
G75*
G03*
X167193000Y-55029700I-1075000J0D01*
G01*
D15*
X95785900Y-111155000D02*
G75*
G03*
X95785900Y-111155000I-425000J0D01*
G01*
D12*
X112127480Y-127393630D02*
G75*
G03*
X112127480Y-127393630I-750000J0D01*
G01*
D11*
X92507900Y-138718000D02*
G75*
G03*
X92507900Y-138718000I-1025000J0D01*
G01*
X119936000Y-107655000D02*
G75*
G03*
X119936000Y-107655000I-1025000J0D01*
G01*
D10*
G36*
X140486000Y-78639700D02*
G01*
X139186000Y-78639700D01*
X139186000Y-77689700D01*
X140486000Y-77689700D01*
X140486000Y-78639700D01*
G37*
G36*
X217751000Y-125445000D02*
G01*
X216051000Y-125445000D01*
X216051000Y-124445000D01*
X217751000Y-124445000D01*
X217751000Y-125445000D01*
G37*
D15*
X210086000Y-95304700D02*
G75*
G03*
X210086000Y-95304700I-425000J0D01*
G01*
D12*
X136171000Y-81024700D02*
G75*
G03*
X136171000Y-81024700I-750000J0D01*
G01*
X211101000Y-92764700D02*
G75*
G03*
X211101000Y-92764700I-750000J0D01*
G01*
D15*
X191036000Y-95304700D02*
G75*
G03*
X191036000Y-95304700I-425000J0D01*
G01*
D10*
G36*
X179651000Y-118565000D02*
G01*
X177951000Y-118565000D01*
X177951000Y-117565000D01*
X179651000Y-117565000D01*
X179651000Y-118565000D01*
G37*
G36*
X198711000Y-101405000D02*
G01*
X197011000Y-101405000D01*
X197011000Y-100405000D01*
X198711000Y-100405000D01*
X198711000Y-101405000D01*
G37*
D14*
X124466000Y-107655000D02*
G75*
G03*
X124466000Y-107655000I-475000J0D01*
G01*
D10*
G36*
X201961000Y-72134700D02*
G01*
X199661000Y-72134700D01*
X199661000Y-70134700D01*
X201961000Y-70134700D01*
X201961000Y-72134700D01*
G37*
G36*
X122511000Y-112355000D02*
G01*
X120811000Y-112355000D01*
X120811000Y-111355000D01*
X122511000Y-111355000D01*
X122511000Y-112355000D01*
G37*
G36*
X121251000Y-98575400D02*
G01*
X119951000Y-98575400D01*
X119951000Y-97625400D01*
X121251000Y-97625400D01*
X121251000Y-98575400D01*
G37*
D12*
X193321000Y-71174700D02*
G75*
G03*
X193321000Y-71174700I-750000J0D01*
G01*
X160301000Y-59474700D02*
G75*
G03*
X160301000Y-59474700I-750000J0D01*
G01*
D10*
G36*
X201961000Y-110235000D02*
G01*
X199661000Y-110235000D01*
X199661000Y-108235000D01*
X201961000Y-108235000D01*
X201961000Y-110235000D01*
G37*
D16*
X205711000Y-66729700D02*
G75*
G03*
X205711000Y-66729700I-1075000J0D01*
G01*
D13*
X91161000Y-60951700D02*
G75*
G03*
X91161000Y-60951700I-381000J0D01*
G01*
D12*
X180621000Y-104815000D02*
G75*
G03*
X180621000Y-104815000I-750000J0D01*
G01*
D10*
G36*
X132111000Y-103575000D02*
G01*
X129811000Y-103575000D01*
X129811000Y-101575000D01*
X132111000Y-101575000D01*
X132111000Y-103575000D01*
G37*
G36*
X103460900Y-117255000D02*
G01*
X101760900Y-117255000D01*
X101760900Y-116255000D01*
X103460900Y-116255000D01*
X103460900Y-117255000D01*
G37*
G36*
X151161000Y-101075000D02*
G01*
X148861000Y-101075000D01*
X148861000Y-99075000D01*
X151161000Y-99075000D01*
X151161000Y-101075000D01*
G37*
G36*
X179661000Y-75354700D02*
G01*
X177961000Y-75354700D01*
X177961000Y-74354700D01*
X179661000Y-74354700D01*
X179661000Y-75354700D01*
G37*
D13*
X106401000Y-53331700D02*
G75*
G03*
X106401000Y-53331700I-381000J0D01*
G01*
D10*
G36*
X221011000Y-110235000D02*
G01*
X218711000Y-110235000D01*
X218711000Y-108235000D01*
X221011000Y-108235000D01*
X221011000Y-110235000D01*
G37*
G36*
X217761000Y-61904700D02*
G01*
X216061000Y-61904700D01*
X216061000Y-60904700D01*
X217761000Y-60904700D01*
X217761000Y-61904700D01*
G37*
D12*
X134901000Y-102615000D02*
G75*
G03*
X134901000Y-102615000I-750000J0D01*
G01*
D15*
X219086000Y-95304700D02*
G75*
G03*
X219086000Y-95304700I-425000J0D01*
G01*
D11*
X177086000Y-50204700D02*
G75*
G03*
X177086000Y-50204700I-1025000J0D01*
G01*
D10*
G36*
X217781000Y-87524700D02*
G01*
X216081000Y-87524700D01*
X216081000Y-86524700D01*
X217781000Y-86524700D01*
X217781000Y-87524700D01*
G37*
G36*
X141561000Y-54104700D02*
G01*
X139861000Y-54104700D01*
X139861000Y-53104700D01*
X141561000Y-53104700D01*
X141561000Y-54104700D01*
G37*
D15*
X123836000Y-107655000D02*
G75*
G03*
X123836000Y-107655000I-425000J0D01*
G01*
D13*
X91161000Y-50791700D02*
G75*
G03*
X91161000Y-50791700I-381000J0D01*
G01*
D16*
X205711000Y-123880000D02*
G75*
G03*
X205711000Y-123880000I-1075000J0D01*
G01*
D14*
X152406000Y-83604700D02*
G75*
G03*
X152406000Y-83604700I-475000J0D01*
G01*
D12*
X86688710Y-140735920D02*
G75*
G03*
X86688710Y-140735920I-750000J0D01*
G01*
D13*
X91161000Y-53331700D02*
G75*
G03*
X91161000Y-53331700I-381000J0D01*
G01*
D10*
G36*
X217761000Y-138105000D02*
G01*
X216061000Y-138105000D01*
X216061000Y-137105000D01*
X217761000Y-137105000D01*
X217761000Y-138105000D01*
G37*
G36*
X182911000Y-103235000D02*
G01*
X180611000Y-103235000D01*
X180611000Y-101235000D01*
X182911000Y-101235000D01*
X182911000Y-103235000D01*
G37*
D13*
X92487400Y-74921700D02*
G75*
G03*
X92487400Y-74921700I-381000J0D01*
G01*
D10*
G36*
X126856000Y-111930000D02*
G01*
X125556000Y-111930000D01*
X125556000Y-110980000D01*
X126856000Y-110980000D01*
X126856000Y-111930000D01*
G37*
D13*
X91161000Y-58411700D02*
G75*
G03*
X91161000Y-58411700I-381000J0D01*
G01*
D18*
X100200000Y-93049700D02*
G75*
G03*
X100200000Y-93049700I-300000J0D01*
G01*
D11*
X177086000Y-88304700D02*
G75*
G03*
X177086000Y-88304700I-1025000J0D01*
G01*
D10*
G36*
X140441000Y-96095400D02*
G01*
X139141000Y-96095400D01*
X139141000Y-95145400D01*
X140441000Y-95145400D01*
X140441000Y-96095400D01*
G37*
G36*
X141561000Y-73154700D02*
G01*
X139861000Y-73154700D01*
X139861000Y-72154700D01*
X141561000Y-72154700D01*
X141561000Y-73154700D01*
G37*
G36*
X193211000Y-119055000D02*
G01*
X191511000Y-119055000D01*
X191511000Y-118055000D01*
X193211000Y-118055000D01*
X193211000Y-119055000D01*
G37*
G36*
X155111000Y-108755000D02*
G01*
X153411000Y-108755000D01*
X153411000Y-107755000D01*
X155111000Y-107755000D01*
X155111000Y-108755000D01*
G37*
D12*
X86688710Y-140735920D02*
G75*
G03*
X86688710Y-140735920I-750000J0D01*
G01*
D10*
G36*
X182911000Y-84184700D02*
G01*
X180611000Y-84184700D01*
X180611000Y-82184700D01*
X182911000Y-82184700D01*
X182911000Y-84184700D01*
G37*
D14*
X181616000Y-126405000D02*
G75*
G03*
X181616000Y-126405000I-475000J0D01*
G01*
D13*
X107707400Y-69841700D02*
G75*
G03*
X107707400Y-69841700I-381000J0D01*
G01*
D17*
X99470150Y-82614700D02*
G75*
G03*
X99470150Y-82614700I-349250J0D01*
G01*
D12*
X173001000Y-104815000D02*
G75*
G03*
X173001000Y-104815000I-750000J0D01*
G01*
D10*
G36*
X221011000Y-53084700D02*
G01*
X218711000Y-53084700D01*
X218711000Y-51084700D01*
X221011000Y-51084700D01*
X221011000Y-53084700D01*
G37*
D15*
X180986000Y-88304700D02*
G75*
G03*
X180986000Y-88304700I-425000J0D01*
G01*
D14*
X181616000Y-88304700D02*
G75*
G03*
X181616000Y-88304700I-475000J0D01*
G01*
D10*
G36*
X109633600Y-129021180D02*
G01*
X107073100Y-129472670D01*
X106621620Y-126912170D01*
X109182120Y-126460680D01*
X109633600Y-129021180D01*
G37*
D12*
X212371000Y-128325000D02*
G75*
G03*
X212371000Y-128325000I-750000J0D01*
G01*
D10*
G36*
X117011000Y-113755000D02*
G01*
X115311000Y-113755000D01*
X115311000Y-112755000D01*
X117011000Y-112755000D01*
X117011000Y-113755000D01*
G37*
D12*
X173001000Y-85764700D02*
G75*
G03*
X173001000Y-85764700I-750000J0D01*
G01*
D10*
G36*
X193991000Y-68625400D02*
G01*
X192691000Y-68625400D01*
X192691000Y-67675400D01*
X193991000Y-67675400D01*
X193991000Y-68625400D01*
G37*
G36*
X201961000Y-129285000D02*
G01*
X199661000Y-129285000D01*
X199661000Y-127285000D01*
X201961000Y-127285000D01*
X201961000Y-129285000D01*
G37*
D12*
X161571000Y-81064700D02*
G75*
G03*
X161571000Y-81064700I-750000J0D01*
G01*
D10*
G36*
X212261000Y-63304700D02*
G01*
X210561000Y-63304700D01*
X210561000Y-62304700D01*
X212261000Y-62304700D01*
X212261000Y-63304700D01*
G37*
G36*
X197541000Y-68625400D02*
G01*
X196241000Y-68625400D01*
X196241000Y-67675400D01*
X197541000Y-67675400D01*
X197541000Y-68625400D01*
G37*
G36*
X117941000Y-59455400D02*
G01*
X116641000Y-59455400D01*
X116641000Y-58505400D01*
X117941000Y-58505400D01*
X117941000Y-59455400D01*
G37*
G36*
X160611000Y-51604700D02*
G01*
X158911000Y-51604700D01*
X158911000Y-50604700D01*
X160611000Y-50604700D01*
X160611000Y-51604700D01*
G37*
D14*
X129356000Y-131405000D02*
G75*
G03*
X129356000Y-131405000I-475000J0D01*
G01*
D10*
G36*
X113061000Y-106075000D02*
G01*
X110761000Y-106075000D01*
X110761000Y-104075000D01*
X113061000Y-104075000D01*
X113061000Y-106075000D01*
G37*
D13*
X106401000Y-60951700D02*
G75*
G03*
X106401000Y-60951700I-381000J0D01*
G01*
D10*
G36*
X212281000Y-87524700D02*
G01*
X210581000Y-87524700D01*
X210581000Y-86524700D01*
X212281000Y-86524700D01*
X212281000Y-87524700D01*
G37*
G36*
X136936000Y-78639700D02*
G01*
X135636000Y-78639700D01*
X135636000Y-77689700D01*
X136936000Y-77689700D01*
X136936000Y-78639700D01*
G37*
D14*
X105415900Y-111155000D02*
G75*
G03*
X105415900Y-111155000I-475000J0D01*
G01*
D15*
X142886000Y-67054700D02*
G75*
G03*
X142886000Y-67054700I-425000J0D01*
G01*
X191036000Y-133405000D02*
G75*
G03*
X191036000Y-133405000I-425000J0D01*
G01*
D12*
X180621000Y-123865000D02*
G75*
G03*
X180621000Y-123865000I-750000J0D01*
G01*
D14*
X143516000Y-48004700D02*
G75*
G03*
X143516000Y-48004700I-475000J0D01*
G01*
X124466000Y-50504700D02*
G75*
G03*
X124466000Y-50504700I-475000J0D01*
G01*
D10*
G36*
X122511000Y-56604700D02*
G01*
X120811000Y-56604700D01*
X120811000Y-55604700D01*
X122511000Y-55604700D01*
X122511000Y-56604700D01*
G37*
D14*
X124466000Y-69554700D02*
G75*
G03*
X124466000Y-69554700I-475000J0D01*
G01*
X200666000Y-57204700D02*
G75*
G03*
X200666000Y-57204700I-475000J0D01*
G01*
D13*
X106401000Y-58411700D02*
G75*
G03*
X106401000Y-58411700I-381000J0D01*
G01*
X92487400Y-59681700D02*
G75*
G03*
X92487400Y-59681700I-381000J0D01*
G01*
D14*
X190506000Y-114355000D02*
G75*
G03*
X190506000Y-114355000I-475000J0D01*
G01*
X200666000Y-95304700D02*
G75*
G03*
X200666000Y-95304700I-475000J0D01*
G01*
D10*
G36*
X151161000Y-120125000D02*
G01*
X148861000Y-120125000D01*
X148861000Y-118125000D01*
X151161000Y-118125000D01*
X151161000Y-120125000D01*
G37*
D12*
X192051000Y-92764700D02*
G75*
G03*
X192051000Y-92764700I-750000J0D01*
G01*
D10*
G36*
X212261000Y-138105000D02*
G01*
X210561000Y-138105000D01*
X210561000Y-137105000D01*
X212261000Y-137105000D01*
X212261000Y-138105000D01*
G37*
D11*
X138986000Y-105155000D02*
G75*
G03*
X138986000Y-105155000I-1025000J0D01*
G01*
D14*
X90220440Y-133944360D02*
G75*
G03*
X90220440Y-133944360I-475000J0D01*
G01*
X171456000Y-107355000D02*
G75*
G03*
X171456000Y-107355000I-475000J0D01*
G01*
D12*
X193321000Y-90224700D02*
G75*
G03*
X193321000Y-90224700I-750000J0D01*
G01*
D10*
G36*
X136061000Y-52704700D02*
G01*
X134361000Y-52704700D01*
X134361000Y-51704700D01*
X136061000Y-51704700D01*
X136061000Y-52704700D01*
G37*
D12*
X198401000Y-90224700D02*
G75*
G03*
X198401000Y-90224700I-750000J0D01*
G01*
D10*
G36*
X117011000Y-74254700D02*
G01*
X115311000Y-74254700D01*
X115311000Y-73254700D01*
X117011000Y-73254700D01*
X117011000Y-74254700D01*
G37*
G36*
X221011000Y-129285000D02*
G01*
X218711000Y-129285000D01*
X218711000Y-127285000D01*
X221011000Y-127285000D01*
X221011000Y-129285000D01*
G37*
G36*
X142411000Y-58764700D02*
G01*
X140711000Y-58764700D01*
X140711000Y-57764700D01*
X142411000Y-57764700D01*
X142411000Y-58764700D01*
G37*
D13*
X106401000Y-63491700D02*
G75*
G03*
X106401000Y-63491700I-381000J0D01*
G01*
D10*
G36*
X174161000Y-75354700D02*
G01*
X172461000Y-75354700D01*
X172461000Y-74354700D01*
X174161000Y-74354700D01*
X174161000Y-75354700D01*
G37*
G36*
X160611000Y-88304700D02*
G01*
X158911000Y-88304700D01*
X158911000Y-87304700D01*
X160611000Y-87304700D01*
X160611000Y-88304700D01*
G37*
G36*
X102932500Y-75121820D02*
G01*
X101789500Y-75121820D01*
X101789500Y-74486820D01*
X102932500Y-74486820D01*
X102932500Y-75121820D01*
G37*
D12*
X173001000Y-66714700D02*
G75*
G03*
X173001000Y-66714700I-750000J0D01*
G01*
D10*
G36*
X98732400Y-75121820D02*
G01*
X97589400Y-75121820D01*
X97589400Y-74486820D01*
X98732400Y-74486820D01*
X98732400Y-75121820D01*
G37*
G36*
X120321000Y-123675000D02*
G01*
X118621000Y-123675000D01*
X118621000Y-122675000D01*
X120321000Y-122675000D01*
X120321000Y-123675000D01*
G37*
D13*
X106401000Y-66031700D02*
G75*
G03*
X106401000Y-66031700I-381000J0D01*
G01*
D10*
G36*
X208311000Y-131825000D02*
G01*
X206011000Y-131825000D01*
X206011000Y-129825000D01*
X208311000Y-129825000D01*
X208311000Y-131825000D01*
G37*
G36*
X155841000Y-54485400D02*
G01*
X154541000Y-54485400D01*
X154541000Y-53535400D01*
X155841000Y-53535400D01*
X155841000Y-54485400D01*
G37*
G36*
X103636000Y-83669700D02*
G01*
X102336000Y-83669700D01*
X102336000Y-82719700D01*
X103636000Y-82719700D01*
X103636000Y-83669700D01*
G37*
D12*
X153951000Y-119165000D02*
G75*
G03*
X153951000Y-119165000I-750000J0D01*
G01*
D15*
X142886000Y-48004700D02*
G75*
G03*
X142886000Y-48004700I-425000J0D01*
G01*
D12*
X211101000Y-130865000D02*
G75*
G03*
X211101000Y-130865000I-750000J0D01*
G01*
D10*
G36*
X155861000Y-56895400D02*
G01*
X154561000Y-56895400D01*
X154561000Y-55945400D01*
X155861000Y-55945400D01*
X155861000Y-56895400D01*
G37*
D14*
X200666000Y-76254700D02*
G75*
G03*
X200666000Y-76254700I-475000J0D01*
G01*
D11*
X196136000Y-76254700D02*
G75*
G03*
X196136000Y-76254700I-1025000J0D01*
G01*
D10*
G36*
X121491000Y-59455400D02*
G01*
X120191000Y-59455400D01*
X120191000Y-58505400D01*
X121491000Y-58505400D01*
X121491000Y-59455400D01*
G37*
D14*
X114306000Y-69554700D02*
G75*
G03*
X114306000Y-69554700I-475000J0D01*
G01*
D10*
G36*
X98801000Y-103565000D02*
G01*
X97501000Y-103565000D01*
X97501000Y-102615000D01*
X98801000Y-102615000D01*
X98801000Y-103565000D01*
G37*
D12*
X174271000Y-121325000D02*
G75*
G03*
X174271000Y-121325000I-750000J0D01*
G01*
D11*
X138986000Y-48004700D02*
G75*
G03*
X138986000Y-48004700I-1025000J0D01*
G01*
D10*
G36*
X137371000Y-117795000D02*
G01*
X135671000Y-117795000D01*
X135671000Y-116795000D01*
X137371000Y-116795000D01*
X137371000Y-117795000D01*
G37*
D14*
X190506000Y-95304700D02*
G75*
G03*
X190506000Y-95304700I-475000J0D01*
G01*
D15*
X133886000Y-86104700D02*
G75*
G03*
X133886000Y-86104700I-425000J0D01*
G01*
D12*
X104420900Y-108615000D02*
G75*
G03*
X104420900Y-108615000I-750000J0D01*
G01*
D10*
G36*
X189261000Y-131825000D02*
G01*
X186961000Y-131825000D01*
X186961000Y-129825000D01*
X189261000Y-129825000D01*
X189261000Y-131825000D01*
G37*
D12*
X123471000Y-67014700D02*
G75*
G03*
X123471000Y-67014700I-750000J0D01*
G01*
X136171000Y-100075000D02*
G75*
G03*
X136171000Y-100075000I-750000J0D01*
G01*
D10*
G36*
X188251000Y-60734700D02*
G01*
X186551000Y-60734700D01*
X186551000Y-59734700D01*
X188251000Y-59734700D01*
X188251000Y-60734700D01*
G37*
G36*
X129228880Y-51916200D02*
G01*
X128593880Y-51916200D01*
X128593880Y-50773200D01*
X129228880Y-50773200D01*
X129228880Y-51916200D01*
G37*
D14*
X209556000Y-57204700D02*
G75*
G03*
X209556000Y-57204700I-475000J0D01*
G01*
D15*
X191036000Y-76254700D02*
G75*
G03*
X191036000Y-76254700I-425000J0D01*
G01*
D10*
G36*
X194016000Y-125910000D02*
G01*
X192716000Y-125910000D01*
X192716000Y-124960000D01*
X194016000Y-124960000D01*
X194016000Y-125910000D01*
G37*
G36*
X141561000Y-71754700D02*
G01*
X139861000Y-71754700D01*
X139861000Y-70754700D01*
X141561000Y-70754700D01*
X141561000Y-71754700D01*
G37*
G36*
X174151000Y-118565000D02*
G01*
X172451000Y-118565000D01*
X172451000Y-117565000D01*
X174151000Y-117565000D01*
X174151000Y-118565000D01*
G37*
D12*
X116535540Y-137765760D02*
G75*
G03*
X116535540Y-137765760I-750000J0D01*
G01*
D13*
X91161000Y-73651700D02*
G75*
G03*
X91161000Y-73651700I-381000J0D01*
G01*
D12*
X198401000Y-109275000D02*
G75*
G03*
X198401000Y-109275000I-750000J0D01*
G01*
D10*
G36*
X197591000Y-105285000D02*
G01*
X196291000Y-105285000D01*
X196291000Y-104335000D01*
X197591000Y-104335000D01*
X197591000Y-105285000D01*
G37*
D12*
X136171000Y-42924700D02*
G75*
G03*
X136171000Y-42924700I-750000J0D01*
G01*
D10*
G36*
X136891000Y-96095400D02*
G01*
X135591000Y-96095400D01*
X135591000Y-95145400D01*
X136891000Y-95145400D01*
X136891000Y-96095400D01*
G37*
D12*
X141251000Y-42924700D02*
G75*
G03*
X141251000Y-42924700I-750000J0D01*
G01*
D10*
G36*
X132111000Y-65474700D02*
G01*
X129811000Y-65474700D01*
X129811000Y-63474700D01*
X132111000Y-63474700D01*
X132111000Y-65474700D01*
G37*
D12*
X107585460Y-130428450D02*
G75*
G03*
X107585460Y-130428450I-750000J0D01*
G01*
D10*
G36*
X216791000Y-68455400D02*
G01*
X215491000Y-68455400D01*
X215491000Y-67505400D01*
X216791000Y-67505400D01*
X216791000Y-68455400D01*
G37*
D12*
X137251000Y-136485000D02*
G75*
G03*
X137251000Y-136485000I-750000J0D01*
G01*
D11*
X196136000Y-57204700D02*
G75*
G03*
X196136000Y-57204700I-1025000J0D01*
G01*
D10*
G36*
X198711000Y-100005000D02*
G01*
X197011000Y-100005000D01*
X197011000Y-99005000D01*
X198711000Y-99005000D01*
X198711000Y-100005000D01*
G37*
D12*
X199671000Y-130865000D02*
G75*
G03*
X199671000Y-130865000I-750000J0D01*
G01*
X179351000Y-83224700D02*
G75*
G03*
X179351000Y-83224700I-750000J0D01*
G01*
D15*
X200036000Y-95304700D02*
G75*
G03*
X200036000Y-95304700I-425000J0D01*
G01*
D12*
X174271000Y-83224700D02*
G75*
G03*
X174271000Y-83224700I-750000J0D01*
G01*
D15*
X114836000Y-107655000D02*
G75*
G03*
X114836000Y-107655000I-425000J0D01*
G01*
D14*
X152406000Y-121705000D02*
G75*
G03*
X152406000Y-121705000I-475000J0D01*
G01*
D10*
G36*
X193901000Y-86185400D02*
G01*
X192601000Y-86185400D01*
X192601000Y-85235400D01*
X193901000Y-85235400D01*
X193901000Y-86185400D01*
G37*
D11*
X215186000Y-114355000D02*
G75*
G03*
X215186000Y-114355000I-1025000J0D01*
G01*
D12*
X192051000Y-73714700D02*
G75*
G03*
X192051000Y-73714700I-750000J0D01*
G01*
X139711000Y-127705000D02*
G75*
G03*
X139711000Y-127705000I-750000J0D01*
G01*
D10*
G36*
X179661000Y-113455000D02*
G01*
X177961000Y-113455000D01*
X177961000Y-112455000D01*
X179661000Y-112455000D01*
X179661000Y-113455000D01*
G37*
G36*
X198711000Y-61904700D02*
G01*
X197011000Y-61904700D01*
X197011000Y-60904700D01*
X198711000Y-60904700D01*
X198711000Y-61904700D01*
G37*
G36*
X212251000Y-124045000D02*
G01*
X210551000Y-124045000D01*
X210551000Y-123045000D01*
X212251000Y-123045000D01*
X212251000Y-124045000D01*
G37*
G36*
X212261000Y-100005000D02*
G01*
X210561000Y-100005000D01*
X210561000Y-99005000D01*
X212261000Y-99005000D01*
X212261000Y-100005000D01*
G37*
D11*
X196136000Y-114355000D02*
G75*
G03*
X196136000Y-114355000I-1025000J0D01*
G01*
D12*
X217451000Y-71174700D02*
G75*
G03*
X217451000Y-71174700I-750000J0D01*
G01*
D14*
X181616000Y-107355000D02*
G75*
G03*
X181616000Y-107355000I-475000J0D01*
G01*
D11*
X119936000Y-69554700D02*
G75*
G03*
X119936000Y-69554700I-1025000J0D01*
G01*
D10*
G36*
X178391000Y-61615400D02*
G01*
X177091000Y-61615400D01*
X177091000Y-60665400D01*
X178391000Y-60665400D01*
X178391000Y-61615400D01*
G37*
D15*
X219086000Y-133405000D02*
G75*
G03*
X219086000Y-133405000I-425000J0D01*
G01*
D10*
G36*
X174161000Y-112055000D02*
G01*
X172461000Y-112055000D01*
X172461000Y-111055000D01*
X174161000Y-111055000D01*
X174161000Y-112055000D01*
G37*
G36*
X193211000Y-139505000D02*
G01*
X191511000Y-139505000D01*
X191511000Y-138505000D01*
X193211000Y-138505000D01*
X193211000Y-139505000D01*
G37*
D11*
X158036000Y-64554700D02*
G75*
G03*
X158036000Y-64554700I-1025000J0D01*
G01*
D13*
X106401000Y-50791700D02*
G75*
G03*
X106401000Y-50791700I-381000J0D01*
G01*
D10*
G36*
X212281000Y-86124700D02*
G01*
X210581000Y-86124700D01*
X210581000Y-85124700D01*
X212281000Y-85124700D01*
X212281000Y-86124700D01*
G37*
D15*
X219086000Y-114355000D02*
G75*
G03*
X219086000Y-114355000I-425000J0D01*
G01*
D10*
G36*
X217761000Y-101405000D02*
G01*
X216061000Y-101405000D01*
X216061000Y-100405000D01*
X217761000Y-100405000D01*
X217761000Y-101405000D01*
G37*
D12*
X95922820Y-141429500D02*
G75*
G03*
X95922820Y-141429500I-750000J0D01*
G01*
D10*
G36*
X100832500Y-75121820D02*
G01*
X99689500Y-75121820D01*
X99689500Y-74486820D01*
X100832500Y-74486820D01*
X100832500Y-75121820D01*
G37*
G36*
X125761000Y-84484700D02*
G01*
X123461000Y-84484700D01*
X123461000Y-82484700D01*
X125761000Y-82484700D01*
X125761000Y-84484700D01*
G37*
G36*
X104250000Y-91349700D02*
G01*
X102150000Y-91349700D01*
X102150000Y-90549700D01*
X104250000Y-90549700D01*
X104250000Y-91349700D01*
G37*
G36*
X189261000Y-112775000D02*
G01*
X186961000Y-112775000D01*
X186961000Y-110775000D01*
X189261000Y-110775000D01*
X189261000Y-112775000D01*
G37*
D12*
X217451000Y-109275000D02*
G75*
G03*
X217451000Y-109275000I-750000J0D01*
G01*
D10*
G36*
X217761000Y-82354700D02*
G01*
X216061000Y-82354700D01*
X216061000Y-81354700D01*
X217761000Y-81354700D01*
X217761000Y-82354700D01*
G37*
G36*
X121049840Y-135314380D02*
G01*
X118784790Y-135713770D01*
X118437490Y-133744160D01*
X120702550Y-133344760D01*
X121049840Y-135314380D01*
G37*
G36*
X185976000Y-129460000D02*
G01*
X184676000Y-129460000D01*
X184676000Y-128510000D01*
X185976000Y-128510000D01*
X185976000Y-129460000D01*
G37*
D12*
X160301000Y-97575000D02*
G75*
G03*
X160301000Y-97575000I-750000J0D01*
G01*
X199671000Y-54664700D02*
G75*
G03*
X199671000Y-54664700I-750000J0D01*
G01*
D10*
G36*
X221011000Y-72134700D02*
G01*
X218711000Y-72134700D01*
X218711000Y-70134700D01*
X221011000Y-70134700D01*
X221011000Y-72134700D01*
G37*
G36*
X113061000Y-48924700D02*
G01*
X110761000Y-48924700D01*
X110761000Y-46924700D01*
X113061000Y-46924700D01*
X113061000Y-48924700D01*
G37*
G36*
X117011000Y-93304700D02*
G01*
X115311000Y-93304700D01*
X115311000Y-92304700D01*
X117011000Y-92304700D01*
X117011000Y-93304700D01*
G37*
G36*
X198711000Y-80954700D02*
G01*
X197011000Y-80954700D01*
X197011000Y-79954700D01*
X198711000Y-79954700D01*
X198711000Y-80954700D01*
G37*
G36*
X142871000Y-116395000D02*
G01*
X141171000Y-116395000D01*
X141171000Y-115395000D01*
X142871000Y-115395000D01*
X142871000Y-116395000D01*
G37*
G36*
X102750000Y-89599700D02*
G01*
X100650000Y-89599700D01*
X100650000Y-88799700D01*
X102750000Y-88799700D01*
X102750000Y-89599700D01*
G37*
D12*
X199671000Y-92764700D02*
G75*
G03*
X199671000Y-92764700I-750000J0D01*
G01*
X198401000Y-128325000D02*
G75*
G03*
X198401000Y-128325000I-750000J0D01*
G01*
D18*
X93200000Y-93049700D02*
G75*
G03*
X93200000Y-93049700I-300000J0D01*
G01*
D12*
X179351000Y-102275000D02*
G75*
G03*
X179351000Y-102275000I-750000J0D01*
G01*
X115851000Y-86064700D02*
G75*
G03*
X115851000Y-86064700I-750000J0D01*
G01*
X153951000Y-62014700D02*
G75*
G03*
X153951000Y-62014700I-750000J0D01*
G01*
D10*
G36*
X197476000Y-123450000D02*
G01*
X196176000Y-123450000D01*
X196176000Y-122500000D01*
X197476000Y-122500000D01*
X197476000Y-123450000D01*
G37*
G36*
X212251000Y-125445000D02*
G01*
X210551000Y-125445000D01*
X210551000Y-124445000D01*
X212251000Y-124445000D01*
X212251000Y-125445000D01*
G37*
D15*
X104785900Y-111155000D02*
G75*
G03*
X104785900Y-111155000I-425000J0D01*
G01*
D10*
G36*
X212261000Y-139505000D02*
G01*
X210561000Y-139505000D01*
X210561000Y-138505000D01*
X212261000Y-138505000D01*
X212261000Y-139505000D01*
G37*
D13*
X106401000Y-48251700D02*
G75*
G03*
X106401000Y-48251700I-381000J0D01*
G01*
D10*
G36*
X122511000Y-55204700D02*
G01*
X120811000Y-55204700D01*
X120811000Y-54204700D01*
X122511000Y-54204700D01*
X122511000Y-55204700D01*
G37*
D16*
X129093000Y-98129700D02*
G75*
G03*
X129093000Y-98129700I-1075000J0D01*
G01*
D12*
X211101000Y-111815000D02*
G75*
G03*
X211101000Y-111815000I-750000J0D01*
G01*
D14*
X143516000Y-86104700D02*
G75*
G03*
X143516000Y-86104700I-475000J0D01*
G01*
D10*
G36*
X159331000Y-112665000D02*
G01*
X158031000Y-112665000D01*
X158031000Y-111715000D01*
X159331000Y-111715000D01*
X159331000Y-112665000D01*
G37*
G36*
X97960900Y-115855000D02*
G01*
X96260900Y-115855000D01*
X96260900Y-114855000D01*
X97960900Y-114855000D01*
X97960900Y-115855000D01*
G37*
D12*
X179351000Y-45124700D02*
G75*
G03*
X179351000Y-45124700I-750000J0D01*
G01*
X218721000Y-111815000D02*
G75*
G03*
X218721000Y-111815000I-750000J0D01*
G01*
X123471000Y-105115000D02*
G75*
G03*
X123471000Y-105115000I-750000J0D01*
G01*
D14*
X219716000Y-57204700D02*
G75*
G03*
X219716000Y-57204700I-475000J0D01*
G01*
D15*
X161936000Y-102655000D02*
G75*
G03*
X161936000Y-102655000I-425000J0D01*
G01*
D10*
G36*
X143561000Y-129005000D02*
G01*
X140961000Y-129005000D01*
X140961000Y-126405000D01*
X143561000Y-126405000D01*
X143561000Y-129005000D01*
G37*
G36*
X170211000Y-124825000D02*
G01*
X167911000Y-124825000D01*
X167911000Y-122825000D01*
X170211000Y-122825000D01*
X170211000Y-124825000D01*
G37*
G36*
X108983850Y-140021120D02*
G01*
X106718790Y-140420510D01*
X106371500Y-138450900D01*
X108636560Y-138051510D01*
X108983850Y-140021120D01*
G37*
G36*
X122511000Y-74254700D02*
G01*
X120811000Y-74254700D01*
X120811000Y-73254700D01*
X122511000Y-73254700D01*
X122511000Y-74254700D01*
G37*
G36*
X131961000Y-126805000D02*
G01*
X129361000Y-126805000D01*
X129361000Y-124205000D01*
X131961000Y-124205000D01*
X131961000Y-126805000D01*
G37*
D11*
X215186000Y-133405000D02*
G75*
G03*
X215186000Y-133405000I-1025000J0D01*
G01*
D10*
G36*
X117011000Y-94704700D02*
G01*
X115311000Y-94704700D01*
X115311000Y-93704700D01*
X117011000Y-93704700D01*
X117011000Y-94704700D01*
G37*
G36*
X217761000Y-63304700D02*
G01*
X216061000Y-63304700D01*
X216061000Y-62304700D01*
X217761000Y-62304700D01*
X217761000Y-63304700D01*
G37*
D12*
X212371000Y-52124700D02*
G75*
G03*
X212371000Y-52124700I-750000J0D01*
G01*
X115851000Y-47964700D02*
G75*
G03*
X115851000Y-47964700I-750000J0D01*
G01*
D15*
X129886000Y-131405000D02*
G75*
G03*
X129886000Y-131405000I-425000J0D01*
G01*
D12*
X141251000Y-61974700D02*
G75*
G03*
X141251000Y-61974700I-750000J0D01*
G01*
D10*
G36*
X111306000Y-114270000D02*
G01*
X110006000Y-114270000D01*
X110006000Y-113320000D01*
X111306000Y-113320000D01*
X111306000Y-114270000D01*
G37*
D12*
X136171000Y-61974700D02*
G75*
G03*
X136171000Y-61974700I-750000J0D01*
G01*
X217451000Y-52124700D02*
G75*
G03*
X217451000Y-52124700I-750000J0D01*
G01*
D13*
X106401000Y-68571700D02*
G75*
G03*
X106401000Y-68571700I-381000J0D01*
G01*
D11*
X119936000Y-50504700D02*
G75*
G03*
X119936000Y-50504700I-1025000J0D01*
G01*
D10*
G36*
X136061000Y-90804700D02*
G01*
X134361000Y-90804700D01*
X134361000Y-89804700D01*
X136061000Y-89804700D01*
X136061000Y-90804700D01*
G37*
D14*
X219716000Y-133405000D02*
G75*
G03*
X219716000Y-133405000I-475000J0D01*
G01*
D12*
X155221000Y-116625000D02*
G75*
G03*
X155221000Y-116625000I-750000J0D01*
G01*
X212371000Y-109275000D02*
G75*
G03*
X212371000Y-109275000I-750000J0D01*
G01*
D10*
G36*
X122511000Y-93304700D02*
G01*
X120811000Y-93304700D01*
X120811000Y-92304700D01*
X122511000Y-92304700D01*
X122511000Y-93304700D01*
G37*
D13*
X91161000Y-68571700D02*
G75*
G03*
X91161000Y-68571700I-381000J0D01*
G01*
X107707400Y-72381700D02*
G75*
G03*
X107707400Y-72381700I-381000J0D01*
G01*
D14*
X133356000Y-105155000D02*
G75*
G03*
X133356000Y-105155000I-475000J0D01*
G01*
D12*
X193321000Y-128325000D02*
G75*
G03*
X193321000Y-128325000I-750000J0D01*
G01*
D10*
G36*
X179661000Y-112055000D02*
G01*
X177961000Y-112055000D01*
X177961000Y-111055000D01*
X179661000Y-111055000D01*
X179661000Y-112055000D01*
G37*
G36*
X208311000Y-112775000D02*
G01*
X206011000Y-112775000D01*
X206011000Y-110775000D01*
X208311000Y-110775000D01*
X208311000Y-112775000D01*
G37*
D12*
X123471000Y-86064700D02*
G75*
G03*
X123471000Y-86064700I-750000J0D01*
G01*
D10*
G36*
X155111000Y-88304700D02*
G01*
X153411000Y-88304700D01*
X153411000Y-87304700D01*
X155111000Y-87304700D01*
X155111000Y-88304700D01*
G37*
D12*
X160301000Y-40424700D02*
G75*
G03*
X160301000Y-40424700I-750000J0D01*
G01*
D10*
G36*
X179661000Y-56304700D02*
G01*
X177961000Y-56304700D01*
X177961000Y-55304700D01*
X179661000Y-55304700D01*
X179661000Y-56304700D01*
G37*
G36*
X136061000Y-54104700D02*
G01*
X134361000Y-54104700D01*
X134361000Y-53104700D01*
X136061000Y-53104700D01*
X136061000Y-54104700D01*
G37*
G36*
X174161000Y-132505000D02*
G01*
X172461000Y-132505000D01*
X172461000Y-131505000D01*
X174161000Y-131505000D01*
X174161000Y-132505000D01*
G37*
D14*
X95255900Y-111155000D02*
G75*
G03*
X95255900Y-111155000I-475000J0D01*
G01*
D10*
G36*
X144811000Y-81984700D02*
G01*
X142511000Y-81984700D01*
X142511000Y-79984700D01*
X144811000Y-79984700D01*
X144811000Y-81984700D01*
G37*
D14*
X114306000Y-107655000D02*
G75*
G03*
X114306000Y-107655000I-475000J0D01*
G01*
D10*
G36*
X122511000Y-75654700D02*
G01*
X120811000Y-75654700D01*
X120811000Y-74654700D01*
X122511000Y-74654700D01*
X122511000Y-75654700D01*
G37*
D12*
X141251000Y-100075000D02*
G75*
G03*
X141251000Y-100075000I-750000J0D01*
G01*
D10*
G36*
X174161000Y-54904700D02*
G01*
X172461000Y-54904700D01*
X172461000Y-53904700D01*
X174161000Y-53904700D01*
X174161000Y-54904700D01*
G37*
G36*
X197566000Y-125910000D02*
G01*
X196266000Y-125910000D01*
X196266000Y-124960000D01*
X197566000Y-124960000D01*
X197566000Y-125910000D01*
G37*
G36*
X179661000Y-94404700D02*
G01*
X177961000Y-94404700D01*
X177961000Y-93404700D01*
X179661000Y-93404700D01*
X179661000Y-94404700D01*
G37*
D14*
X152406000Y-64554700D02*
G75*
G03*
X152406000Y-64554700I-475000J0D01*
G01*
D10*
G36*
X217751000Y-124045000D02*
G01*
X216051000Y-124045000D01*
X216051000Y-123045000D01*
X217751000Y-123045000D01*
X217751000Y-124045000D01*
G37*
D14*
X209556000Y-133405000D02*
G75*
G03*
X209556000Y-133405000I-475000J0D01*
G01*
D11*
X177086000Y-126405000D02*
G75*
G03*
X177086000Y-126405000I-1025000J0D01*
G01*
D12*
X218721000Y-54664700D02*
G75*
G03*
X218721000Y-54664700I-750000J0D01*
G01*
D11*
X119936000Y-88604700D02*
G75*
G03*
X119936000Y-88604700I-1025000J0D01*
G01*
X196136000Y-133405000D02*
G75*
G03*
X196136000Y-133405000I-1025000J0D01*
G01*
D10*
G36*
X141561000Y-109855000D02*
G01*
X139861000Y-109855000D01*
X139861000Y-108855000D01*
X141561000Y-108855000D01*
X141561000Y-109855000D01*
G37*
G36*
X97960900Y-117255000D02*
G01*
X96260900Y-117255000D01*
X96260900Y-116255000D01*
X97960900Y-116255000D01*
X97960900Y-117255000D01*
G37*
G36*
X144811000Y-43884700D02*
G01*
X142511000Y-43884700D01*
X142511000Y-41884700D01*
X144811000Y-41884700D01*
X144811000Y-43884700D01*
G37*
G36*
X182426000Y-129460000D02*
G01*
X181126000Y-129460000D01*
X181126000Y-128510000D01*
X182426000Y-128510000D01*
X182426000Y-129460000D01*
G37*
D15*
X123836000Y-69554700D02*
G75*
G03*
X123836000Y-69554700I-425000J0D01*
G01*
D12*
X117121000Y-102575000D02*
G75*
G03*
X117121000Y-102575000I-750000J0D01*
G01*
D10*
G36*
X121439400Y-129173440D02*
G01*
X118878900Y-129624920D01*
X118427410Y-127064420D01*
X120987910Y-126612940D01*
X121439400Y-129173440D01*
G37*
D11*
X138986000Y-86104700D02*
G75*
G03*
X138986000Y-86104700I-1025000J0D01*
G01*
D12*
X122201000Y-83524700D02*
G75*
G03*
X122201000Y-83524700I-750000J0D01*
G01*
D15*
X152936000Y-102655000D02*
G75*
G03*
X152936000Y-102655000I-425000J0D01*
G01*
D10*
G36*
X122511000Y-94704700D02*
G01*
X120811000Y-94704700D01*
X120811000Y-93704700D01*
X122511000Y-93704700D01*
X122511000Y-94704700D01*
G37*
D12*
X193321000Y-52124700D02*
G75*
G03*
X193321000Y-52124700I-750000J0D01*
G01*
D10*
G36*
X117011000Y-112355000D02*
G01*
X115311000Y-112355000D01*
X115311000Y-111355000D01*
X117011000Y-111355000D01*
X117011000Y-112355000D01*
G37*
D14*
X209556000Y-95304700D02*
G75*
G03*
X209556000Y-95304700I-475000J0D01*
G01*
D12*
X87045940Y-135285010D02*
G75*
G03*
X87045940Y-135285010I-750000J0D01*
G01*
D10*
G36*
X95700630Y-86822740D02*
G01*
X95734300Y-86831760D01*
X95765900Y-86846490D01*
X95794460Y-86866490D01*
X95819110Y-86891140D01*
X95839110Y-86919700D01*
X95853840Y-86951300D01*
X95862860Y-86984970D01*
X95865900Y-87019700D01*
X95865900Y-87419700D01*
X95862860Y-87454430D01*
X95853840Y-87488100D01*
X95839110Y-87519700D01*
X95819110Y-87548260D01*
X95794460Y-87572910D01*
X95765900Y-87592910D01*
X95734300Y-87607640D01*
X95700630Y-87616660D01*
X95665900Y-87619700D01*
X95115900Y-87619700D01*
X95081170Y-87616660D01*
X95047500Y-87607640D01*
X95015900Y-87592910D01*
X94987340Y-87572910D01*
X94962690Y-87548260D01*
X94942690Y-87519700D01*
X94927960Y-87488100D01*
X94918940Y-87454430D01*
X94915900Y-87419700D01*
X94915900Y-87019700D01*
X94918940Y-86984970D01*
X94927960Y-86951300D01*
X94942690Y-86919700D01*
X94962690Y-86891140D01*
X94987340Y-86866490D01*
X95015900Y-86846490D01*
X95047500Y-86831760D01*
X95081170Y-86822740D01*
X95115900Y-86819700D01*
X95665900Y-86819700D01*
X95700630Y-86822740D01*
G37*
D12*
X117121000Y-45424700D02*
G75*
G03*
X117121000Y-45424700I-750000J0D01*
G01*
D10*
G36*
X213021000Y-104425000D02*
G01*
X211721000Y-104425000D01*
X211721000Y-103475000D01*
X213021000Y-103475000D01*
X213021000Y-104425000D01*
G37*
D11*
X215186000Y-57204700D02*
G75*
G03*
X215186000Y-57204700I-1025000J0D01*
G01*
D10*
G36*
X136061000Y-92204700D02*
G01*
X134361000Y-92204700D01*
X134361000Y-91204700D01*
X136061000Y-91204700D01*
X136061000Y-92204700D01*
G37*
D15*
X191036000Y-114355000D02*
G75*
G03*
X191036000Y-114355000I-425000J0D01*
G01*
D10*
G36*
X216571000Y-106695000D02*
G01*
X215271000Y-106695000D01*
X215271000Y-105745000D01*
X216571000Y-105745000D01*
X216571000Y-106695000D01*
G37*
G36*
X155861000Y-74525400D02*
G01*
X154561000Y-74525400D01*
X154561000Y-73575400D01*
X155861000Y-73575400D01*
X155861000Y-74525400D01*
G37*
G36*
X174161000Y-93004700D02*
G01*
X172461000Y-93004700D01*
X172461000Y-92004700D01*
X174161000Y-92004700D01*
X174161000Y-93004700D01*
G37*
D15*
X171986000Y-69254700D02*
G75*
G03*
X171986000Y-69254700I-425000J0D01*
G01*
D10*
G36*
X208311000Y-74674700D02*
G01*
X206011000Y-74674700D01*
X206011000Y-72674700D01*
X208311000Y-72674700D01*
X208311000Y-74674700D01*
G37*
G36*
X193211000Y-101405000D02*
G01*
X191511000Y-101405000D01*
X191511000Y-100405000D01*
X193211000Y-100405000D01*
X193211000Y-101405000D01*
G37*
D15*
X210086000Y-133405000D02*
G75*
G03*
X210086000Y-133405000I-425000J0D01*
G01*
D13*
X107707400Y-46981700D02*
G75*
G03*
X107707400Y-46981700I-381000J0D01*
G01*
D10*
G36*
X155111000Y-89704700D02*
G01*
X153411000Y-89704700D01*
X153411000Y-88704700D01*
X155111000Y-88704700D01*
X155111000Y-89704700D01*
G37*
D12*
X153951000Y-42964700D02*
G75*
G03*
X153951000Y-42964700I-750000J0D01*
G01*
D10*
G36*
X170211000Y-48624700D02*
G01*
X167911000Y-48624700D01*
X167911000Y-46624700D01*
X170211000Y-46624700D01*
X170211000Y-48624700D01*
G37*
G36*
X201961000Y-53084700D02*
G01*
X199661000Y-53084700D01*
X199661000Y-51084700D01*
X201961000Y-51084700D01*
X201961000Y-53084700D01*
G37*
D14*
X181616000Y-50204700D02*
G75*
G03*
X181616000Y-50204700I-475000J0D01*
G01*
D12*
X199671000Y-73714700D02*
G75*
G03*
X199671000Y-73714700I-750000J0D01*
G01*
D10*
G36*
X174851000Y-59145400D02*
G01*
X173551000Y-59145400D01*
X173551000Y-58195400D01*
X174851000Y-58195400D01*
X174851000Y-59145400D01*
G37*
G36*
X117701000Y-98575400D02*
G01*
X116401000Y-98575400D01*
X116401000Y-97625400D01*
X117701000Y-97625400D01*
X117701000Y-98575400D01*
G37*
D12*
X90466140Y-144681940D02*
G75*
G03*
X90466140Y-144681940I-750000J0D01*
G01*
D10*
G36*
X125761000Y-46384700D02*
G01*
X123461000Y-46384700D01*
X123461000Y-44384700D01*
X125761000Y-44384700D01*
X125761000Y-46384700D01*
G37*
D11*
X158036000Y-121705000D02*
G75*
G03*
X158036000Y-121705000I-1025000J0D01*
G01*
D10*
G36*
X160611000Y-50204700D02*
G01*
X158911000Y-50204700D01*
X158911000Y-49204700D01*
X160611000Y-49204700D01*
X160611000Y-50204700D01*
G37*
G36*
X179661000Y-131105000D02*
G01*
X177961000Y-131105000D01*
X177961000Y-130105000D01*
X179661000Y-130105000D01*
X179661000Y-131105000D01*
G37*
D12*
X217451000Y-90224700D02*
G75*
G03*
X217451000Y-90224700I-750000J0D01*
G01*
D15*
X161936000Y-64554700D02*
G75*
G03*
X161936000Y-64554700I-425000J0D01*
G01*
X142886000Y-86104700D02*
G75*
G03*
X142886000Y-86104700I-425000J0D01*
G01*
D10*
G36*
X129411000Y-137525000D02*
G01*
X127111000Y-137525000D01*
X127111000Y-135525000D01*
X129411000Y-135525000D01*
X129411000Y-137525000D01*
G37*
G36*
X141561000Y-111255000D02*
G01*
X139861000Y-111255000D01*
X139861000Y-110255000D01*
X141561000Y-110255000D01*
X141561000Y-111255000D01*
G37*
G36*
X100211000Y-123695000D02*
G01*
X98511000Y-123695000D01*
X98511000Y-122695000D01*
X100211000Y-122695000D01*
X100211000Y-123695000D01*
G37*
G36*
X88733610Y-144613880D02*
G01*
X86290410Y-145503130D01*
X85401150Y-143059930D01*
X87844350Y-142170680D01*
X88733610Y-144613880D01*
G37*
D12*
X160301000Y-78524700D02*
G75*
G03*
X160301000Y-78524700I-750000J0D01*
G01*
X192051000Y-54664700D02*
G75*
G03*
X192051000Y-54664700I-750000J0D01*
G01*
D10*
G36*
X155111000Y-70654700D02*
G01*
X153411000Y-70654700D01*
X153411000Y-69654700D01*
X155111000Y-69654700D01*
X155111000Y-70654700D01*
G37*
D14*
X133356000Y-48004700D02*
G75*
G03*
X133356000Y-48004700I-475000J0D01*
G01*
D10*
G36*
X136061000Y-73154700D02*
G01*
X134361000Y-73154700D01*
X134361000Y-72154700D01*
X136061000Y-72154700D01*
X136061000Y-73154700D01*
G37*
G36*
X217781000Y-86124700D02*
G01*
X216081000Y-86124700D01*
X216081000Y-85124700D01*
X217781000Y-85124700D01*
X217781000Y-86124700D01*
G37*
D15*
X152936000Y-121705000D02*
G75*
G03*
X152936000Y-121705000I-425000J0D01*
G01*
D10*
G36*
X217761000Y-80954700D02*
G01*
X216061000Y-80954700D01*
X216061000Y-79954700D01*
X217761000Y-79954700D01*
X217761000Y-80954700D01*
G37*
G36*
X193211000Y-80954700D02*
G01*
X191511000Y-80954700D01*
X191511000Y-79954700D01*
X193211000Y-79954700D01*
X193211000Y-80954700D01*
G37*
D14*
X139516000Y-131405000D02*
G75*
G03*
X139516000Y-131405000I-475000J0D01*
G01*
D10*
G36*
X155781000Y-112665000D02*
G01*
X154481000Y-112665000D01*
X154481000Y-111715000D01*
X155781000Y-111715000D01*
X155781000Y-112665000D01*
G37*
D15*
X219086000Y-76254700D02*
G75*
G03*
X219086000Y-76254700I-425000J0D01*
G01*
D10*
G36*
X193961000Y-66215400D02*
G01*
X192661000Y-66215400D01*
X192661000Y-65265400D01*
X193961000Y-65265400D01*
X193961000Y-66215400D01*
G37*
D15*
X180986000Y-50204700D02*
G75*
G03*
X180986000Y-50204700I-425000J0D01*
G01*
D10*
G36*
X194041000Y-105285000D02*
G01*
X192741000Y-105285000D01*
X192741000Y-104335000D01*
X194041000Y-104335000D01*
X194041000Y-105285000D01*
G37*
G36*
X155111000Y-126405000D02*
G01*
X153411000Y-126405000D01*
X153411000Y-125405000D01*
X155111000Y-125405000D01*
X155111000Y-126405000D01*
G37*
G36*
X147911000Y-57364700D02*
G01*
X146211000Y-57364700D01*
X146211000Y-56364700D01*
X147911000Y-56364700D01*
X147911000Y-57364700D01*
G37*
D19*
X92840000Y-98479700D02*
G75*
G03*
X92840000Y-98479700I-900000J0D01*
G01*
D13*
X92487400Y-54601700D02*
G75*
G03*
X92487400Y-54601700I-381000J0D01*
G01*
X92487400Y-49521700D02*
G75*
G03*
X92487400Y-49521700I-381000J0D01*
G01*
D15*
X152936000Y-83604700D02*
G75*
G03*
X152936000Y-83604700I-425000J0D01*
G01*
D10*
G36*
X221011000Y-91184700D02*
G01*
X218711000Y-91184700D01*
X218711000Y-89184700D01*
X221011000Y-89184700D01*
X221011000Y-91184700D01*
G37*
G36*
X179651000Y-117165000D02*
G01*
X177951000Y-117165000D01*
X177951000Y-116165000D01*
X179651000Y-116165000D01*
X179651000Y-117165000D01*
G37*
G36*
X160611000Y-69254700D02*
G01*
X158911000Y-69254700D01*
X158911000Y-68254700D01*
X160611000Y-68254700D01*
X160611000Y-69254700D01*
G37*
D14*
X162566000Y-45504700D02*
G75*
G03*
X162566000Y-45504700I-475000J0D01*
G01*
D15*
X171986000Y-50204700D02*
G75*
G03*
X171986000Y-50204700I-425000J0D01*
G01*
D12*
X122201000Y-64474700D02*
G75*
G03*
X122201000Y-64474700I-750000J0D01*
G01*
D16*
X167193000Y-112180000D02*
G75*
G03*
X167193000Y-112180000I-1075000J0D01*
G01*
D12*
X180621000Y-47664700D02*
G75*
G03*
X180621000Y-47664700I-750000J0D01*
G01*
D15*
X114836000Y-69554700D02*
G75*
G03*
X114836000Y-69554700I-425000J0D01*
G01*
D10*
G36*
X142111000Y-134985000D02*
G01*
X139811000Y-134985000D01*
X139811000Y-132985000D01*
X142111000Y-132985000D01*
X142111000Y-134985000D01*
G37*
D13*
X107707400Y-64761700D02*
G75*
G03*
X107707400Y-64761700I-381000J0D01*
G01*
D10*
G36*
X163861000Y-79484700D02*
G01*
X161561000Y-79484700D01*
X161561000Y-77484700D01*
X163861000Y-77484700D01*
X163861000Y-79484700D01*
G37*
G36*
X103460900Y-115855000D02*
G01*
X101760900Y-115855000D01*
X101760900Y-114855000D01*
X103460900Y-114855000D01*
X103460900Y-115855000D01*
G37*
D11*
X158036000Y-83604700D02*
G75*
G03*
X158036000Y-83604700I-1025000J0D01*
G01*
D12*
X179351000Y-121325000D02*
G75*
G03*
X179351000Y-121325000I-750000J0D01*
G01*
X134711000Y-125505000D02*
G75*
G03*
X134711000Y-125505000I-750000J0D01*
G01*
D15*
X210086000Y-76254700D02*
G75*
G03*
X210086000Y-76254700I-425000J0D01*
G01*
D10*
G36*
X198711000Y-120455000D02*
G01*
X197011000Y-120455000D01*
X197011000Y-119455000D01*
X198711000Y-119455000D01*
X198711000Y-120455000D01*
G37*
D12*
X142521000Y-45464700D02*
G75*
G03*
X142521000Y-45464700I-750000J0D01*
G01*
X117433540Y-128691970D02*
G75*
G03*
X117433540Y-128691970I-750000J0D01*
G01*
D10*
G36*
X102351000Y-103565000D02*
G01*
X101051000Y-103565000D01*
X101051000Y-102615000D01*
X102351000Y-102615000D01*
X102351000Y-103565000D01*
G37*
G36*
X136061000Y-111255000D02*
G01*
X134361000Y-111255000D01*
X134361000Y-110255000D01*
X136061000Y-110255000D01*
X136061000Y-111255000D01*
G37*
G36*
X178341000Y-79185400D02*
G01*
X177041000Y-79185400D01*
X177041000Y-78235400D01*
X178341000Y-78235400D01*
X178341000Y-79185400D01*
G37*
G36*
X170211000Y-105775000D02*
G01*
X167911000Y-105775000D01*
X167911000Y-103775000D01*
X170211000Y-103775000D01*
X170211000Y-105775000D01*
G37*
G36*
X174791000Y-99535400D02*
G01*
X173491000Y-99535400D01*
X173491000Y-98585400D01*
X174791000Y-98585400D01*
X174791000Y-99535400D01*
G37*
G36*
X217761000Y-119055000D02*
G01*
X216061000Y-119055000D01*
X216061000Y-118055000D01*
X217761000Y-118055000D01*
X217761000Y-119055000D01*
G37*
G36*
X160611000Y-107355000D02*
G01*
X158911000Y-107355000D01*
X158911000Y-106355000D01*
X160611000Y-106355000D01*
X160611000Y-107355000D01*
G37*
D12*
X173001000Y-123865000D02*
G75*
G03*
X173001000Y-123865000I-750000J0D01*
G01*
D10*
G36*
X86833500Y-132961000D02*
G01*
X84390300Y-133850250D01*
X83501040Y-131407050D01*
X85944240Y-130517800D01*
X86833500Y-132961000D01*
G37*
D12*
X217451000Y-128325000D02*
G75*
G03*
X217451000Y-128325000I-750000J0D01*
G01*
D13*
X107707400Y-49521700D02*
G75*
G03*
X107707400Y-49521700I-381000J0D01*
G01*
D10*
G36*
X117011000Y-55204700D02*
G01*
X115311000Y-55204700D01*
X115311000Y-54204700D01*
X117011000Y-54204700D01*
X117011000Y-55204700D01*
G37*
G36*
X147911000Y-58764700D02*
G01*
X146211000Y-58764700D01*
X146211000Y-57764700D01*
X147911000Y-57764700D01*
X147911000Y-58764700D01*
G37*
G36*
X182751000Y-60734700D02*
G01*
X181051000Y-60734700D01*
X181051000Y-59734700D01*
X182751000Y-59734700D01*
X182751000Y-60734700D01*
G37*
D12*
X122201000Y-102575000D02*
G75*
G03*
X122201000Y-102575000I-750000J0D01*
G01*
D13*
X107707400Y-67301700D02*
G75*
G03*
X107707400Y-67301700I-381000J0D01*
G01*
X107707400Y-74921700D02*
G75*
G03*
X107707400Y-74921700I-381000J0D01*
G01*
D10*
G36*
X117011000Y-75654700D02*
G01*
X115311000Y-75654700D01*
X115311000Y-74654700D01*
X117011000Y-74654700D01*
X117011000Y-75654700D01*
G37*
D14*
X107874180Y-134086130D02*
G75*
G03*
X107874180Y-134086130I-475000J0D01*
G01*
D15*
X161936000Y-83604700D02*
G75*
G03*
X161936000Y-83604700I-425000J0D01*
G01*
D10*
G36*
X212261000Y-82354700D02*
G01*
X210561000Y-82354700D01*
X210561000Y-81354700D01*
X212261000Y-81354700D01*
X212261000Y-82354700D01*
G37*
G36*
X137371000Y-116395000D02*
G01*
X135671000Y-116395000D01*
X135671000Y-115395000D01*
X137371000Y-115395000D01*
X137371000Y-116395000D01*
G37*
G36*
X113061000Y-87024700D02*
G01*
X110761000Y-87024700D01*
X110761000Y-85024700D01*
X113061000Y-85024700D01*
X113061000Y-87024700D01*
G37*
G36*
X182911000Y-65134700D02*
G01*
X180611000Y-65134700D01*
X180611000Y-63134700D01*
X182911000Y-63134700D01*
X182911000Y-65134700D01*
G37*
D13*
X92487400Y-72381700D02*
G75*
G03*
X92487400Y-72381700I-381000J0D01*
G01*
D10*
G36*
X193211000Y-61904700D02*
G01*
X191511000Y-61904700D01*
X191511000Y-60904700D01*
X193211000Y-60904700D01*
X193211000Y-61904700D01*
G37*
G36*
X92846180Y-131996370D02*
G01*
X90966800Y-132680410D01*
X90180150Y-130519110D01*
X92059540Y-129835070D01*
X92846180Y-131996370D01*
G37*
G36*
X98750000Y-89599700D02*
G01*
X96650000Y-89599700D01*
X96650000Y-88799700D01*
X98750000Y-88799700D01*
X98750000Y-89599700D01*
G37*
G36*
X100211000Y-125095000D02*
G01*
X98511000Y-125095000D01*
X98511000Y-124095000D01*
X100211000Y-124095000D01*
X100211000Y-125095000D01*
G37*
D12*
X160301000Y-116625000D02*
G75*
G03*
X160301000Y-116625000I-750000J0D01*
G01*
X161571000Y-100115000D02*
G75*
G03*
X161571000Y-100115000I-750000J0D01*
G01*
D14*
X219716000Y-95304700D02*
G75*
G03*
X219716000Y-95304700I-475000J0D01*
G01*
D12*
X153951000Y-100115000D02*
G75*
G03*
X153951000Y-100115000I-750000J0D01*
G01*
D10*
G36*
X213261000Y-66035400D02*
G01*
X211961000Y-66035400D01*
X211961000Y-65085400D01*
X213261000Y-65085400D01*
X213261000Y-66035400D01*
G37*
D14*
X114306000Y-50504700D02*
G75*
G03*
X114306000Y-50504700I-475000J0D01*
G01*
D13*
X107707400Y-62221700D02*
G75*
G03*
X107707400Y-62221700I-381000J0D01*
G01*
D14*
X133356000Y-67054700D02*
G75*
G03*
X133356000Y-67054700I-475000J0D01*
G01*
D13*
X91161000Y-66031700D02*
G75*
G03*
X91161000Y-66031700I-381000J0D01*
G01*
D12*
X134901000Y-64514700D02*
G75*
G03*
X134901000Y-64514700I-750000J0D01*
G01*
D16*
X124371000Y-133613000D02*
G75*
G03*
X124371000Y-133613000I-1075000J0D01*
G01*
D10*
G36*
X212261000Y-101405000D02*
G01*
X210561000Y-101405000D01*
X210561000Y-100405000D01*
X212261000Y-100405000D01*
X212261000Y-101405000D01*
G37*
G36*
X217761000Y-100005000D02*
G01*
X216061000Y-100005000D01*
X216061000Y-99005000D01*
X217761000Y-99005000D01*
X217761000Y-100005000D01*
G37*
G36*
X136061000Y-71754700D02*
G01*
X134361000Y-71754700D01*
X134361000Y-70754700D01*
X136061000Y-70754700D01*
X136061000Y-71754700D01*
G37*
D13*
X92487400Y-57141700D02*
G75*
G03*
X92487400Y-57141700I-381000J0D01*
G01*
D14*
X190506000Y-57204700D02*
G75*
G03*
X190506000Y-57204700I-475000J0D01*
G01*
D15*
X210086000Y-57204700D02*
G75*
G03*
X210086000Y-57204700I-425000J0D01*
G01*
D12*
X109840950Y-136367010D02*
G75*
G03*
X109840950Y-136367010I-750000J0D01*
G01*
D13*
X107707400Y-52061700D02*
G75*
G03*
X107707400Y-52061700I-381000J0D01*
G01*
D10*
G36*
X159391000Y-54485400D02*
G01*
X158091000Y-54485400D01*
X158091000Y-53535400D01*
X159391000Y-53535400D01*
X159391000Y-54485400D01*
G37*
D15*
X200036000Y-114355000D02*
G75*
G03*
X200036000Y-114355000I-425000J0D01*
G01*
D11*
X215186000Y-76254700D02*
G75*
G03*
X215186000Y-76254700I-1025000J0D01*
G01*
D10*
G36*
X128228120Y-51916200D02*
G01*
X127593120Y-51916200D01*
X127593120Y-50773200D01*
X128228120Y-50773200D01*
X128228120Y-51916200D01*
G37*
D14*
X93695360Y-143491640D02*
G75*
G03*
X93695360Y-143491640I-475000J0D01*
G01*
D13*
X92487400Y-67301700D02*
G75*
G03*
X92487400Y-67301700I-381000J0D01*
G01*
D10*
G36*
X141561000Y-52704700D02*
G01*
X139861000Y-52704700D01*
X139861000Y-51704700D01*
X141561000Y-51704700D01*
X141561000Y-52704700D01*
G37*
D15*
X123836000Y-50504700D02*
G75*
G03*
X123836000Y-50504700I-425000J0D01*
G01*
D10*
G36*
X182751000Y-59334700D02*
G01*
X181051000Y-59334700D01*
X181051000Y-58334700D01*
X182751000Y-58334700D01*
X182751000Y-59334700D01*
G37*
G36*
X155111000Y-50204700D02*
G01*
X153411000Y-50204700D01*
X153411000Y-49204700D01*
X155111000Y-49204700D01*
X155111000Y-50204700D01*
G37*
G36*
X197511000Y-66215400D02*
G01*
X196211000Y-66215400D01*
X196211000Y-65265400D01*
X197511000Y-65265400D01*
X197511000Y-66215400D01*
G37*
D13*
X106401000Y-55871700D02*
G75*
G03*
X106401000Y-55871700I-381000J0D01*
G01*
D10*
G36*
X120321000Y-125075000D02*
G01*
X118621000Y-125075000D01*
X118621000Y-124075000D01*
X120321000Y-124075000D01*
X120321000Y-125075000D01*
G37*
G36*
X213241000Y-68455400D02*
G01*
X211941000Y-68455400D01*
X211941000Y-67505400D01*
X213241000Y-67505400D01*
X213241000Y-68455400D01*
G37*
D12*
X161571000Y-42964700D02*
G75*
G03*
X161571000Y-42964700I-750000J0D01*
G01*
D10*
G36*
X174161000Y-56304700D02*
G01*
X172461000Y-56304700D01*
X172461000Y-55304700D01*
X174161000Y-55304700D01*
X174161000Y-56304700D01*
G37*
D14*
X162566000Y-121705000D02*
G75*
G03*
X162566000Y-121705000I-475000J0D01*
G01*
D10*
G36*
X144811000Y-62934700D02*
G01*
X142511000Y-62934700D01*
X142511000Y-60934700D01*
X144811000Y-60934700D01*
X144811000Y-62934700D01*
G37*
D13*
X91161000Y-48251700D02*
G75*
G03*
X91161000Y-48251700I-381000J0D01*
G01*
D16*
X95701000Y-125390000D02*
G75*
G03*
X95701000Y-125390000I-1075000J0D01*
G01*
D10*
G36*
X198711000Y-82354700D02*
G01*
X197011000Y-82354700D01*
X197011000Y-81354700D01*
X198711000Y-81354700D01*
X198711000Y-82354700D01*
G37*
G36*
X107186000Y-83669700D02*
G01*
X105886000Y-83669700D01*
X105886000Y-82719700D01*
X107186000Y-82719700D01*
X107186000Y-83669700D01*
G37*
D11*
X134986000Y-131405000D02*
G75*
G03*
X134986000Y-131405000I-1025000J0D01*
G01*
D12*
X115851000Y-105115000D02*
G75*
G03*
X115851000Y-105115000I-750000J0D01*
G01*
D10*
G36*
X212261000Y-119055000D02*
G01*
X210561000Y-119055000D01*
X210561000Y-118055000D01*
X212261000Y-118055000D01*
X212261000Y-119055000D01*
G37*
D20*
X91790000Y-86699700D02*
G75*
G03*
X91790000Y-86699700I-500000J0D01*
G01*
D10*
G36*
X160611000Y-70654700D02*
G01*
X158911000Y-70654700D01*
X158911000Y-69654700D01*
X160611000Y-69654700D01*
X160611000Y-70654700D01*
G37*
D12*
X130901000Y-133945000D02*
G75*
G03*
X130901000Y-133945000I-750000J0D01*
G01*
D10*
G36*
X130406000Y-111930000D02*
G01*
X129106000Y-111930000D01*
X129106000Y-110980000D01*
X130406000Y-110980000D01*
X130406000Y-111930000D01*
G37*
G36*
X174841000Y-61615400D02*
G01*
X173541000Y-61615400D01*
X173541000Y-60665400D01*
X174841000Y-60665400D01*
X174841000Y-61615400D01*
G37*
D11*
X158036000Y-102655000D02*
G75*
G03*
X158036000Y-102655000I-1025000J0D01*
G01*
D10*
G36*
X134606000Y-58079700D02*
G01*
X133306000Y-58079700D01*
X133306000Y-57129700D01*
X134606000Y-57129700D01*
X134606000Y-58079700D01*
G37*
G36*
X208311000Y-55624700D02*
G01*
X206011000Y-55624700D01*
X206011000Y-53624700D01*
X208311000Y-53624700D01*
X208311000Y-55624700D01*
G37*
G36*
X155111000Y-51604700D02*
G01*
X153411000Y-51604700D01*
X153411000Y-50604700D01*
X155111000Y-50604700D01*
X155111000Y-51604700D01*
G37*
G36*
X179661000Y-73954700D02*
G01*
X177961000Y-73954700D01*
X177961000Y-72954700D01*
X179661000Y-72954700D01*
X179661000Y-73954700D01*
G37*
G36*
X193211000Y-100005000D02*
G01*
X191511000Y-100005000D01*
X191511000Y-99005000D01*
X193211000Y-99005000D01*
X193211000Y-100005000D01*
G37*
D14*
X171456000Y-126405000D02*
G75*
G03*
X171456000Y-126405000I-475000J0D01*
G01*
D10*
G36*
X174151000Y-117165000D02*
G01*
X172451000Y-117165000D01*
X172451000Y-116165000D01*
X174151000Y-116165000D01*
X174151000Y-117165000D01*
G37*
G36*
X212261000Y-120455000D02*
G01*
X210561000Y-120455000D01*
X210561000Y-119455000D01*
X212261000Y-119455000D01*
X212261000Y-120455000D01*
G37*
D12*
X155221000Y-78524700D02*
G75*
G03*
X155221000Y-78524700I-750000J0D01*
G01*
D10*
G36*
X174161000Y-73954700D02*
G01*
X172461000Y-73954700D01*
X172461000Y-72954700D01*
X174161000Y-72954700D01*
X174161000Y-73954700D01*
G37*
G36*
X217761000Y-120455000D02*
G01*
X216061000Y-120455000D01*
X216061000Y-119455000D01*
X217761000Y-119455000D01*
X217761000Y-120455000D01*
G37*
D15*
X142886000Y-105155000D02*
G75*
G03*
X142886000Y-105155000I-425000J0D01*
G01*
D10*
G36*
X201961000Y-91184700D02*
G01*
X199661000Y-91184700D01*
X199661000Y-89184700D01*
X201961000Y-89184700D01*
X201961000Y-91184700D01*
G37*
D12*
X122201000Y-45424700D02*
G75*
G03*
X122201000Y-45424700I-750000J0D01*
G01*
D10*
G36*
X111366000Y-116710000D02*
G01*
X110066000Y-116710000D01*
X110066000Y-115760000D01*
X111366000Y-115760000D01*
X111366000Y-116710000D01*
G37*
D15*
X138886000Y-131405000D02*
G75*
G03*
X138886000Y-131405000I-425000J0D01*
G01*
D12*
X155221000Y-59474700D02*
G75*
G03*
X155221000Y-59474700I-750000J0D01*
G01*
D15*
X200036000Y-57204700D02*
G75*
G03*
X200036000Y-57204700I-425000J0D01*
G01*
D12*
X180621000Y-85764700D02*
G75*
G03*
X180621000Y-85764700I-750000J0D01*
G01*
X93316620Y-134269040D02*
G75*
G03*
X93316620Y-134269040I-750000J0D01*
G01*
D10*
G36*
X95750000Y-89599700D02*
G01*
X93650000Y-89599700D01*
X93650000Y-88799700D01*
X95750000Y-88799700D01*
X95750000Y-89599700D01*
G37*
G36*
X132111000Y-46424700D02*
G01*
X129811000Y-46424700D01*
X129811000Y-44424700D01*
X132111000Y-44424700D01*
X132111000Y-46424700D01*
G37*
G36*
X117691000Y-79635400D02*
G01*
X116391000Y-79635400D01*
X116391000Y-78685400D01*
X117691000Y-78685400D01*
X117691000Y-79635400D01*
G37*
G36*
X178401000Y-59145400D02*
G01*
X177101000Y-59145400D01*
X177101000Y-58195400D01*
X178401000Y-58195400D01*
X178401000Y-59145400D01*
G37*
D12*
X96800900Y-108615000D02*
G75*
G03*
X96800900Y-108615000I-750000J0D01*
G01*
D10*
G36*
X216811000Y-66035400D02*
G01*
X215511000Y-66035400D01*
X215511000Y-65085400D01*
X216811000Y-65085400D01*
X216811000Y-66035400D01*
G37*
G36*
X160611000Y-126405000D02*
G01*
X158911000Y-126405000D01*
X158911000Y-125405000D01*
X160611000Y-125405000D01*
X160611000Y-126405000D01*
G37*
D13*
X92487400Y-69841700D02*
G75*
G03*
X92487400Y-69841700I-381000J0D01*
G01*
D10*
G36*
X98732400Y-76122580D02*
G01*
X97589400Y-76122580D01*
X97589400Y-75487580D01*
X98732400Y-75487580D01*
X98732400Y-76122580D01*
G37*
D15*
X90368810Y-134489380D02*
G75*
G03*
X90368810Y-134489380I-425000J0D01*
G01*
X219086000Y-57204700D02*
G75*
G03*
X219086000Y-57204700I-425000J0D01*
G01*
D10*
G36*
X155111000Y-127805000D02*
G01*
X153411000Y-127805000D01*
X153411000Y-126805000D01*
X155111000Y-126805000D01*
X155111000Y-127805000D01*
G37*
D15*
X171986000Y-88304700D02*
G75*
G03*
X171986000Y-88304700I-425000J0D01*
G01*
D10*
G36*
X163861000Y-41384700D02*
G01*
X161561000Y-41384700D01*
X161561000Y-39384700D01*
X163861000Y-39384700D01*
X163861000Y-41384700D01*
G37*
G36*
X125761000Y-103535000D02*
G01*
X123461000Y-103535000D01*
X123461000Y-101535000D01*
X125761000Y-101535000D01*
X125761000Y-103535000D01*
G37*
G36*
X160611000Y-89704700D02*
G01*
X158911000Y-89704700D01*
X158911000Y-88704700D01*
X160611000Y-88704700D01*
X160611000Y-89704700D01*
G37*
D15*
X93446990Y-142946620D02*
G75*
G03*
X93446990Y-142946620I-425000J0D01*
G01*
D14*
X190506000Y-133405000D02*
G75*
G03*
X190506000Y-133405000I-475000J0D01*
G01*
D10*
G36*
X105711000Y-123695000D02*
G01*
X104011000Y-123695000D01*
X104011000Y-122695000D01*
X105711000Y-122695000D01*
X105711000Y-123695000D01*
G37*
G36*
X159371000Y-93595400D02*
G01*
X158071000Y-93595400D01*
X158071000Y-92645400D01*
X159371000Y-92645400D01*
X159371000Y-93595400D01*
G37*
D13*
X92487400Y-62221700D02*
G75*
G03*
X92487400Y-62221700I-381000J0D01*
G01*
D15*
X191036000Y-57204700D02*
G75*
G03*
X191036000Y-57204700I-425000J0D01*
G01*
D21*
%TO.C,LED\u002A\u002A*%
X176067000Y-55102000D03*
D22*
X176067000Y-56427000D03*
X177617000Y-55077000D03*
X174517000Y-55077000D03*
X176067000Y-53777000D03*
D21*
X176067000Y-55102000D03*
%TD*%
%TO.C,LED\u002A\u002A*%
X157021000Y-50401000D03*
D22*
X157021000Y-49076000D03*
X158571000Y-50376000D03*
X155471000Y-50376000D03*
X157021000Y-51726000D03*
D21*
X157021000Y-50401000D03*
%TD*%
D22*
%TO.C,LED\u002A\u002A*%
X120468000Y-74437000D03*
D21*
X118918000Y-74462000D03*
D22*
X118918000Y-73137000D03*
X117368000Y-74437000D03*
X118918000Y-75787000D03*
%TD*%
%TO.C,LED\u002A\u002A*%
X158562000Y-126575000D03*
D21*
X157012000Y-126600000D03*
D22*
X155462000Y-126575000D03*
X157012000Y-125275000D03*
D21*
X157012000Y-126600000D03*
D22*
X157012000Y-127925000D03*
%TD*%
%TO.C,LED\u002A\u002A*%
X176058000Y-110926000D03*
X176058000Y-113576000D03*
X177608000Y-112226000D03*
D21*
X176058000Y-112251000D03*
X176058000Y-112251000D03*
D22*
X174508000Y-112226000D03*
%TD*%
D21*
%TO.C,LED\u002A\u002A*%
X122220000Y-123873000D03*
D22*
X123770000Y-123848000D03*
X122220000Y-125198000D03*
X120670000Y-123848000D03*
X122220000Y-122548000D03*
%TD*%
%TO.C,LED\u002A\u002A*%
X137957000Y-89675000D03*
X137957000Y-92325000D03*
D21*
X137957000Y-91000000D03*
D22*
X136407000Y-90975000D03*
D21*
X137957000Y-91000000D03*
D22*
X139507000Y-90975000D03*
%TD*%
%TO.C,LED\u002A\u002A*%
X196661000Y-62079000D03*
X195111000Y-60779000D03*
X193561000Y-62079000D03*
X195111000Y-63429000D03*
D21*
X195111000Y-62104000D03*
X195111000Y-62104000D03*
%TD*%
D22*
%TO.C,LED\u002A\u002A*%
X145864000Y-57546000D03*
X144314000Y-58896000D03*
X142764000Y-57546000D03*
X144314000Y-56246000D03*
D21*
X144314000Y-57571000D03*
%TD*%
D23*
%TO.C,J\u002A*%
X99900000Y-93050000D03*
X92900000Y-93050000D03*
D24*
X103200000Y-90950000D03*
X94700000Y-95150000D03*
X97700000Y-95150000D03*
X101700000Y-95150000D03*
%TD*%
D22*
%TO.C,LED\u002A\u002A*%
X137958000Y-54231000D03*
D21*
X137958000Y-52906000D03*
D22*
X137958000Y-51581000D03*
X136408000Y-52881000D03*
X139508000Y-52881000D03*
%TD*%
%TO.C,LED\u002A\u002A*%
X174506000Y-117345000D03*
D21*
X176056000Y-117370000D03*
D22*
X176056000Y-116045000D03*
X176056000Y-118695000D03*
X177606000Y-117345000D03*
%TD*%
%TO.C,LED\u002A\u002A*%
X136415000Y-110039000D03*
X137965000Y-108739000D03*
X139515000Y-110039000D03*
X137965000Y-111389000D03*
D21*
X137965000Y-110064000D03*
X137965000Y-110064000D03*
%TD*%
D22*
%TO.C,LED\u002A\u002A*%
X120461000Y-93482000D03*
D21*
X118911000Y-93507000D03*
D22*
X118911000Y-92182000D03*
X117361000Y-93482000D03*
X118911000Y-94832000D03*
%TD*%
D25*
%TO.C,SW2*%
X83716012Y-159726056D03*
D26*
X79656898Y-151516647D03*
D27*
X79316603Y-157186056D03*
D26*
X83886160Y-156891351D03*
X76366603Y-162295606D03*
D28*
X84079743Y-159936056D03*
D26*
X77287046Y-153081351D03*
D28*
X74553463Y-154436056D03*
D26*
X84056308Y-154056647D03*
X81796730Y-162890350D03*
D25*
X74917194Y-154646056D03*
D26*
X73136476Y-157890350D03*
D29*
X74611028Y-151536351D03*
X70451797Y-156340350D03*
X86706345Y-155586647D03*
D30*
X78791474Y-163695606D03*
%TD*%
D22*
%TO.C,LED\u002A\u002A*%
X214157000Y-120575000D03*
X215707000Y-119225000D03*
X212607000Y-119225000D03*
D21*
X214157000Y-119250000D03*
D22*
X214157000Y-117925000D03*
%TD*%
%TO.C,LED\u002A\u002A*%
X196663000Y-81130000D03*
D21*
X195113000Y-81155000D03*
D22*
X195113000Y-82480000D03*
X195113000Y-79830000D03*
X193563000Y-81130000D03*
D21*
X195113000Y-81155000D03*
%TD*%
%TO.C,LED\u002A\u002A*%
X214160000Y-62105000D03*
D22*
X214160000Y-60780000D03*
X215710000Y-62080000D03*
X212610000Y-62080000D03*
D21*
X214160000Y-62105000D03*
D22*
X214160000Y-63430000D03*
%TD*%
%TO.C,LED\u002A\u002A*%
X120461000Y-55377000D03*
X118911000Y-54077000D03*
X118911000Y-56727000D03*
X117361000Y-55377000D03*
D21*
X118911000Y-55402000D03*
%TD*%
D22*
%TO.C,LED\u002A\u002A*%
X212610000Y-81129000D03*
D21*
X214160000Y-81154000D03*
X214160000Y-81154000D03*
D22*
X214160000Y-82479000D03*
X214160000Y-79829000D03*
X215710000Y-81129000D03*
%TD*%
D21*
%TO.C,LED\u002A\u002A*%
X195112000Y-138307000D03*
D22*
X195112000Y-139632000D03*
X196662000Y-138282000D03*
D21*
X195112000Y-138307000D03*
D22*
X195112000Y-136982000D03*
X193562000Y-138282000D03*
%TD*%
D21*
%TO.C,LED\u002A\u002A*%
X137951000Y-71959000D03*
D22*
X137951000Y-70634000D03*
X139501000Y-71934000D03*
X137951000Y-73284000D03*
X136401000Y-71934000D03*
%TD*%
D21*
%TO.C,LED\u002A\u002A*%
X195110000Y-100208000D03*
D22*
X195110000Y-101533000D03*
X196660000Y-100183000D03*
X193560000Y-100183000D03*
D21*
X195110000Y-100208000D03*
D22*
X195110000Y-98883000D03*
%TD*%
%TO.C,LED\u002A\u002A*%
X214181000Y-87652000D03*
X212631000Y-86302000D03*
X215731000Y-86302000D03*
X214181000Y-85002000D03*
D21*
X214181000Y-86327000D03*
%TD*%
%TO.C,LED\u002A\u002A*%
X176059000Y-93212000D03*
D22*
X177609000Y-93187000D03*
X176059000Y-91887000D03*
X174509000Y-93187000D03*
X176059000Y-94537000D03*
D21*
X176059000Y-93212000D03*
%TD*%
D22*
%TO.C,LED\u002A\u002A*%
X176065000Y-129980000D03*
D21*
X176065000Y-131305000D03*
D22*
X177615000Y-131280000D03*
X176065000Y-132630000D03*
X174515000Y-131280000D03*
D21*
X176065000Y-131305000D03*
%TD*%
%TO.C,LED\u002A\u002A*%
X157017000Y-69463000D03*
D22*
X155467000Y-69438000D03*
X157017000Y-68138000D03*
X157017000Y-70788000D03*
X158567000Y-69438000D03*
D21*
X157017000Y-69463000D03*
%TD*%
D22*
%TO.C,LED\u002A\u002A*%
X214148000Y-125564000D03*
D21*
X214148000Y-124239000D03*
D22*
X214148000Y-122914000D03*
X215698000Y-124214000D03*
X212598000Y-124214000D03*
%TD*%
%TO.C,LED\u002A\u002A*%
X140822000Y-116568000D03*
X139272000Y-117918000D03*
X139272000Y-115268000D03*
D21*
X139272000Y-116593000D03*
D22*
X137722000Y-116568000D03*
%TD*%
D21*
%TO.C,LED\u002A\u002A*%
X214167000Y-100198000D03*
D22*
X215717000Y-100173000D03*
X212617000Y-100173000D03*
X214167000Y-98873000D03*
X214167000Y-101523000D03*
%TD*%
%TO.C,LED\u002A\u002A*%
X99862000Y-117381000D03*
X98312000Y-116031000D03*
X101412000Y-116031000D03*
X99862000Y-114731000D03*
D21*
X99862000Y-116056000D03*
%TD*%
D22*
%TO.C,LED\u002A\u002A*%
X212617000Y-138279000D03*
X215717000Y-138279000D03*
X214167000Y-139629000D03*
D21*
X214167000Y-138304000D03*
D22*
X214167000Y-136979000D03*
%TD*%
%TO.C,LED\u002A\u002A*%
X118919000Y-111235000D03*
X120469000Y-112535000D03*
D21*
X118919000Y-112560000D03*
D22*
X118919000Y-113885000D03*
X117369000Y-112535000D03*
%TD*%
D21*
%TO.C,LED\u002A\u002A*%
X176065000Y-74157000D03*
D22*
X177615000Y-74132000D03*
D21*
X176065000Y-74157000D03*
D22*
X174515000Y-74132000D03*
X176065000Y-75482000D03*
X176065000Y-72832000D03*
%TD*%
D21*
%TO.C,LED\u002A\u002A*%
X157010000Y-88521000D03*
D22*
X158560000Y-88496000D03*
X157010000Y-87196000D03*
D21*
X157010000Y-88521000D03*
D22*
X157010000Y-89846000D03*
X155460000Y-88496000D03*
%TD*%
D21*
%TO.C,LED\u002A\u002A*%
X195111000Y-119253000D03*
D22*
X195111000Y-117928000D03*
X196661000Y-119228000D03*
X193561000Y-119228000D03*
D21*
X195111000Y-119253000D03*
D22*
X195111000Y-120578000D03*
%TD*%
%TO.C,LED\u002A\u002A*%
X158564000Y-107528000D03*
X155464000Y-107528000D03*
X157014000Y-108878000D03*
D21*
X157014000Y-107553000D03*
D22*
X157014000Y-106228000D03*
D21*
X157014000Y-107553000D03*
%TD*%
D22*
%TO.C,LED\u002A\u002A*%
X103655000Y-123865000D03*
X102105000Y-122565000D03*
X100555000Y-123865000D03*
D21*
X102105000Y-123890000D03*
D22*
X102105000Y-125215000D03*
%TD*%
%TO.C,LED\u002A\u002A*%
X184652000Y-58207000D03*
D21*
X184652000Y-59532000D03*
D22*
X183102000Y-59507000D03*
X184652000Y-60857000D03*
X186202000Y-59507000D03*
%TD*%
D31*
%TO.C,D24*%
X79225000Y-147000000D03*
X82775000Y-147000000D03*
%TD*%
D23*
%TO.C,J\u002A*%
X99900000Y-91295000D03*
X92900000Y-91295000D03*
D24*
X103200000Y-93395000D03*
X94700000Y-89195000D03*
X97700000Y-89195000D03*
X101700000Y-89195000D03*
%TD*%
M02*
