M48
; DRILL file {KiCad (6.0.4-0)} date 
; FORMAT={-:-/ absolute / inch / decimal}
; #@! TF.CreationDate,2022-10-10T22:28:32+09:00
; #@! TF.GenerationSoftware,Kicad,Pcbnew,(6.0.4-0)
; #@! TF.FileFunction,NonPlated,1,2,NPTH
FMAT,2
INCH
; #@! TA.AperFunction,NonPlated,NPTH,ComponentDrill
T1C0.0197
; #@! TA.AperFunction,NonPlated,NPTH,ComponentDrill
T2C0.0472
; #@! TA.AperFunction,NonPlated,NPTH,ComponentDrill
T3C0.0669
; #@! TA.AperFunction,NonPlated,NPTH,ComponentDrill
T4C0.0748
; #@! TA.AperFunction,NonPlated,NPTH,ComponentDrill
T5C0.1181
; #@! TA.AperFunction,NonPlated,NPTH,ComponentDrill
T6C0.1240
; #@! TA.AperFunction,NonPlated,NPTH,ComponentDrill
T7C0.1575
%
G90
G05
T2
X3.622Y-3.6267
X3.6224Y-3.696
X3.8976Y-3.6267
X3.898Y-3.696
T3
X2.6606Y-7.0589
X2.9121Y-6.1205
X3.0606Y-7.0589
X3.2585Y-6.3205
T4
X2.6441Y-7.0589
X2.8977Y-6.1122
X3.0772Y-7.0589
X3.2728Y-6.3288
T5
X2.6638Y-7.2045
X2.7106Y-6.9589
X2.7606Y-6.8589
X2.842Y-6.2482
X2.8606Y-7.2912
X2.9606Y-6.8589
X2.9691Y-6.4217
X3.0054Y-6.0589
X3.0106Y-6.9589
X3.0575Y-7.2045
X3.0987Y-5.9973
X3.1829Y-6.4451
X3.2652Y-6.2089
X3.2719Y-6.0973
T7
X2.8606Y-7.0589
X3.0853Y-6.2205
T1
G00X3.8327Y-4.5492
M15
G01X3.8327Y-4.6516
M16
G05
G00X3.8327Y-4.5492
M15
G01X3.9547Y-4.5492
M16
G05
G00X3.8327Y-4.6535
M15
G01X3.9547Y-4.6535
M16
G05
G00X3.9547Y-4.5492
M15
G01X3.9547Y-4.6516
M16
G05
G00X3.9626Y-4.8524
M15
G01X3.9626Y-4.9547
M16
G05
G00X3.9626Y-4.8524
M15
G01X4.0846Y-4.8524
M16
G05
G00X3.9626Y-4.9567
M15
G01X4.0846Y-4.9567
M16
G05
G00X4.0846Y-4.8524
M15
G01X4.0846Y-4.9547
M16
G05
G00X4.5827Y-2.1614
M15
G01X4.5827Y-2.2638
M16
G05
G00X4.5827Y-2.9114
M15
G01X4.5827Y-3.0138
M16
G05
G00X4.5827Y-4.4114
M15
G01X4.5827Y-4.5138
M16
G05
G00X4.5837Y-3.6614
M15
G01X4.5837Y-3.7638
M16
G05
G00X4.5827Y-2.1614
M15
G01X4.7047Y-2.1614
M16
G05
G00X4.5827Y-2.2657
M15
G01X4.7047Y-2.2657
M16
G05
G00X4.5827Y-2.9114
M15
G01X4.7047Y-2.9114
M16
G05
G00X4.5827Y-3.0157
M15
G01X4.7047Y-3.0157
M16
G05
G00X4.5827Y-4.4114
M15
G01X4.7047Y-4.4114
M16
G05
G00X4.5827Y-4.5157
M15
G01X4.7047Y-4.5157
M16
G05
G00X4.5837Y-3.6614
M15
G01X4.7057Y-3.6614
M16
G05
G00X4.5837Y-3.7657
M15
G01X4.7057Y-3.7657
M16
G05
G00X4.7047Y-2.1614
M15
G01X4.7047Y-2.2638
M16
G05
G00X4.7047Y-2.9114
M15
G01X4.7047Y-3.0138
M16
G05
G00X4.7047Y-4.4114
M15
G01X4.7047Y-4.5138
M16
G05
G00X4.7057Y-3.6614
M15
G01X4.7057Y-3.7638
M16
G05
G00X4.9596Y-4.3543
M15
G01X4.9596Y-4.4567
M16
G05
G00X4.9596Y-4.3543
M15
G01X5.0817Y-4.3543
M16
G05
G00X4.9596Y-4.4587
M15
G01X5.0817Y-4.4587
M16
G05
G00X5.0817Y-4.3543
M15
G01X5.0817Y-4.4567
M16
G05
G00X5.3327Y-2.063
M15
G01X5.3327Y-2.1654
M16
G05
G00X5.3327Y-4.313
M15
G01X5.3327Y-4.4154
M16
G05
G00X5.3337Y-2.813
M15
G01X5.3337Y-2.9154
M16
G05
G00X5.3337Y-3.562
M15
G01X5.3337Y-3.6644
M16
G05
G00X5.3327Y-2.063
M15
G01X5.4547Y-2.063
M16
G05
G00X5.3327Y-2.1673
M15
G01X5.4547Y-2.1673
M16
G05
G00X5.3327Y-4.313
M15
G01X5.4547Y-4.313
M16
G05
G00X5.3327Y-4.4173
M15
G01X5.4547Y-4.4173
M16
G05
G00X5.3337Y-2.813
M15
G01X5.4557Y-2.813
M16
G05
G00X5.3337Y-2.9173
M15
G01X5.4557Y-2.9173
M16
G05
G00X5.3337Y-3.562
M15
G01X5.4557Y-3.562
M16
G05
G00X5.3337Y-3.6663
M15
G01X5.4557Y-3.6663
M16
G05
G00X5.4547Y-2.063
M15
G01X5.4547Y-2.1654
M16
G05
G00X5.4547Y-4.313
M15
G01X5.4547Y-4.4154
M16
G05
G00X5.4557Y-2.813
M15
G01X5.4557Y-2.9154
M16
G05
G00X5.4557Y-3.562
M15
G01X5.4557Y-3.6644
M16
G05
G00X5.5945Y-2.25
M15
G01X5.5945Y-2.3524
M16
G05
G00X5.5945Y-2.25
M15
G01X5.7165Y-2.25
M16
G05
G00X5.5945Y-2.3543
M15
G01X5.7165Y-2.3543
M16
G05
G00X5.7037Y-4.313
M15
G01X5.7037Y-4.4154
M16
G05
G00X5.7165Y-2.25
M15
G01X5.7165Y-2.3524
M16
G05
G00X5.7037Y-4.313
M15
G01X5.8258Y-4.313
M16
G05
G00X5.7037Y-4.4173
M15
G01X5.8258Y-4.4173
M16
G05
G00X5.8258Y-4.313
M15
G01X5.8258Y-4.4154
M16
G05
G00X6.0827Y-1.9646
M15
G01X6.0827Y-2.0669
M16
G05
G00X6.0827Y-2.7146
M15
G01X6.0827Y-2.8169
M16
G05
G00X6.0827Y-3.4646
M15
G01X6.0827Y-3.5669
M16
G05
G00X6.0837Y-4.2146
M15
G01X6.0837Y-4.3169
M16
G05
G00X6.0827Y-1.9646
M15
G01X6.2047Y-1.9646
M16
G05
G00X6.0827Y-2.0689
M15
G01X6.2047Y-2.0689
M16
G05
G00X6.0827Y-2.7146
M15
G01X6.2047Y-2.7146
M16
G05
G00X6.0827Y-2.8189
M15
G01X6.2047Y-2.8189
M16
G05
G00X6.0827Y-3.4646
M15
G01X6.2047Y-3.4646
M16
G05
G00X6.0827Y-3.5689
M15
G01X6.2047Y-3.5689
M16
G05
G00X6.0837Y-4.2146
M15
G01X6.2057Y-4.2146
M16
G05
G00X6.0837Y-4.3189
M15
G01X6.2057Y-4.3189
M16
G05
G00X6.2047Y-1.9646
M15
G01X6.2047Y-2.0669
M16
G05
G00X6.2047Y-2.7146
M15
G01X6.2047Y-2.8169
M16
G05
G00X6.2047Y-3.4646
M15
G01X6.2047Y-3.5669
M16
G05
G00X6.2057Y-4.2146
M15
G01X6.2057Y-4.3169
M16
G05
G00X6.8327Y-2.8996
M15
G01X6.8327Y-3.002
M16
G05
G00X6.8327Y-3.6496
M15
G01X6.8327Y-3.752
M16
G05
G00X6.8327Y-4.3996
M15
G01X6.8327Y-4.502
M16
G05
G00X6.8337Y-2.1496
M15
G01X6.8337Y-2.252
M16
G05
G00X6.8327Y-2.8996
M15
G01X6.9547Y-2.8996
M16
G05
G00X6.8327Y-3.0039
M15
G01X6.9547Y-3.0039
M16
G05
G00X6.8327Y-3.6496
M15
G01X6.9547Y-3.6496
M16
G05
G00X6.8327Y-3.7539
M15
G01X6.9547Y-3.7539
M16
G05
G00X6.8327Y-4.3996
M15
G01X6.9547Y-4.3996
M16
G05
G00X6.8327Y-4.5039
M15
G01X6.9547Y-4.5039
M16
G05
G00X6.8337Y-2.1496
M15
G01X6.9557Y-2.1496
M16
G05
G00X6.8337Y-2.2539
M15
G01X6.9557Y-2.2539
M16
G05
G00X6.9547Y-2.8996
M15
G01X6.9547Y-3.002
M16
G05
G00X6.9547Y-3.6496
M15
G01X6.9547Y-3.752
M16
G05
G00X6.9547Y-4.3996
M15
G01X6.9547Y-4.502
M16
G05
G00X6.9557Y-2.1496
M15
G01X6.9557Y-2.252
M16
G05
G00X7.1417Y-2.3307
M15
G01X7.1417Y-2.4331
M16
G05
G00X7.1417Y-2.3307
M15
G01X7.2638Y-2.3307
M16
G05
G00X7.1417Y-2.435
M15
G01X7.2638Y-2.435
M16
G05
G00X7.2638Y-2.3307
M15
G01X7.2638Y-2.4331
M16
G05
G00X7.5827Y-2.4242
M15
G01X7.5827Y-2.5266
M16
G05
G00X7.5827Y-3.1752
M15
G01X7.5827Y-3.2776
M16
G05
G00X7.5827Y-3.9252
M15
G01X7.5827Y-4.0276
M16
G05
G00X7.5827Y-4.6752
M15
G01X7.5827Y-4.7776
M16
G05
G00X7.5837Y-5.4252
M15
G01X7.5837Y-5.5276
M16
G05
G00X7.5827Y-2.4242
M15
G01X7.7047Y-2.4242
M16
G05
G00X7.5827Y-2.5285
M15
G01X7.7047Y-2.5285
M16
G05
G00X7.5827Y-3.1752
M15
G01X7.7047Y-3.1752
M16
G05
G00X7.5827Y-3.2795
M15
G01X7.7047Y-3.2795
M16
G05
G00X7.5827Y-3.9252
M15
G01X7.7047Y-3.9252
M16
G05
G00X7.5827Y-4.0295
M15
G01X7.7047Y-4.0295
M16
G05
G00X7.5827Y-4.6752
M15
G01X7.7047Y-4.6752
M16
G05
G00X7.5827Y-4.7795
M15
G01X7.7047Y-4.7795
M16
G05
G00X7.5837Y-5.4252
M15
G01X7.7057Y-5.4252
M16
G05
G00X7.5837Y-5.5295
M15
G01X7.7057Y-5.5295
M16
G05
G00X7.7047Y-2.4242
M15
G01X7.7047Y-2.5266
M16
G05
G00X7.7047Y-3.1752
M15
G01X7.7047Y-3.2776
M16
G05
G00X7.7047Y-3.9252
M15
G01X7.7047Y-4.0276
M16
G05
G00X7.7047Y-4.6752
M15
G01X7.7047Y-4.7776
M16
G05
G00X7.7057Y-5.4252
M15
G01X7.7057Y-5.5276
M16
G05
G00X8.3327Y-2.4252
M15
G01X8.3327Y-2.5276
M16
G05
G00X8.3327Y-3.1752
M15
G01X8.3327Y-3.2776
M16
G05
G00X8.3327Y-3.9252
M15
G01X8.3327Y-4.0276
M16
G05
G00X8.3327Y-4.6752
M15
G01X8.3327Y-4.7776
M16
G05
G00X8.3327Y-5.4252
M15
G01X8.3327Y-5.5276
M16
G05
G00X8.3415Y-4.8307
M15
G01X8.3415Y-4.9331
M16
G05
G00X8.3455Y-3.374
M15
G01X8.3455Y-3.4764
M16
G05
G00X8.3327Y-2.4252
M15
G01X8.4547Y-2.4252
M16
G05
G00X8.3327Y-2.5295
M15
G01X8.4547Y-2.5295
M16
G05
G00X8.3327Y-3.1752
M15
G01X8.4547Y-3.1752
M16
G05
G00X8.3327Y-3.2795
M15
G01X8.4547Y-3.2795
M16
G05
G00X8.3327Y-3.9252
M15
G01X8.4547Y-3.9252
M16
G05
G00X8.3327Y-4.0295
M15
G01X8.4547Y-4.0295
M16
G05
G00X8.3327Y-4.6752
M15
G01X8.4547Y-4.6752
M16
G05
G00X8.3327Y-4.7795
M15
G01X8.4547Y-4.7795
M16
G05
G00X8.3327Y-5.4252
M15
G01X8.4547Y-5.4252
M16
G05
G00X8.3327Y-5.5295
M15
G01X8.4547Y-5.5295
M16
G05
G00X8.3415Y-4.8307
M15
G01X8.4636Y-4.8307
M16
G05
G00X8.3415Y-4.935
M15
G01X8.4636Y-4.935
M16
G05
G00X8.3455Y-3.374
M15
G01X8.4675Y-3.374
M16
G05
G00X8.3455Y-3.4783
M15
G01X8.4675Y-3.4783
M16
G05
G00X8.4547Y-2.4252
M15
G01X8.4547Y-2.5276
M16
G05
G00X8.4547Y-3.1752
M15
G01X8.4547Y-3.2776
M16
G05
G00X8.4547Y-3.9252
M15
G01X8.4547Y-4.0276
M16
G05
G00X8.4547Y-4.6752
M15
G01X8.4547Y-4.7776
M16
G05
G00X8.4547Y-5.4252
M15
G01X8.4547Y-5.5276
M16
G05
G00X8.4636Y-4.8307
M15
G01X8.4636Y-4.9331
M16
G05
G00X8.4675Y-3.374
M15
G01X8.4675Y-3.4764
M16
G05
T6
G00X3.8848Y-4.6014
M15
G01X3.9026Y-4.6014
M16
G05
G00X3.8848Y-4.6014
M15
G01X3.9026Y-4.6014
M16
G05
G00X4.0148Y-4.9045
M15
G01X4.0325Y-4.9045
M16
G05
G00X4.0148Y-4.9045
M15
G01X4.0325Y-4.9045
M16
G05
G00X4.6348Y-2.2136
M15
G01X4.6526Y-2.2136
M16
G05
G00X4.6348Y-2.2136
M15
G01X4.6526Y-2.2136
M16
G05
G00X4.6348Y-2.9636
M15
G01X4.6526Y-2.9636
M16
G05
G00X4.6348Y-2.9636
M15
G01X4.6526Y-2.9636
M16
G05
G00X4.6348Y-4.4636
M15
G01X4.6526Y-4.4636
M16
G05
G00X4.6348Y-4.4636
M15
G01X4.6526Y-4.4636
M16
G05
G00X4.6358Y-3.7136
M15
G01X4.6535Y-3.7136
M16
G05
G00X4.6358Y-3.7136
M15
G01X4.6535Y-3.7136
M16
G05
G00X5.0118Y-4.4065
M15
G01X5.0295Y-4.4065
M16
G05
G00X5.0118Y-4.4065
M15
G01X5.0295Y-4.4065
M16
G05
G00X5.3848Y-2.1152
M15
G01X5.4026Y-2.1152
M16
G05
G00X5.3848Y-2.1152
M15
G01X5.4026Y-2.1152
M16
G05
G00X5.3848Y-4.3652
M15
G01X5.4026Y-4.3652
M16
G05
G00X5.3848Y-4.3652
M15
G01X5.4026Y-4.3652
M16
G05
G00X5.3858Y-2.8652
M15
G01X5.4035Y-2.8652
M16
G05
G00X5.3858Y-2.8652
M15
G01X5.4035Y-2.8652
M16
G05
G00X5.3858Y-3.6142
M15
G01X5.4035Y-3.6142
M16
G05
G00X5.3858Y-3.6142
M15
G01X5.4035Y-3.6142
M16
G05
G00X5.6467Y-2.3022
M15
G01X5.6644Y-2.3022
M16
G05
G00X5.6467Y-2.3022
M15
G01X5.6644Y-2.3022
M16
G05
G00X5.7559Y-4.3652
M15
G01X5.7736Y-4.3652
M16
G05
G00X5.7559Y-4.3652
M15
G01X5.7736Y-4.3652
M16
G05
G00X6.1348Y-2.0167
M15
G01X6.1526Y-2.0167
M16
G05
G00X6.1348Y-2.0167
M15
G01X6.1526Y-2.0167
M16
G05
G00X6.1348Y-2.7667
M15
G01X6.1526Y-2.7667
M16
G05
G00X6.1348Y-2.7667
M15
G01X6.1526Y-2.7667
M16
G05
G00X6.1348Y-3.5167
M15
G01X6.1526Y-3.5167
M16
G05
G00X6.1348Y-3.5167
M15
G01X6.1526Y-3.5167
M16
G05
G00X6.1358Y-4.2667
M15
G01X6.1535Y-4.2667
M16
G05
G00X6.1358Y-4.2667
M15
G01X6.1535Y-4.2667
M16
G05
G00X6.8848Y-2.9518
M15
G01X6.9026Y-2.9518
M16
G05
G00X6.8848Y-2.9518
M15
G01X6.9026Y-2.9518
M16
G05
G00X6.8848Y-3.7018
M15
G01X6.9026Y-3.7018
M16
G05
G00X6.8848Y-3.7018
M15
G01X6.9026Y-3.7018
M16
G05
G00X6.8848Y-4.4518
M15
G01X6.9026Y-4.4518
M16
G05
G00X6.8848Y-4.4518
M15
G01X6.9026Y-4.4518
M16
G05
G00X6.8858Y-2.2018
M15
G01X6.9035Y-2.2018
M16
G05
G00X6.8858Y-2.2018
M15
G01X6.9035Y-2.2018
M16
G05
G00X7.1939Y-2.3829
M15
G01X7.2116Y-2.3829
M16
G05
G00X7.1939Y-2.3829
M15
G01X7.2116Y-2.3829
M16
G05
G00X7.6348Y-2.4764
M15
G01X7.6526Y-2.4764
M16
G05
G00X7.6348Y-2.4764
M15
G01X7.6526Y-2.4764
M16
G05
G00X7.6348Y-3.2274
M15
G01X7.6526Y-3.2274
M16
G05
G00X7.6348Y-3.2274
M15
G01X7.6526Y-3.2274
M16
G05
G00X7.6348Y-3.9774
M15
G01X7.6526Y-3.9774
M16
G05
G00X7.6348Y-3.9774
M15
G01X7.6526Y-3.9774
M16
G05
G00X7.6348Y-4.7274
M15
G01X7.6526Y-4.7274
M16
G05
G00X7.6348Y-4.7274
M15
G01X7.6526Y-4.7274
M16
G05
G00X7.6358Y-5.4774
M15
G01X7.6535Y-5.4774
M16
G05
G00X7.6358Y-5.4774
M15
G01X7.6535Y-5.4774
M16
G05
G00X8.3848Y-2.4774
M15
G01X8.4026Y-2.4774
M16
G05
G00X8.3848Y-2.4774
M15
G01X8.4026Y-2.4774
M16
G05
G00X8.3848Y-3.2274
M15
G01X8.4026Y-3.2274
M16
G05
G00X8.3848Y-3.2274
M15
G01X8.4026Y-3.2274
M16
G05
G00X8.3848Y-3.9774
M15
G01X8.4026Y-3.9774
M16
G05
G00X8.3848Y-3.9774
M15
G01X8.4026Y-3.9774
M16
G05
G00X8.3848Y-4.7274
M15
G01X8.4026Y-4.7274
M16
G05
G00X8.3848Y-4.7274
M15
G01X8.4026Y-4.7274
M16
G05
G00X8.3848Y-5.4774
M15
G01X8.4026Y-5.4774
M16
G05
G00X8.3848Y-5.4774
M15
G01X8.4026Y-5.4774
M16
G05
G00X8.3937Y-4.8829
M15
G01X8.4114Y-4.8829
M16
G05
G00X8.3937Y-4.8829
M15
G01X8.4114Y-4.8829
M16
G05
G00X8.3976Y-3.4262
M15
G01X8.4154Y-3.4262
M16
G05
G00X8.3976Y-3.4262
M15
G01X8.4154Y-3.4262
M16
G05
T0
M30
