%TF.GenerationSoftware,KiCad,Pcbnew,(6.0.4-0)*%
%TF.CreationDate,2022-11-19T19:36:46+09:00*%
%TF.ProjectId,mtk64_R_rev2,6d746b36-345f-4525-9f72-6576322e6b69,rev?*%
%TF.SameCoordinates,Original*%
%TF.FileFunction,Paste,Bot*%
%TF.FilePolarity,Positive*%
%FSLAX45Y45*%
G04 Gerber Fmt 4.5, Leading zero omitted, Abs format (unit mm)*
G04 Created by KiCad (PCBNEW (6.0.4-0)) date 2022-11-19 19:36:46*
%MOMM*%
%LPD*%
G01*
G04 APERTURE LIST*
G04 Aperture macros list*
%AMRotRect*
0 Rectangle, with rotation*
0 The origin of the aperture is its center*
0 $1 length*
0 $2 width*
0 $3 Rotation angle, in degrees counterclockwise*
0 Add horizontal line*
21,1,$1,$2,0,0,$3*%
G04 Aperture macros list end*
%TA.AperFunction,Profile*%
%ADD10C,0.050000*%
%TD*%
%ADD11R,1.400000X1.000000*%
%ADD12R,2.000000X2.000000*%
%ADD13R,2.000000X1.900000*%
%ADD14RotRect,2.000000X2.000000X10.000000*%
%ADD15RotRect,1.900000X2.000000X10.000000*%
%ADD16RotRect,2.000000X2.000000X20.000000*%
%ADD17RotRect,1.900000X2.000000X20.000000*%
%ADD18RotRect,2.000000X2.000000X60.000000*%
%ADD19RotRect,1.900000X2.000000X60.000000*%
%ADD20R,1.300000X0.950000*%
G04 APERTURE END LIST*
D10*
X8065989Y-18829529D02*
G75*
G03*
X8165989Y-18729529I1J99999D01*
G01*
X8165989Y-17029529D02*
X8165989Y-18729529D01*
X11993884Y-14168677D02*
G75*
G03*
X12156072Y-13937180I-34804J196947D01*
G01*
X9273905Y-4279471D02*
X9273905Y-4979471D01*
X17574637Y-14274471D02*
X17574637Y-14220000D01*
X12730000Y-14095000D02*
X12730000Y-11989500D01*
X17574637Y-14070000D02*
X17574637Y-14220000D01*
X11993884Y-14168677D02*
X10282648Y-14471094D01*
X9477251Y-14758356D02*
X8165989Y-17029529D01*
X20318500Y-14324471D02*
X17624637Y-14324471D01*
X8923905Y-4229471D02*
X9223905Y-4229471D01*
X10303905Y-5029475D02*
G75*
G03*
X10353905Y-4979471I-5J50005D01*
G01*
X9323905Y-5029471D02*
X10303905Y-5029471D01*
X12178500Y-11824470D02*
G75*
G03*
X11878500Y-12124471I0J-300000D01*
G01*
X16508499Y-3829471D02*
G75*
G03*
X16408500Y-3729471I-99999J1D01*
G01*
X6433938Y-16029528D02*
X6160000Y-17029529D01*
X12798500Y-4129471D02*
X12798500Y-4079471D01*
X18413500Y-4299471D02*
X18413500Y-4799471D01*
X17458500Y-14195000D02*
X12830000Y-14195000D01*
X14603500Y-3979470D02*
G75*
G03*
X14703500Y-3879471I0J100000D01*
G01*
X16502639Y-11776971D02*
G75*
G03*
X16402643Y-11674471I-100009J2461D01*
G01*
X9273909Y-4979471D02*
G75*
G03*
X9323905Y-5029471I50001J1D01*
G01*
X18413499Y-4299471D02*
G75*
G03*
X18313500Y-4199471I-99999J1D01*
G01*
X16508499Y-4099471D02*
G75*
G03*
X16608500Y-4199471I100001J1D01*
G01*
X12898500Y-3979471D02*
X14603500Y-3979471D01*
X22223500Y-14324471D02*
X20318500Y-14324471D01*
X10403905Y-4229465D02*
G75*
G03*
X10353905Y-4279471I5J-50005D01*
G01*
X12730000Y-14095000D02*
G75*
G03*
X12830000Y-14195000I100000J0D01*
G01*
X12898500Y-3979470D02*
G75*
G03*
X12798500Y-4079471I0J-100000D01*
G01*
X17558500Y-14070000D02*
X17558500Y-14095000D01*
X12698500Y-4229470D02*
G75*
G03*
X12798500Y-4129471I0J100000D01*
G01*
X16402643Y-11674471D02*
X12917149Y-11674471D01*
X14803500Y-3729471D02*
X16408500Y-3729471D01*
X12607500Y-11824471D02*
X12178500Y-11824471D01*
X17574639Y-14274471D02*
G75*
G03*
X17624637Y-14324471I50001J1D01*
G01*
X11878499Y-12328364D02*
G75*
G03*
X11883010Y-12380186I300001J4D01*
G01*
X6160000Y-18729529D02*
X6160000Y-17029529D01*
X11883010Y-12380186D02*
X12156072Y-13937180D01*
X16602643Y-11872500D02*
X16602643Y-11889500D01*
X12917149Y-11674471D02*
G75*
G03*
X12761024Y-11745000I1J-208069D01*
G01*
X8923905Y-4229465D02*
G75*
G03*
X8823905Y-4329471I5J-100005D01*
G01*
X22323499Y-4999471D02*
G75*
G03*
X22223500Y-4899471I-99999J1D01*
G01*
X16508500Y-3829471D02*
X16508500Y-4099471D01*
X8065989Y-18829529D02*
X6260000Y-18829529D01*
X17558500Y-14070000D02*
X17574637Y-14070000D01*
X17458500Y-14195000D02*
G75*
G03*
X17558500Y-14095000I0J100000D01*
G01*
X11878500Y-12124471D02*
X11878500Y-12328364D01*
X9477251Y-14758356D02*
X10232249Y-14484609D01*
X8823905Y-11900000D02*
X6433938Y-16029528D01*
X12607500Y-11824471D02*
G75*
G03*
X12761024Y-11745000I2850J182521D01*
G01*
X12830000Y-11889500D02*
G75*
G03*
X12730000Y-11989500I0J-100000D01*
G01*
X10282648Y-14471094D02*
G75*
G03*
X10232249Y-14484609I52212J-295426D01*
G01*
X12830000Y-11889500D02*
X16602643Y-11889500D01*
X18513500Y-4899471D02*
X22223500Y-4899471D01*
X22223500Y-14324470D02*
G75*
G03*
X22323500Y-14224471I0J100000D01*
G01*
X8823905Y-11900000D02*
X8823905Y-4329471D01*
X6160001Y-18729529D02*
G75*
G03*
X6260000Y-18829529I99999J-2D01*
G01*
X14803500Y-3729470D02*
G75*
G03*
X14703500Y-3829471I0J-100000D01*
G01*
X9273899Y-4279471D02*
G75*
G03*
X9223905Y-4229471I-49999J1D01*
G01*
X10353905Y-4979471D02*
X10353905Y-4279471D01*
X22323500Y-4999471D02*
X22323500Y-14224471D01*
X10403905Y-4229471D02*
X12698500Y-4229471D01*
X14703500Y-3879471D02*
X14703500Y-3829471D01*
X18413499Y-4799471D02*
G75*
G03*
X18513500Y-4899471I100001J1D01*
G01*
X16502644Y-11776971D02*
G75*
G03*
X16602643Y-11872500I99996J4571D01*
G01*
X16608500Y-4199471D02*
X18313500Y-4199471D01*
D11*
%TO.C,D24*%
X7437500Y-16947500D03*
X7082500Y-16947500D03*
%TD*%
%TO.C,D24*%
X8272500Y-14645000D03*
X7917500Y-14645000D03*
%TD*%
D12*
%TO.C,SW4*%
X7519989Y-17239529D03*
X6895989Y-17119529D03*
D13*
X6675989Y-18209529D03*
D12*
X7773989Y-18489529D03*
%TD*%
D14*
%TO.C,SW2*%
X11869124Y-13531924D03*
X11878944Y-12896566D03*
D15*
X10767301Y-12869185D03*
D14*
X10682221Y-13999125D03*
%TD*%
D16*
%TO.C,SW2*%
X9788761Y-13956088D03*
X9688104Y-13328677D03*
D17*
X8588594Y-13494747D03*
D16*
X8701018Y-14622295D03*
%TD*%
D18*
%TO.C,SW3*%
X8401537Y-15329548D03*
X7921137Y-14913625D03*
D19*
X7185611Y-15747593D03*
D18*
X7996507Y-16539080D03*
%TD*%
D20*
%TO.C,D1*%
X14753000Y-12435500D03*
X15108000Y-12435500D03*
%TD*%
%TO.C,D1*%
X14753000Y-12710500D03*
X15108000Y-12710500D03*
%TD*%
M02*
