%TF.GenerationSoftware,KiCad,Pcbnew,(6.0.4-0)*%
%TF.CreationDate,2022-10-10T22:28:29+09:00*%
%TF.ProjectId,mtk64_R_rev2,6d746b36-345f-4525-9f72-6576322e6b69,rev?*%
%TF.SameCoordinates,Original*%
%TF.FileFunction,Paste,Top*%
%TF.FilePolarity,Positive*%
%FSLAX46Y46*%
G04 Gerber Fmt 4.6, Leading zero omitted, Abs format (unit mm)*
G04 Created by KiCad (PCBNEW (6.0.4-0)) date 2022-10-10 22:28:29*
%MOMM*%
%LPD*%
G01*
G04 APERTURE LIST*
G04 Aperture macros list*
%AMRotRect*
0 Rectangle, with rotation*
0 The origin of the aperture is its center*
0 $1 length*
0 $2 width*
0 $3 Rotation angle, in degrees counterclockwise*
0 Add horizontal line*
21,1,$1,$2,0,0,$3*%
G04 Aperture macros list end*
%TA.AperFunction,Profile*%
%ADD10C,0.050000*%
%TD*%
%ADD11R,1.300000X0.950000*%
%ADD12RotRect,1.800000X2.000000X150.000000*%
%ADD13RotRect,2.000000X2.000000X150.000000*%
%ADD14R,1.400000X1.000000*%
%ADD15R,1.800000X2.000000*%
%ADD16R,2.000000X2.000000*%
G04 APERTURE END LIST*
D10*
X119938840Y-141686773D02*
G75*
G03*
X121560720Y-139371800I-348040J1969473D01*
G01*
X92739050Y-42794710D02*
X92739050Y-49794710D01*
X175746370Y-142744710D02*
X175746370Y-142200000D01*
X127300000Y-140950000D02*
X127300000Y-119895000D01*
X175746370Y-140700000D02*
X175746370Y-142200000D01*
X119938839Y-141686766D02*
X102826480Y-144710942D01*
X94772510Y-147583562D02*
X81659892Y-170295285D01*
X80659892Y-188295292D02*
G75*
G03*
X81659892Y-187295285I8J999992D01*
G01*
X203185000Y-143244710D02*
X176246370Y-143244710D01*
X89239050Y-42294710D02*
X92239050Y-42294710D01*
X103039050Y-50294750D02*
G75*
G03*
X103539050Y-49794710I-50J500050D01*
G01*
X93239050Y-50294710D02*
X103039050Y-50294710D01*
X121785000Y-118244700D02*
G75*
G03*
X118785000Y-121244710I0J-3000000D01*
G01*
X165084990Y-38294710D02*
G75*
G03*
X164085000Y-37294710I-999990J10D01*
G01*
X64339384Y-160295285D02*
X61600000Y-170295285D01*
X127985000Y-41294710D02*
X127985000Y-40794710D01*
X184135000Y-42994710D02*
X184135000Y-47994710D01*
X81659892Y-170295285D02*
X81659892Y-187295285D01*
X174585000Y-141950000D02*
X128300000Y-141950000D01*
X146035000Y-39794700D02*
G75*
G03*
X147035000Y-38794710I0J1000000D01*
G01*
X165026387Y-117769709D02*
G75*
G03*
X164026430Y-116744710I-1000087J24609D01*
G01*
X92739090Y-49794710D02*
G75*
G03*
X93239050Y-50294710I500010J10D01*
G01*
X184134990Y-42994710D02*
G75*
G03*
X183135000Y-41994710I-999990J10D01*
G01*
X165084990Y-40994710D02*
G75*
G03*
X166085000Y-41994710I1000010J10D01*
G01*
X175746370Y-132544710D02*
X175746370Y-119744710D01*
X128985000Y-39794710D02*
X146035000Y-39794710D01*
X222235000Y-143244710D02*
X203185000Y-143244710D01*
X104039050Y-42294650D02*
G75*
G03*
X103539050Y-42794710I50J-500050D01*
G01*
X127300000Y-140950000D02*
G75*
G03*
X128300000Y-141950000I1000000J0D01*
G01*
X128985000Y-39794700D02*
G75*
G03*
X127985000Y-40794710I0J-1000000D01*
G01*
X175585000Y-140700000D02*
X175585000Y-140950000D01*
X126985000Y-42294700D02*
G75*
G03*
X127985000Y-41294710I0J1000000D01*
G01*
X164026430Y-116744710D02*
X128921490Y-116744710D01*
X148035000Y-37294710D02*
X164085000Y-37294710D01*
X126075000Y-118244710D02*
X121785000Y-118244710D01*
X175746390Y-142744710D02*
G75*
G03*
X176246370Y-143244710I500010J10D01*
G01*
X118784995Y-123283640D02*
G75*
G03*
X118830100Y-123801860I3000005J40D01*
G01*
X61600000Y-187295285D02*
X61600000Y-170295285D01*
X118830100Y-123801860D02*
X121560720Y-139371800D01*
X166026430Y-118725000D02*
X166026430Y-118895000D01*
X129171490Y-116744713D02*
G75*
G03*
X127610240Y-117450000I10J-2080687D01*
G01*
X89239050Y-42294650D02*
G75*
G03*
X88239050Y-43294710I50J-1000050D01*
G01*
X223234990Y-49994710D02*
G75*
G03*
X222235000Y-48994710I-999990J10D01*
G01*
X165085000Y-38294710D02*
X165085000Y-40994710D01*
X80659892Y-188295285D02*
X62600000Y-188295285D01*
X175585000Y-140700000D02*
X175746370Y-140700000D01*
X174585000Y-141950000D02*
G75*
G03*
X175585000Y-140950000I0J1000000D01*
G01*
X118785000Y-121244710D02*
X118785002Y-123283640D01*
X94772510Y-147583562D02*
X102322490Y-144846090D01*
X88239050Y-119000000D02*
X64339384Y-160295285D01*
X126075000Y-118244708D02*
G75*
G03*
X127610240Y-117450000I28500J1825208D01*
G01*
X128300000Y-118895000D02*
G75*
G03*
X127300000Y-119895000I0J-1000000D01*
G01*
X102826479Y-144710937D02*
G75*
G03*
X102322490Y-144846090I522121J-2954263D01*
G01*
X128300000Y-118895000D02*
X166026430Y-118895000D01*
X185135000Y-48994710D02*
X222235000Y-48994710D01*
X222235000Y-143244700D02*
G75*
G03*
X223235000Y-142244710I0J1000000D01*
G01*
X88239050Y-119000000D02*
X88239050Y-43294710D01*
X61600015Y-187295285D02*
G75*
G03*
X62600000Y-188295285I999985J-15D01*
G01*
X148035000Y-37294700D02*
G75*
G03*
X147035000Y-38294710I0J-1000000D01*
G01*
X92738990Y-42794710D02*
G75*
G03*
X92239050Y-42294710I-499990J10D01*
G01*
X103539050Y-49794710D02*
X103539050Y-42794710D01*
X223235000Y-49994710D02*
X223235000Y-142244710D01*
X104039050Y-42294710D02*
X126985000Y-42294710D01*
X147035000Y-38794710D02*
X147035000Y-38294710D01*
X184134990Y-47994710D02*
G75*
G03*
X185135000Y-48994710I1000010J10D01*
G01*
X165026444Y-117769709D02*
G75*
G03*
X166026430Y-118725000I999956J45709D01*
G01*
X166085000Y-41994710D02*
X183135000Y-41994710D01*
D11*
%TO.C,D1*%
X147530000Y-124355000D03*
X151080000Y-124355000D03*
%TD*%
D12*
%TO.C,SW2*%
X72990792Y-161710606D03*
D13*
X76055921Y-150801647D03*
X85611238Y-159251351D03*
X83530469Y-165255350D03*
%TD*%
D11*
%TO.C,D1*%
X147530000Y-127105000D03*
X151080000Y-127105000D03*
%TD*%
D14*
%TO.C,D24*%
X74375000Y-169475000D03*
X70825000Y-169475000D03*
%TD*%
D15*
%TO.C,SW2*%
X69859892Y-185195285D03*
D16*
X67059892Y-174215285D03*
X80759892Y-182995285D03*
X79559892Y-176755285D03*
%TD*%
D14*
%TO.C,D24*%
X78225000Y-148000000D03*
X81775000Y-148000000D03*
%TD*%
M02*
