M48
; DRILL file {KiCad (6.0.4-0)} date 
; FORMAT={-:-/ absolute / inch / decimal}
; #@! TF.CreationDate,2022-10-10T22:28:32+09:00
; #@! TF.GenerationSoftware,Kicad,Pcbnew,(6.0.4-0)
; #@! TF.FileFunction,Plated,1,2,PTH
FMAT,2
INCH
; #@! TA.AperFunction,Plated,PTH,ViaDrill
T1C0.0118
; #@! TA.AperFunction,Plated,PTH,ViaDrill
T2C0.0157
; #@! TA.AperFunction,Plated,PTH,ComponentDrill
T3C0.0157
; #@! TA.AperFunction,Plated,PTH,ComponentDrill
T4C0.0197
; #@! TA.AperFunction,Plated,PTH,ViaDrill
T5C0.0320
; #@! TA.AperFunction,Plated,PTH,ComponentDrill
T6C0.0394
; #@! TA.AperFunction,Plated,PTH,ViaDrill
T7C0.0472
; #@! TA.AperFunction,Plated,PTH,ViaDrill
T8C0.0512
; #@! TA.AperFunction,Plated,PTH,ViaDrill
T9C0.0669
; #@! TA.AperFunction,Plated,PTH,ViaDrill
T10C0.0748
; #@! TA.AperFunction,Plated,PTH,ComponentDrill
T11C0.0787
; #@! TA.AperFunction,Plated,PTH,ViaDrill
T12C0.0866
; #@! TA.AperFunction,Plated,PTH,ViaDrill
T13C0.1181
; #@! TA.AperFunction,Plated,PTH,ViaDrill
T14C0.1614
; #@! TA.AperFunction,Plated,PTH,ViaDrill
T15C0.1693
; #@! TA.AperFunction,Plated,PTH,ViaDrill
T16C0.1969
%
G90
G05
T1
X3.6675Y-3.5441
X3.6675Y-3.7783
X3.7856Y-3.5441
X3.7856Y-3.7783
X3.9431Y-3.5441
X3.9431Y-3.7783
X4.0021Y-3.613
X4.0021Y-3.7094
T2
X2.4665Y-7.372
X2.4685Y-6.7126
X2.563Y-6.8691
X2.5738Y-6.3297
X2.5827Y-7.3022
X2.6831Y-6.4154
X2.7067Y-6.7372
X2.721Y-6.6137
X2.7402Y-6.3228
X2.814Y-6.7293
X2.8593Y-5.8209
X2.9252Y-5.9193
X3.0226Y-6.7776
X3.1211Y-5.8848
X3.1407Y-6.5453
X3.1486Y-5.3219
X3.1496Y-5.7185
X3.1535Y-6.8888
X3.1535Y-7.3022
X3.1703Y-7.372
X3.1774Y-6.8093
X3.1841Y-6.6811
X3.1909Y-5.7628
X3.2563Y-5.5894
X3.2726Y-5.1112
X3.3258Y-6.4311
X3.3823Y-5.8886
X3.4144Y-6.0965
X3.4262Y-6.2067
X3.4528Y-6.1673
X3.4589Y-5.212
X3.4705Y-4.7667
X3.4882Y-4.999
X3.5089Y-2.2835
X3.528Y-1.6996
X3.5429Y-3.5437
X3.5453Y-3.7594
X3.5569Y-3.3162
X3.5846Y-4.0622
X3.5986Y-4.1593
X3.6091Y-3.3497
X3.6146Y-1.6996
X3.6185Y-4.3708
X3.638Y-5.7817
X3.6394Y-3.4008
X3.6404Y-3.2828
X3.6576Y-3.4573
X3.6636Y-5.1338
X3.6669Y-4.7933
X3.6691Y-3.1406
X3.6715Y-2.738
X3.6715Y-2.8315
X3.6724Y-4.5106
X3.6729Y-2.2548
X3.673Y-2.0649
X3.6762Y-2.4516
X3.6762Y-2.529
X3.6923Y-2.6365
X3.6923Y-2.6992
X3.7136Y-2.1446
X3.7177Y-4.1126
X3.7219Y-2.9325
X3.7285Y-2.4072
X3.7538Y-3.3293
X3.7665Y-3.7075
X3.7748Y-2.239
X3.7748Y-2.5481
X3.782Y-3.1259
X3.7858Y-3.9736
X3.7858Y-4.6775
X3.7928Y-2.0611
X3.7941Y-5.2122
X3.7949Y-2.9181
X3.8112Y-3.616
X3.813Y-2.6072
X3.8272Y-2.4815
X3.8313Y-5.1185
X3.8356Y-4.7669
X3.8543Y-2.2815
X3.8625Y-3.0816
X3.8735Y-2.8714
X3.8757Y-3.8052
X3.9075Y-5.1366
X3.913Y-5.3362
X3.9181Y-3.4791
X3.921Y-3.2252
X3.9239Y-2.3815
X3.9239Y-2.8202
X3.9281Y-3.3655
X3.9358Y-5.6358
X3.9402Y-3.861
X3.9541Y-3.9786
X3.9607Y-2.2315
X3.9607Y-2.2841
X3.9607Y-2.9387
X3.9883Y-4.7652
X3.9925Y-3.0717
X3.9929Y-2.0929
X4.0034Y-4.0719
X4.0039Y-2.1795
X4.0047Y-3.8307
X4.0161Y-5.0031
X4.0171Y-3.3419
X4.0205Y-5.0756
X4.0306Y-4.5201
X4.0654Y-4.7079
X4.0661Y-5.3098
X4.0674Y-4.7652
X4.081Y-4.5094
X4.0842Y-4.5736
X4.0907Y-4.6323
X4.1074Y-4.1434
X4.1127Y-1.8204
X4.1193Y-5.5953
X4.1209Y-4.8264
X4.1402Y-1.8685
X4.1493Y-4.5818
X4.1705Y-3.6437
X4.1709Y-3.797
X4.1724Y-4.7957
X4.1728Y-4.8307
X4.1732Y-3.4638
X4.1874Y-3.2346
X4.19Y-4.5197
X4.2428Y-4.8676
X4.2484Y-1.9949
X4.2512Y-2.2421
X4.2531Y-2.1339
X4.2551Y-1.9122
X4.2681Y-1.9752
X4.2681Y-2.7311
X4.2843Y-5.1661
X4.2897Y-4.8206
X4.3075Y-2.9358
X4.3081Y-4.7195
X4.312Y-4.6594
X4.3157Y-4.6173
X4.3182Y-2.8363
X4.3362Y-2.1366
X4.3394Y-4.2349
X4.3394Y-4.2794
X4.3394Y-4.3475
X4.3394Y-4.3843
X4.3435Y-4.6919
X4.3503Y-1.8189
X4.3503Y-4.0689
X4.3506Y-3.3189
X4.3516Y-4.5894
X4.3685Y-2.5054
X4.3843Y-4.4598
X4.3895Y-2.9224
X4.3898Y-4.5531
X4.3953Y-3.0803
X4.3981Y-3.5635
X4.4024Y-2.1957
X4.4127Y-3.839
X4.4269Y-3.2302
X4.4379Y-2.317
X4.4381Y-4.7672
X4.4409Y-5.5555
X4.4449Y-5.1335
X4.4494Y-2.4517
X4.4669Y-4.8699
X4.4726Y-2.1483
X4.4735Y-3.6721
X4.475Y-3.9356
X4.475Y-3.982
X4.4755Y-4.4255
X4.4768Y-3.1071
X4.4787Y-2.9358
X4.4933Y-3.6303
X4.5041Y-4.3843
X4.5252Y-2.8192
X4.5358Y-2.8781
X4.5358Y-3.0593
X4.5358Y-3.7902
X4.5371Y-3.6303
X4.5416Y-4.3843
X4.6053Y-4.7185
X4.6169Y-4.8012
X4.6209Y-4.952
X4.6428Y-3.9863
X4.6438Y-3.1403
X4.6535Y-4.7295
X4.6665Y-2.3965
X4.6819Y-3.8259
X4.6819Y-3.938
X4.6902Y-5.2157
X4.722Y-5.5154
X4.7487Y-2.1414
X4.7703Y-3.9023
X4.771Y-3.1485
X4.772Y-3.0579
X4.7797Y-2.3649
X4.8115Y-2.2944
X4.8315Y-2.1598
X4.8467Y-2.5055
X4.8579Y-2.9795
X4.8586Y-4.344
X4.8744Y-3.85
X4.8764Y-3.1437
X4.8781Y-2.2537
X4.8835Y-3.7252
X4.8967Y-2.3628
X4.8986Y-2.804
X4.9193Y-3.5807
X4.9247Y-3.0854
X4.9291Y-4.2768
X4.9333Y-2.0433
X4.9589Y-2.892
X4.9589Y-3.7665
X4.9594Y-2.8303
X4.965Y-2.4961
X4.968Y-4.5057
X5.0052Y-4.2645
X5.0484Y-2.7767
X5.0495Y-1.7726
X5.0496Y-4.0226
X5.0525Y-4.1228
X5.0531Y-2.1642
X5.0718Y-2.0607
X5.083Y-4.1532
X5.0894Y-3.7677
X5.1006Y-3.2205
X5.1007Y-2.4765
X5.1341Y-2.9285
X5.135Y-3.6425
X5.151Y-2.1241
X5.1531Y-3.0217
X5.157Y-2.8207
X5.1636Y-2.899
X5.1776Y-3.5248
X5.1796Y-2.298
X5.1821Y-2.0509
X5.1833Y-2.1545
X5.1896Y-4.451
X5.191Y-2.7962
X5.197Y-5.1557
X5.2049Y-5.5022
X5.2089Y-4.7679
X5.2213Y-2.2276
X5.2361Y-2.0504
X5.2396Y-3.7025
X5.2406Y-3.1098
X5.2476Y-4.2934
X5.2601Y-4.4374
X5.2823Y-2.3472
X5.3348Y-2.2061
X5.3893Y-2.989
X5.3988Y-2.5406
X5.4141Y-3.0382
X5.4197Y-2.2941
X5.4648Y-2.9535
X5.4812Y-3.503
X5.4895Y-2.2746
X5.4898Y-4.4363
X5.5131Y-2.7307
X5.5175Y-3.798
X5.5228Y-4.2449
X5.5287Y-3.1273
X5.5334Y-3.882
X5.5476Y-2.2093
X5.5486Y-3.5394
X5.5689Y-2.989
X5.5787Y-2.1115
X5.5787Y-2.8358
X5.5831Y-3.7299
X5.5908Y-4.2925
X5.5912Y-4.4014
X5.602Y-2.007
X5.6443Y-1.8844
X5.65Y-2.987
X5.6599Y-2.7399
X5.6637Y-3.5973
X5.6754Y-2.1101
X5.6903Y-2.1762
X5.6925Y-1.9091
X5.6925Y-2.0035
X5.7126Y-2.8484
X5.7134Y-3.0902
X5.7236Y-2.989
X5.7372Y-4.2215
X5.7385Y-2.521
X5.7404Y-5.0041
X5.7433Y-2.7163
X5.7457Y-3.8295
X5.7469Y-2.1209
X5.7522Y-4.1175
X5.7615Y-2.1961
X5.7699Y-2.398
X5.7799Y-3.3602
X5.7925Y-3.5945
X5.7937Y-3.5071
X5.7967Y-2.8353
X5.7988Y-2.6543
X5.8047Y-3.7276
X5.8138Y-2.7681
X5.834Y-2.075
X5.8388Y-4.8467
X5.8402Y-4.2079
X5.8442Y-2.1588
X5.8462Y-2.8685
X5.8489Y-3.872
X5.8506Y-3.122
X5.8507Y-1.622
X5.8507Y-2.3825
X5.8551Y-2.1114
X5.8742Y-5.077
X5.8742Y-5.2226
X5.8779Y-4.2848
X5.8818Y-2.6869
X5.8821Y-1.9543
X5.9248Y-3.5594
X5.926Y-3.7272
X5.9277Y-4.4321
X5.9419Y-4.1646
X5.9638Y-2.063
X5.9685Y-1.985
X5.971Y-4.3215
X5.973Y-2.6869
X5.9778Y-3.489
X5.9866Y-2.9319
X5.9896Y-2.8404
X6.0159Y-4.8959
X6.0159Y-5.0041
X6.0174Y-2.6872
X6.0358Y-2.1093
X6.0397Y-2.5457
X6.0397Y-4.0451
X6.0424Y-1.9338
X6.0474Y-3.4357
X6.0722Y-2.1524
X6.0722Y-3.7391
X6.1012Y-2.9067
X6.1167Y-2.4687
X6.1624Y-2.2114
X6.1626Y-3.6847
X6.1765Y-3.0011
X6.1813Y-5.077
X6.187Y-2.2764
X6.2012Y-2.9087
X6.2353Y-4.3935
X6.2393Y-3.4414
X6.262Y-4.1611
X6.274Y-4.3548
X6.2799Y-4.45
X6.3017Y-3.5829
X6.3055Y-2.1378
X6.3063Y-2.2437
X6.3198Y-3.6542
X6.3258Y-2.7935
X6.3287Y-2.7537
X6.3375Y-4.2193
X6.3457Y-1.9449
X6.3587Y-3.4283
X6.3685Y-3.8085
X6.3685Y-4.3858
X6.372Y-3.5618
X6.3803Y-2.8167
X6.383Y-3.7174
X6.3945Y-2.6121
X6.4079Y-3.3685
X6.4197Y-1.8653
X6.4288Y-3.489
X6.4306Y-2.9009
X6.4346Y-4.0398
X6.4356Y-2.3161
X6.4531Y-4.4469
X6.4581Y-3.5805
X6.4677Y-3.489
X6.471Y-4.1493
X6.4726Y-5.2148
X6.4825Y-1.9892
X6.4898Y-2.5571
X6.5091Y-2.7461
X6.5138Y-3.4224
X6.5177Y-3.5571
X6.5248Y-3.0593
X6.5413Y-2.9055
X6.5453Y-3.2224
X6.5487Y-2.4739
X6.5611Y-3.0011
X6.5671Y-4.7679
X6.5711Y-4.8959
X6.575Y-5.5061
X6.576Y-5.2935
X6.578Y-5.1134
X6.5827Y-4.3598
X6.5894Y-2.4131
X6.5928Y-4.0533
X6.5986Y-3.5734
X6.6Y-3.3214
X6.6007Y-1.8071
X6.6008Y-2.5571
X6.6482Y-3.6644
X6.6488Y-3.2246
X6.6524Y-4.5154
X6.6701Y-2.9504
X6.6799Y-2.1642
X6.6805Y-4.3588
X6.6865Y-3.7174
X6.7011Y-2.3161
X6.7177Y-3.1189
X6.7278Y-4.3874
X6.7612Y-2.3369
X6.8209Y-2.4434
X6.8281Y-3.1287
X6.8618Y-3.824
X6.8763Y-3.8963
X6.9186Y-3.0745
X6.9334Y-2.3381
X6.9807Y-5.2693
X6.9839Y-2.2841
X6.9945Y-3.2144
X7.0142Y-2.8795
X7.0157Y-5.5748
X7.0302Y-2.288
X7.0404Y-3.0228
X7.0486Y-2.1219
X7.0486Y-2.8346
X7.0637Y-5.2706
X7.0639Y-3.7646
X7.0647Y-3.6741
X7.0935Y-4.8701
X7.0969Y-2.9654
X7.0981Y-4.4883
X7.1009Y-3.6277
X7.105Y-3.9914
X7.1052Y-3.8168
X7.1123Y-5.2665
X7.1185Y-1.743
X7.1185Y-5.1839
X7.1207Y-5.4323
X7.1214Y-5.3474
X7.1256Y-2.2555
X7.1259Y-2.1661
X7.1358Y-4.6722
X7.1358Y-4.7953
X7.1444Y-4.5248
X7.1454Y-3.0168
X7.1579Y-4.9752
X7.1579Y-5.1248
X7.1633Y-4.3367
X7.1651Y-4.4068
X7.1768Y-3.6906
X7.1772Y-3.8889
X7.182Y-2.7215
X7.182Y-2.9955
X7.1841Y-1.7106
X7.1944Y-5.5533
X7.1969Y-5.0761
X7.2012Y-4.6051
X7.2034Y-4.6406
X7.2051Y-4.4748
X7.2051Y-4.5618
X7.2083Y-3.061
X7.2105Y-2.5901
X7.2236Y-2.2638
X7.2258Y-4.673
X7.2354Y-5.3527
X7.2417Y-3.2075
X7.2598Y-2.1311
X7.2676Y-5.32
X7.2732Y-2.0126
X7.2752Y-4.2751
X7.2805Y-4.5629
X7.296Y-2.311
X7.2961Y-5.5747
X7.3018Y-4.1769
X7.3079Y-3.5921
X7.311Y-2.5113
X7.3176Y-4.2178
X7.3181Y-4.0047
X7.3216Y-4.102
X7.3425Y-3.3736
X7.3498Y-5.0827
X7.3507Y-2.8327
X7.3563Y-3.1777
X7.3615Y-4.2178
X7.3637Y-2.4502
X7.3637Y-2.4946
X7.3685Y-2.0191
X7.3685Y-3.5191
X7.3685Y-4.2696
X7.3754Y-5.2486
X7.3754Y-5.2986
X7.3788Y-4.6611
X7.3837Y-4.6029
X7.4059Y-2.5287
X7.4111Y-2.4457
X7.4185Y-4.8906
X7.4248Y-4.7547
X7.427Y-3.8941
X7.4357Y-4.6348
X7.4488Y-2.7224
X7.4488Y-2.7622
X7.4488Y-4.0535
X7.4528Y-2.4283
X7.4562Y-3.9629
X7.4719Y-4.9219
X7.4719Y-4.9832
X7.4773Y-3.1996
X7.4817Y-3.9167
X7.4843Y-4.6638
X7.4988Y-3.4307
X7.5177Y-2.3476
X7.5358Y-2.5904
X7.5358Y-4.0648
X7.5362Y-4.8307
X7.5498Y-3.1211
X7.5568Y-2.7002
X7.5588Y-3.4401
X7.5664Y-4.1625
X7.5785Y-4.9647
X7.6133Y-5.3906
X7.6217Y-2.6248
X7.6218Y-3.3205
X7.6594Y-3.4303
X7.6603Y-2.5652
X7.723Y-2.6139
X7.7424Y-4.9584
X7.7657Y-4.0693
X7.7692Y-3.3962
X7.7896Y-2.7593
X7.7996Y-4.8953
X7.8051Y-4.7902
X7.8071Y-3.1047
X7.8177Y-4.6213
X7.8261Y-2.4206
X7.8484Y-2.7248
X7.8492Y-3.2177
X7.8618Y-2.3866
X7.8654Y-2.5028
X7.8685Y-3.5194
X7.8685Y-4.2694
X7.8729Y-4.0047
X7.8772Y-3.8638
X7.89Y-4.8045
X7.8972Y-4.9898
X7.9043Y-3.4268
X7.907Y-5.5623
X7.9071Y-5.5047
X7.9089Y-5.3809
X7.9092Y-2.4477
X7.9093Y-3.3293
X7.9216Y-4.1217
X7.935Y-4.6315
X7.9377Y-2.8696
X7.9394Y-2.1189
X7.9457Y-5.2902
X7.9575Y-3.5764
X7.9582Y-3.876
X7.9638Y-3.3091
X7.9665Y-2.2772
X7.9665Y-5.0921
X7.9697Y-4.2795
X7.9737Y-3.0908
X8.0067Y-2.8972
X8.0197Y-1.9882
X8.0205Y-3.4887
X8.0209Y-2.0402
X8.0332Y-2.5457
X8.0401Y-4.1673
X8.0425Y-5.4509
X8.0468Y-5.5318
X8.0476Y-4.5922
X8.0592Y-5.2576
X8.0649Y-4.6917
X8.0835Y-2.5087
X8.0893Y-3.747
X8.1003Y-4.3327
X8.1005Y-2.8327
X8.1006Y-2.0827
X8.1007Y-3.5827
X8.133Y-5.2459
X8.1403Y-3.4306
X8.1403Y-3.4832
X8.152Y-5.4791
X8.1594Y-3.261
X8.162Y-3.1768
X8.1647Y-4.959
X8.1772Y-4.6909
X8.1858Y-2.5138
X8.2092Y-3.1891
X8.218Y-5.5229
X8.2199Y-3.3377
X8.2278Y-4.6996
X8.2285Y-3.9496
X8.2327Y-2.3449
X8.2331Y-2.6913
X8.2396Y-4.0521
X8.2498Y-4.9524
X8.2593Y-3.1464
X8.2803Y-2.3449
X8.2858Y-3.8957
X8.3015Y-3.3377
X8.3016Y-3.1464
X8.3183Y-4.6406
X8.3203Y-2.6098
X8.3258Y-4.1486
X8.3667Y-2.7525
X8.3758Y-4.1907
X8.3961Y-5.0004
X8.4587Y-2.7539
X8.493Y-2.5495
X8.4965Y-2.7203
X8.499Y-4.8109
X8.5006Y-3.355
X8.5214Y-4.0562
X8.5252Y-5.3437
X8.5486Y-2.4025
X8.5486Y-5.4013
X8.5603Y-5.0211
X8.5608Y-3.5012
X8.5672Y-4.2648
X8.5689Y-2.7539
X8.5752Y-2.5849
X8.5841Y-2.4496
X8.6011Y-4.7698
X8.6188Y-4.6754
X8.6188Y-4.8432
X8.6216Y-2.4871
X8.6244Y-3.4031
X8.6259Y-4.9508
X8.6343Y-5.426
X8.6415Y-3.8801
X8.6531Y-4.2421
X8.6535Y-3.1059
X8.6539Y-4.6047
X8.6567Y-4.0035
X8.6567Y-2.7209
X8.6813Y-2.2464
X8.6981Y-1.9881
X8.7012Y-2.3346
X8.7024Y-2.4642
X8.7114Y-4.826
X8.7122Y-5.0598
X8.7154Y-3.4545
X8.7206Y-3.5012
T5
X3.5373Y-1.9315
X3.5373Y-2.0315
X3.5373Y-2.1315
X3.5373Y-2.2315
X3.5373Y-2.3315
X3.5373Y-2.4315
X3.5373Y-2.5315
X3.5373Y-2.6315
X3.5373Y-2.7315
X3.5373Y-2.8315
X3.5373Y-2.9315
X3.5373Y-3.0315
X3.5895Y-1.8815
X3.5895Y-1.9815
X3.5895Y-2.0815
X3.5895Y-2.1815
X3.5895Y-2.2815
X3.5895Y-2.3815
X3.5895Y-2.4815
X3.5895Y-2.5815
X3.5895Y-2.6815
X3.5895Y-2.7815
X3.5895Y-2.8815
X3.5895Y-2.9815
X3.712Y-3.1709
X3.7957Y-3.298
X3.812Y-3.1709
X3.8941Y-3.298
X3.912Y-3.1709
X4.012Y-3.1709
X4.1373Y-1.9315
X4.1373Y-2.0315
X4.1373Y-2.1315
X4.1373Y-2.2315
X4.1373Y-2.3315
X4.1373Y-2.4315
X4.1373Y-2.5315
X4.1373Y-2.6315
X4.1373Y-2.7315
X4.1373Y-2.8315
X4.1373Y-2.9315
X4.1373Y-3.0315
X4.1887Y-1.8815
X4.1887Y-1.9815
X4.1887Y-2.0815
X4.1887Y-2.1815
X4.1887Y-2.2815
X4.1887Y-2.3815
X4.1887Y-2.4815
X4.1887Y-2.5815
X4.1887Y-2.6815
X4.1887Y-2.7815
X4.1887Y-2.8815
X4.1887Y-2.9815
T6
X5.0711Y-5.0591
X5.0711Y-5.2559
X5.6419Y-5.0591
X5.6419Y-5.1575
X5.6419Y-5.2559
X6.0947Y-5.0591
X6.0947Y-5.2559
X6.6656Y-5.0591
X6.6656Y-5.1575
X6.6656Y-5.2559
X6.8386Y-4.7185
X6.8386Y-4.8185
X6.8386Y-4.9185
X6.8386Y-5.0185
X6.8386Y-5.1185
X6.8386Y-5.2185
X6.8386Y-5.3185
X6.8386Y-5.4185
X6.8386Y-5.5185
X7.0354Y-4.7185
X7.0354Y-4.8185
X7.0354Y-4.9185
X7.0354Y-5.0185
X7.0354Y-5.1185
X7.0354Y-5.2185
X7.0354Y-5.3185
X7.0354Y-5.4185
X7.0354Y-5.5185
T7
X3.6222Y-3.6268
X3.6222Y-3.6957
X3.8978Y-3.6268
X3.8978Y-3.6957
T8
X3.5569Y-3.1896
X3.5569Y-3.4455
T9
X3.5037Y-5.327
X3.6249Y-5.66
X3.7169Y-4.4083
X4.0713Y-4.4083
X4.2134Y-5.307
X4.4669Y-2.0205
X4.4669Y-2.7705
X4.4669Y-3.5205
X4.4669Y-4.2705
X4.5624Y-5.2455
X4.8213Y-2.0205
X4.8213Y-2.7705
X4.8213Y-3.5205
X4.8213Y-4.2705
X5.2169Y-1.922
X5.2169Y-2.672
X5.2169Y-3.422
X5.2169Y-4.172
X5.5713Y-1.922
X5.5713Y-2.672
X5.5713Y-3.422
X5.5713Y-4.172
X5.9669Y-1.8236
X5.9669Y-2.5736
X5.9669Y-3.3236
X5.9669Y-4.0736
X6.3213Y-1.8236
X6.3213Y-2.5736
X6.3213Y-3.3236
X6.3213Y-4.0736
X6.7169Y-2.0087
X6.7169Y-2.7587
X6.7169Y-3.5087
X6.7169Y-4.2587
X7.0713Y-2.0087
X7.0713Y-2.7587
X7.0713Y-3.5087
X7.0713Y-4.2587
X7.4669Y-2.2843
X7.4669Y-3.0343
X7.4669Y-3.7843
X7.4669Y-4.5343
X7.4669Y-5.2843
X7.8213Y-2.2843
X7.8213Y-3.0343
X7.8213Y-3.7843
X7.8213Y-4.5343
X7.8213Y-5.2843
X8.2169Y-2.2843
X8.2169Y-3.0343
X8.2169Y-3.7843
X8.2169Y-4.5343
X8.2169Y-5.2843
X8.5713Y-2.2843
X8.5713Y-3.0343
X8.5713Y-3.7843
X8.5713Y-4.5343
X8.5713Y-5.2843
T10
X3.4902Y-5.29
X3.4959Y-5.3055
X3.6327Y-5.6814
X3.6383Y-5.6969
X3.6941Y-4.4083
X4.0941Y-4.4083
X4.1746Y-5.3139
X4.1909Y-5.311
X4.4441Y-2.0205
X4.4441Y-2.7705
X4.4441Y-3.5205
X4.4441Y-4.2705
X4.5848Y-5.2415
X4.6011Y-5.2387
X4.8441Y-2.0205
X4.8441Y-2.7705
X4.8441Y-3.5205
X4.8441Y-4.2705
X5.1941Y-1.922
X5.1941Y-2.672
X5.1941Y-3.422
X5.1941Y-4.172
X5.5941Y-1.922
X5.5941Y-2.672
X5.5941Y-3.422
X5.5941Y-4.172
X5.9441Y-1.8236
X5.9441Y-2.5736
X5.9441Y-3.3236
X5.9441Y-4.0736
X6.3441Y-1.8236
X6.3441Y-2.5736
X6.3441Y-3.3236
X6.3441Y-4.0736
X6.6941Y-2.0087
X6.6941Y-2.7587
X6.6941Y-3.5087
X6.6941Y-4.2587
X7.0941Y-2.0087
X7.0941Y-2.7587
X7.0941Y-3.5087
X7.0941Y-4.2587
X7.4441Y-2.2843
X7.4441Y-3.0343
X7.4441Y-3.7843
X7.4441Y-4.5343
X7.4441Y-5.2843
X7.8441Y-2.2843
X7.8441Y-3.0343
X7.8441Y-3.7843
X7.8441Y-4.5343
X7.8441Y-5.2843
X8.1941Y-2.2843
X8.1941Y-3.0343
X8.1941Y-3.7843
X8.1941Y-4.5343
X8.1941Y-5.2843
X8.5941Y-2.2843
X8.5941Y-3.0343
X8.5941Y-3.7843
X8.5941Y-4.5343
X8.5941Y-5.2843
T12
X3.5822Y-3.9093
X4.1334Y-3.9093
X5.1004Y-4.7717
X5.1004Y-5.5
X6.685Y-4.7717
X6.685Y-5.5
T13
X3.346Y-5.5729
X3.346Y-5.5729
X3.3601Y-5.3583
X3.4947Y-5.7283
X3.6069Y-5.3183
X3.7095Y-5.6002
X3.718Y-5.3311
X3.7441Y-4.3083
X3.7864Y-5.519
X3.7941Y-4.2083
X3.9941Y-4.2083
X4.0441Y-4.3083
X4.1687Y-5.167
X4.2575Y-5.4008
X4.3241Y-5.4906
X4.3475Y-5.0475
X4.3475Y-5.0475
X4.4941Y-1.9205
X4.4941Y-2.6705
X4.4941Y-3.4205
X4.4941Y-4.1705
X4.5211Y-5.4559
X4.5441Y-1.8205
X4.5441Y-2.5705
X4.5441Y-3.3205
X4.5441Y-4.0705
X4.553Y-5.3487
X4.5565Y-5.0986
X4.7441Y-1.8205
X4.7441Y-2.5705
X4.7441Y-3.3205
X4.7441Y-4.0705
X4.7941Y-1.9205
X4.7941Y-2.6705
X4.7941Y-3.4205
X4.7941Y-4.1705
X5.2441Y-1.822
X5.2441Y-2.572
X5.2441Y-3.322
X5.2441Y-4.072
X5.2941Y-1.722
X5.2941Y-2.472
X5.2941Y-3.222
X5.2941Y-3.972
X5.4941Y-1.722
X5.4941Y-2.472
X5.4941Y-3.222
X5.4941Y-3.972
X5.5441Y-1.822
X5.5441Y-2.572
X5.5441Y-3.322
X5.5441Y-4.072
X5.9941Y-1.7236
X5.9941Y-2.4736
X5.9941Y-3.2236
X5.9941Y-3.9736
X6.0441Y-1.6236
X6.0441Y-2.3736
X6.0441Y-3.1236
X6.0441Y-3.8736
X6.2441Y-1.6236
X6.2441Y-2.3736
X6.2441Y-3.1236
X6.2441Y-3.8736
X6.2941Y-1.7236
X6.2941Y-2.4736
X6.2941Y-3.2236
X6.2941Y-3.9736
X6.7441Y-1.9087
X6.7441Y-2.6587
X6.7441Y-3.4087
X6.7441Y-4.1587
X6.7941Y-1.8087
X6.7941Y-2.5587
X6.7941Y-3.3087
X6.7941Y-4.0587
X6.9941Y-1.8087
X6.9941Y-2.5587
X6.9941Y-3.3087
X6.9941Y-4.0587
X7.0441Y-1.9087
X7.0441Y-2.6587
X7.0441Y-3.4087
X7.0441Y-4.1587
X7.4941Y-2.1843
X7.4941Y-2.9343
X7.4941Y-3.6843
X7.4941Y-4.4343
X7.4941Y-5.1843
X7.5441Y-2.0843
X7.5441Y-2.8343
X7.5441Y-3.5843
X7.5441Y-4.3343
X7.5441Y-5.0843
X7.7441Y-2.0843
X7.7441Y-2.8343
X7.7441Y-3.5843
X7.7441Y-4.3343
X7.7441Y-5.0843
X7.7941Y-2.1843
X7.7941Y-2.9343
X7.7941Y-3.6843
X7.7941Y-4.4343
X7.7941Y-5.1843
X8.2441Y-2.1843
X8.2441Y-2.9343
X8.2441Y-3.6843
X8.2441Y-4.4343
X8.2441Y-5.1843
X8.2941Y-2.0843
X8.2941Y-2.8343
X8.2941Y-3.5843
X8.2941Y-4.3343
X8.2941Y-5.0843
X8.4941Y-2.0843
X8.4941Y-2.8343
X8.4941Y-3.5843
X8.4941Y-4.3343
X8.4941Y-5.0843
X8.5441Y-2.1843
X8.5441Y-2.9343
X8.5441Y-3.6843
X8.5441Y-4.4343
X8.5441Y-5.1843
T14
X3.5643Y-5.4935
X3.8941Y-4.4083
X4.3879Y-5.2763
X4.6441Y-2.0205
X4.6441Y-2.7705
X4.6441Y-3.5205
X4.6441Y-4.2705
X5.3941Y-1.922
X5.3941Y-2.672
X5.3941Y-3.422
X5.3941Y-4.172
X6.1441Y-1.8236
X6.1441Y-2.5736
X6.1441Y-3.3236
X6.1441Y-4.0736
X6.8941Y-2.0087
X6.8941Y-2.7587
X6.8941Y-3.5087
X6.8941Y-4.2587
X7.6441Y-2.2843
X7.6441Y-3.0343
X7.6441Y-3.7843
X7.6441Y-4.5343
X7.6441Y-5.2843
X8.3941Y-2.2843
X8.3941Y-3.0343
X8.3941Y-3.7843
X8.3941Y-4.5343
X8.3941Y-5.2843
T15
X3.688Y-4.9687
X3.9996Y-5.4728
X5.0026Y-3.8955
X5.0356Y-2.297
X6.5026Y-2.1986
X6.5356Y-3.8837
X8.0191Y-2.6593
X8.0191Y-4.9093
T16
X3.5643Y-5.4935
X4.3879Y-5.2763
T3
G00X3.7145Y-3.5441
M15
G01X3.6712Y-3.5441
M16
G05
G00X3.6716Y-3.7787
M15
G01X3.7149Y-3.7787
M16
G05
G00X3.8326Y-3.5441
M15
G01X3.7893Y-3.5441
M16
G05
G00X3.7897Y-3.7787
M15
G01X3.833Y-3.7787
M16
G05
G00X3.9901Y-3.5441
M15
G01X3.9468Y-3.5441
M16
G05
G00X3.9472Y-3.7787
M15
G01X3.9905Y-3.7787
M16
G05
G00X4.0492Y-3.7094
M15
G01X4.0059Y-3.7094
M16
G05
G00X4.0063Y-3.6133
M15
G01X4.0496Y-3.6133
M16
G05
G00X6.9161Y-5.4902
M15
G01X6.9161Y-5.5217
M16
G05
G00X6.9161Y-5.5482
M15
G01X6.9161Y-5.5797
M16
G05
T4
G00X6.5159Y-4.6772
M15
G01X6.5474Y-4.6772
M16
G05
G00X6.5787Y-4.6772
M15
G01X6.6102Y-4.6772
M16
G05
G00X6.6417Y-4.6772
M15
G01X6.9134Y-4.6772
M16
G05
G00X6.9161Y-5.4626
M15
G01X6.9161Y-4.6791
M16
G05
T11
G00X5.3565Y-4.937
M15
G01X5.3368Y-4.937
M16
G05
G00X5.3565Y-5.378
M15
G01X5.3368Y-5.378
M16
G05
G00X6.3801Y-4.937
M15
G01X6.3604Y-4.937
M16
G05
G00X6.3801Y-5.378
M15
G01X6.3604Y-5.378
M16
G05
T0
M30
