M48
; DRILL file {KiCad (6.0.4-0)} date 
; FORMAT={-:-/ absolute / metric / decimal}
; #@! TF.CreationDate,2022-11-19T19:36:48+09:00
; #@! TF.GenerationSoftware,Kicad,Pcbnew,(6.0.4-0)
; #@! TF.FileFunction,Plated,1,2,PTH
FMAT,2
METRIC
; #@! TA.AperFunction,Plated,PTH,ViaDrill
T1C0.300
; #@! TA.AperFunction,Plated,PTH,ComponentDrill
T2C0.300
; #@! TA.AperFunction,Plated,PTH,ViaDrill
T3C0.400
; #@! TA.AperFunction,Plated,PTH,ComponentDrill
T4C0.400
; #@! TA.AperFunction,Plated,PTH,ViaDrill
T5C0.813
; #@! TA.AperFunction,Plated,PTH,ComponentDrill
T6C1.000
; #@! TA.AperFunction,Plated,PTH,ViaDrill
T7C1.200
; #@! TA.AperFunction,Plated,PTH,ViaDrill
T8C1.300
; #@! TA.AperFunction,Plated,PTH,ComponentDrill
T9C1.500
; #@! TA.AperFunction,Plated,PTH,ViaDrill
T10C1.700
; #@! TA.AperFunction,Plated,PTH,ViaDrill
T11C1.900
; #@! TA.AperFunction,Plated,PTH,ViaDrill
T12C2.200
; #@! TA.AperFunction,Plated,PTH,ViaDrill
T13C3.000
; #@! TA.AperFunction,Plated,PTH,ViaDrill
T14C4.100
; #@! TA.AperFunction,Plated,PTH,ViaDrill
T15C4.300
%
G90
G05
T1
X93.154Y-90.02
X93.154Y-95.97
X96.154Y-90.02
X96.154Y-95.97
X100.154Y-90.02
X100.154Y-95.97
X101.654Y-91.77
X101.654Y-94.22
T3
X62.275Y-177.6
X62.275Y-179.6
X63.025Y-186.85
X63.15Y-178.675
X63.525Y-168.35
X67.275Y-161.6
X70.425Y-158.907
X72.025Y-148.85
X72.55Y-171.2
X73.625Y-167.775
X78.025Y-138.6
X80.525Y-133.85
X80.525Y-141.1
X80.525Y-170.6
X80.525Y-186.85
X80.925Y-150.85
X81.025Y-143.85
X82.775Y-144.725
X85.65Y-132.65
X88.525Y-120.35
X88.6Y-126.975
X89.125Y-58.0
X89.61Y-43.17
X89.99Y-90.01
X90.05Y-95.49
X90.345Y-84.231
X90.525Y-152.6
X91.05Y-103.18
X91.404Y-105.646
X91.67Y-85.083
X91.81Y-43.17
X91.91Y-111.019
X91.942Y-129.321
X92.44Y-86.38
X92.465Y-83.384
X92.902Y-87.816
X93.14Y-121.75
X93.194Y-79.77
X93.255Y-69.546
X93.255Y-71.92
X93.28Y-114.57
X93.292Y-57.272
X93.293Y-52.448
X93.375Y-62.271
X93.375Y-64.236
X93.785Y-66.968
X93.785Y-68.56
X94.325Y-54.473
X94.43Y-104.46
X94.535Y-74.486
X94.704Y-61.143
X95.346Y-84.565
X95.67Y-94.17
X95.88Y-56.87
X95.881Y-64.721
X96.064Y-79.397
X96.16Y-100.93
X96.16Y-118.808
X96.337Y-52.352
X96.391Y-74.121
X96.804Y-91.846
X96.85Y-66.224
X97.21Y-63.03
X97.327Y-130.023
X97.423Y-121.08
X97.898Y-57.95
X98.107Y-78.272
X98.386Y-72.933
X98.444Y-96.652
X99.075Y-130.05
X99.52Y-88.37
X99.594Y-81.919
X99.668Y-60.49
X99.668Y-71.632
X99.773Y-85.484
X100.08Y-98.07
X100.275Y-133.85
X100.434Y-101.056
X100.603Y-56.68
X100.603Y-58.017
X100.603Y-74.644
X101.303Y-121.037
X101.41Y-78.02
X101.42Y-53.16
X101.687Y-103.427
X101.7Y-55.36
X101.72Y-97.3
X102.01Y-127.08
X102.035Y-84.884
X102.12Y-128.92
X102.377Y-114.81
X102.775Y-143.35
X103.261Y-119.581
X103.313Y-121.037
X103.657Y-114.539
X103.738Y-116.17
X103.904Y-117.66
X104.327Y-105.242
X104.462Y-46.239
X104.67Y-122.59
X105.16Y-47.46
X105.392Y-116.377
X105.738Y-128.713
X105.93Y-92.55
X105.941Y-96.444
X105.98Y-121.81
X105.99Y-122.7
X106.0Y-87.98
X106.359Y-82.159
X106.425Y-114.8
X107.766Y-123.636
X107.91Y-50.67
X107.98Y-56.95
X108.03Y-54.2
X108.08Y-48.57
X108.41Y-50.17
X108.41Y-69.37
X108.959Y-122.443
X109.41Y-74.57
X109.425Y-119.875
X109.525Y-118.35
X109.62Y-117.28
X109.683Y-72.043
X110.14Y-54.27
X110.222Y-107.567
X110.222Y-108.697
X110.222Y-110.427
X110.222Y-111.362
X110.325Y-119.175
X110.497Y-46.2
X110.498Y-103.35
X110.506Y-84.3
X110.53Y-116.57
X110.96Y-63.636
X111.36Y-113.28
X111.494Y-74.229
X111.5Y-115.65
X111.64Y-78.24
X111.713Y-90.512
X111.82Y-55.77
X112.082Y-97.511
X112.443Y-82.047
X112.722Y-58.851
X112.728Y-121.087
X113.015Y-62.272
X113.46Y-123.695
X113.604Y-54.568
X113.628Y-93.271
X113.665Y-99.965
X113.665Y-101.144
X113.677Y-112.408
X113.71Y-78.92
X113.759Y-74.57
X114.13Y-92.21
X114.403Y-111.362
X114.94Y-71.607
X115.21Y-73.104
X115.21Y-77.707
X115.21Y-96.27
X115.242Y-92.21
X115.357Y-111.362
X116.65Y-126.35
X116.975Y-119.85
X117.927Y-101.252
X117.953Y-79.763
X118.205Y-119.905
X118.529Y-60.87
X118.919Y-97.179
X118.919Y-100.024
X119.5Y-137.075
X120.025Y-140.1
X120.616Y-54.391
X121.165Y-99.119
X121.183Y-79.971
X121.21Y-77.67
X121.405Y-60.069
X122.212Y-58.277
X122.72Y-54.86
X123.106Y-63.639
X123.39Y-75.68
X123.409Y-110.337
X123.81Y-97.79
X123.86Y-79.85
X123.905Y-57.243
X124.04Y-94.62
X124.377Y-60.015
X124.425Y-71.221
X124.95Y-90.95
X125.087Y-78.37
X125.2Y-108.63
X125.305Y-51.9
X125.957Y-73.457
X125.957Y-95.669
X125.97Y-71.89
X126.11Y-63.4
X126.186Y-114.445
X127.133Y-108.318
X128.23Y-70.527
X128.257Y-45.025
X128.259Y-102.175
X128.334Y-104.718
X128.35Y-54.97
X128.824Y-52.341
X129.108Y-105.492
X129.27Y-95.699
X129.555Y-81.8
X129.558Y-62.903
X130.405Y-74.385
X130.43Y-92.52
X130.835Y-53.951
X130.89Y-76.75
X130.988Y-71.647
X131.025Y-130.85
X131.155Y-73.635
X131.51Y-89.53
X131.562Y-58.37
X131.625Y-52.092
X131.656Y-54.725
X131.816Y-113.055
X131.852Y-71.023
X132.025Y-139.85
X132.275Y-121.1
X132.62Y-56.58
X132.997Y-52.079
X133.085Y-94.043
X133.11Y-78.99
X133.288Y-109.052
X133.606Y-112.711
X134.17Y-59.62
X135.504Y-56.036
X136.889Y-75.92
X137.13Y-64.53
X137.517Y-77.17
X137.661Y-58.27
X138.805Y-75.02
X139.222Y-88.975
X139.434Y-57.775
X139.441Y-112.682
X140.032Y-69.359
X140.145Y-96.47
X140.28Y-107.82
X140.428Y-79.433
X140.549Y-98.604
X140.909Y-56.115
X140.935Y-89.901
X141.449Y-75.92
X141.698Y-53.632
X141.698Y-72.029
X141.81Y-94.74
X142.006Y-109.03
X142.016Y-111.796
X142.291Y-50.978
X143.365Y-47.865
X143.51Y-75.87
X143.762Y-69.594
X143.858Y-91.372
X144.156Y-53.596
X144.534Y-55.276
X144.59Y-48.49
X144.59Y-50.89
X145.1Y-72.35
X145.12Y-78.49
X145.379Y-75.92
X145.725Y-107.227
X145.758Y-64.034
X145.805Y-127.105
X145.879Y-68.994
X145.942Y-97.27
X145.97Y-53.87
X146.105Y-104.585
X146.342Y-55.78
X146.556Y-60.909
X146.81Y-85.35
X147.13Y-91.3
X147.16Y-89.08
X147.235Y-72.017
X147.29Y-67.42
X147.44Y-94.68
X147.67Y-70.31
X148.184Y-52.704
X148.305Y-123.105
X148.34Y-106.88
X148.443Y-54.834
X148.494Y-72.86
X148.563Y-98.35
X148.606Y-79.3
X148.608Y-41.2
X148.608Y-60.515
X148.719Y-53.629
X149.298Y-108.835
X149.398Y-68.248
X149.405Y-49.639
X150.49Y-90.41
X150.52Y-94.67
X150.564Y-112.576
X150.925Y-105.781
X151.48Y-52.4
X151.601Y-50.419
X151.664Y-109.765
X151.714Y-68.248
X151.835Y-88.62
X152.06Y-74.47
X152.135Y-72.145
X152.805Y-124.355
X152.805Y-127.105
X152.842Y-68.255
X153.31Y-53.575
X153.409Y-64.661
X153.409Y-102.745
X153.476Y-49.119
X153.604Y-87.266
X154.235Y-54.67
X154.235Y-94.974
X154.97Y-73.83
X155.364Y-62.706
X156.525Y-56.17
X156.531Y-93.591
X156.883Y-76.227
X157.15Y-57.82
X157.51Y-73.88
X158.376Y-111.596
X158.478Y-87.412
X159.054Y-105.693
X159.36Y-110.612
X159.51Y-113.03
X160.063Y-91.005
X160.16Y-54.299
X160.18Y-56.99
X160.523Y-92.817
X160.675Y-70.955
X160.748Y-69.943
X160.972Y-107.171
X161.18Y-49.4
X161.51Y-87.08
X161.76Y-96.736
X161.76Y-111.4
X161.85Y-90.47
X162.06Y-71.545
X162.129Y-94.422
X162.42Y-66.348
X162.76Y-85.561
X163.06Y-47.378
X163.292Y-88.62
X163.337Y-73.682
X163.44Y-102.612
X163.464Y-58.829
X163.91Y-112.95
X164.035Y-90.945
X164.28Y-88.62
X164.364Y-105.393
X164.655Y-50.525
X164.84Y-64.95
X165.33Y-69.75
X165.45Y-86.93
X165.55Y-90.35
X165.731Y-77.707
X166.15Y-73.8
X166.25Y-81.85
X166.338Y-62.838
X166.652Y-76.227
X167.03Y-134.455
X167.08Y-129.88
X167.2Y-110.74
X167.275Y-121.1
X167.275Y-139.85
X167.37Y-61.293
X167.456Y-102.955
X167.605Y-90.764
X167.641Y-84.364
X167.658Y-45.9
X167.66Y-64.95
X168.865Y-93.075
X168.879Y-81.904
X168.97Y-114.69
X169.42Y-74.94
X169.67Y-54.97
X169.684Y-110.714
X169.837Y-94.422
X170.208Y-58.829
X170.63Y-79.22
X170.885Y-111.439
X171.735Y-59.357
X173.251Y-62.063
X173.435Y-79.47
X174.29Y-97.13
X174.657Y-98.966
X175.732Y-78.092
X176.108Y-59.389
X177.309Y-133.841
X177.391Y-58.016
X177.661Y-81.647
X178.16Y-73.139
X178.2Y-141.6
X178.566Y-58.115
X178.825Y-76.778
X179.035Y-53.895
X179.035Y-71.999
X179.419Y-133.873
X179.424Y-95.621
X179.444Y-93.323
X180.175Y-123.7
X180.26Y-75.32
X180.291Y-114.002
X180.364Y-92.144
X180.468Y-101.382
X180.471Y-96.947
X180.652Y-133.769
X180.81Y-44.273
X180.81Y-131.67
X180.867Y-137.98
X180.883Y-135.824
X180.99Y-57.29
X180.998Y-55.019
X181.25Y-118.675
X181.25Y-121.8
X181.469Y-114.93
X181.492Y-76.627
X181.81Y-126.37
X181.81Y-130.17
X181.948Y-110.152
X181.994Y-111.932
X182.29Y-93.74
X182.302Y-98.778
X182.422Y-69.127
X182.422Y-76.086
X182.476Y-43.448
X182.737Y-141.055
X182.8Y-128.933
X182.91Y-116.97
X182.967Y-117.872
X183.009Y-113.661
X183.01Y-115.87
X183.09Y-77.75
X183.147Y-65.788
X183.48Y-57.5
X183.535Y-118.695
X183.78Y-135.958
X183.94Y-81.47
X184.4Y-54.13
X184.597Y-135.129
X184.74Y-51.12
X184.791Y-108.587
X184.925Y-115.897
X185.318Y-58.699
X185.322Y-141.597
X185.465Y-106.093
X185.62Y-91.24
X185.699Y-63.786
X185.868Y-107.132
X185.88Y-101.72
X185.969Y-104.192
X186.5Y-85.69
X186.685Y-129.1
X186.707Y-71.95
X186.849Y-80.714
X186.983Y-107.132
X187.037Y-62.235
X187.037Y-63.363
X187.16Y-51.286
X187.16Y-89.384
X187.16Y-108.448
X187.335Y-133.314
X187.335Y-134.585
X187.421Y-118.393
X187.547Y-116.913
X188.11Y-64.23
X188.241Y-62.122
X188.43Y-124.22
X188.59Y-120.77
X188.646Y-98.911
X188.868Y-117.723
X189.2Y-69.15
X189.2Y-70.16
X189.2Y-102.96
X189.3Y-61.679
X189.388Y-100.658
X189.785Y-125.015
X189.785Y-126.574
X189.923Y-81.27
X190.034Y-99.484
X190.102Y-118.46
X190.47Y-87.14
X190.95Y-59.63
X191.41Y-65.795
X191.41Y-103.246
X191.42Y-122.7
X191.764Y-79.275
X191.942Y-68.584
X191.993Y-87.378
X192.186Y-105.728
X192.493Y-126.104
X193.377Y-136.92
X193.59Y-66.669
X193.594Y-84.341
X194.55Y-87.13
X194.571Y-65.157
X196.163Y-66.392
X196.657Y-125.943
X197.25Y-103.36
X197.337Y-86.263
X197.855Y-70.086
X198.11Y-124.34
X198.249Y-121.672
X198.3Y-78.86
X198.57Y-117.38
X198.784Y-61.483
X199.35Y-69.21
X199.37Y-81.73
X199.69Y-60.62
X199.78Y-63.57
X199.86Y-89.392
X199.86Y-108.443
X199.971Y-101.72
X200.08Y-98.14
X200.407Y-122.034
X200.59Y-126.74
X200.77Y-87.04
X200.839Y-141.282
X200.84Y-139.82
X200.885Y-136.676
X200.894Y-62.171
X200.896Y-84.565
X201.209Y-104.692
X201.549Y-117.641
X201.618Y-72.889
X201.66Y-53.82
X201.82Y-134.37
X202.12Y-90.84
X202.139Y-98.451
X202.281Y-84.052
X202.35Y-57.84
X202.35Y-129.34
X202.43Y-108.7
X202.532Y-78.507
X203.37Y-73.59
X203.7Y-50.5
X203.72Y-88.613
X203.73Y-51.82
X204.043Y-64.662
X204.218Y-105.85
X204.28Y-138.454
X204.389Y-140.507
X204.409Y-116.643
X204.704Y-133.543
X204.848Y-119.168
X205.32Y-63.72
X205.468Y-95.174
X205.747Y-110.05
X205.752Y-71.95
X205.756Y-52.9
X205.757Y-91.0
X206.577Y-133.245
X206.764Y-87.136
X206.764Y-88.473
X207.06Y-139.17
X207.25Y-82.83
X207.316Y-80.691
X207.384Y-125.959
X207.7Y-119.15
X207.92Y-63.85
X208.513Y-81.004
X208.736Y-140.281
X208.786Y-84.778
X208.986Y-119.37
X209.004Y-100.32
X209.11Y-59.561
X209.12Y-68.36
X209.285Y-102.923
X209.544Y-125.79
X209.785Y-79.919
X210.319Y-59.561
X210.46Y-98.95
X210.857Y-84.778
X210.861Y-79.919
X211.285Y-117.87
X211.335Y-66.288
X211.475Y-105.375
X212.514Y-69.914
X212.746Y-106.444
X213.26Y-127.01
X214.85Y-69.95
X215.721Y-64.757
X215.81Y-69.095
X215.875Y-122.198
X215.914Y-85.217
X216.444Y-103.027
X216.54Y-135.73
X217.135Y-61.023
X217.135Y-137.193
X217.431Y-127.536
X217.444Y-88.93
X217.607Y-108.327
X217.65Y-69.95
X217.81Y-65.657
X218.036Y-62.22
X218.467Y-121.153
X218.917Y-118.754
X218.918Y-123.018
X218.988Y-63.172
X219.06Y-86.44
X219.098Y-125.751
X219.31Y-137.82
X219.493Y-98.554
X219.79Y-107.75
X219.8Y-78.89
X219.81Y-116.96
X219.88Y-101.69
X219.881Y-69.111
X220.504Y-57.059
X220.931Y-50.499
X221.01Y-59.3
X221.04Y-62.59
X221.27Y-122.58
X221.29Y-128.52
X221.371Y-87.745
X221.502Y-88.93
T5
X89.848Y-49.06
X89.848Y-51.6
X89.848Y-54.14
X89.848Y-56.68
X89.848Y-59.22
X89.848Y-61.76
X89.848Y-64.3
X89.848Y-66.84
X89.848Y-69.38
X89.848Y-71.92
X89.848Y-74.46
X89.848Y-77.0
X91.174Y-47.79
X91.174Y-50.33
X91.174Y-52.87
X91.174Y-55.41
X91.174Y-57.95
X91.174Y-60.49
X91.174Y-63.03
X91.174Y-65.57
X91.174Y-68.11
X91.174Y-70.65
X91.174Y-73.19
X91.174Y-75.73
X94.284Y-80.54
X96.41Y-83.77
X96.824Y-80.54
X98.91Y-83.77
X99.364Y-80.54
X101.904Y-80.54
X105.088Y-49.06
X105.088Y-51.6
X105.088Y-54.14
X105.088Y-56.68
X105.088Y-59.22
X105.088Y-61.76
X105.088Y-64.3
X105.088Y-66.84
X105.088Y-69.38
X105.088Y-71.92
X105.088Y-74.46
X105.088Y-77.0
X106.394Y-47.79
X106.394Y-50.33
X106.394Y-52.87
X106.394Y-55.41
X106.394Y-57.95
X106.394Y-60.49
X106.394Y-63.03
X106.394Y-65.57
X106.394Y-68.11
X106.394Y-70.65
X106.394Y-73.19
X106.394Y-75.73
T6
X128.805Y-128.5
X128.805Y-133.5
X143.305Y-128.5
X143.305Y-131.0
X143.305Y-133.5
X154.805Y-128.5
X154.805Y-133.5
X169.305Y-128.5
X169.305Y-131.0
X169.305Y-133.5
X173.7Y-119.85
X173.7Y-122.39
X173.7Y-124.93
X173.7Y-127.47
X173.7Y-130.01
X173.7Y-132.55
X173.7Y-135.09
X173.7Y-137.63
X173.7Y-140.17
X178.7Y-119.85
X178.7Y-122.39
X178.7Y-124.93
X178.7Y-127.47
X178.7Y-130.01
X178.7Y-132.55
X178.7Y-135.09
X178.7Y-137.63
X178.7Y-140.17
T7
X92.004Y-93.87
X99.004Y-93.87
T8
X90.345Y-81.015
X90.345Y-87.515
T10
X94.41Y-111.97
X103.41Y-111.97
X113.46Y-51.32
X113.46Y-70.37
X113.46Y-89.42
X113.46Y-108.47
X122.46Y-51.32
X122.46Y-70.37
X122.46Y-89.42
X122.46Y-108.47
X132.51Y-48.82
X132.51Y-67.87
X132.51Y-86.92
X132.51Y-105.97
X141.51Y-48.82
X141.51Y-67.87
X141.51Y-86.92
X141.51Y-105.97
X151.56Y-46.32
X151.56Y-65.37
X151.56Y-84.42
X151.56Y-103.47
X160.56Y-46.32
X160.56Y-65.37
X160.56Y-84.42
X160.56Y-103.47
X170.61Y-51.02
X170.61Y-70.07
X170.61Y-89.12
X170.61Y-108.17
X179.61Y-51.02
X179.61Y-70.07
X179.61Y-89.12
X179.61Y-108.17
X189.66Y-58.02
X189.66Y-77.07
X189.66Y-96.12
X189.66Y-115.17
X189.66Y-134.22
X198.66Y-58.02
X198.66Y-77.07
X198.66Y-96.12
X198.66Y-115.17
X198.66Y-134.22
X208.71Y-58.02
X208.71Y-77.07
X208.71Y-96.12
X208.71Y-115.17
X208.71Y-134.22
X217.71Y-58.02
X217.71Y-77.07
X217.71Y-96.12
X217.71Y-115.17
X217.71Y-134.22
T11
X93.83Y-111.97
X103.99Y-111.97
X112.88Y-51.32
X112.88Y-70.37
X112.88Y-89.42
X112.88Y-108.47
X123.04Y-51.32
X123.04Y-70.37
X123.04Y-89.42
X123.04Y-108.47
X131.93Y-48.82
X131.93Y-67.87
X131.93Y-86.92
X131.93Y-105.97
X142.09Y-48.82
X142.09Y-67.87
X142.09Y-86.92
X142.09Y-105.97
X150.98Y-46.32
X150.98Y-65.37
X150.98Y-84.42
X150.98Y-103.47
X161.14Y-46.32
X161.14Y-65.37
X161.14Y-84.42
X161.14Y-103.47
X170.03Y-51.02
X170.03Y-70.07
X170.03Y-89.12
X170.03Y-108.17
X180.19Y-51.02
X180.19Y-70.07
X180.19Y-89.12
X180.19Y-108.17
X189.08Y-58.02
X189.08Y-77.07
X189.08Y-96.12
X189.08Y-115.17
X189.08Y-134.22
X199.24Y-58.02
X199.24Y-77.07
X199.24Y-96.12
X199.24Y-115.17
X199.24Y-134.22
X208.13Y-58.02
X208.13Y-77.07
X208.13Y-96.12
X208.13Y-115.17
X208.13Y-134.22
X218.29Y-58.02
X218.29Y-77.07
X218.29Y-96.12
X218.29Y-115.17
X218.29Y-134.22
T12
X90.989Y-99.295
X104.989Y-99.295
X129.55Y-121.2
X129.55Y-139.7
X169.8Y-121.2
X169.8Y-139.7
T13
X95.1Y-109.43
X96.37Y-106.89
X101.45Y-106.89
X102.72Y-109.43
X114.15Y-48.78
X114.15Y-67.83
X114.15Y-86.88
X114.15Y-105.93
X115.42Y-46.24
X115.42Y-65.29
X115.42Y-84.34
X115.42Y-103.39
X120.5Y-46.24
X120.5Y-65.29
X120.5Y-84.34
X120.5Y-103.39
X121.77Y-48.78
X121.77Y-67.83
X121.77Y-86.88
X121.77Y-105.93
X133.2Y-46.28
X133.2Y-65.33
X133.2Y-84.38
X133.2Y-103.43
X134.47Y-43.74
X134.47Y-62.79
X134.47Y-81.84
X134.47Y-100.89
X139.55Y-43.74
X139.55Y-62.79
X139.55Y-81.84
X139.55Y-100.89
X140.82Y-46.28
X140.82Y-65.33
X140.82Y-84.38
X140.82Y-103.43
X152.25Y-43.78
X152.25Y-62.83
X152.25Y-81.88
X152.25Y-100.93
X153.52Y-41.24
X153.52Y-60.29
X153.52Y-79.34
X153.52Y-98.39
X158.6Y-41.24
X158.6Y-60.29
X158.6Y-79.34
X158.6Y-98.39
X159.87Y-43.78
X159.87Y-62.83
X159.87Y-81.88
X159.87Y-100.93
X171.3Y-48.48
X171.3Y-67.53
X171.3Y-86.58
X171.3Y-105.63
X172.57Y-45.94
X172.57Y-64.99
X172.57Y-84.04
X172.57Y-103.09
X177.65Y-45.94
X177.65Y-64.99
X177.65Y-84.04
X177.65Y-103.09
X178.92Y-48.48
X178.92Y-67.53
X178.92Y-86.58
X178.92Y-105.63
X190.35Y-55.48
X190.35Y-74.53
X190.35Y-93.58
X190.35Y-112.63
X190.35Y-131.68
X191.62Y-52.94
X191.62Y-71.99
X191.62Y-91.04
X191.62Y-110.09
X191.62Y-129.14
X196.7Y-52.94
X196.7Y-71.99
X196.7Y-91.04
X196.7Y-110.09
X196.7Y-129.14
X197.97Y-55.48
X197.97Y-74.53
X197.97Y-93.58
X197.97Y-112.63
X197.97Y-131.68
X209.4Y-55.48
X209.4Y-74.53
X209.4Y-93.58
X209.4Y-112.63
X209.4Y-131.68
X210.67Y-52.94
X210.67Y-71.99
X210.67Y-91.04
X210.67Y-110.09
X210.67Y-129.14
X215.75Y-52.94
X215.75Y-71.99
X215.75Y-91.04
X215.75Y-110.09
X215.75Y-129.14
X217.02Y-55.48
X217.02Y-74.53
X217.02Y-93.58
X217.02Y-112.63
X217.02Y-131.68
T14
X98.91Y-111.97
X117.96Y-51.32
X117.96Y-70.37
X117.96Y-89.42
X117.96Y-108.47
X137.01Y-48.82
X137.01Y-67.87
X137.01Y-86.92
X137.01Y-105.97
X156.06Y-46.32
X156.06Y-65.37
X156.06Y-84.42
X156.06Y-103.47
X175.11Y-51.02
X175.11Y-70.07
X175.11Y-89.12
X175.11Y-108.17
X194.16Y-58.02
X194.16Y-77.07
X194.16Y-96.12
X194.16Y-115.17
X194.16Y-134.22
X213.21Y-58.02
X213.21Y-77.07
X213.21Y-96.12
X213.21Y-115.17
X213.21Y-134.22
T15
X93.675Y-126.205
X101.589Y-139.008
X127.067Y-98.945
X127.903Y-58.345
X165.167Y-55.845
X166.003Y-98.645
X203.685Y-67.545
X203.685Y-124.695
T2
G00X165.405Y-118.8
M15
G01X166.405Y-118.8
M16
G05
G00X167.0Y-118.8
M15
G01X168.0Y-118.8
M16
G05
G00X168.575Y-118.8
M15
G01X175.675Y-118.8
M16
G05
G00X175.67Y-138.875
M15
G01X175.67Y-118.825
M16
G05
G00X175.67Y-139.4
M15
G01X175.67Y-140.3
M16
G05
G00X175.67Y-140.875
M15
G01X175.67Y-141.775
M16
G05
T4
G00X94.35Y-90.019
M15
G01X93.25Y-90.019
M16
G05
G00X93.259Y-95.978
M15
G01X94.359Y-95.978
M16
G05
G00X97.35Y-90.019
M15
G01X96.25Y-90.019
M16
G05
G00X96.259Y-95.978
M15
G01X97.359Y-95.978
M16
G05
G00X101.35Y-90.019
M15
G01X100.25Y-90.019
M16
G05
G00X100.259Y-95.978
M15
G01X101.359Y-95.978
M16
G05
G00X102.85Y-94.219
M15
G01X101.75Y-94.219
M16
G05
G00X101.759Y-91.778
M15
G01X102.859Y-91.778
M16
G05
T9
G00X136.955Y-125.4
M15
G01X134.655Y-125.4
M16
G05
G00X136.955Y-136.6
M15
G01X134.655Y-136.6
M16
G05
G00X162.955Y-125.4
M15
G01X160.655Y-125.4
M16
G05
G00X162.955Y-136.6
M15
G01X160.655Y-136.6
M16
G05
T0
M30
