M48
; DRILL file {KiCad (6.0.4-0)} date 
; FORMAT={-:-/ absolute / metric / decimal}
; #@! TF.CreationDate,2022-10-26T23:43:58+09:00
; #@! TF.GenerationSoftware,Kicad,Pcbnew,(6.0.4-0)
; #@! TF.FileFunction,NonPlated,1,2,NPTH
FMAT,2
METRIC
; #@! TA.AperFunction,NonPlated,NPTH,ComponentDrill
T1C0.500
; #@! TA.AperFunction,NonPlated,NPTH,ComponentDrill
T2C1.200
; #@! TA.AperFunction,NonPlated,NPTH,ComponentDrill
T3C1.700
; #@! TA.AperFunction,NonPlated,NPTH,ComponentDrill
T4C1.900
; #@! TA.AperFunction,NonPlated,NPTH,ComponentDrill
T5C3.000
; #@! TA.AperFunction,NonPlated,NPTH,ComponentDrill
T6C3.150
; #@! TA.AperFunction,NonPlated,NPTH,ComponentDrill
T7C4.000
%
G90
G05
T2
X91.999Y-92.119
X92.009Y-93.878
X98.999Y-92.119
X99.009Y-93.878
T3
X67.58Y-179.295
X73.966Y-155.461
X77.74Y-179.295
X82.765Y-160.541
T4
X67.16Y-179.295
X73.603Y-155.251
X78.16Y-179.295
X83.129Y-160.751
T5
X67.66Y-182.995
X68.85Y-176.755
X70.12Y-174.215
X72.186Y-158.705
X72.66Y-185.195
X75.2Y-174.215
X75.416Y-163.111
X76.336Y-153.896
X76.47Y-176.755
X77.66Y-182.995
X78.706Y-152.332
X80.846Y-163.705
X82.935Y-157.706
X83.105Y-154.872
T7
X72.66Y-179.295
X78.366Y-158.001
T1
G00X97.35Y-115.55
M15
G01X97.35Y-118.15
M16
G05
G00X97.35Y-115.55
M15
G01X100.45Y-115.55
M16
G05
G00X97.35Y-118.2
M15
G01X100.45Y-118.2
M16
G05
G00X100.45Y-115.55
M15
G01X100.45Y-118.15
M16
G05
G00X100.65Y-123.25
M15
G01X100.65Y-125.85
M16
G05
G00X100.65Y-123.25
M15
G01X103.75Y-123.25
M16
G05
G00X100.65Y-125.9
M15
G01X103.75Y-125.9
M16
G05
G00X103.75Y-123.25
M15
G01X103.75Y-125.85
M16
G05
G00X116.4Y-54.9
M15
G01X116.4Y-57.5
M16
G05
G00X116.4Y-73.95
M15
G01X116.4Y-76.55
M16
G05
G00X116.4Y-112.05
M15
G01X116.4Y-114.65
M16
G05
G00X116.425Y-93.0
M15
G01X116.425Y-95.6
M16
G05
G00X116.4Y-54.9
M15
G01X119.5Y-54.9
M16
G05
G00X116.4Y-57.55
M15
G01X119.5Y-57.55
M16
G05
G00X116.4Y-73.95
M15
G01X119.5Y-73.95
M16
G05
G00X116.4Y-76.6
M15
G01X119.5Y-76.6
M16
G05
G00X116.4Y-112.05
M15
G01X119.5Y-112.05
M16
G05
G00X116.4Y-114.7
M15
G01X119.5Y-114.7
M16
G05
G00X116.425Y-93.0
M15
G01X119.525Y-93.0
M16
G05
G00X116.425Y-95.65
M15
G01X119.525Y-95.65
M16
G05
G00X119.5Y-54.9
M15
G01X119.5Y-57.5
M16
G05
G00X119.5Y-73.95
M15
G01X119.5Y-76.55
M16
G05
G00X119.5Y-112.05
M15
G01X119.5Y-114.65
M16
G05
G00X119.525Y-93.0
M15
G01X119.525Y-95.6
M16
G05
G00X125.975Y-110.6
M15
G01X125.975Y-113.2
M16
G05
G00X125.975Y-110.6
M15
G01X129.075Y-110.6
M16
G05
G00X125.975Y-113.25
M15
G01X129.075Y-113.25
M16
G05
G00X129.075Y-110.6
M15
G01X129.075Y-113.2
M16
G05
G00X135.45Y-52.4
M15
G01X135.45Y-55.0
M16
G05
G00X135.45Y-109.55
M15
G01X135.45Y-112.15
M16
G05
G00X135.475Y-71.45
M15
G01X135.475Y-74.05
M16
G05
G00X135.475Y-90.475
M15
G01X135.475Y-93.075
M16
G05
G00X135.45Y-52.4
M15
G01X138.55Y-52.4
M16
G05
G00X135.45Y-55.05
M15
G01X138.55Y-55.05
M16
G05
G00X135.45Y-109.55
M15
G01X138.55Y-109.55
M16
G05
G00X135.45Y-112.2
M15
G01X138.55Y-112.2
M16
G05
G00X135.475Y-71.45
M15
G01X138.575Y-71.45
M16
G05
G00X135.475Y-74.1
M15
G01X138.575Y-74.1
M16
G05
G00X135.475Y-90.475
M15
G01X138.575Y-90.475
M16
G05
G00X135.475Y-93.125
M15
G01X138.575Y-93.125
M16
G05
G00X138.55Y-52.4
M15
G01X138.55Y-55.0
M16
G05
G00X138.55Y-109.55
M15
G01X138.55Y-112.15
M16
G05
G00X138.575Y-71.45
M15
G01X138.575Y-74.05
M16
G05
G00X138.575Y-90.475
M15
G01X138.575Y-93.075
M16
G05
G00X142.1Y-57.15
M15
G01X142.1Y-59.75
M16
G05
G00X142.1Y-57.15
M15
G01X145.2Y-57.15
M16
G05
G00X142.1Y-59.8
M15
G01X145.2Y-59.8
M16
G05
G00X144.875Y-109.55
M15
G01X144.875Y-112.15
M16
G05
G00X145.2Y-57.15
M15
G01X145.2Y-59.75
M16
G05
G00X144.875Y-109.55
M15
G01X147.975Y-109.55
M16
G05
G00X144.875Y-112.2
M15
G01X147.975Y-112.2
M16
G05
G00X147.975Y-109.55
M15
G01X147.975Y-112.15
M16
G05
G00X154.5Y-49.9
M15
G01X154.5Y-52.5
M16
G05
G00X154.5Y-68.95
M15
G01X154.5Y-71.55
M16
G05
G00X154.5Y-88.0
M15
G01X154.5Y-90.6
M16
G05
G00X154.525Y-107.05
M15
G01X154.525Y-109.65
M16
G05
G00X154.5Y-49.9
M15
G01X157.6Y-49.9
M16
G05
G00X154.5Y-52.55
M15
G01X157.6Y-52.55
M16
G05
G00X154.5Y-68.95
M15
G01X157.6Y-68.95
M16
G05
G00X154.5Y-71.6
M15
G01X157.6Y-71.6
M16
G05
G00X154.5Y-88.0
M15
G01X157.6Y-88.0
M16
G05
G00X154.5Y-90.65
M15
G01X157.6Y-90.65
M16
G05
G00X154.525Y-107.05
M15
G01X157.625Y-107.05
M16
G05
G00X154.525Y-109.7
M15
G01X157.625Y-109.7
M16
G05
G00X157.6Y-49.9
M15
G01X157.6Y-52.5
M16
G05
G00X157.6Y-68.95
M15
G01X157.6Y-71.55
M16
G05
G00X157.6Y-88.0
M15
G01X157.6Y-90.6
M16
G05
G00X157.625Y-107.05
M15
G01X157.625Y-109.65
M16
G05
G00X173.55Y-73.65
M15
G01X173.55Y-76.25
M16
G05
G00X173.55Y-92.7
M15
G01X173.55Y-95.3
M16
G05
G00X173.55Y-111.75
M15
G01X173.55Y-114.35
M16
G05
G00X173.575Y-54.6
M15
G01X173.575Y-57.2
M16
G05
G00X173.55Y-73.65
M15
G01X176.65Y-73.65
M16
G05
G00X173.55Y-76.3
M15
G01X176.65Y-76.3
M16
G05
G00X173.55Y-92.7
M15
G01X176.65Y-92.7
M16
G05
G00X173.55Y-95.35
M15
G01X176.65Y-95.35
M16
G05
G00X173.55Y-111.75
M15
G01X176.65Y-111.75
M16
G05
G00X173.55Y-114.4
M15
G01X176.65Y-114.4
M16
G05
G00X173.575Y-54.6
M15
G01X176.675Y-54.6
M16
G05
G00X173.575Y-57.25
M15
G01X176.675Y-57.25
M16
G05
G00X176.65Y-73.65
M15
G01X176.65Y-76.25
M16
G05
G00X176.65Y-92.7
M15
G01X176.65Y-95.3
M16
G05
G00X176.65Y-111.75
M15
G01X176.65Y-114.35
M16
G05
G00X176.675Y-54.6
M15
G01X176.675Y-57.2
M16
G05
G00X181.4Y-59.2
M15
G01X181.4Y-61.8
M16
G05
G00X181.4Y-59.2
M15
G01X184.5Y-59.2
M16
G05
G00X181.4Y-61.85
M15
G01X184.5Y-61.85
M16
G05
G00X184.5Y-59.2
M15
G01X184.5Y-61.8
M16
G05
G00X192.6Y-61.575
M15
G01X192.6Y-64.175
M16
G05
G00X192.6Y-80.65
M15
G01X192.6Y-83.25
M16
G05
G00X192.6Y-99.7
M15
G01X192.6Y-102.3
M16
G05
G00X192.6Y-118.75
M15
G01X192.6Y-121.35
M16
G05
G00X192.625Y-137.8
M15
G01X192.625Y-140.4
M16
G05
G00X192.6Y-61.575
M15
G01X195.7Y-61.575
M16
G05
G00X192.6Y-64.225
M15
G01X195.7Y-64.225
M16
G05
G00X192.6Y-80.65
M15
G01X195.7Y-80.65
M16
G05
G00X192.6Y-83.3
M15
G01X195.7Y-83.3
M16
G05
G00X192.6Y-99.7
M15
G01X195.7Y-99.7
M16
G05
G00X192.6Y-102.35
M15
G01X195.7Y-102.35
M16
G05
G00X192.6Y-118.75
M15
G01X195.7Y-118.75
M16
G05
G00X192.6Y-121.4
M15
G01X195.7Y-121.4
M16
G05
G00X192.625Y-137.8
M15
G01X195.725Y-137.8
M16
G05
G00X192.625Y-140.45
M15
G01X195.725Y-140.45
M16
G05
G00X195.7Y-61.575
M15
G01X195.7Y-64.175
M16
G05
G00X195.7Y-80.65
M15
G01X195.7Y-83.25
M16
G05
G00X195.7Y-99.7
M15
G01X195.7Y-102.3
M16
G05
G00X195.7Y-118.75
M15
G01X195.7Y-121.35
M16
G05
G00X195.725Y-137.8
M15
G01X195.725Y-140.4
M16
G05
G00X211.65Y-61.6
M15
G01X211.65Y-64.2
M16
G05
G00X211.65Y-80.65
M15
G01X211.65Y-83.25
M16
G05
G00X211.65Y-99.7
M15
G01X211.65Y-102.3
M16
G05
G00X211.65Y-118.75
M15
G01X211.65Y-121.35
M16
G05
G00X211.65Y-137.8
M15
G01X211.65Y-140.4
M16
G05
G00X211.875Y-122.7
M15
G01X211.875Y-125.3
M16
G05
G00X211.975Y-85.7
M15
G01X211.975Y-88.3
M16
G05
G00X211.65Y-61.6
M15
G01X214.75Y-61.6
M16
G05
G00X211.65Y-64.25
M15
G01X214.75Y-64.25
M16
G05
G00X211.65Y-80.65
M15
G01X214.75Y-80.65
M16
G05
G00X211.65Y-83.3
M15
G01X214.75Y-83.3
M16
G05
G00X211.65Y-99.7
M15
G01X214.75Y-99.7
M16
G05
G00X211.65Y-102.35
M15
G01X214.75Y-102.35
M16
G05
G00X211.65Y-118.75
M15
G01X214.75Y-118.75
M16
G05
G00X211.65Y-121.4
M15
G01X214.75Y-121.4
M16
G05
G00X211.65Y-137.8
M15
G01X214.75Y-137.8
M16
G05
G00X211.65Y-140.45
M15
G01X214.75Y-140.45
M16
G05
G00X211.875Y-122.7
M15
G01X214.975Y-122.7
M16
G05
G00X211.875Y-125.35
M15
G01X214.975Y-125.35
M16
G05
G00X211.975Y-85.7
M15
G01X215.075Y-85.7
M16
G05
G00X211.975Y-88.35
M15
G01X215.075Y-88.35
M16
G05
G00X214.75Y-61.6
M15
G01X214.75Y-64.2
M16
G05
G00X214.75Y-80.65
M15
G01X214.75Y-83.25
M16
G05
G00X214.75Y-99.7
M15
G01X214.75Y-102.3
M16
G05
G00X214.75Y-118.75
M15
G01X214.75Y-121.35
M16
G05
G00X214.75Y-137.8
M15
G01X214.75Y-140.4
M16
G05
G00X214.975Y-122.7
M15
G01X214.975Y-125.3
M16
G05
G00X215.075Y-85.7
M15
G01X215.075Y-88.3
M16
G05
T6
G00X98.675Y-116.875
M15
G01X99.125Y-116.875
M16
G05
G00X98.675Y-116.875
M15
G01X99.125Y-116.875
M16
G05
G00X101.975Y-124.575
M15
G01X102.425Y-124.575
M16
G05
G00X101.975Y-124.575
M15
G01X102.425Y-124.575
M16
G05
G00X117.725Y-56.225
M15
G01X118.175Y-56.225
M16
G05
G00X117.725Y-56.225
M15
G01X118.175Y-56.225
M16
G05
G00X117.725Y-75.275
M15
G01X118.175Y-75.275
M16
G05
G00X117.725Y-75.275
M15
G01X118.175Y-75.275
M16
G05
G00X117.725Y-113.375
M15
G01X118.175Y-113.375
M16
G05
G00X117.725Y-113.375
M15
G01X118.175Y-113.375
M16
G05
G00X117.75Y-94.325
M15
G01X118.2Y-94.325
M16
G05
G00X117.75Y-94.325
M15
G01X118.2Y-94.325
M16
G05
G00X127.3Y-111.925
M15
G01X127.75Y-111.925
M16
G05
G00X127.3Y-111.925
M15
G01X127.75Y-111.925
M16
G05
G00X136.775Y-53.725
M15
G01X137.225Y-53.725
M16
G05
G00X136.775Y-53.725
M15
G01X137.225Y-53.725
M16
G05
G00X136.775Y-110.875
M15
G01X137.225Y-110.875
M16
G05
G00X136.775Y-110.875
M15
G01X137.225Y-110.875
M16
G05
G00X136.8Y-72.775
M15
G01X137.25Y-72.775
M16
G05
G00X136.8Y-72.775
M15
G01X137.25Y-72.775
M16
G05
G00X136.8Y-91.8
M15
G01X137.25Y-91.8
M16
G05
G00X136.8Y-91.8
M15
G01X137.25Y-91.8
M16
G05
G00X143.425Y-58.475
M15
G01X143.875Y-58.475
M16
G05
G00X143.425Y-58.475
M15
G01X143.875Y-58.475
M16
G05
G00X146.2Y-110.875
M15
G01X146.65Y-110.875
M16
G05
G00X146.2Y-110.875
M15
G01X146.65Y-110.875
M16
G05
G00X155.825Y-51.225
M15
G01X156.275Y-51.225
M16
G05
G00X155.825Y-51.225
M15
G01X156.275Y-51.225
M16
G05
G00X155.825Y-70.275
M15
G01X156.275Y-70.275
M16
G05
G00X155.825Y-70.275
M15
G01X156.275Y-70.275
M16
G05
G00X155.825Y-89.325
M15
G01X156.275Y-89.325
M16
G05
G00X155.825Y-89.325
M15
G01X156.275Y-89.325
M16
G05
G00X155.85Y-108.375
M15
G01X156.3Y-108.375
M16
G05
G00X155.85Y-108.375
M15
G01X156.3Y-108.375
M16
G05
G00X174.875Y-74.975
M15
G01X175.325Y-74.975
M16
G05
G00X174.875Y-74.975
M15
G01X175.325Y-74.975
M16
G05
G00X174.875Y-94.025
M15
G01X175.325Y-94.025
M16
G05
G00X174.875Y-94.025
M15
G01X175.325Y-94.025
M16
G05
G00X174.875Y-113.075
M15
G01X175.325Y-113.075
M16
G05
G00X174.875Y-113.075
M15
G01X175.325Y-113.075
M16
G05
G00X174.9Y-55.925
M15
G01X175.35Y-55.925
M16
G05
G00X174.9Y-55.925
M15
G01X175.35Y-55.925
M16
G05
G00X182.725Y-60.525
M15
G01X183.175Y-60.525
M16
G05
G00X182.725Y-60.525
M15
G01X183.175Y-60.525
M16
G05
G00X193.925Y-62.9
M15
G01X194.375Y-62.9
M16
G05
G00X193.925Y-62.9
M15
G01X194.375Y-62.9
M16
G05
G00X193.925Y-81.975
M15
G01X194.375Y-81.975
M16
G05
G00X193.925Y-81.975
M15
G01X194.375Y-81.975
M16
G05
G00X193.925Y-101.025
M15
G01X194.375Y-101.025
M16
G05
G00X193.925Y-101.025
M15
G01X194.375Y-101.025
M16
G05
G00X193.925Y-120.075
M15
G01X194.375Y-120.075
M16
G05
G00X193.925Y-120.075
M15
G01X194.375Y-120.075
M16
G05
G00X193.95Y-139.125
M15
G01X194.4Y-139.125
M16
G05
G00X193.95Y-139.125
M15
G01X194.4Y-139.125
M16
G05
G00X212.975Y-62.925
M15
G01X213.425Y-62.925
M16
G05
G00X212.975Y-62.925
M15
G01X213.425Y-62.925
M16
G05
G00X212.975Y-81.975
M15
G01X213.425Y-81.975
M16
G05
G00X212.975Y-81.975
M15
G01X213.425Y-81.975
M16
G05
G00X212.975Y-101.025
M15
G01X213.425Y-101.025
M16
G05
G00X212.975Y-101.025
M15
G01X213.425Y-101.025
M16
G05
G00X212.975Y-120.075
M15
G01X213.425Y-120.075
M16
G05
G00X212.975Y-120.075
M15
G01X213.425Y-120.075
M16
G05
G00X212.975Y-139.125
M15
G01X213.425Y-139.125
M16
G05
G00X212.975Y-139.125
M15
G01X213.425Y-139.125
M16
G05
G00X213.2Y-124.025
M15
G01X213.65Y-124.025
M16
G05
G00X213.2Y-124.025
M15
G01X213.65Y-124.025
M16
G05
G00X213.3Y-87.025
M15
G01X213.75Y-87.025
M16
G05
G00X213.3Y-87.025
M15
G01X213.75Y-87.025
M16
G05
T0
M30
