%TF.GenerationSoftware,KiCad,Pcbnew,(6.0.4-0)*%
%TF.CreationDate,2022-11-26T17:45:56+09:00*%
%TF.ProjectId,KeyBall,4b657942-616c-46c2-9e6b-696361645f70,rev?*%
%TF.SameCoordinates,Original*%
%TF.FileFunction,Legend,Top*%
%TF.FilePolarity,Positive*%
%FSLAX46Y46*%
G04 Gerber Fmt 4.6, Leading zero omitted, Abs format (unit mm)*
G04 Created by KiCad (PCBNEW (6.0.4-0)) date 2022-11-26 17:45:56*
%MOMM*%
%LPD*%
G01*
G04 APERTURE LIST*
%ADD10C,0.125000*%
%ADD11C,0.150000*%
%ADD12C,0.120000*%
G04 APERTURE END LIST*
D10*
X148771428Y-105623809D02*
X148885714Y-105661904D01*
X149076190Y-105661904D01*
X149152380Y-105623809D01*
X149190476Y-105585714D01*
X149228571Y-105509523D01*
X149228571Y-105433333D01*
X149190476Y-105357142D01*
X149152380Y-105319047D01*
X149076190Y-105280952D01*
X148923809Y-105242857D01*
X148847619Y-105204761D01*
X148809523Y-105166666D01*
X148771428Y-105090476D01*
X148771428Y-105014285D01*
X148809523Y-104938095D01*
X148847619Y-104900000D01*
X148923809Y-104861904D01*
X149114285Y-104861904D01*
X149228571Y-104900000D01*
X150028571Y-105585714D02*
X149990476Y-105623809D01*
X149876190Y-105661904D01*
X149800000Y-105661904D01*
X149685714Y-105623809D01*
X149609523Y-105547619D01*
X149571428Y-105471428D01*
X149533333Y-105319047D01*
X149533333Y-105204761D01*
X149571428Y-105052380D01*
X149609523Y-104976190D01*
X149685714Y-104900000D01*
X149800000Y-104861904D01*
X149876190Y-104861904D01*
X149990476Y-104900000D01*
X150028571Y-104938095D01*
X150371428Y-105661904D02*
X150371428Y-104861904D01*
X150828571Y-105661904D02*
X150485714Y-105204761D01*
X150828571Y-104861904D02*
X150371428Y-105319047D01*
X157247619Y-104861904D02*
X156866666Y-104861904D01*
X156828571Y-105242857D01*
X156866666Y-105204761D01*
X156942857Y-105166666D01*
X157133333Y-105166666D01*
X157209523Y-105204761D01*
X157247619Y-105242857D01*
X157285714Y-105319047D01*
X157285714Y-105509523D01*
X157247619Y-105585714D01*
X157209523Y-105623809D01*
X157133333Y-105661904D01*
X156942857Y-105661904D01*
X156866666Y-105623809D01*
X156828571Y-105585714D01*
X157514285Y-104861904D02*
X157780952Y-105661904D01*
X158047619Y-104861904D01*
X162342857Y-108861904D02*
X162342857Y-108061904D01*
X162609523Y-108633333D01*
X162876190Y-108061904D01*
X162876190Y-108861904D01*
X163409523Y-108061904D02*
X163561904Y-108061904D01*
X163638095Y-108100000D01*
X163714285Y-108176190D01*
X163752380Y-108328571D01*
X163752380Y-108595238D01*
X163714285Y-108747619D01*
X163638095Y-108823809D01*
X163561904Y-108861904D01*
X163409523Y-108861904D01*
X163333333Y-108823809D01*
X163257142Y-108747619D01*
X163219047Y-108595238D01*
X163219047Y-108328571D01*
X163257142Y-108176190D01*
X163333333Y-108100000D01*
X163409523Y-108061904D01*
X164057142Y-108823809D02*
X164171428Y-108861904D01*
X164361904Y-108861904D01*
X164438095Y-108823809D01*
X164476190Y-108785714D01*
X164514285Y-108709523D01*
X164514285Y-108633333D01*
X164476190Y-108557142D01*
X164438095Y-108519047D01*
X164361904Y-108480952D01*
X164209523Y-108442857D01*
X164133333Y-108404761D01*
X164095238Y-108366666D01*
X164057142Y-108290476D01*
X164057142Y-108214285D01*
X164095238Y-108138095D01*
X164133333Y-108100000D01*
X164209523Y-108061904D01*
X164400000Y-108061904D01*
X164514285Y-108100000D01*
X164857142Y-108861904D02*
X164857142Y-108061904D01*
X150690476Y-108861904D02*
X150690476Y-108061904D01*
X151147619Y-108861904D01*
X151147619Y-108061904D01*
X151985714Y-108785714D02*
X151947619Y-108823809D01*
X151833333Y-108861904D01*
X151757142Y-108861904D01*
X151642857Y-108823809D01*
X151566666Y-108747619D01*
X151528571Y-108671428D01*
X151490476Y-108519047D01*
X151490476Y-108404761D01*
X151528571Y-108252380D01*
X151566666Y-108176190D01*
X151642857Y-108100000D01*
X151757142Y-108061904D01*
X151833333Y-108061904D01*
X151947619Y-108100000D01*
X151985714Y-108138095D01*
X152290476Y-108823809D02*
X152404761Y-108861904D01*
X152595238Y-108861904D01*
X152671428Y-108823809D01*
X152709523Y-108785714D01*
X152747619Y-108709523D01*
X152747619Y-108633333D01*
X152709523Y-108557142D01*
X152671428Y-108519047D01*
X152595238Y-108480952D01*
X152442857Y-108442857D01*
X152366666Y-108404761D01*
X152328571Y-108366666D01*
X152290476Y-108290476D01*
X152290476Y-108214285D01*
X152328571Y-108138095D01*
X152366666Y-108100000D01*
X152442857Y-108061904D01*
X152633333Y-108061904D01*
X152747619Y-108100000D01*
X159390476Y-104900000D02*
X159314285Y-104861904D01*
X159200000Y-104861904D01*
X159085714Y-104900000D01*
X159009523Y-104976190D01*
X158971428Y-105052380D01*
X158933333Y-105204761D01*
X158933333Y-105319047D01*
X158971428Y-105471428D01*
X159009523Y-105547619D01*
X159085714Y-105623809D01*
X159200000Y-105661904D01*
X159276190Y-105661904D01*
X159390476Y-105623809D01*
X159428571Y-105585714D01*
X159428571Y-105319047D01*
X159276190Y-105319047D01*
X159771428Y-105661904D02*
X159771428Y-104861904D01*
X160228571Y-105661904D01*
X160228571Y-104861904D01*
X160609523Y-105661904D02*
X160609523Y-104861904D01*
X160800000Y-104861904D01*
X160914285Y-104900000D01*
X160990476Y-104976190D01*
X161028571Y-105052380D01*
X161066666Y-105204761D01*
X161066666Y-105319047D01*
X161028571Y-105471428D01*
X160990476Y-105547619D01*
X160914285Y-105623809D01*
X160800000Y-105661904D01*
X160609523Y-105661904D01*
X154290476Y-104900000D02*
X154214285Y-104861904D01*
X154100000Y-104861904D01*
X153985714Y-104900000D01*
X153909523Y-104976190D01*
X153871428Y-105052380D01*
X153833333Y-105204761D01*
X153833333Y-105319047D01*
X153871428Y-105471428D01*
X153909523Y-105547619D01*
X153985714Y-105623809D01*
X154100000Y-105661904D01*
X154176190Y-105661904D01*
X154290476Y-105623809D01*
X154328571Y-105585714D01*
X154328571Y-105319047D01*
X154176190Y-105319047D01*
X154671428Y-105661904D02*
X154671428Y-104861904D01*
X155128571Y-105661904D01*
X155128571Y-104861904D01*
X155509523Y-105661904D02*
X155509523Y-104861904D01*
X155700000Y-104861904D01*
X155814285Y-104900000D01*
X155890476Y-104976190D01*
X155928571Y-105052380D01*
X155966666Y-105204761D01*
X155966666Y-105319047D01*
X155928571Y-105471428D01*
X155890476Y-105547619D01*
X155814285Y-105623809D01*
X155700000Y-105661904D01*
X155509523Y-105661904D01*
X165642857Y-108861904D02*
X165642857Y-108061904D01*
X165909523Y-108633333D01*
X166176190Y-108061904D01*
X166176190Y-108861904D01*
X166557142Y-108861904D02*
X166557142Y-108061904D01*
X166900000Y-108823809D02*
X167014285Y-108861904D01*
X167204761Y-108861904D01*
X167280952Y-108823809D01*
X167319047Y-108785714D01*
X167357142Y-108709523D01*
X167357142Y-108633333D01*
X167319047Y-108557142D01*
X167280952Y-108519047D01*
X167204761Y-108480952D01*
X167052380Y-108442857D01*
X166976190Y-108404761D01*
X166938095Y-108366666D01*
X166900000Y-108290476D01*
X166900000Y-108214285D01*
X166938095Y-108138095D01*
X166976190Y-108100000D01*
X167052380Y-108061904D01*
X167242857Y-108061904D01*
X167357142Y-108100000D01*
X167852380Y-108061904D02*
X168004761Y-108061904D01*
X168080952Y-108100000D01*
X168157142Y-108176190D01*
X168195238Y-108328571D01*
X168195238Y-108595238D01*
X168157142Y-108747619D01*
X168080952Y-108823809D01*
X168004761Y-108861904D01*
X167852380Y-108861904D01*
X167776190Y-108823809D01*
X167700000Y-108747619D01*
X167661904Y-108595238D01*
X167661904Y-108328571D01*
X167700000Y-108176190D01*
X167776190Y-108100000D01*
X167852380Y-108061904D01*
D11*
%TO.C,C6*%
X167687142Y-98166666D02*
X167734761Y-98214285D01*
X167782380Y-98357142D01*
X167782380Y-98452380D01*
X167734761Y-98595238D01*
X167639523Y-98690476D01*
X167544285Y-98738095D01*
X167353809Y-98785714D01*
X167210952Y-98785714D01*
X167020476Y-98738095D01*
X166925238Y-98690476D01*
X166830000Y-98595238D01*
X166782380Y-98452380D01*
X166782380Y-98357142D01*
X166830000Y-98214285D01*
X166877619Y-98166666D01*
X166782380Y-97309523D02*
X166782380Y-97500000D01*
X166830000Y-97595238D01*
X166877619Y-97642857D01*
X167020476Y-97738095D01*
X167210952Y-97785714D01*
X167591904Y-97785714D01*
X167687142Y-97738095D01*
X167734761Y-97690476D01*
X167782380Y-97595238D01*
X167782380Y-97404761D01*
X167734761Y-97309523D01*
X167687142Y-97261904D01*
X167591904Y-97214285D01*
X167353809Y-97214285D01*
X167258571Y-97261904D01*
X167210952Y-97309523D01*
X167163333Y-97404761D01*
X167163333Y-97595238D01*
X167210952Y-97690476D01*
X167258571Y-97738095D01*
X167353809Y-97785714D01*
%TO.C,R8*%
X147922380Y-97766666D02*
X147446190Y-98100000D01*
X147922380Y-98338095D02*
X146922380Y-98338095D01*
X146922380Y-97957142D01*
X146970000Y-97861904D01*
X147017619Y-97814285D01*
X147112857Y-97766666D01*
X147255714Y-97766666D01*
X147350952Y-97814285D01*
X147398571Y-97861904D01*
X147446190Y-97957142D01*
X147446190Y-98338095D01*
X147350952Y-97195238D02*
X147303333Y-97290476D01*
X147255714Y-97338095D01*
X147160476Y-97385714D01*
X147112857Y-97385714D01*
X147017619Y-97338095D01*
X146970000Y-97290476D01*
X146922380Y-97195238D01*
X146922380Y-97004761D01*
X146970000Y-96909523D01*
X147017619Y-96861904D01*
X147112857Y-96814285D01*
X147160476Y-96814285D01*
X147255714Y-96861904D01*
X147303333Y-96909523D01*
X147350952Y-97004761D01*
X147350952Y-97195238D01*
X147398571Y-97290476D01*
X147446190Y-97338095D01*
X147541428Y-97385714D01*
X147731904Y-97385714D01*
X147827142Y-97338095D01*
X147874761Y-97290476D01*
X147922380Y-97195238D01*
X147922380Y-97004761D01*
X147874761Y-96909523D01*
X147827142Y-96861904D01*
X147731904Y-96814285D01*
X147541428Y-96814285D01*
X147446190Y-96861904D01*
X147398571Y-96909523D01*
X147350952Y-97004761D01*
%TO.C,C5*%
X167757142Y-91341666D02*
X167804761Y-91389285D01*
X167852380Y-91532142D01*
X167852380Y-91627380D01*
X167804761Y-91770238D01*
X167709523Y-91865476D01*
X167614285Y-91913095D01*
X167423809Y-91960714D01*
X167280952Y-91960714D01*
X167090476Y-91913095D01*
X166995238Y-91865476D01*
X166900000Y-91770238D01*
X166852380Y-91627380D01*
X166852380Y-91532142D01*
X166900000Y-91389285D01*
X166947619Y-91341666D01*
X166852380Y-90436904D02*
X166852380Y-90913095D01*
X167328571Y-90960714D01*
X167280952Y-90913095D01*
X167233333Y-90817857D01*
X167233333Y-90579761D01*
X167280952Y-90484523D01*
X167328571Y-90436904D01*
X167423809Y-90389285D01*
X167661904Y-90389285D01*
X167757142Y-90436904D01*
X167804761Y-90484523D01*
X167852380Y-90579761D01*
X167852380Y-90817857D01*
X167804761Y-90913095D01*
X167757142Y-90960714D01*
%TO.C,C2*%
X162333333Y-104357142D02*
X162285714Y-104404761D01*
X162142857Y-104452380D01*
X162047619Y-104452380D01*
X161904761Y-104404761D01*
X161809523Y-104309523D01*
X161761904Y-104214285D01*
X161714285Y-104023809D01*
X161714285Y-103880952D01*
X161761904Y-103690476D01*
X161809523Y-103595238D01*
X161904761Y-103500000D01*
X162047619Y-103452380D01*
X162142857Y-103452380D01*
X162285714Y-103500000D01*
X162333333Y-103547619D01*
X162714285Y-103547619D02*
X162761904Y-103500000D01*
X162857142Y-103452380D01*
X163095238Y-103452380D01*
X163190476Y-103500000D01*
X163238095Y-103547619D01*
X163285714Y-103642857D01*
X163285714Y-103738095D01*
X163238095Y-103880952D01*
X162666666Y-104452380D01*
X163285714Y-104452380D01*
%TO.C,R9*%
X147952380Y-93866666D02*
X147476190Y-94200000D01*
X147952380Y-94438095D02*
X146952380Y-94438095D01*
X146952380Y-94057142D01*
X147000000Y-93961904D01*
X147047619Y-93914285D01*
X147142857Y-93866666D01*
X147285714Y-93866666D01*
X147380952Y-93914285D01*
X147428571Y-93961904D01*
X147476190Y-94057142D01*
X147476190Y-94438095D01*
X147952380Y-93390476D02*
X147952380Y-93200000D01*
X147904761Y-93104761D01*
X147857142Y-93057142D01*
X147714285Y-92961904D01*
X147523809Y-92914285D01*
X147142857Y-92914285D01*
X147047619Y-92961904D01*
X147000000Y-93009523D01*
X146952380Y-93104761D01*
X146952380Y-93295238D01*
X147000000Y-93390476D01*
X147047619Y-93438095D01*
X147142857Y-93485714D01*
X147380952Y-93485714D01*
X147476190Y-93438095D01*
X147523809Y-93390476D01*
X147571428Y-93295238D01*
X147571428Y-93104761D01*
X147523809Y-93009523D01*
X147476190Y-92961904D01*
X147380952Y-92914285D01*
%TO.C,C1*%
X152133333Y-104357142D02*
X152085714Y-104404761D01*
X151942857Y-104452380D01*
X151847619Y-104452380D01*
X151704761Y-104404761D01*
X151609523Y-104309523D01*
X151561904Y-104214285D01*
X151514285Y-104023809D01*
X151514285Y-103880952D01*
X151561904Y-103690476D01*
X151609523Y-103595238D01*
X151704761Y-103500000D01*
X151847619Y-103452380D01*
X151942857Y-103452380D01*
X152085714Y-103500000D01*
X152133333Y-103547619D01*
X153085714Y-104452380D02*
X152514285Y-104452380D01*
X152800000Y-104452380D02*
X152800000Y-103452380D01*
X152704761Y-103595238D01*
X152609523Y-103690476D01*
X152514285Y-103738095D01*
%TO.C,R7*%
X147922380Y-89966666D02*
X147446190Y-90300000D01*
X147922380Y-90538095D02*
X146922380Y-90538095D01*
X146922380Y-90157142D01*
X146970000Y-90061904D01*
X147017619Y-90014285D01*
X147112857Y-89966666D01*
X147255714Y-89966666D01*
X147350952Y-90014285D01*
X147398571Y-90061904D01*
X147446190Y-90157142D01*
X147446190Y-90538095D01*
X146922380Y-89633333D02*
X146922380Y-88966666D01*
X147922380Y-89395238D01*
%TO.C,R10*%
X147922380Y-102142857D02*
X147446190Y-102476190D01*
X147922380Y-102714285D02*
X146922380Y-102714285D01*
X146922380Y-102333333D01*
X146970000Y-102238095D01*
X147017619Y-102190476D01*
X147112857Y-102142857D01*
X147255714Y-102142857D01*
X147350952Y-102190476D01*
X147398571Y-102238095D01*
X147446190Y-102333333D01*
X147446190Y-102714285D01*
X147922380Y-101190476D02*
X147922380Y-101761904D01*
X147922380Y-101476190D02*
X146922380Y-101476190D01*
X147065238Y-101571428D01*
X147160476Y-101666666D01*
X147208095Y-101761904D01*
X146922380Y-100571428D02*
X146922380Y-100476190D01*
X146970000Y-100380952D01*
X147017619Y-100333333D01*
X147112857Y-100285714D01*
X147303333Y-100238095D01*
X147541428Y-100238095D01*
X147731904Y-100285714D01*
X147827142Y-100333333D01*
X147874761Y-100380952D01*
X147922380Y-100476190D01*
X147922380Y-100571428D01*
X147874761Y-100666666D01*
X147827142Y-100714285D01*
X147731904Y-100761904D01*
X147541428Y-100809523D01*
X147303333Y-100809523D01*
X147112857Y-100761904D01*
X147017619Y-100714285D01*
X146970000Y-100666666D01*
X146922380Y-100571428D01*
%TO.C,C7*%
X167687142Y-94766666D02*
X167734761Y-94814285D01*
X167782380Y-94957142D01*
X167782380Y-95052380D01*
X167734761Y-95195238D01*
X167639523Y-95290476D01*
X167544285Y-95338095D01*
X167353809Y-95385714D01*
X167210952Y-95385714D01*
X167020476Y-95338095D01*
X166925238Y-95290476D01*
X166830000Y-95195238D01*
X166782380Y-95052380D01*
X166782380Y-94957142D01*
X166830000Y-94814285D01*
X166877619Y-94766666D01*
X166782380Y-94433333D02*
X166782380Y-93766666D01*
X167782380Y-94195238D01*
%TO.C,R11*%
X167782380Y-102042857D02*
X167306190Y-102376190D01*
X167782380Y-102614285D02*
X166782380Y-102614285D01*
X166782380Y-102233333D01*
X166830000Y-102138095D01*
X166877619Y-102090476D01*
X166972857Y-102042857D01*
X167115714Y-102042857D01*
X167210952Y-102090476D01*
X167258571Y-102138095D01*
X167306190Y-102233333D01*
X167306190Y-102614285D01*
X167782380Y-101090476D02*
X167782380Y-101661904D01*
X167782380Y-101376190D02*
X166782380Y-101376190D01*
X166925238Y-101471428D01*
X167020476Y-101566666D01*
X167068095Y-101661904D01*
X167782380Y-100138095D02*
X167782380Y-100709523D01*
X167782380Y-100423809D02*
X166782380Y-100423809D01*
X166925238Y-100519047D01*
X167020476Y-100614285D01*
X167068095Y-100709523D01*
%TO.C,C4*%
X165633333Y-104357142D02*
X165585714Y-104404761D01*
X165442857Y-104452380D01*
X165347619Y-104452380D01*
X165204761Y-104404761D01*
X165109523Y-104309523D01*
X165061904Y-104214285D01*
X165014285Y-104023809D01*
X165014285Y-103880952D01*
X165061904Y-103690476D01*
X165109523Y-103595238D01*
X165204761Y-103500000D01*
X165347619Y-103452380D01*
X165442857Y-103452380D01*
X165585714Y-103500000D01*
X165633333Y-103547619D01*
X166490476Y-103785714D02*
X166490476Y-104452380D01*
X166252380Y-103404761D02*
X166014285Y-104119047D01*
X166633333Y-104119047D01*
D12*
%TO.C,C6*%
X165390000Y-97859420D02*
X165390000Y-98140580D01*
X166410000Y-97859420D02*
X166410000Y-98140580D01*
%TO.C,U2*%
X150700000Y-111100000D02*
X148500000Y-111100000D01*
X150700000Y-108900000D02*
X147700000Y-108900000D01*
%TO.C,R2*%
X159746359Y-110520000D02*
X160053641Y-110520000D01*
X159746359Y-111280000D02*
X160053641Y-111280000D01*
%TO.C,R8*%
X149422500Y-97837258D02*
X149422500Y-97362742D01*
X148377500Y-97837258D02*
X148377500Y-97362742D01*
%TO.C,C5*%
X166410000Y-91315580D02*
X166410000Y-91034420D01*
X165390000Y-91315580D02*
X165390000Y-91034420D01*
%TO.C,C2*%
X162359420Y-104590000D02*
X162640580Y-104590000D01*
X162359420Y-105610000D02*
X162640580Y-105610000D01*
%TO.C,R9*%
X149422500Y-93462742D02*
X149422500Y-93937258D01*
X148377500Y-93462742D02*
X148377500Y-93937258D01*
%TO.C,C1*%
X152440580Y-104590000D02*
X152159420Y-104590000D01*
X152440580Y-105610000D02*
X152159420Y-105610000D01*
%TO.C,U3*%
X164300000Y-108800000D02*
X166500000Y-108800000D01*
X164300000Y-111000000D02*
X167300000Y-111000000D01*
%TO.C,R7*%
X149422500Y-90037258D02*
X149422500Y-89562742D01*
X148377500Y-90037258D02*
X148377500Y-89562742D01*
%TO.C,R10*%
X148377500Y-101737258D02*
X148377500Y-101262742D01*
X149422500Y-101737258D02*
X149422500Y-101262742D01*
%TO.C,C7*%
X165390000Y-94459420D02*
X165390000Y-94740580D01*
X166410000Y-94459420D02*
X166410000Y-94740580D01*
%TO.C,R11*%
X165377500Y-101162742D02*
X165377500Y-101637258D01*
X166422500Y-101162742D02*
X166422500Y-101637258D01*
%TO.C,U1*%
X156500000Y-108340000D02*
X154700000Y-108340000D01*
X156500000Y-111460000D02*
X157300000Y-111460000D01*
X156500000Y-108340000D02*
X157300000Y-108340000D01*
X156500000Y-111460000D02*
X155700000Y-111460000D01*
%TO.C,R4*%
X152477500Y-109662742D02*
X152477500Y-110137258D01*
X153522500Y-109662742D02*
X153522500Y-110137258D01*
%TO.C,C3*%
X160007836Y-109260000D02*
X159792164Y-109260000D01*
X160007836Y-108540000D02*
X159792164Y-108540000D01*
%TO.C,C4*%
X166040580Y-104590000D02*
X165759420Y-104590000D01*
X166040580Y-105610000D02*
X165759420Y-105610000D01*
%TO.C,R6*%
X161677500Y-109662742D02*
X161677500Y-110137258D01*
X162722500Y-109662742D02*
X162722500Y-110137258D01*
%TO.C,R1*%
X160053641Y-109520000D02*
X159746359Y-109520000D01*
X160053641Y-110280000D02*
X159746359Y-110280000D01*
%TD*%
M02*
