M48
; DRILL file {KiCad (6.0.4-0)} date 
; FORMAT={-:-/ absolute / metric / decimal}
; #@! TF.CreationDate,2022-11-26T17:50:26+09:00
; #@! TF.GenerationSoftware,Kicad,Pcbnew,(6.0.4-0)
; #@! TF.FileFunction,Plated,1,2,PTH
FMAT,2
METRIC
; #@! TA.AperFunction,Plated,PTH,ViaDrill
T1C0.300
; #@! TA.AperFunction,Plated,PTH,ComponentDrill
T2C0.700
; #@! TA.AperFunction,Plated,PTH,ComponentDrill
T3C1.000
%
G90
G05
T1
X148.5Y-104.6
X149.394Y-109.974
X149.75Y-108.4
X150.293Y-93.607
X151.8Y-108.4
X154.175Y-105.2
X160.7Y-104.6
X160.7Y-105.5
X163.15Y-108.8
X166.8Y-99.7
X166.921Y-108.088
T2
X152.05Y-89.0
X152.05Y-90.78
X152.05Y-92.56
X152.05Y-94.34
X152.05Y-96.12
X152.05Y-97.9
X152.05Y-99.68
X152.05Y-101.46
X162.75Y-88.11
X162.75Y-89.89
X162.75Y-91.67
X162.75Y-93.45
X162.75Y-95.23
X162.75Y-97.01
X162.75Y-98.79
X162.75Y-100.57
T3
X149.8Y-107.0
X152.34Y-107.0
X154.88Y-107.0
X157.42Y-107.0
X159.96Y-107.0
X162.5Y-107.0
X165.04Y-107.0
T0
M30
