%TF.GenerationSoftware,KiCad,Pcbnew,(6.0.4-0)*%
%TF.CreationDate,2022-11-26T17:45:56+09:00*%
%TF.ProjectId,KeyBall,4b657942-616c-46c2-9e6b-696361645f70,rev?*%
%TF.SameCoordinates,Original*%
%TF.FileFunction,Copper,L2,Bot*%
%TF.FilePolarity,Positive*%
%FSLAX46Y46*%
G04 Gerber Fmt 4.6, Leading zero omitted, Abs format (unit mm)*
G04 Created by KiCad (PCBNEW (6.0.4-0)) date 2022-11-26 17:45:56*
%MOMM*%
%LPD*%
G01*
G04 APERTURE LIST*
%TA.AperFunction,ComponentPad*%
%ADD10R,1.700000X1.700000*%
%TD*%
%TA.AperFunction,ComponentPad*%
%ADD11O,1.700000X1.700000*%
%TD*%
%TA.AperFunction,ComponentPad*%
%ADD12R,1.400000X1.400000*%
%TD*%
%TA.AperFunction,ComponentPad*%
%ADD13C,1.400000*%
%TD*%
%TA.AperFunction,SMDPad,CuDef*%
%ADD14C,1.000000*%
%TD*%
%TA.AperFunction,ViaPad*%
%ADD15C,0.500000*%
%TD*%
%TA.AperFunction,Conductor*%
%ADD16C,0.200000*%
%TD*%
%TA.AperFunction,Conductor*%
%ADD17C,0.250000*%
%TD*%
G04 APERTURE END LIST*
D10*
%TO.P,J1,1,Pin_1*%
%TO.N,/SCLK_5*%
X149800000Y-107000000D03*
D11*
%TO.P,J1,2,Pin_2*%
%TO.N,/NCS_5*%
X152340000Y-107000000D03*
%TO.P,J1,3,Pin_3*%
%TO.N,GND*%
X154880000Y-107000000D03*
%TO.P,J1,4,Pin_4*%
%TO.N,/5V*%
X157420000Y-107000000D03*
%TO.P,J1,5,Pin_5*%
%TO.N,GND*%
X159960000Y-107000000D03*
%TO.P,J1,6,Pin_6*%
%TO.N,/MOSI_5*%
X162500000Y-107000000D03*
%TO.P,J1,7,Pin_7*%
%TO.N,/MISO_5*%
X165040000Y-107000000D03*
%TD*%
D12*
%TO.P,U4,1,NC*%
%TO.N,unconnected-(U4-Pad1)*%
X162750000Y-88110000D03*
D13*
%TO.P,U4,2,NC*%
%TO.N,unconnected-(U4-Pad2)*%
X162750000Y-89890000D03*
%TO.P,U4,3,VDDPIX*%
%TO.N,Net-(C5-Pad1)*%
X162750000Y-91670000D03*
%TO.P,U4,4,VDD*%
%TO.N,/1.9V*%
X162750000Y-93450000D03*
%TO.P,U4,5,VDDIO*%
%TO.N,Net-(R11-Pad2)*%
X162750000Y-95230000D03*
%TO.P,U4,6,NC*%
%TO.N,unconnected-(U4-Pad6)*%
X162750000Y-97010000D03*
%TO.P,U4,7,NRESET*%
%TO.N,Net-(R10-Pad2)*%
X162750000Y-98790000D03*
%TO.P,U4,8,GND*%
%TO.N,GND*%
X162750000Y-100570000D03*
%TO.P,U4,9,MOTION*%
%TO.N,unconnected-(U4-Pad9)*%
X152050000Y-101460000D03*
%TO.P,U4,10,SCLK*%
%TO.N,/SCLK*%
X152050000Y-99680000D03*
%TO.P,U4,11,MOSI*%
%TO.N,/MOSI*%
X152050000Y-97900000D03*
%TO.P,U4,12,MISO*%
%TO.N,/MISO*%
X152050000Y-96120000D03*
%TO.P,U4,13,NCS*%
%TO.N,Net-(R7-Pad2)*%
X152050000Y-94340000D03*
%TO.P,U4,14,NC*%
%TO.N,unconnected-(U4-Pad14)*%
X152050000Y-92560000D03*
%TO.P,U4,15,LED_P*%
%TO.N,Net-(R8-Pad2)*%
X152050000Y-90780000D03*
%TO.P,U4,16,NC*%
%TO.N,unconnected-(U4-Pad16)*%
X152050000Y-89000000D03*
%TD*%
D14*
%TO.P,P1,1,Pin_1*%
%TO.N,/1.9V*%
X164700000Y-88100000D03*
%TD*%
D15*
%TO.N,/5V*%
X160700000Y-105500000D03*
X151800000Y-108400000D03*
X154175500Y-105200000D03*
%TO.N,GND*%
X160700000Y-104600000D03*
X149394008Y-109974011D03*
%TO.N,/NCS_5*%
X148500000Y-104600000D03*
%TO.N,Net-(R8-Pad2)*%
X150292701Y-93607299D03*
%TO.N,Net-(R11-Pad2)*%
X166800000Y-99700000D03*
%TO.N,/SCLK*%
X149750500Y-108400000D03*
%TO.N,/MISO*%
X166920905Y-108087910D03*
%TO.N,/MOSI*%
X163150500Y-108800000D03*
%TD*%
D16*
%TO.N,/5V*%
X151800000Y-108400000D02*
X153100000Y-108400000D01*
X158920000Y-105500000D02*
X157420000Y-107000000D01*
X154500000Y-105500000D02*
X155920000Y-105500000D01*
X155920000Y-105500000D02*
X157420000Y-107000000D01*
X154200000Y-105200000D02*
X154500000Y-105500000D01*
X160700000Y-105500000D02*
X158920000Y-105500000D01*
X153600000Y-106400000D02*
X154500000Y-105500000D01*
X153600000Y-107900000D02*
X153600000Y-106400000D01*
X153100000Y-108400000D02*
X153600000Y-107900000D01*
%TO.N,GND*%
X163700000Y-101520000D02*
X162750000Y-100570000D01*
X162530212Y-110200000D02*
X163700000Y-109030212D01*
X163700000Y-109030212D02*
X163700000Y-101520000D01*
X160700000Y-104600000D02*
X161000000Y-104600000D01*
X160300000Y-107000000D02*
X159960000Y-107000000D01*
X149619997Y-110200000D02*
X162530212Y-110200000D01*
X149394008Y-109974011D02*
X149619997Y-110200000D01*
X159960000Y-107000000D02*
X160400000Y-107000000D01*
X161850000Y-105450000D02*
X160300000Y-107000000D01*
X161000000Y-104600000D02*
X161850000Y-105450000D01*
%TO.N,/1.9V*%
X164700000Y-88100000D02*
X164700000Y-91500000D01*
X164700000Y-91500000D02*
X162750000Y-93450000D01*
%TO.N,/NCS_5*%
X152340000Y-107000000D02*
X149940000Y-104600000D01*
X149940000Y-104600000D02*
X148500000Y-104600000D01*
%TO.N,Net-(R8-Pad2)*%
X150292701Y-92537299D02*
X152050000Y-90780000D01*
X150292701Y-93607299D02*
X150292701Y-92537299D01*
%TO.N,Net-(R11-Pad2)*%
X162750000Y-95230000D02*
X166800000Y-99280000D01*
X166800000Y-99280000D02*
X166800000Y-99700000D01*
%TO.N,/SCLK*%
X149750500Y-108400000D02*
X148850978Y-108400000D01*
X147775489Y-107324511D02*
X147775489Y-103954511D01*
X148850978Y-108400000D02*
X147775489Y-107324511D01*
X147775489Y-103954511D02*
X152050000Y-99680000D01*
%TO.N,/MISO*%
X166920905Y-108087910D02*
X166920905Y-108529106D01*
X147800000Y-110900000D02*
X146876449Y-109976449D01*
D17*
X164550011Y-110900000D02*
X147800000Y-110900000D01*
D16*
X166920905Y-108529106D02*
X164550011Y-110900000D01*
X146876449Y-101293551D02*
X152050000Y-96120000D01*
X146876449Y-109976449D02*
X146876449Y-101293551D01*
%TO.N,/MOSI*%
X162525989Y-109424511D02*
X148624511Y-109424511D01*
X163150500Y-108800000D02*
X162525989Y-109424511D01*
X147325969Y-108125969D02*
X147325969Y-102624031D01*
X147325969Y-102624031D02*
X152050000Y-97900000D01*
X148624511Y-109424511D02*
X147325969Y-108125969D01*
%TD*%
%TA.AperFunction,Conductor*%
%TO.N,GND*%
G36*
X163852026Y-107675144D02*
G01*
X163879875Y-107706994D01*
X163939987Y-107805088D01*
X164086250Y-107973938D01*
X164258126Y-108116632D01*
X164451000Y-108229338D01*
X164659692Y-108309030D01*
X164664760Y-108310061D01*
X164664763Y-108310062D01*
X164759862Y-108329410D01*
X164878597Y-108353567D01*
X164883772Y-108353757D01*
X164883774Y-108353757D01*
X165096673Y-108361564D01*
X165096677Y-108361564D01*
X165101837Y-108361753D01*
X165106957Y-108361097D01*
X165106959Y-108361097D01*
X165318288Y-108334025D01*
X165318289Y-108334025D01*
X165323416Y-108333368D01*
X165328366Y-108331883D01*
X165532429Y-108270661D01*
X165532434Y-108270659D01*
X165537384Y-108269174D01*
X165737994Y-108170896D01*
X165919860Y-108041173D01*
X165923517Y-108037529D01*
X165923523Y-108037524D01*
X165944902Y-108016219D01*
X166007273Y-107982302D01*
X166078080Y-107987490D01*
X166134841Y-108030136D01*
X166159241Y-108093173D01*
X166174286Y-108246609D01*
X166176509Y-108253291D01*
X166176510Y-108253297D01*
X166191800Y-108299261D01*
X166194322Y-108370212D01*
X166161336Y-108428126D01*
X164359867Y-110229595D01*
X164297555Y-110263621D01*
X164270772Y-110266500D01*
X162707895Y-110266500D01*
X162639774Y-110246498D01*
X162593281Y-110192842D01*
X162583177Y-110122568D01*
X162612671Y-110057988D01*
X162675286Y-110018793D01*
X162676653Y-110018427D01*
X162684840Y-110017349D01*
X162832865Y-109956035D01*
X162928051Y-109882996D01*
X162928058Y-109882991D01*
X162928064Y-109882985D01*
X162953423Y-109863526D01*
X162959976Y-109858498D01*
X162979438Y-109833135D01*
X162990304Y-109820745D01*
X163086649Y-109724400D01*
X163227120Y-109583928D01*
X163290882Y-109549596D01*
X163296963Y-109548348D01*
X163303983Y-109547709D01*
X163329247Y-109539500D01*
X163459123Y-109497301D01*
X163459126Y-109497300D01*
X163465822Y-109495124D01*
X163611990Y-109407990D01*
X163617084Y-109403139D01*
X163617088Y-109403136D01*
X163684333Y-109339099D01*
X163735221Y-109290639D01*
X163829391Y-109148902D01*
X163889819Y-108989825D01*
X163913501Y-108821313D01*
X163913799Y-108800000D01*
X163894831Y-108630892D01*
X163838868Y-108470189D01*
X163832883Y-108460610D01*
X163810920Y-108425464D01*
X163748692Y-108325879D01*
X163741926Y-108319065D01*
X163677408Y-108254095D01*
X163628786Y-108205132D01*
X163574839Y-108170896D01*
X163509219Y-108129252D01*
X163462420Y-108075863D01*
X163451915Y-108005648D01*
X163481039Y-107940900D01*
X163487794Y-107933616D01*
X163534430Y-107887144D01*
X163534440Y-107887132D01*
X163538096Y-107883489D01*
X163668453Y-107702077D01*
X163669776Y-107703028D01*
X163716645Y-107659857D01*
X163786580Y-107647625D01*
X163852026Y-107675144D01*
G37*
%TD.AperFunction*%
%TA.AperFunction,Conductor*%
G36*
X155076121Y-106766002D02*
G01*
X155122614Y-106819658D01*
X155134000Y-106872000D01*
X155134000Y-108318517D01*
X155138064Y-108332359D01*
X155151478Y-108334393D01*
X155158184Y-108333534D01*
X155168262Y-108331392D01*
X155372255Y-108270191D01*
X155381842Y-108266433D01*
X155573095Y-108172739D01*
X155581945Y-108167464D01*
X155755328Y-108043792D01*
X155763200Y-108037139D01*
X155914052Y-107886812D01*
X155920730Y-107878965D01*
X156048022Y-107701819D01*
X156049279Y-107702722D01*
X156096373Y-107659362D01*
X156166311Y-107647145D01*
X156231751Y-107674678D01*
X156259579Y-107706511D01*
X156319987Y-107805088D01*
X156466250Y-107973938D01*
X156638126Y-108116632D01*
X156831000Y-108229338D01*
X157039692Y-108309030D01*
X157044760Y-108310061D01*
X157044763Y-108310062D01*
X157139862Y-108329410D01*
X157258597Y-108353567D01*
X157263772Y-108353757D01*
X157263774Y-108353757D01*
X157476673Y-108361564D01*
X157476677Y-108361564D01*
X157481837Y-108361753D01*
X157486957Y-108361097D01*
X157486959Y-108361097D01*
X157698288Y-108334025D01*
X157698289Y-108334025D01*
X157703416Y-108333368D01*
X157708366Y-108331883D01*
X157912429Y-108270661D01*
X157912434Y-108270659D01*
X157917384Y-108269174D01*
X158117994Y-108170896D01*
X158299860Y-108041173D01*
X158324902Y-108016219D01*
X158403190Y-107938203D01*
X158458096Y-107883489D01*
X158588453Y-107702077D01*
X158589640Y-107702930D01*
X158636960Y-107659362D01*
X158706897Y-107647145D01*
X158772338Y-107674678D01*
X158800166Y-107706511D01*
X158857694Y-107800388D01*
X158863777Y-107808699D01*
X159003213Y-107969667D01*
X159010580Y-107976883D01*
X159174434Y-108112916D01*
X159182881Y-108118831D01*
X159366756Y-108226279D01*
X159376042Y-108230729D01*
X159575001Y-108306703D01*
X159584899Y-108309579D01*
X159688250Y-108330606D01*
X159702299Y-108329410D01*
X159706000Y-108319065D01*
X159706000Y-106872000D01*
X159726002Y-106803879D01*
X159779658Y-106757386D01*
X159832000Y-106746000D01*
X160088000Y-106746000D01*
X160156121Y-106766002D01*
X160202614Y-106819658D01*
X160214000Y-106872000D01*
X160214000Y-108318517D01*
X160218064Y-108332359D01*
X160231478Y-108334393D01*
X160238184Y-108333534D01*
X160248262Y-108331392D01*
X160452255Y-108270191D01*
X160461842Y-108266433D01*
X160653095Y-108172739D01*
X160661945Y-108167464D01*
X160835328Y-108043792D01*
X160843200Y-108037139D01*
X160994052Y-107886812D01*
X161000730Y-107878965D01*
X161128022Y-107701819D01*
X161129279Y-107702722D01*
X161176373Y-107659362D01*
X161246311Y-107647145D01*
X161311751Y-107674678D01*
X161339579Y-107706511D01*
X161399987Y-107805088D01*
X161546250Y-107973938D01*
X161718126Y-108116632D01*
X161911000Y-108229338D01*
X162119692Y-108309030D01*
X162124760Y-108310061D01*
X162124763Y-108310062D01*
X162244354Y-108334393D01*
X162338597Y-108353567D01*
X162341669Y-108353680D01*
X162406381Y-108381368D01*
X162446193Y-108440152D01*
X162447903Y-108511128D01*
X162444588Y-108521648D01*
X162431103Y-108558699D01*
X162408603Y-108620516D01*
X162405213Y-108647348D01*
X162376833Y-108712421D01*
X162369303Y-108720649D01*
X162310844Y-108779107D01*
X162248531Y-108813132D01*
X162221749Y-108816011D01*
X153848728Y-108816011D01*
X153780607Y-108796009D01*
X153734114Y-108742353D01*
X153724010Y-108672079D01*
X153753504Y-108607499D01*
X153759633Y-108600916D01*
X153996234Y-108364315D01*
X154008625Y-108353448D01*
X154027437Y-108339013D01*
X154033987Y-108333987D01*
X154058474Y-108302075D01*
X154058478Y-108302071D01*
X154082580Y-108270661D01*
X154101678Y-108245772D01*
X154159016Y-108203905D01*
X154229887Y-108199683D01*
X154265213Y-108213690D01*
X154286755Y-108226278D01*
X154296042Y-108230729D01*
X154495001Y-108306703D01*
X154504899Y-108309579D01*
X154608250Y-108330606D01*
X154622299Y-108329410D01*
X154626000Y-108319065D01*
X154626000Y-106872000D01*
X154646002Y-106803879D01*
X154699658Y-106757386D01*
X154752000Y-106746000D01*
X155008000Y-106746000D01*
X155076121Y-106766002D01*
G37*
%TD.AperFunction*%
%TA.AperFunction,Conductor*%
G36*
X167833621Y-87528502D02*
G01*
X167880114Y-87582158D01*
X167891500Y-87634500D01*
X167891500Y-107823589D01*
X167871498Y-107891710D01*
X167817842Y-107938203D01*
X167747568Y-107948307D01*
X167682988Y-107918813D01*
X167646509Y-107865026D01*
X167624104Y-107800688D01*
X167609273Y-107758099D01*
X167603288Y-107748520D01*
X167555542Y-107672113D01*
X167519097Y-107613789D01*
X167399191Y-107493042D01*
X167255513Y-107401861D01*
X167095205Y-107344778D01*
X166926234Y-107324630D01*
X166919231Y-107325366D01*
X166919230Y-107325366D01*
X166764006Y-107341680D01*
X166764002Y-107341681D01*
X166756998Y-107342417D01*
X166750327Y-107344688D01*
X166602578Y-107394985D01*
X166602575Y-107394986D01*
X166595908Y-107397256D01*
X166589909Y-107400946D01*
X166589906Y-107400948D01*
X166561950Y-107418147D01*
X166493449Y-107436806D01*
X166425735Y-107415468D01*
X166380306Y-107360908D01*
X166373162Y-107288173D01*
X166372370Y-107288069D01*
X166372818Y-107284670D01*
X166372818Y-107284668D01*
X166401529Y-107066590D01*
X166403156Y-107000000D01*
X166384852Y-106777361D01*
X166330431Y-106560702D01*
X166241354Y-106355840D01*
X166184616Y-106268136D01*
X166122822Y-106172617D01*
X166122820Y-106172614D01*
X166120014Y-106168277D01*
X165969670Y-106003051D01*
X165965619Y-105999852D01*
X165965615Y-105999848D01*
X165798414Y-105867800D01*
X165798410Y-105867798D01*
X165794359Y-105864598D01*
X165771897Y-105852198D01*
X165686676Y-105805154D01*
X165598789Y-105756638D01*
X165593920Y-105754914D01*
X165593916Y-105754912D01*
X165393087Y-105683795D01*
X165393083Y-105683794D01*
X165388212Y-105682069D01*
X165383119Y-105681162D01*
X165383116Y-105681161D01*
X165173373Y-105643800D01*
X165173367Y-105643799D01*
X165168284Y-105642894D01*
X165094452Y-105641992D01*
X164950081Y-105640228D01*
X164950079Y-105640228D01*
X164944911Y-105640165D01*
X164724091Y-105673955D01*
X164511756Y-105743357D01*
X164313607Y-105846507D01*
X164309474Y-105849610D01*
X164309471Y-105849612D01*
X164139100Y-105977530D01*
X164134965Y-105980635D01*
X164116605Y-105999848D01*
X163997865Y-106124102D01*
X163980629Y-106142138D01*
X163873201Y-106299621D01*
X163818293Y-106344621D01*
X163747768Y-106352792D01*
X163684021Y-106321538D01*
X163663324Y-106297054D01*
X163582822Y-106172617D01*
X163582820Y-106172614D01*
X163580014Y-106168277D01*
X163429670Y-106003051D01*
X163425619Y-105999852D01*
X163425615Y-105999848D01*
X163258414Y-105867800D01*
X163258410Y-105867798D01*
X163254359Y-105864598D01*
X163231897Y-105852198D01*
X163146676Y-105805154D01*
X163058789Y-105756638D01*
X163053920Y-105754914D01*
X163053916Y-105754912D01*
X162853087Y-105683795D01*
X162853083Y-105683794D01*
X162848212Y-105682069D01*
X162843119Y-105681162D01*
X162843116Y-105681161D01*
X162633373Y-105643800D01*
X162633367Y-105643799D01*
X162628284Y-105642894D01*
X162554452Y-105641992D01*
X162410081Y-105640228D01*
X162410079Y-105640228D01*
X162404911Y-105640165D01*
X162184091Y-105673955D01*
X161971756Y-105743357D01*
X161773607Y-105846507D01*
X161769474Y-105849610D01*
X161769471Y-105849612D01*
X161599100Y-105977530D01*
X161594965Y-105980635D01*
X161591393Y-105984373D01*
X161591392Y-105984374D01*
X161579472Y-105996847D01*
X161517947Y-106032277D01*
X161447035Y-106028819D01*
X161389249Y-105987572D01*
X161362936Y-105921631D01*
X161376156Y-105853019D01*
X161378891Y-105848902D01*
X161439319Y-105689825D01*
X161440537Y-105681162D01*
X161445923Y-105642831D01*
X161463001Y-105521313D01*
X161463299Y-105500000D01*
X161444331Y-105330892D01*
X161430620Y-105291518D01*
X161395038Y-105189343D01*
X161388368Y-105170189D01*
X161298192Y-105025879D01*
X161292867Y-105020516D01*
X161183248Y-104910129D01*
X161178286Y-104905132D01*
X161156806Y-104891500D01*
X161108131Y-104860610D01*
X161034608Y-104813951D01*
X160874300Y-104756868D01*
X160705329Y-104736720D01*
X160698326Y-104737456D01*
X160698325Y-104737456D01*
X160543101Y-104753770D01*
X160543097Y-104753771D01*
X160536093Y-104754507D01*
X160529422Y-104756778D01*
X160381673Y-104807075D01*
X160381670Y-104807076D01*
X160375003Y-104809346D01*
X160369005Y-104813036D01*
X160369003Y-104813037D01*
X160271831Y-104872818D01*
X160205809Y-104891500D01*
X158968136Y-104891500D01*
X158951690Y-104890422D01*
X158928188Y-104887328D01*
X158920000Y-104886250D01*
X158911812Y-104887328D01*
X158880129Y-104891499D01*
X158880120Y-104891500D01*
X158880115Y-104891500D01*
X158761150Y-104907162D01*
X158613125Y-104968476D01*
X158613123Y-104968477D01*
X158613124Y-104968477D01*
X158517928Y-105041523D01*
X158517925Y-105041526D01*
X158486013Y-105066013D01*
X158480983Y-105072568D01*
X158466548Y-105091379D01*
X158455681Y-105103770D01*
X157905048Y-105654403D01*
X157842736Y-105688429D01*
X157778287Y-105684358D01*
X157778087Y-105685116D01*
X157774256Y-105684104D01*
X157773895Y-105684081D01*
X157773089Y-105683796D01*
X157768212Y-105682069D01*
X157763123Y-105681162D01*
X157763121Y-105681162D01*
X157553373Y-105643800D01*
X157553367Y-105643799D01*
X157548284Y-105642894D01*
X157474452Y-105641992D01*
X157330081Y-105640228D01*
X157330079Y-105640228D01*
X157324911Y-105640165D01*
X157215377Y-105656926D01*
X157109200Y-105673173D01*
X157109197Y-105673174D01*
X157104091Y-105673955D01*
X157099176Y-105675562D01*
X157099174Y-105675562D01*
X157064890Y-105686768D01*
X156993927Y-105688921D01*
X156936648Y-105656099D01*
X156384315Y-105103766D01*
X156373448Y-105091375D01*
X156359013Y-105072563D01*
X156353987Y-105066013D01*
X156322075Y-105041526D01*
X156322072Y-105041523D01*
X156303805Y-105027506D01*
X156233429Y-104973504D01*
X156233427Y-104973503D01*
X156226876Y-104968476D01*
X156078851Y-104907162D01*
X156070664Y-104906084D01*
X156070663Y-104906084D01*
X156059458Y-104904609D01*
X156028262Y-104900502D01*
X155959885Y-104891500D01*
X155959882Y-104891500D01*
X155959874Y-104891499D01*
X155928189Y-104887328D01*
X155920000Y-104886250D01*
X155888307Y-104890422D01*
X155871864Y-104891500D01*
X154947027Y-104891500D01*
X154878906Y-104871498D01*
X154840173Y-104832270D01*
X154831088Y-104817730D01*
X154773692Y-104725879D01*
X154653786Y-104605132D01*
X154637539Y-104594821D01*
X154598906Y-104570304D01*
X154510108Y-104513951D01*
X154349800Y-104456868D01*
X154180829Y-104436720D01*
X154173826Y-104437456D01*
X154173825Y-104437456D01*
X154018601Y-104453770D01*
X154018597Y-104453771D01*
X154011593Y-104454507D01*
X154004922Y-104456778D01*
X153857173Y-104507075D01*
X153857170Y-104507076D01*
X153850503Y-104509346D01*
X153844505Y-104513036D01*
X153844503Y-104513037D01*
X153711565Y-104594821D01*
X153711563Y-104594823D01*
X153705566Y-104598512D01*
X153583986Y-104717573D01*
X153580175Y-104723487D01*
X153580173Y-104723489D01*
X153510068Y-104832270D01*
X153491804Y-104860610D01*
X153433603Y-105020516D01*
X153412275Y-105189343D01*
X153428881Y-105358699D01*
X153482594Y-105520167D01*
X153486243Y-105526192D01*
X153489199Y-105532590D01*
X153486425Y-105533872D01*
X153501154Y-105589351D01*
X153479382Y-105656926D01*
X153464292Y-105675159D01*
X153274449Y-105865002D01*
X153212137Y-105899028D01*
X153141322Y-105893963D01*
X153107264Y-105874790D01*
X153094359Y-105864598D01*
X152898789Y-105756638D01*
X152893920Y-105754914D01*
X152893916Y-105754912D01*
X152693087Y-105683795D01*
X152693083Y-105683794D01*
X152688212Y-105682069D01*
X152683119Y-105681162D01*
X152683116Y-105681161D01*
X152473373Y-105643800D01*
X152473367Y-105643799D01*
X152468284Y-105642894D01*
X152394452Y-105641992D01*
X152250081Y-105640228D01*
X152250079Y-105640228D01*
X152244911Y-105640165D01*
X152135377Y-105656926D01*
X152029200Y-105673173D01*
X152029197Y-105673174D01*
X152024091Y-105673955D01*
X152019176Y-105675562D01*
X152019174Y-105675562D01*
X151984890Y-105686768D01*
X151913927Y-105688921D01*
X151856648Y-105656099D01*
X150404315Y-104203766D01*
X150393448Y-104191375D01*
X150379013Y-104172563D01*
X150373987Y-104166013D01*
X150342075Y-104141526D01*
X150342072Y-104141523D01*
X150246876Y-104068476D01*
X150098851Y-104007162D01*
X150090664Y-104006084D01*
X150090663Y-104006084D01*
X150079458Y-104004609D01*
X150048262Y-104000502D01*
X149979885Y-103991500D01*
X149979882Y-103991500D01*
X149979874Y-103991499D01*
X149948189Y-103987328D01*
X149940000Y-103986250D01*
X149908307Y-103990422D01*
X149891864Y-103991500D01*
X148993411Y-103991500D01*
X148925897Y-103971885D01*
X148870733Y-103936877D01*
X148823934Y-103883488D01*
X148813429Y-103813273D01*
X148842553Y-103748525D01*
X148849152Y-103741397D01*
X150720979Y-101869570D01*
X150783291Y-101835544D01*
X150854106Y-101840609D01*
X150910942Y-101883156D01*
X150924268Y-101905413D01*
X150999411Y-102066558D01*
X151120699Y-102239776D01*
X151270224Y-102389301D01*
X151443442Y-102510589D01*
X151448420Y-102512910D01*
X151448423Y-102512912D01*
X151630108Y-102597633D01*
X151635090Y-102599956D01*
X151640398Y-102601378D01*
X151640400Y-102601379D01*
X151834030Y-102653262D01*
X151834032Y-102653262D01*
X151839345Y-102654686D01*
X152050000Y-102673116D01*
X152260655Y-102654686D01*
X152265968Y-102653262D01*
X152265970Y-102653262D01*
X152432889Y-102608536D01*
X152503865Y-102610226D01*
X152562661Y-102650020D01*
X152590609Y-102715284D01*
X152591500Y-102730243D01*
X152591500Y-102991377D01*
X152591498Y-102992147D01*
X152591024Y-103069721D01*
X152593491Y-103078352D01*
X152599150Y-103098153D01*
X152602728Y-103114915D01*
X152606920Y-103144187D01*
X152610634Y-103152355D01*
X152610634Y-103152356D01*
X152617548Y-103167562D01*
X152623996Y-103185086D01*
X152631051Y-103209771D01*
X152635843Y-103217365D01*
X152635844Y-103217368D01*
X152646830Y-103234780D01*
X152654969Y-103249863D01*
X152667208Y-103276782D01*
X152673069Y-103283584D01*
X152683970Y-103296235D01*
X152695073Y-103311239D01*
X152708776Y-103332958D01*
X152715501Y-103338897D01*
X152715504Y-103338901D01*
X152730938Y-103352532D01*
X152742982Y-103364724D01*
X152756427Y-103380327D01*
X152756430Y-103380329D01*
X152762287Y-103387127D01*
X152769816Y-103392007D01*
X152769817Y-103392008D01*
X152783835Y-103401094D01*
X152798709Y-103412385D01*
X152811217Y-103423431D01*
X152817951Y-103429378D01*
X152844711Y-103441942D01*
X152859691Y-103450263D01*
X152876983Y-103461471D01*
X152876988Y-103461473D01*
X152884515Y-103466352D01*
X152893108Y-103468922D01*
X152893113Y-103468924D01*
X152909120Y-103473711D01*
X152926564Y-103480372D01*
X152941676Y-103487467D01*
X152941678Y-103487468D01*
X152949800Y-103491281D01*
X152958667Y-103492662D01*
X152958668Y-103492662D01*
X152961353Y-103493080D01*
X152979017Y-103495830D01*
X152995732Y-103499613D01*
X153015466Y-103505515D01*
X153015472Y-103505516D01*
X153024066Y-103508086D01*
X153033037Y-103508141D01*
X153033038Y-103508141D01*
X153043097Y-103508202D01*
X153058506Y-103508296D01*
X153059289Y-103508329D01*
X153060386Y-103508500D01*
X153091377Y-103508500D01*
X153092147Y-103508502D01*
X153165785Y-103508952D01*
X153165786Y-103508952D01*
X153169721Y-103508976D01*
X153171065Y-103508592D01*
X153172410Y-103508500D01*
X161691377Y-103508500D01*
X161692148Y-103508502D01*
X161769721Y-103508976D01*
X161798152Y-103500850D01*
X161814915Y-103497272D01*
X161815753Y-103497152D01*
X161844187Y-103493080D01*
X161867564Y-103482451D01*
X161885087Y-103476004D01*
X161909771Y-103468949D01*
X161917365Y-103464157D01*
X161917368Y-103464156D01*
X161934780Y-103453170D01*
X161949865Y-103445030D01*
X161976782Y-103432792D01*
X161996235Y-103416030D01*
X162011239Y-103404927D01*
X162032958Y-103391224D01*
X162038897Y-103384499D01*
X162038901Y-103384496D01*
X162052532Y-103369062D01*
X162064724Y-103357018D01*
X162080327Y-103343573D01*
X162080329Y-103343570D01*
X162087127Y-103337713D01*
X162101094Y-103316165D01*
X162112385Y-103301291D01*
X162123431Y-103288783D01*
X162123432Y-103288782D01*
X162129378Y-103282049D01*
X162141943Y-103255287D01*
X162150263Y-103240309D01*
X162161471Y-103223017D01*
X162161473Y-103223012D01*
X162166352Y-103215485D01*
X162168922Y-103206892D01*
X162168924Y-103206887D01*
X162173711Y-103190880D01*
X162180372Y-103173436D01*
X162187467Y-103158324D01*
X162187468Y-103158322D01*
X162191281Y-103150200D01*
X162195830Y-103120983D01*
X162199613Y-103104268D01*
X162205515Y-103084534D01*
X162205516Y-103084528D01*
X162208086Y-103075934D01*
X162208296Y-103041494D01*
X162208329Y-103040711D01*
X162208500Y-103039614D01*
X162208500Y-103008623D01*
X162208502Y-103007853D01*
X162208952Y-102934215D01*
X162208952Y-102934214D01*
X162208976Y-102930279D01*
X162208592Y-102928935D01*
X162208500Y-102927590D01*
X162208500Y-101839725D01*
X162228502Y-101771604D01*
X162282158Y-101725111D01*
X162352432Y-101715007D01*
X162367112Y-101718019D01*
X162534111Y-101762767D01*
X162544909Y-101764671D01*
X162744525Y-101782135D01*
X162755475Y-101782135D01*
X162955091Y-101764671D01*
X162965878Y-101762769D01*
X163159429Y-101710907D01*
X163169723Y-101707159D01*
X163351323Y-101622479D01*
X163360811Y-101617001D01*
X163391248Y-101595689D01*
X163399623Y-101585212D01*
X163392554Y-101571764D01*
X162479885Y-100659095D01*
X162445859Y-100596783D01*
X162447694Y-100571132D01*
X163114408Y-100571132D01*
X163114539Y-100572965D01*
X163118790Y-100579580D01*
X163752486Y-101213276D01*
X163764261Y-101219706D01*
X163776276Y-101210410D01*
X163797001Y-101180811D01*
X163802479Y-101171323D01*
X163887159Y-100989723D01*
X163890907Y-100979429D01*
X163942769Y-100785878D01*
X163944671Y-100775091D01*
X163962135Y-100575475D01*
X163962135Y-100564525D01*
X163944671Y-100364909D01*
X163942769Y-100354122D01*
X163890907Y-100160571D01*
X163887159Y-100150277D01*
X163802479Y-99968677D01*
X163797001Y-99959189D01*
X163775689Y-99928752D01*
X163765212Y-99920377D01*
X163751764Y-99927446D01*
X163122022Y-100557188D01*
X163114408Y-100571132D01*
X162447694Y-100571132D01*
X162450924Y-100525968D01*
X162479885Y-100480905D01*
X162957885Y-100002905D01*
X163014368Y-99970294D01*
X163121499Y-99941588D01*
X163159600Y-99931379D01*
X163159602Y-99931378D01*
X163164910Y-99929956D01*
X163170293Y-99927446D01*
X163351577Y-99842912D01*
X163351580Y-99842910D01*
X163356558Y-99840589D01*
X163529776Y-99719301D01*
X163679301Y-99569776D01*
X163800589Y-99396558D01*
X163889956Y-99204910D01*
X163912400Y-99121150D01*
X163943262Y-99005970D01*
X163943262Y-99005968D01*
X163944686Y-99000655D01*
X163963116Y-98790000D01*
X163944686Y-98579345D01*
X163889956Y-98375090D01*
X163800589Y-98183442D01*
X163679301Y-98010224D01*
X163658172Y-97989095D01*
X163624146Y-97926783D01*
X163629211Y-97855968D01*
X163658172Y-97810905D01*
X163679301Y-97789776D01*
X163800589Y-97616558D01*
X163802912Y-97611577D01*
X163875732Y-97455415D01*
X163922650Y-97402130D01*
X163990927Y-97382669D01*
X164058887Y-97403211D01*
X164079022Y-97419570D01*
X166033862Y-99374410D01*
X166067888Y-99436722D01*
X166063169Y-99506597D01*
X166058103Y-99520516D01*
X166036775Y-99689343D01*
X166053381Y-99858699D01*
X166107094Y-100020167D01*
X166110741Y-100026189D01*
X166110742Y-100026191D01*
X166185892Y-100150277D01*
X166195246Y-100165723D01*
X166313455Y-100288132D01*
X166319351Y-100291990D01*
X166430783Y-100364909D01*
X166455846Y-100381310D01*
X166462450Y-100383766D01*
X166462452Y-100383767D01*
X166498844Y-100397301D01*
X166615341Y-100440626D01*
X166784015Y-100463132D01*
X166791026Y-100462494D01*
X166791030Y-100462494D01*
X166946462Y-100448348D01*
X166953483Y-100447709D01*
X166960185Y-100445531D01*
X166960187Y-100445531D01*
X167108623Y-100397301D01*
X167108626Y-100397300D01*
X167115322Y-100395124D01*
X167261490Y-100307990D01*
X167266584Y-100303139D01*
X167266588Y-100303136D01*
X167354013Y-100219882D01*
X167384721Y-100190639D01*
X167396926Y-100172270D01*
X167441121Y-100105750D01*
X167478891Y-100048902D01*
X167539319Y-99889825D01*
X167563001Y-99721313D01*
X167563299Y-99700000D01*
X167544331Y-99530892D01*
X167488368Y-99370189D01*
X167484635Y-99364215D01*
X167484633Y-99364211D01*
X167423374Y-99266177D01*
X167405306Y-99215853D01*
X167394891Y-99136741D01*
X167394890Y-99136739D01*
X167392838Y-99121150D01*
X167392838Y-99121149D01*
X167383128Y-99097707D01*
X167334684Y-98980752D01*
X167334683Y-98980750D01*
X167331524Y-98973124D01*
X167258477Y-98877929D01*
X167258476Y-98877927D01*
X167239017Y-98852567D01*
X167239013Y-98852563D01*
X167233987Y-98846013D01*
X167227437Y-98840987D01*
X167227434Y-98840984D01*
X167208620Y-98826548D01*
X167196229Y-98815681D01*
X163970031Y-95589482D01*
X163936005Y-95527170D01*
X163937419Y-95467776D01*
X163943262Y-95445970D01*
X163943262Y-95445968D01*
X163944686Y-95440655D01*
X163963116Y-95230000D01*
X163944686Y-95019345D01*
X163889956Y-94815090D01*
X163861894Y-94754910D01*
X163802912Y-94628423D01*
X163802910Y-94628420D01*
X163800589Y-94623442D01*
X163679301Y-94450224D01*
X163658172Y-94429095D01*
X163624146Y-94366783D01*
X163629211Y-94295968D01*
X163658172Y-94250905D01*
X163679301Y-94229776D01*
X163800589Y-94056558D01*
X163889956Y-93864910D01*
X163916460Y-93765998D01*
X163943262Y-93665970D01*
X163943262Y-93665968D01*
X163944686Y-93660655D01*
X163963116Y-93450000D01*
X163944686Y-93239345D01*
X163937419Y-93212224D01*
X163939109Y-93141247D01*
X163970031Y-93090518D01*
X165096234Y-91964315D01*
X165108625Y-91953448D01*
X165127437Y-91939013D01*
X165133987Y-91933987D01*
X165158474Y-91902075D01*
X165158480Y-91902069D01*
X165211722Y-91832682D01*
X165226495Y-91813430D01*
X165226497Y-91813426D01*
X165231524Y-91806875D01*
X165292838Y-91658850D01*
X165308500Y-91539885D01*
X165308500Y-91539878D01*
X165313750Y-91500000D01*
X165309578Y-91468307D01*
X165308500Y-91451864D01*
X165308500Y-88965902D01*
X165328502Y-88897781D01*
X165356926Y-88866613D01*
X165393996Y-88837651D01*
X165398847Y-88833861D01*
X165528078Y-88684145D01*
X165625769Y-88512179D01*
X165688197Y-88324513D01*
X165712985Y-88128295D01*
X165713380Y-88100000D01*
X165694080Y-87903167D01*
X165636916Y-87713831D01*
X165634027Y-87708397D01*
X165634023Y-87708388D01*
X165626188Y-87693654D01*
X165611868Y-87624117D01*
X165637415Y-87557876D01*
X165694720Y-87515963D01*
X165737439Y-87508500D01*
X167765500Y-87508500D01*
X167833621Y-87528502D01*
G37*
%TD.AperFunction*%
%TD*%
M02*
