0
SECTION
2
HEADER
9
$INSUNITS
70
4
9
$ACADVER
1
AC1014
9
$HANDSEED
5
FFFF
0
ENDSEC
0
SECTION
2
TABLES
0
TABLE
2
VPORT
5
8
100
AcDbSymbolTable
0
ENDTAB
0
TABLE
2
LTYPE
5
5
100
AcDbSymbolTable
0
LTYPE
5
14
100
AcDbSymbolTableRecord
100
AcDbLinetypeTableRecord
2
BYBLOCK
70
0
0
LTYPE
5
15
100
AcDbSymbolTableRecord
100
AcDbLinetypeTableRecord
2
BYLAYER
70
0
0
ENDTAB
0
TABLE
2
LAYER
5
2
100
AcDbSymbolTable
70
2
0
LAYER
5
50
100
AcDbSymbolTableRecord
100
AcDbLayerTableRecord
2
0
70
0
6
CONTINUOUS
0
ENDTAB
0
TABLE
2
STYLE
5
3
100
AcDbSymbolTable
70
1
0
STYLE
5
11
100
AcDbSymbolTableRecord
100
AcDbTextStyleTableRecord
2
STANDARD
70
0
0
ENDTAB
0
TABLE
2
VIEW
5
6
100
AcDbSymbolTable
70
0
0
ENDTAB
0
TABLE
2
UCS
5
7
100
AcDbSymbolTable
70
0
0
ENDTAB
0
TABLE
2
APPID
5
9
100
AcDbSymbolTable
70
2
0
APPID
5
12
100
AcDbSymbolTableRecord
100
AcDbRegAppTableRecord
2
ACAD
70
0
0
ENDTAB
0
TABLE
2
DIMSTYLE
5
A
100
AcDbSymbolTable
70
1
0
ENDTAB
0
TABLE
2
BLOCK_RECORD
5
1
100
AcDbSymbolTable
70
1
0
BLOCK_RECORD
5
1F
100
AcDbSymbolTableRecord
100
AcDbBlockTableRecord
2
*MODEL_SPACE
0
BLOCK_RECORD
5
1B
100
AcDbSymbolTableRecord
100
AcDbBlockTableRecord
2
*PAPER_SPACE
0
ENDTAB
0
ENDSEC
0
SECTION
2
BLOCKS
0
BLOCK
5
20
100
AcDbEntity
100
AcDbBlockBegin
2
*MODEL_SPACE
0
ENDBLK
5
21
100
AcDbEntity
100
AcDbBlockEnd
0
BLOCK
5
1C
100
AcDbEntity
100
AcDbBlockBegin
2
*PAPER_SPACE
0
ENDBLK
5
1D
100
AcDbEntity
100
AcDbBlockEnd
0
ENDSEC
0
SECTION
2
ENTITIES
0
CIRCLE
5
100
100
AcDbEntity
8
0
100
AcDbCircle
10
-16.511493765707353
20
56.984969065133633
30
0
40
2
210
0
220
-0
230
1
0
CIRCLE
5
101
100
AcDbEntity
8
0
100
AcDbCircle
10
-2.4557491542793692
20
56.984969065133633
30
0
40
2
210
0
220
-0
230
1
0
CIRCLE
5
102
100
AcDbEntity
8
0
100
AcDbCircle
10
-41.034502631508012
20
97.38442320319183
30
0
40
1.2
210
0
220
0
230
1
0
CIRCLE
5
103
100
AcDbEntity
8
0
100
AcDbCircle
10
-81.33450263150803
20
78.87942320319182
30
0
40
1.2
210
0
220
0
230
1
0
CIRCLE
5
104
100
AcDbEntity
8
0
100
AcDbCircle
10
-41.034502631508012
20
78.87942320319182
30
0
40
1.2
210
0
220
0
230
1
0
CIRCLE
5
105
100
AcDbEntity
8
0
100
AcDbCircle
10
-81.33450263150803
20
97.38442320319183
30
0
40
1.2
210
0
220
0
230
1
0
CIRCLE
5
106
100
AcDbEntity
8
0
100
AcDbCircle
10
4.6582915735768609
20
128.60760097129707
30
0
40
1.2
210
0
220
0
230
1
0
CIRCLE
5
107
100
AcDbEntity
8
0
100
AcDbCircle
10
-76.67658758287503
20
13.549900222250004
30
0
40
1.2
210
0
220
0
230
1
0
CIRCLE
5
108
100
AcDbEntity
8
0
100
AcDbCircle
10
-38.576940727500059
20
56.649571386625013
30
0
40
1.2
210
0
220
0
230
1
0
CIRCLE
5
109
100
AcDbEntity
8
0
100
AcDbCircle
10
-115.19468622418758
20
82.39928244012502
30
0
40
1.2
210
0
220
0
230
1
0
CIRCLE
5
110
100
AcDbEntity
8
0
100
AcDbCircle
10
-5.1860412266249867
20
83.909850248000041
30
0
40
1.2
210
0
220
0
230
1
0
CIRCLE
5
111
100
AcDbEntity
8
0
100
AcDbCircle
10
-13.099525310375091
20
96.712231650999968
30
0
40
1.2
210
0
220
0
230
1
0
CIRCLE
5
112
100
AcDbEntity
8
0
100
AcDbCircle
10
-73.894991340062546
20
98.249373304250042
30
0
40
1.2
210
0
220
0
230
1
0
CIRCLE
5
113
100
AcDbEntity
8
0
100
AcDbCircle
10
-73.894991340062546
20
82.249502584375023
30
0
40
1.2
210
0
220
0
230
1
0
CIRCLE
5
114
100
AcDbEntity
8
0
100
AcDbCircle
10
-77.51349115475
20
56.349666560249986
30
0
40
1.2
210
0
220
0
230
1
0
CIRCLE
5
115
100
AcDbEntity
8
0
100
AcDbCircle
10
-39.413844299375036
20
16.050257491625011
30
0
40
1.2
210
0
220
0
230
1
0
CIRCLE
5
116
100
AcDbEntity
8
0
100
AcDbCircle
10
-115.19468622418758
20
25.249639599624992
30
0
40
1.2
210
0
220
0
230
1
0
LWPOLYLINE
5
117
100
AcDbEntity
8
0
100
AcDbPolyline
90
41
70
1
43
0.0
10
-91.177613963047889
20
103.9533879147467
10
-92.248332619503074
20
102.88266925829151
10
-92.248332619503074
20
102.20338791474661
10
-134.94666595283636
20
102.20338791474661
10
-135.94666595283636
20
101.20338791474663
10
-135.94666595283636
20
6.5033879147467033
10
-134.94666595283636
20
5.5033879147467033
10
-97.848333333333315
20
5.5033879147467015
10
-96.848333333333315
20
4.5033879147467015
10
-96.848333333333315
20
-0.52001412475474851
10
-95.848333333333329
20
-1.5200141247547481
10
-78.794999999999987
20
-1.5200141247547492
10
-77.795000000000002
20
-2.5200141247547494
10
-77.795000000000002
20
-5.1800141247547407
10
-76.795000000000002
20
-6.1800141247547398
10
-58.345000000000013
20
-6.1800141247547398
10
-57.345000000000013
20
-5.1800141247547407
10
-57.345000000000013
20
-4.7250141247547326
10
-56.34500000000002
20
-3.725014124754733
10
-39.291666666666679
20
-3.725014124754733
10
-38.291666666666671
20
-2.7250141247547335
10
-38.291666666666671
20
-2.1912879185789595
10
-37.291666666666671
20
-1.1912879185789591
10
0.74999999999997957
20
-1.1912879185789562
10
1.7499999999999813
20
-0.19128791857895594
10
1.7499999999999793
20
60.089800994666447
10
1.3112312566767794
20
60.849770750875408
10
1.3112312566767814
20
74.94187276547143
10
25.882776629747333
20
117.50103777211774
10
28.589999999999982
20
127.38357909595689
10
28.589999999999996
20
146.25000222027302
10
27.589999999999996
20
147.25000222027302
10
6.6399999999999793
20
147.25000222027302
10
5.6399999999999793
20
146.25000222027302
10
5.6399999999999793
20
139.57803937910728
10
0.020740392012964515
20
118.60667702117594
10
-7.0588180030698799
20
106.34452218573966
10
-14.703721869909852
20
103.56200473438328
10
-35.287050138692535
20
99.932608607817542
10
-35.417286271942736
20
100.67121442257671
10
-38.699459764112731
20
103.95338791474657
0
ENDSEC
0
SECTION
2
OBJECTS
0
DICTIONARY
5
C
100
AcDbDictionary
3
ACAD_GROUP
350
D
3
ACAD_MLINESTYLE
350
17
0
DICTIONARY
5
D
100
AcDbDictionary
0
DICTIONARY
5
1A
330
C
100
AcDbDictionary
0
DICTIONARY
5
17
100
AcDbDictionary
0
ENDSEC
0
EOF
