%TF.GenerationSoftware,KiCad,Pcbnew,(6.0.4-0)*%
%TF.CreationDate,2022-08-10T14:40:32+09:00*%
%TF.ProjectId,KB62_R_rev1,4b423632-5f52-45f7-9265-76312e6b6963,rev?*%
%TF.SameCoordinates,Original*%
%TF.FileFunction,Profile,NP*%
%FSLAX46Y46*%
G04 Gerber Fmt 4.6, Leading zero omitted, Abs format (unit mm)*
G04 Created by KiCad (PCBNEW (6.0.4-0)) date 2022-08-10 14:40:32*
%MOMM*%
%LPD*%
G01*
G04 APERTURE LIST*
%TA.AperFunction,Profile*%
%ADD10C,0.050000*%
%TD*%
G04 APERTURE END LIST*
D10*
X119938840Y-141686773D02*
G75*
G03*
X121560720Y-139371800I-348040J1969473D01*
G01*
X92739050Y-42794710D02*
X92739050Y-49794710D01*
X165276430Y-117494710D02*
X165276430Y-116994710D01*
X119938840Y-141686770D02*
X102826480Y-144710940D01*
X94772510Y-147583562D02*
X81659892Y-170295285D01*
X80659892Y-188295292D02*
G75*
G03*
X81659892Y-187295285I8J999992D01*
G01*
X203185000Y-143244710D02*
X176246370Y-143244710D01*
X89239050Y-42294710D02*
X92239050Y-42294710D01*
X103039050Y-50294750D02*
G75*
G03*
X103539050Y-49794710I-50J500050D01*
G01*
X93239050Y-50294710D02*
X103039050Y-50294710D01*
X121785000Y-117494700D02*
G75*
G03*
X118785000Y-120494710I0J-3000000D01*
G01*
X165084990Y-38294710D02*
G75*
G03*
X164085000Y-37294710I-999990J10D01*
G01*
X64339384Y-160295285D02*
X61600000Y-170295285D01*
X127985000Y-41294710D02*
X127985000Y-40794710D01*
X184135000Y-42994710D02*
X184135000Y-47994710D01*
X81659892Y-170295285D02*
X81659892Y-187295285D01*
X146035000Y-39794700D02*
G75*
G03*
X147035000Y-38794710I0J1000000D01*
G01*
X165276390Y-116994710D02*
G75*
G03*
X164276430Y-115994710I-999990J10D01*
G01*
X175746390Y-119494710D02*
G75*
G03*
X174746370Y-118494710I-999990J10D01*
G01*
X92739090Y-49794710D02*
G75*
G03*
X93239050Y-50294710I500010J10D01*
G01*
X184134990Y-42994710D02*
G75*
G03*
X183135000Y-41994710I-999990J10D01*
G01*
X165084990Y-40994710D02*
G75*
G03*
X166085000Y-41994710I1000010J10D01*
G01*
X175746370Y-132544710D02*
X175746370Y-119494710D01*
X128985000Y-39794710D02*
X146035000Y-39794710D01*
X221235000Y-143244710D02*
X203185000Y-143244710D01*
X175746370Y-142744710D02*
X175746370Y-132544710D01*
X104039050Y-42294650D02*
G75*
G03*
X103539050Y-42794710I50J-500050D01*
G01*
X128985000Y-39794700D02*
G75*
G03*
X127985000Y-40794710I0J-1000000D01*
G01*
X126985000Y-42294700D02*
G75*
G03*
X127985000Y-41294710I0J1000000D01*
G01*
X164276430Y-115994710D02*
X128921490Y-115994710D01*
X148035000Y-37294710D02*
X164085000Y-37294710D01*
X125799000Y-117494710D02*
X121785000Y-117494710D01*
X175746390Y-142744710D02*
G75*
G03*
X176246370Y-143244710I500010J10D01*
G01*
X118784995Y-123283640D02*
G75*
G03*
X118830100Y-123801860I3000005J40D01*
G01*
X61600000Y-187295285D02*
X61600000Y-170295285D01*
X118830100Y-123801860D02*
X121560720Y-139371800D01*
X128921490Y-115994698D02*
G75*
G03*
X127360240Y-116744710I10J-2000002D01*
G01*
X79339384Y-134314523D02*
X64339384Y-160295285D01*
X89239050Y-42294750D02*
G75*
G03*
X88239050Y-43294710I-50J-999950D01*
G01*
X222234990Y-49994710D02*
G75*
G03*
X221235000Y-48994710I-999990J10D01*
G01*
X165085000Y-38294710D02*
X165085000Y-40994710D01*
X80659892Y-188295285D02*
X62600000Y-188295285D01*
X118785000Y-120494710D02*
X118785000Y-123283640D01*
X94772510Y-147583562D02*
X102335000Y-144846090D01*
X88239050Y-119000000D02*
X79339384Y-134305000D01*
X125799000Y-117494699D02*
G75*
G03*
X127360240Y-116744710I0J1999999D01*
G01*
X102826479Y-144710937D02*
G75*
G03*
X102322490Y-144846090I522121J-2954263D01*
G01*
X185135000Y-48994710D02*
X203185000Y-48994710D01*
X221235000Y-143244700D02*
G75*
G03*
X222235000Y-142244710I0J1000000D01*
G01*
X88239050Y-66344710D02*
X88239050Y-43294710D01*
X61600015Y-187295285D02*
G75*
G03*
X62600000Y-188295285I999985J-15D01*
G01*
X148035000Y-37294700D02*
G75*
G03*
X147035000Y-38294710I0J-1000000D01*
G01*
X92738990Y-42794710D02*
G75*
G03*
X92239050Y-42294710I-499990J10D01*
G01*
X103539050Y-49794710D02*
X103539050Y-42794710D01*
X222235000Y-49994710D02*
X222235000Y-142244710D01*
X104039050Y-42294710D02*
X126985000Y-42294710D01*
X203185000Y-48994710D02*
X221235000Y-48994710D01*
X147035000Y-38794710D02*
X147035000Y-38294710D01*
X184134990Y-47994710D02*
G75*
G03*
X185135000Y-48994710I1000010J10D01*
G01*
X165276390Y-117494710D02*
G75*
G03*
X166276430Y-118494710I1000010J10D01*
G01*
X166085000Y-41994710D02*
X183135000Y-41994710D01*
X174746370Y-118494710D02*
X166276430Y-118494710D01*
X88239050Y-102400000D02*
X88239050Y-66344710D01*
X88239050Y-102400000D02*
X88239050Y-119000000D01*
M02*
