%TF.GenerationSoftware,KiCad,Pcbnew,(6.0.4-0)*%
%TF.CreationDate,2022-08-10T14:40:32+09:00*%
%TF.ProjectId,KB62_R_rev1,4b423632-5f52-45f7-9265-76312e6b6963,rev?*%
%TF.SameCoordinates,Original*%
%TF.FileFunction,Soldermask,Top*%
%TF.FilePolarity,Negative*%
%FSLAX46Y46*%
G04 Gerber Fmt 4.6, Leading zero omitted, Abs format (unit mm)*
G04 Created by KiCad (PCBNEW (6.0.4-0)) date 2022-08-10 14:40:32*
%MOMM*%
%LPD*%
G01*
G04 APERTURE LIST*
G04 Aperture macros list*
%AMRotRect*
0 Rectangle, with rotation*
0 The origin of the aperture is its center*
0 $1 length*
0 $2 width*
0 $3 Rotation angle, in degrees counterclockwise*
0 Add horizontal line*
21,1,$1,$2,0,0,$3*%
%AMFreePoly0*
4,1,34,0.201078,0.979575,0.387516,0.921863,0.559193,0.829038,0.709571,0.704634,0.832921,0.553392,0.924546,0.381070,0.980955,0.194234,1.000000,0.000000,0.999610,-0.027922,0.975149,-0.221548,0.913545,-0.406737,0.817145,-0.576432,0.689620,-0.724172,0.535827,-0.844328,0.361625,-0.932324,0.173648,-0.984808,-0.020942,-0.999781,-0.214735,-0.976672,-0.400349,-0.916363,-0.570714,-0.821149,
-0.719340,-0.694658,-0.840567,-0.541708,-0.929776,-0.368125,-0.983571,-0.180519,-0.999903,0.013962,-0.978148,0.207912,-0.919135,0.393942,-0.825113,0.564967,-0.699663,0.714473,-0.547563,0.836764,-0.374607,0.927184,-0.187381,0.982287,0.006981,0.999976,0.201078,0.979575,0.201078,0.979575,$1*%
%AMFreePoly1*
4,1,16,0.044650,0.194952,0.124776,0.156304,0.180215,0.086732,0.200000,0.000000,0.199999,-0.000698,0.179912,-0.087360,0.124230,-0.156739,0.043969,-0.195107,-0.044990,-0.194874,-0.125049,-0.156086,-0.180367,-0.086417,-0.200000,0.000349,-0.180064,0.087046,-0.124503,0.156522,-0.044310,0.195030,0.044650,0.194952,0.044650,0.194952,$1*%
G04 Aperture macros list end*
%ADD10C,0.850000*%
%ADD11C,0.000000*%
%ADD12C,1.500000*%
%ADD13C,0.762000*%
%ADD14C,2.050000*%
%ADD15C,0.950000*%
%ADD16C,0.750000*%
%ADD17C,0.600000*%
%ADD18C,2.150000*%
%ADD19C,1.800000*%
%ADD20C,0.698500*%
%ADD21C,1.000000*%
%ADD22FreePoly0,0.000000*%
%ADD23FreePoly1,0.000000*%
%ADD24C,1.700000*%
%ADD25C,3.000000*%
%ADD26C,1.900000*%
%ADD27C,4.000000*%
%ADD28RotRect,1.800000X2.000000X150.000000*%
%ADD29RotRect,2.000000X2.000000X150.000000*%
%ADD30R,1.400000X1.000000*%
%ADD31R,1.800000X2.000000*%
%ADD32R,2.000000X2.000000*%
%ADD33C,1.210000*%
%ADD34O,1.800000X0.700000*%
G04 APERTURE END LIST*
D10*
X190085000Y-58019700D02*
G75*
G03*
X190085000Y-58019700I-425000J0D01*
G01*
D11*
G36*
X182127120Y-134340920D02*
G01*
X181492120Y-134340920D01*
X181492120Y-133197920D01*
X182127120Y-133197920D01*
X182127120Y-134340920D01*
G37*
D10*
X113885000Y-108470000D02*
G75*
G03*
X113885000Y-108470000I-425000J0D01*
G01*
D11*
G36*
X174085000Y-78844700D02*
G01*
X172785000Y-78844700D01*
X172785000Y-77894700D01*
X174085000Y-77894700D01*
X174085000Y-78844700D01*
G37*
D10*
X92496590Y-143762620D02*
G75*
G03*
X92496590Y-143762620I-425000J0D01*
G01*
D11*
G36*
X177635000Y-78844700D02*
G01*
X176335000Y-78844700D01*
X176335000Y-77894700D01*
X177635000Y-77894700D01*
X177635000Y-78844700D01*
G37*
G36*
X186549000Y-60334700D02*
G01*
X184849000Y-60334700D01*
X184849000Y-59334700D01*
X186549000Y-59334700D01*
X186549000Y-60334700D01*
G37*
D12*
X172050000Y-67529700D02*
G75*
G03*
X172050000Y-67529700I-750000J0D01*
G01*
D11*
G36*
X170560000Y-46899700D02*
G01*
X168260000Y-46899700D01*
X168260000Y-44899700D01*
X170560000Y-44899700D01*
X170560000Y-46899700D01*
G37*
D13*
X105468700Y-49060000D02*
G75*
G03*
X105468700Y-49060000I-381000J0D01*
G01*
D12*
X191100000Y-112630000D02*
G75*
G03*
X191100000Y-112630000I-750000J0D01*
G01*
X216500000Y-91039700D02*
G75*
G03*
X216500000Y-91039700I-750000J0D01*
G01*
D11*
G36*
X135110000Y-112070000D02*
G01*
X133410000Y-112070000D01*
X133410000Y-111070000D01*
X135110000Y-111070000D01*
X135110000Y-112070000D01*
G37*
D13*
X106775100Y-65570000D02*
G75*
G03*
X106775100Y-65570000I-381000J0D01*
G01*
D14*
X118985000Y-51319700D02*
G75*
G03*
X118985000Y-51319700I-1025000J0D01*
G01*
D11*
G36*
X102627120Y-87141200D02*
G01*
X101992120Y-87141200D01*
X101992120Y-85998200D01*
X102627120Y-85998200D01*
X102627120Y-87141200D01*
G37*
G36*
X215535000Y-67844700D02*
G01*
X214235000Y-67844700D01*
X214235000Y-66894700D01*
X215535000Y-66894700D01*
X215535000Y-67844700D01*
G37*
D12*
X198720000Y-112630000D02*
G75*
G03*
X198720000Y-112630000I-750000J0D01*
G01*
X116483540Y-129504970D02*
G75*
G03*
X116483540Y-129504970I-750000J0D01*
G01*
D15*
X142565000Y-105970000D02*
G75*
G03*
X142565000Y-105970000I-475000J0D01*
G01*
D12*
X198720000Y-74529700D02*
G75*
G03*
X198720000Y-74529700I-750000J0D01*
G01*
D11*
G36*
X106235000Y-84044700D02*
G01*
X104935000Y-84044700D01*
X104935000Y-83094700D01*
X106235000Y-83094700D01*
X106235000Y-84044700D01*
G37*
G36*
X94854100Y-96370000D02*
G01*
X92754100Y-96370000D01*
X92754100Y-95570000D01*
X94854100Y-95570000D01*
X94854100Y-96370000D01*
G37*
D10*
X190085000Y-134220000D02*
G75*
G03*
X190085000Y-134220000I-425000J0D01*
G01*
D12*
X211420000Y-52939700D02*
G75*
G03*
X211420000Y-52939700I-750000J0D01*
G01*
D15*
X199715000Y-96119700D02*
G75*
G03*
X199715000Y-96119700I-475000J0D01*
G01*
D11*
G36*
X189610000Y-91999700D02*
G01*
X187310000Y-91999700D01*
X187310000Y-89999700D01*
X189610000Y-89999700D01*
X189610000Y-91999700D01*
G37*
G36*
X211310000Y-62719700D02*
G01*
X209610000Y-62719700D01*
X209610000Y-61719700D01*
X211310000Y-61719700D01*
X211310000Y-62719700D01*
G37*
D13*
X106775100Y-52870000D02*
G75*
G03*
X106775100Y-52870000I-381000J0D01*
G01*
D11*
G36*
X140610000Y-93019700D02*
G01*
X138910000Y-93019700D01*
X138910000Y-92019700D01*
X140610000Y-92019700D01*
X140610000Y-93019700D01*
G37*
D13*
X105468700Y-51600000D02*
G75*
G03*
X105468700Y-51600000I-381000J0D01*
G01*
D14*
X99935000Y-111970000D02*
G75*
G03*
X99935000Y-111970000I-1025000J0D01*
G01*
D15*
X170505000Y-70069700D02*
G75*
G03*
X170505000Y-70069700I-475000J0D01*
G01*
D13*
X91555100Y-60490000D02*
G75*
G03*
X91555100Y-60490000I-381000J0D01*
G01*
D15*
X208605000Y-115170000D02*
G75*
G03*
X208605000Y-115170000I-475000J0D01*
G01*
D11*
G36*
X147259000Y-58274700D02*
G01*
X145559000Y-58274700D01*
X145559000Y-57274700D01*
X147259000Y-57274700D01*
X147259000Y-58274700D01*
G37*
D16*
X178846000Y-137625000D02*
G75*
G03*
X178846000Y-137625000I-375000J0D01*
G01*
D11*
G36*
X105827120Y-95441200D02*
G01*
X105192120Y-95441200D01*
X105192120Y-94298200D01*
X105827120Y-94298200D01*
X105827120Y-95441200D01*
G37*
D10*
X209135000Y-96119700D02*
G75*
G03*
X209135000Y-96119700I-425000J0D01*
G01*
X218135000Y-115170000D02*
G75*
G03*
X218135000Y-115170000I-425000J0D01*
G01*
D11*
G36*
X140610000Y-54919700D02*
G01*
X138910000Y-54919700D01*
X138910000Y-53919700D01*
X140610000Y-53919700D01*
X140610000Y-54919700D01*
G37*
G36*
X140610000Y-72569700D02*
G01*
X138910000Y-72569700D01*
X138910000Y-71569700D01*
X140610000Y-71569700D01*
X140610000Y-72569700D01*
G37*
D14*
X112477000Y-134017000D02*
G75*
G03*
X112477000Y-134017000I-1025000J0D01*
G01*
D13*
X90228700Y-54140000D02*
G75*
G03*
X90228700Y-54140000I-381000J0D01*
G01*
D17*
X99304100Y-92120000D02*
G75*
G03*
X99304100Y-92120000I-300000J0D01*
G01*
D11*
G36*
X97010000Y-116670000D02*
G01*
X95310000Y-116670000D01*
X95310000Y-115670000D01*
X97010000Y-115670000D01*
X97010000Y-116670000D01*
G37*
D13*
X106775100Y-55410000D02*
G75*
G03*
X106775100Y-55410000I-381000J0D01*
G01*
D15*
X113355000Y-51319700D02*
G75*
G03*
X113355000Y-51319700I-475000J0D01*
G01*
D11*
G36*
X197760000Y-119870000D02*
G01*
X196060000Y-119870000D01*
X196060000Y-118870000D01*
X197760000Y-118870000D01*
X197760000Y-119870000D01*
G37*
D15*
X161615000Y-84419700D02*
G75*
G03*
X161615000Y-84419700I-475000J0D01*
G01*
D13*
X91555100Y-47790000D02*
G75*
G03*
X91555100Y-47790000I-381000J0D01*
G01*
D11*
G36*
X102685000Y-84044700D02*
G01*
X101385000Y-84044700D01*
X101385000Y-83094700D01*
X102685000Y-83094700D01*
X102685000Y-84044700D01*
G37*
G36*
X168235000Y-93244700D02*
G01*
X166935000Y-93244700D01*
X166935000Y-92294700D01*
X168235000Y-92294700D01*
X168235000Y-93244700D01*
G37*
G36*
X131109000Y-111705000D02*
G01*
X129409000Y-111705000D01*
X129409000Y-110705000D01*
X131109000Y-110705000D01*
X131109000Y-111705000D01*
G37*
D12*
X160620000Y-43779700D02*
G75*
G03*
X160620000Y-43779700I-750000J0D01*
G01*
D11*
G36*
X154160000Y-90519700D02*
G01*
X152460000Y-90519700D01*
X152460000Y-89519700D01*
X154160000Y-89519700D01*
X154160000Y-90519700D01*
G37*
G36*
X183127880Y-136440920D02*
G01*
X182492880Y-136440920D01*
X182492880Y-135297920D01*
X183127880Y-135297920D01*
X183127880Y-136440920D01*
G37*
G36*
X105810000Y-125770000D02*
G01*
X104110000Y-125770000D01*
X104110000Y-124770000D01*
X105810000Y-124770000D01*
X105810000Y-125770000D01*
G37*
G36*
X216810000Y-100820000D02*
G01*
X215110000Y-100820000D01*
X215110000Y-99820000D01*
X216810000Y-99820000D01*
X216810000Y-100820000D01*
G37*
G36*
X221360000Y-75489700D02*
G01*
X219060000Y-75489700D01*
X219060000Y-73489700D01*
X221360000Y-73489700D01*
X221360000Y-75489700D01*
G37*
G36*
X137035000Y-58844700D02*
G01*
X135735000Y-58844700D01*
X135735000Y-57894700D01*
X137035000Y-57894700D01*
X137035000Y-58844700D01*
G37*
G36*
X145160000Y-66289700D02*
G01*
X142860000Y-66289700D01*
X142860000Y-64289700D01*
X145160000Y-64289700D01*
X145160000Y-66289700D01*
G37*
D10*
X218135000Y-96119700D02*
G75*
G03*
X218135000Y-96119700I-425000J0D01*
G01*
D12*
X94972420Y-142245500D02*
G75*
G03*
X94972420Y-142245500I-750000J0D01*
G01*
D11*
G36*
X216810000Y-62719700D02*
G01*
X215110000Y-62719700D01*
X215110000Y-61719700D01*
X216810000Y-61719700D01*
X216810000Y-62719700D01*
G37*
D10*
X132935000Y-86919700D02*
G75*
G03*
X132935000Y-86919700I-425000J0D01*
G01*
D11*
G36*
X135985000Y-96944700D02*
G01*
X134685000Y-96944700D01*
X134685000Y-95994700D01*
X135985000Y-95994700D01*
X135985000Y-96944700D01*
G37*
D14*
X157085000Y-65369700D02*
G75*
G03*
X157085000Y-65369700I-1025000J0D01*
G01*
D10*
X199085000Y-77069700D02*
G75*
G03*
X199085000Y-77069700I-425000J0D01*
G01*
D15*
X199715000Y-115170000D02*
G75*
G03*
X199715000Y-115170000I-475000J0D01*
G01*
D11*
G36*
X135110000Y-53519700D02*
G01*
X133410000Y-53519700D01*
X133410000Y-52519700D01*
X135110000Y-52519700D01*
X135110000Y-53519700D01*
G37*
D10*
X132935000Y-67869700D02*
G75*
G03*
X132935000Y-67869700I-425000J0D01*
G01*
D11*
G36*
X140610000Y-73969700D02*
G01*
X138910000Y-73969700D01*
X138910000Y-72969700D01*
X140610000Y-72969700D01*
X140610000Y-73969700D01*
G37*
G36*
X216810000Y-83169700D02*
G01*
X215110000Y-83169700D01*
X215110000Y-82169700D01*
X216810000Y-82169700D01*
X216810000Y-83169700D01*
G37*
D12*
X108890950Y-137180010D02*
G75*
G03*
X108890950Y-137180010I-750000J0D01*
G01*
D11*
G36*
X101515000Y-129395000D02*
G01*
X100215000Y-129395000D01*
X100215000Y-128445000D01*
X101515000Y-128445000D01*
X101515000Y-129395000D01*
G37*
G36*
X119260660Y-138854530D02*
G01*
X116995600Y-139253920D01*
X116648310Y-137284310D01*
X118913360Y-136884920D01*
X119260660Y-138854530D01*
G37*
D10*
X122885000Y-70369700D02*
G75*
G03*
X122885000Y-70369700I-425000J0D01*
G01*
D11*
G36*
X116060000Y-94119700D02*
G01*
X114360000Y-94119700D01*
X114360000Y-93119700D01*
X116060000Y-93119700D01*
X116060000Y-94119700D01*
G37*
G36*
X106827880Y-95441200D02*
G01*
X106192880Y-95441200D01*
X106192880Y-94298200D01*
X106827880Y-94298200D01*
X106827880Y-95441200D01*
G37*
D12*
X153000000Y-43779700D02*
G75*
G03*
X153000000Y-43779700I-750000J0D01*
G01*
D17*
X92304100Y-92120000D02*
G75*
G03*
X92304100Y-92120000I-300000J0D01*
G01*
D11*
G36*
X116060000Y-113170000D02*
G01*
X114360000Y-113170000D01*
X114360000Y-112170000D01*
X116060000Y-112170000D01*
X116060000Y-113170000D01*
G37*
D13*
X90228700Y-56680000D02*
G75*
G03*
X90228700Y-56680000I-381000J0D01*
G01*
D12*
X179670000Y-48479700D02*
G75*
G03*
X179670000Y-48479700I-750000J0D01*
G01*
D11*
G36*
X178710000Y-95219700D02*
G01*
X177010000Y-95219700D01*
X177010000Y-94219700D01*
X178710000Y-94219700D01*
X178710000Y-95219700D01*
G37*
D12*
X173320000Y-84039700D02*
G75*
G03*
X173320000Y-84039700I-750000J0D01*
G01*
D14*
X138035000Y-48819700D02*
G75*
G03*
X138035000Y-48819700I-1025000J0D01*
G01*
D15*
X123515000Y-51319700D02*
G75*
G03*
X123515000Y-51319700I-475000J0D01*
G01*
D13*
X91555100Y-70650000D02*
G75*
G03*
X91555100Y-70650000I-381000J0D01*
G01*
D15*
X92744960Y-144307640D02*
G75*
G03*
X92744960Y-144307640I-475000J0D01*
G01*
D11*
G36*
X145160000Y-85339700D02*
G01*
X142860000Y-85339700D01*
X142860000Y-83339700D01*
X145160000Y-83339700D01*
X145160000Y-85339700D01*
G37*
D12*
X153000000Y-100930000D02*
G75*
G03*
X153000000Y-100930000I-750000J0D01*
G01*
D10*
X113885000Y-70369700D02*
G75*
G03*
X113885000Y-70369700I-425000J0D01*
G01*
D11*
G36*
X160285000Y-75244700D02*
G01*
X158985000Y-75244700D01*
X158985000Y-74294700D01*
X160285000Y-74294700D01*
X160285000Y-75244700D01*
G37*
D13*
X90228700Y-71920000D02*
G75*
G03*
X90228700Y-71920000I-381000J0D01*
G01*
D11*
G36*
X170560000Y-104050000D02*
G01*
X168260000Y-104050000D01*
X168260000Y-102050000D01*
X170560000Y-102050000D01*
X170560000Y-104050000D01*
G37*
G36*
X211310000Y-138920000D02*
G01*
X209610000Y-138920000D01*
X209610000Y-137920000D01*
X211310000Y-137920000D01*
X211310000Y-138920000D01*
G37*
D14*
X157085000Y-103470000D02*
G75*
G03*
X157085000Y-103470000I-1025000J0D01*
G01*
D10*
X199085000Y-58019700D02*
G75*
G03*
X199085000Y-58019700I-425000J0D01*
G01*
D14*
X214235000Y-96119700D02*
G75*
G03*
X214235000Y-96119700I-1025000J0D01*
G01*
D11*
G36*
X196535000Y-124845000D02*
G01*
X195235000Y-124845000D01*
X195235000Y-123895000D01*
X196535000Y-123895000D01*
X196535000Y-124845000D01*
G37*
D14*
X176135000Y-51019700D02*
G75*
G03*
X176135000Y-51019700I-1025000J0D01*
G01*
D12*
X140300000Y-43739700D02*
G75*
G03*
X140300000Y-43739700I-750000J0D01*
G01*
D15*
X208605000Y-134220000D02*
G75*
G03*
X208605000Y-134220000I-475000J0D01*
G01*
X170505000Y-108170000D02*
G75*
G03*
X170505000Y-108170000I-475000J0D01*
G01*
D12*
X197450000Y-129140000D02*
G75*
G03*
X197450000Y-129140000I-750000J0D01*
G01*
D11*
G36*
X125609000Y-111705000D02*
G01*
X123909000Y-111705000D01*
X123909000Y-110705000D01*
X125609000Y-110705000D01*
X125609000Y-111705000D01*
G37*
D12*
X114900000Y-67829700D02*
G75*
G03*
X114900000Y-67829700I-750000J0D01*
G01*
X116170000Y-84339700D02*
G75*
G03*
X116170000Y-84339700I-750000J0D01*
G01*
D15*
X132405000Y-105970000D02*
G75*
G03*
X132405000Y-105970000I-475000J0D01*
G01*
D11*
G36*
X154885000Y-56244700D02*
G01*
X153585000Y-56244700D01*
X153585000Y-55294700D01*
X154885000Y-55294700D01*
X154885000Y-56244700D01*
G37*
D15*
X218765000Y-115170000D02*
G75*
G03*
X218765000Y-115170000I-475000J0D01*
G01*
X123515000Y-89419700D02*
G75*
G03*
X123515000Y-89419700I-475000J0D01*
G01*
D11*
G36*
X140610000Y-112070000D02*
G01*
X138910000Y-112070000D01*
X138910000Y-111070000D01*
X140610000Y-111070000D01*
X140610000Y-112070000D01*
G37*
D18*
X94750100Y-126205000D02*
G75*
G03*
X94750100Y-126205000I-1075000J0D01*
G01*
D11*
G36*
X116060000Y-57419700D02*
G01*
X114360000Y-57419700D01*
X114360000Y-56419700D01*
X116060000Y-56419700D01*
X116060000Y-57419700D01*
G37*
D10*
X199085000Y-96119700D02*
G75*
G03*
X199085000Y-96119700I-425000J0D01*
G01*
D15*
X161615000Y-103470000D02*
G75*
G03*
X161615000Y-103470000I-475000J0D01*
G01*
X218765000Y-58019700D02*
G75*
G03*
X218765000Y-58019700I-475000J0D01*
G01*
X142565000Y-67869700D02*
G75*
G03*
X142565000Y-67869700I-475000J0D01*
G01*
D11*
G36*
X221360000Y-132640000D02*
G01*
X219060000Y-132640000D01*
X219060000Y-130640000D01*
X221360000Y-130640000D01*
X221360000Y-132640000D01*
G37*
G36*
X173210000Y-112870000D02*
G01*
X171510000Y-112870000D01*
X171510000Y-111870000D01*
X173210000Y-111870000D01*
X173210000Y-112870000D01*
G37*
D15*
X189555000Y-115170000D02*
G75*
G03*
X189555000Y-115170000I-475000J0D01*
G01*
D11*
G36*
X189610000Y-53899700D02*
G01*
X187310000Y-53899700D01*
X187310000Y-51899700D01*
X189610000Y-51899700D01*
X189610000Y-53899700D01*
G37*
D12*
X95850000Y-109430000D02*
G75*
G03*
X95850000Y-109430000I-750000J0D01*
G01*
D10*
X199085000Y-115170000D02*
G75*
G03*
X199085000Y-115170000I-425000J0D01*
G01*
D11*
G36*
X178710000Y-112870000D02*
G01*
X177010000Y-112870000D01*
X177010000Y-111870000D01*
X178710000Y-111870000D01*
X178710000Y-112870000D01*
G37*
D13*
X91555100Y-50330000D02*
G75*
G03*
X91555100Y-50330000I-381000J0D01*
G01*
D11*
G36*
X99881500Y-76887580D02*
G01*
X98738500Y-76887580D01*
X98738500Y-76252580D01*
X99881500Y-76252580D01*
X99881500Y-76887580D01*
G37*
G36*
X94319730Y-85447740D02*
G01*
X94353400Y-85456760D01*
X94385000Y-85471490D01*
X94413560Y-85491490D01*
X94438210Y-85516140D01*
X94458210Y-85544700D01*
X94472940Y-85576300D01*
X94481960Y-85609970D01*
X94485000Y-85644700D01*
X94485000Y-86044700D01*
X94481960Y-86079430D01*
X94472940Y-86113100D01*
X94458210Y-86144700D01*
X94438210Y-86173260D01*
X94413560Y-86197910D01*
X94385000Y-86217910D01*
X94353400Y-86232640D01*
X94319730Y-86241660D01*
X94285000Y-86244700D01*
X93735000Y-86244700D01*
X93700270Y-86241660D01*
X93666600Y-86232640D01*
X93635000Y-86217910D01*
X93606440Y-86197910D01*
X93581790Y-86173260D01*
X93561790Y-86144700D01*
X93547060Y-86113100D01*
X93538040Y-86079430D01*
X93535000Y-86044700D01*
X93535000Y-85644700D01*
X93538040Y-85609970D01*
X93547060Y-85576300D01*
X93561790Y-85544700D01*
X93581790Y-85516140D01*
X93606440Y-85491490D01*
X93635000Y-85471490D01*
X93666600Y-85456760D01*
X93700270Y-85447740D01*
X93735000Y-85444700D01*
X94285000Y-85444700D01*
X94319730Y-85447740D01*
G37*
G36*
X211310000Y-100820000D02*
G01*
X209610000Y-100820000D01*
X209610000Y-99820000D01*
X211310000Y-99820000D01*
X211310000Y-100820000D01*
G37*
D19*
X91889100Y-99294700D02*
G75*
G03*
X91889100Y-99294700I-900000J0D01*
G01*
D11*
G36*
X183260000Y-87539700D02*
G01*
X180960000Y-87539700D01*
X180960000Y-85539700D01*
X183260000Y-85539700D01*
X183260000Y-87539700D01*
G37*
G36*
X189610000Y-130100000D02*
G01*
X187310000Y-130100000D01*
X187310000Y-128100000D01*
X189610000Y-128100000D01*
X189610000Y-130100000D01*
G37*
D13*
X105468700Y-64300000D02*
G75*
G03*
X105468700Y-64300000I-381000J0D01*
G01*
D11*
G36*
X97854100Y-90420000D02*
G01*
X95754100Y-90420000D01*
X95754100Y-89620000D01*
X97854100Y-89620000D01*
X97854100Y-90420000D01*
G37*
D12*
X153000000Y-81879700D02*
G75*
G03*
X153000000Y-81879700I-750000J0D01*
G01*
D10*
X113885000Y-51319700D02*
G75*
G03*
X113885000Y-51319700I-425000J0D01*
G01*
D13*
X105468700Y-59220000D02*
G75*
G03*
X105468700Y-59220000I-381000J0D01*
G01*
D11*
G36*
X208660000Y-91999700D02*
G01*
X206360000Y-91999700D01*
X206360000Y-89999700D01*
X208660000Y-89999700D01*
X208660000Y-91999700D01*
G37*
D15*
X123515000Y-108470000D02*
G75*
G03*
X123515000Y-108470000I-475000J0D01*
G01*
D10*
X122885000Y-89419700D02*
G75*
G03*
X122885000Y-89419700I-425000J0D01*
G01*
D11*
G36*
X96684060Y-145968060D02*
G01*
X94804680Y-146652100D01*
X94018030Y-144490810D01*
X95897420Y-143806770D01*
X96684060Y-145968060D01*
G37*
G36*
X101854100Y-90420000D02*
G01*
X99754100Y-90420000D01*
X99754100Y-89620000D01*
X101854100Y-89620000D01*
X101854100Y-90420000D01*
G37*
D14*
X91557500Y-139534000D02*
G75*
G03*
X91557500Y-139534000I-1025000J0D01*
G01*
X176135000Y-89119700D02*
G75*
G03*
X176135000Y-89119700I-1025000J0D01*
G01*
D12*
X178400000Y-45939700D02*
G75*
G03*
X178400000Y-45939700I-750000J0D01*
G01*
D11*
G36*
X121560000Y-114570000D02*
G01*
X119860000Y-114570000D01*
X119860000Y-113570000D01*
X121560000Y-113570000D01*
X121560000Y-114570000D01*
G37*
G36*
X173210000Y-95219700D02*
G01*
X171510000Y-95219700D01*
X171510000Y-94219700D01*
X173210000Y-94219700D01*
X173210000Y-95219700D01*
G37*
G36*
X135110000Y-91619700D02*
G01*
X133410000Y-91619700D01*
X133410000Y-90619700D01*
X135110000Y-90619700D01*
X135110000Y-91619700D01*
G37*
D12*
X97120000Y-106890000D02*
G75*
G03*
X97120000Y-106890000I-750000J0D01*
G01*
D11*
G36*
X216810000Y-81769700D02*
G01*
X215110000Y-81769700D01*
X215110000Y-80769700D01*
X216810000Y-80769700D01*
X216810000Y-81769700D01*
G37*
D15*
X180665000Y-51019700D02*
G75*
G03*
X180665000Y-51019700I-475000J0D01*
G01*
D11*
G36*
X215685000Y-107205000D02*
G01*
X214385000Y-107205000D01*
X214385000Y-106255000D01*
X215685000Y-106255000D01*
X215685000Y-107205000D01*
G37*
G36*
X197760000Y-81769700D02*
G01*
X196060000Y-81769700D01*
X196060000Y-80769700D01*
X197760000Y-80769700D01*
X197760000Y-81769700D01*
G37*
D14*
X118985000Y-89419700D02*
G75*
G03*
X118985000Y-89419700I-1025000J0D01*
G01*
X157085000Y-46319700D02*
G75*
G03*
X157085000Y-46319700I-1025000J0D01*
G01*
D10*
X141935000Y-48819700D02*
G75*
G03*
X141935000Y-48819700I-425000J0D01*
G01*
X151985000Y-103470000D02*
G75*
G03*
X151985000Y-103470000I-425000J0D01*
G01*
D13*
X106775100Y-57950000D02*
G75*
G03*
X106775100Y-57950000I-381000J0D01*
G01*
D11*
G36*
X211985000Y-67844700D02*
G01*
X210685000Y-67844700D01*
X210685000Y-66894700D01*
X211985000Y-66894700D01*
X211985000Y-67844700D01*
G37*
G36*
X95681500Y-76887580D02*
G01*
X94538500Y-76887580D01*
X94538500Y-76252580D01*
X95681500Y-76252580D01*
X95681500Y-76887580D01*
G37*
D12*
X178400000Y-84039700D02*
G75*
G03*
X178400000Y-84039700I-750000J0D01*
G01*
D11*
G36*
X116060000Y-95519700D02*
G01*
X114360000Y-95519700D01*
X114360000Y-94519700D01*
X116060000Y-94519700D01*
X116060000Y-95519700D01*
G37*
D16*
X178846000Y-127465000D02*
G75*
G03*
X178846000Y-127465000I-375000J0D01*
G01*
D11*
G36*
X173210000Y-76169700D02*
G01*
X171510000Y-76169700D01*
X171510000Y-75169700D01*
X173210000Y-75169700D01*
X173210000Y-76169700D01*
G37*
G36*
X164210000Y-44739700D02*
G01*
X161910000Y-44739700D01*
X161910000Y-42739700D01*
X164210000Y-42739700D01*
X164210000Y-44739700D01*
G37*
G36*
X112335000Y-124345000D02*
G01*
X111035000Y-124345000D01*
X111035000Y-123395000D01*
X112335000Y-123395000D01*
X112335000Y-124345000D01*
G37*
D14*
X195185000Y-115170000D02*
G75*
G03*
X195185000Y-115170000I-1025000J0D01*
G01*
D11*
G36*
X211310000Y-119870000D02*
G01*
X209610000Y-119870000D01*
X209610000Y-118870000D01*
X211310000Y-118870000D01*
X211310000Y-119870000D01*
G37*
D15*
X189555000Y-96119700D02*
G75*
G03*
X189555000Y-96119700I-475000J0D01*
G01*
D11*
G36*
X206135000Y-106245000D02*
G01*
X204835000Y-106245000D01*
X204835000Y-105295000D01*
X206135000Y-105295000D01*
X206135000Y-106245000D01*
G37*
D15*
X151455000Y-46319700D02*
G75*
G03*
X151455000Y-46319700I-475000J0D01*
G01*
D11*
G36*
X177635000Y-81044700D02*
G01*
X176335000Y-81044700D01*
X176335000Y-80094700D01*
X177635000Y-80094700D01*
X177635000Y-81044700D01*
G37*
G36*
X192260000Y-140320000D02*
G01*
X190560000Y-140320000D01*
X190560000Y-139320000D01*
X192260000Y-139320000D01*
X192260000Y-140320000D01*
G37*
D18*
X204760000Y-67544700D02*
G75*
G03*
X204760000Y-67544700I-1075000J0D01*
G01*
D11*
G36*
X154160000Y-109570000D02*
G01*
X152460000Y-109570000D01*
X152460000Y-108570000D01*
X154160000Y-108570000D01*
X154160000Y-109570000D01*
G37*
G36*
X211539000Y-123805000D02*
G01*
X209839000Y-123805000D01*
X209839000Y-122805000D01*
X211539000Y-122805000D01*
X211539000Y-123805000D01*
G37*
D12*
X197450000Y-71989700D02*
G75*
G03*
X197450000Y-71989700I-750000J0D01*
G01*
X210150000Y-55479700D02*
G75*
G03*
X210150000Y-55479700I-750000J0D01*
G01*
D13*
X91555100Y-65570000D02*
G75*
G03*
X91555100Y-65570000I-381000J0D01*
G01*
X90228700Y-59220000D02*
G75*
G03*
X90228700Y-59220000I-381000J0D01*
G01*
D11*
G36*
X151435000Y-75244700D02*
G01*
X150135000Y-75244700D01*
X150135000Y-74294700D01*
X151435000Y-74294700D01*
X151435000Y-75244700D01*
G37*
G36*
X121560000Y-56019700D02*
G01*
X119860000Y-56019700D01*
X119860000Y-55019700D01*
X121560000Y-55019700D01*
X121560000Y-56019700D01*
G37*
D18*
X102664000Y-139008000D02*
G75*
G03*
X102664000Y-139008000I-1075000J0D01*
G01*
D11*
G36*
X212125000Y-104765000D02*
G01*
X210825000Y-104765000D01*
X210825000Y-103815000D01*
X212125000Y-103815000D01*
X212125000Y-104765000D01*
G37*
G36*
X94360000Y-107850000D02*
G01*
X92060000Y-107850000D01*
X92060000Y-105850000D01*
X94360000Y-105850000D01*
X94360000Y-107850000D01*
G37*
G36*
X158435000Y-94344700D02*
G01*
X157135000Y-94344700D01*
X157135000Y-93394700D01*
X158435000Y-93394700D01*
X158435000Y-94344700D01*
G37*
D15*
X104465000Y-111970000D02*
G75*
G03*
X104465000Y-111970000I-475000J0D01*
G01*
D14*
X138035000Y-105970000D02*
G75*
G03*
X138035000Y-105970000I-1025000J0D01*
G01*
D11*
G36*
X211619000Y-86844700D02*
G01*
X209919000Y-86844700D01*
X209919000Y-85844700D01*
X211619000Y-85844700D01*
X211619000Y-86844700D01*
G37*
D16*
X178846000Y-140165000D02*
G75*
G03*
X178846000Y-140165000I-375000J0D01*
G01*
D10*
X89418410Y-135305380D02*
G75*
G03*
X89418410Y-135305380I-425000J0D01*
G01*
D11*
G36*
X170560000Y-65949700D02*
G01*
X168260000Y-65949700D01*
X168260000Y-63949700D01*
X170560000Y-63949700D01*
X170560000Y-65949700D01*
G37*
D10*
X132935000Y-105970000D02*
G75*
G03*
X132935000Y-105970000I-425000J0D01*
G01*
D11*
G36*
X178710000Y-57119700D02*
G01*
X177010000Y-57119700D01*
X177010000Y-56119700D01*
X178710000Y-56119700D01*
X178710000Y-57119700D01*
G37*
D12*
X192370000Y-71989700D02*
G75*
G03*
X192370000Y-71989700I-750000J0D01*
G01*
D11*
G36*
X173210000Y-114270000D02*
G01*
X171510000Y-114270000D01*
X171510000Y-113270000D01*
X173210000Y-113270000D01*
X173210000Y-114270000D01*
G37*
D12*
X159350000Y-98390000D02*
G75*
G03*
X159350000Y-98390000I-750000J0D01*
G01*
D15*
X132405000Y-67869700D02*
G75*
G03*
X132405000Y-67869700I-475000J0D01*
G01*
D11*
G36*
X103627880Y-87141200D02*
G01*
X102992880Y-87141200D01*
X102992880Y-85998200D01*
X103627880Y-85998200D01*
X103627880Y-87141200D01*
G37*
D19*
X105889000Y-99294700D02*
G75*
G03*
X105889000Y-99294700I-900000J0D01*
G01*
D11*
G36*
X159660000Y-52419700D02*
G01*
X157960000Y-52419700D01*
X157960000Y-51419700D01*
X159660000Y-51419700D01*
X159660000Y-52419700D01*
G37*
G36*
X151510000Y-99350000D02*
G01*
X149210000Y-99350000D01*
X149210000Y-97350000D01*
X151510000Y-97350000D01*
X151510000Y-99350000D01*
G37*
D12*
X216500000Y-52939700D02*
G75*
G03*
X216500000Y-52939700I-750000J0D01*
G01*
D20*
X102253350Y-80540000D02*
G75*
G03*
X102253350Y-80540000I-349250J0D01*
G01*
D11*
G36*
X197760000Y-138920000D02*
G01*
X196060000Y-138920000D01*
X196060000Y-137920000D01*
X197760000Y-137920000D01*
X197760000Y-138920000D01*
G37*
D20*
X94633350Y-80540000D02*
G75*
G03*
X94633350Y-80540000I-349250J0D01*
G01*
D11*
G36*
X202310000Y-113590000D02*
G01*
X200010000Y-113590000D01*
X200010000Y-111590000D01*
X202310000Y-111590000D01*
X202310000Y-113590000D01*
G37*
D12*
X122520000Y-67829700D02*
G75*
G03*
X122520000Y-67829700I-750000J0D01*
G01*
D17*
X99304100Y-93870000D02*
G75*
G03*
X99304100Y-93870000I-300000J0D01*
G01*
D11*
G36*
X100310000Y-124370000D02*
G01*
X98610000Y-124370000D01*
X98610000Y-123370000D01*
X100310000Y-123370000D01*
X100310000Y-124370000D01*
G37*
D12*
X160620000Y-100930000D02*
G75*
G03*
X160620000Y-100930000I-750000J0D01*
G01*
D11*
G36*
X132460000Y-101850000D02*
G01*
X130160000Y-101850000D01*
X130160000Y-99850000D01*
X132460000Y-99850000D01*
X132460000Y-101850000D01*
G37*
D12*
X135220000Y-100890000D02*
G75*
G03*
X135220000Y-100890000I-750000J0D01*
G01*
D11*
G36*
X217119000Y-86844700D02*
G01*
X215419000Y-86844700D01*
X215419000Y-85844700D01*
X217119000Y-85844700D01*
X217119000Y-86844700D01*
G37*
D12*
X154270000Y-79339700D02*
G75*
G03*
X154270000Y-79339700I-750000J0D01*
G01*
X141570000Y-65329700D02*
G75*
G03*
X141570000Y-65329700I-750000J0D01*
G01*
X116170000Y-65289700D02*
G75*
G03*
X116170000Y-65289700I-750000J0D01*
G01*
D11*
G36*
X197760000Y-83169700D02*
G01*
X196060000Y-83169700D01*
X196060000Y-82169700D01*
X197760000Y-82169700D01*
X197760000Y-83169700D01*
G37*
D15*
X113355000Y-89419700D02*
G75*
G03*
X113355000Y-89419700I-475000J0D01*
G01*
D12*
X178400000Y-103090000D02*
G75*
G03*
X178400000Y-103090000I-750000J0D01*
G01*
D11*
G36*
X159660000Y-71469700D02*
G01*
X157960000Y-71469700D01*
X157960000Y-70469700D01*
X159660000Y-70469700D01*
X159660000Y-71469700D01*
G37*
D15*
X106924180Y-134899130D02*
G75*
G03*
X106924180Y-134899130I-475000J0D01*
G01*
D12*
X217770000Y-131680000D02*
G75*
G03*
X217770000Y-131680000I-750000J0D01*
G01*
D15*
X199715000Y-77069700D02*
G75*
G03*
X199715000Y-77069700I-475000J0D01*
G01*
D11*
G36*
X147885000Y-75244700D02*
G01*
X146585000Y-75244700D01*
X146585000Y-74294700D01*
X147885000Y-74294700D01*
X147885000Y-75244700D01*
G37*
D12*
X191100000Y-55479700D02*
G75*
G03*
X191100000Y-55479700I-750000J0D01*
G01*
D21*
X90845000Y-81014700D02*
G75*
G03*
X90845000Y-81014700I-500000J0D01*
G01*
D12*
X198720000Y-93579700D02*
G75*
G03*
X198720000Y-93579700I-750000J0D01*
G01*
D11*
G36*
X192260000Y-64119700D02*
G01*
X190560000Y-64119700D01*
X190560000Y-63119700D01*
X192260000Y-63119700D01*
X192260000Y-64119700D01*
G37*
G36*
X94854100Y-90420000D02*
G01*
X92754100Y-90420000D01*
X92754100Y-89620000D01*
X94854100Y-89620000D01*
X94854100Y-90420000D01*
G37*
D12*
X122520000Y-48779700D02*
G75*
G03*
X122520000Y-48779700I-750000J0D01*
G01*
X198720000Y-55479700D02*
G75*
G03*
X198720000Y-55479700I-750000J0D01*
G01*
D11*
G36*
X94319730Y-87097740D02*
G01*
X94353400Y-87106760D01*
X94385000Y-87121490D01*
X94413560Y-87141490D01*
X94438210Y-87166140D01*
X94458210Y-87194700D01*
X94472940Y-87226300D01*
X94481960Y-87259970D01*
X94485000Y-87294700D01*
X94485000Y-87694700D01*
X94481960Y-87729430D01*
X94472940Y-87763100D01*
X94458210Y-87794700D01*
X94438210Y-87823260D01*
X94413560Y-87847910D01*
X94385000Y-87867910D01*
X94353400Y-87882640D01*
X94319730Y-87891660D01*
X94285000Y-87894700D01*
X93735000Y-87894700D01*
X93700270Y-87891660D01*
X93666600Y-87882640D01*
X93635000Y-87867910D01*
X93606440Y-87847910D01*
X93581790Y-87823260D01*
X93561790Y-87794700D01*
X93547060Y-87763100D01*
X93538040Y-87729430D01*
X93535000Y-87694700D01*
X93535000Y-87294700D01*
X93538040Y-87259970D01*
X93547060Y-87226300D01*
X93561790Y-87194700D01*
X93581790Y-87166140D01*
X93606440Y-87141490D01*
X93635000Y-87121490D01*
X93666600Y-87106760D01*
X93700270Y-87097740D01*
X93735000Y-87094700D01*
X94285000Y-87094700D01*
X94319730Y-87097740D01*
G37*
D12*
X179670000Y-86579700D02*
G75*
G03*
X179670000Y-86579700I-750000J0D01*
G01*
D10*
X171035000Y-51019700D02*
G75*
G03*
X171035000Y-51019700I-425000J0D01*
G01*
X180035000Y-89119700D02*
G75*
G03*
X180035000Y-89119700I-425000J0D01*
G01*
X160985000Y-103470000D02*
G75*
G03*
X160985000Y-103470000I-425000J0D01*
G01*
X151985000Y-65369700D02*
G75*
G03*
X151985000Y-65369700I-425000J0D01*
G01*
D15*
X208605000Y-58019700D02*
G75*
G03*
X208605000Y-58019700I-475000J0D01*
G01*
D11*
G36*
X178710000Y-76169700D02*
G01*
X177010000Y-76169700D01*
X177010000Y-75169700D01*
X178710000Y-75169700D01*
X178710000Y-76169700D01*
G37*
G36*
X121560000Y-76469700D02*
G01*
X119860000Y-76469700D01*
X119860000Y-75469700D01*
X121560000Y-75469700D01*
X121560000Y-76469700D01*
G37*
G36*
X182127120Y-136440920D02*
G01*
X181492120Y-136440920D01*
X181492120Y-135297920D01*
X182127120Y-135297920D01*
X182127120Y-136440920D01*
G37*
D12*
X210150000Y-93579700D02*
G75*
G03*
X210150000Y-93579700I-750000J0D01*
G01*
X197450000Y-91039700D02*
G75*
G03*
X197450000Y-91039700I-750000J0D01*
G01*
X159350000Y-79339700D02*
G75*
G03*
X159350000Y-79339700I-750000J0D01*
G01*
D11*
G36*
X211310000Y-102220000D02*
G01*
X209610000Y-102220000D01*
X209610000Y-101220000D01*
X211310000Y-101220000D01*
X211310000Y-102220000D01*
G37*
D12*
X216500000Y-71989700D02*
G75*
G03*
X216500000Y-71989700I-750000J0D01*
G01*
D11*
G36*
X97781500Y-76887580D02*
G01*
X96638500Y-76887580D01*
X96638500Y-76252580D01*
X97781500Y-76252580D01*
X97781500Y-76887580D01*
G37*
G36*
X202545000Y-61644700D02*
G01*
X201245000Y-61644700D01*
X201245000Y-60694700D01*
X202545000Y-60694700D01*
X202545000Y-61644700D01*
G37*
D12*
X140300000Y-100890000D02*
G75*
G03*
X140300000Y-100890000I-750000J0D01*
G01*
D11*
G36*
X181049000Y-61734700D02*
G01*
X179349000Y-61734700D01*
X179349000Y-60734700D01*
X181049000Y-60734700D01*
X181049000Y-61734700D01*
G37*
G36*
X159660000Y-89119700D02*
G01*
X157960000Y-89119700D01*
X157960000Y-88119700D01*
X159660000Y-88119700D01*
X159660000Y-89119700D01*
G37*
G36*
X97781500Y-75886820D02*
G01*
X96638500Y-75886820D01*
X96638500Y-75251820D01*
X97781500Y-75251820D01*
X97781500Y-75886820D01*
G37*
G36*
X192260000Y-100820000D02*
G01*
X190560000Y-100820000D01*
X190560000Y-99820000D01*
X192260000Y-99820000D01*
X192260000Y-100820000D01*
G37*
G36*
X103354100Y-94620000D02*
G01*
X101254100Y-94620000D01*
X101254100Y-93820000D01*
X103354100Y-93820000D01*
X103354100Y-94620000D01*
G37*
D13*
X91555100Y-63030000D02*
G75*
G03*
X91555100Y-63030000I-381000J0D01*
G01*
D11*
G36*
X120545000Y-99344700D02*
G01*
X119245000Y-99344700D01*
X119245000Y-98394700D01*
X120545000Y-98394700D01*
X120545000Y-99344700D01*
G37*
D15*
X218765000Y-134220000D02*
G75*
G03*
X218765000Y-134220000I-475000J0D01*
G01*
D12*
X173320000Y-45939700D02*
G75*
G03*
X173320000Y-45939700I-750000J0D01*
G01*
D14*
X138035000Y-67869700D02*
G75*
G03*
X138035000Y-67869700I-1025000J0D01*
G01*
D11*
G36*
X116060000Y-75069700D02*
G01*
X114360000Y-75069700D01*
X114360000Y-74069700D01*
X116060000Y-74069700D01*
X116060000Y-75069700D01*
G37*
G36*
X113410000Y-66249700D02*
G01*
X111110000Y-66249700D01*
X111110000Y-64249700D01*
X113410000Y-64249700D01*
X113410000Y-66249700D01*
G37*
G36*
X159660000Y-70069700D02*
G01*
X157960000Y-70069700D01*
X157960000Y-69069700D01*
X159660000Y-69069700D01*
X159660000Y-70069700D01*
G37*
G36*
X115183330Y-128688100D02*
G01*
X112622830Y-129139590D01*
X112171350Y-126579090D01*
X114731850Y-126127600D01*
X115183330Y-128688100D01*
G37*
D10*
X209135000Y-77069700D02*
G75*
G03*
X209135000Y-77069700I-425000J0D01*
G01*
D11*
G36*
X216810000Y-138920000D02*
G01*
X215110000Y-138920000D01*
X215110000Y-137920000D01*
X216810000Y-137920000D01*
X216810000Y-138920000D01*
G37*
G36*
X91560630Y-149375900D02*
G01*
X89117430Y-150265150D01*
X88228180Y-147821950D01*
X90671380Y-146932700D01*
X91560630Y-149375900D01*
G37*
G36*
X183260000Y-106590000D02*
G01*
X180960000Y-106590000D01*
X180960000Y-104590000D01*
X183260000Y-104590000D01*
X183260000Y-106590000D01*
G37*
D12*
X133950000Y-65329700D02*
G75*
G03*
X133950000Y-65329700I-750000J0D01*
G01*
X85738310Y-141551920D02*
G75*
G03*
X85738310Y-141551920I-750000J0D01*
G01*
D15*
X199715000Y-134220000D02*
G75*
G03*
X199715000Y-134220000I-475000J0D01*
G01*
D12*
X121250000Y-84339700D02*
G75*
G03*
X121250000Y-84339700I-750000J0D01*
G01*
D13*
X91555100Y-73190000D02*
G75*
G03*
X91555100Y-73190000I-381000J0D01*
G01*
D11*
G36*
X140610000Y-53519700D02*
G01*
X138910000Y-53519700D01*
X138910000Y-52519700D01*
X140610000Y-52519700D01*
X140610000Y-53519700D01*
G37*
G36*
X202310000Y-75489700D02*
G01*
X200010000Y-75489700D01*
X200010000Y-73489700D01*
X202310000Y-73489700D01*
X202310000Y-75489700D01*
G37*
D12*
X95187410Y-135409720D02*
G75*
G03*
X95187410Y-135409720I-750000J0D01*
G01*
X210150000Y-131680000D02*
G75*
G03*
X210150000Y-131680000I-750000J0D01*
G01*
D11*
G36*
X182127120Y-138540920D02*
G01*
X181492120Y-138540920D01*
X181492120Y-137397920D01*
X182127120Y-137397920D01*
X182127120Y-138540920D01*
G37*
G36*
X154160000Y-89119700D02*
G01*
X152460000Y-89119700D01*
X152460000Y-88119700D01*
X154160000Y-88119700D01*
X154160000Y-89119700D01*
G37*
D10*
X199085000Y-134220000D02*
G75*
G03*
X199085000Y-134220000I-425000J0D01*
G01*
D11*
G36*
X197760000Y-121270000D02*
G01*
X196060000Y-121270000D01*
X196060000Y-120270000D01*
X197760000Y-120270000D01*
X197760000Y-121270000D01*
G37*
G36*
X133485000Y-58844700D02*
G01*
X132185000Y-58844700D01*
X132185000Y-57894700D01*
X133485000Y-57894700D01*
X133485000Y-58844700D01*
G37*
D14*
X176135000Y-108170000D02*
G75*
G03*
X176135000Y-108170000I-1025000J0D01*
G01*
X176135000Y-70069700D02*
G75*
G03*
X176135000Y-70069700I-1025000J0D01*
G01*
D16*
X178846000Y-124925000D02*
G75*
G03*
X178846000Y-124925000I-375000J0D01*
G01*
D11*
G36*
X192260000Y-119870000D02*
G01*
X190560000Y-119870000D01*
X190560000Y-118870000D01*
X192260000Y-118870000D01*
X192260000Y-119870000D01*
G37*
G36*
X178710000Y-74769700D02*
G01*
X177010000Y-74769700D01*
X177010000Y-73769700D01*
X178710000Y-73769700D01*
X178710000Y-74769700D01*
G37*
D13*
X90228700Y-66840000D02*
G75*
G03*
X90228700Y-66840000I-381000J0D01*
G01*
D11*
G36*
X103354100Y-92170000D02*
G01*
X101254100Y-92170000D01*
X101254100Y-91370000D01*
X103354100Y-91370000D01*
X103354100Y-92170000D01*
G37*
D12*
X191100000Y-74529700D02*
G75*
G03*
X191100000Y-74529700I-750000J0D01*
G01*
D15*
X170505000Y-51019700D02*
G75*
G03*
X170505000Y-51019700I-475000J0D01*
G01*
X161615000Y-65369700D02*
G75*
G03*
X161615000Y-65369700I-475000J0D01*
G01*
D11*
G36*
X173210000Y-57119700D02*
G01*
X171510000Y-57119700D01*
X171510000Y-56119700D01*
X173210000Y-56119700D01*
X173210000Y-57119700D01*
G37*
G36*
X107060000Y-110390000D02*
G01*
X104760000Y-110390000D01*
X104760000Y-108390000D01*
X107060000Y-108390000D01*
X107060000Y-110390000D01*
G37*
D12*
X154270000Y-60289700D02*
G75*
G03*
X154270000Y-60289700I-750000J0D01*
G01*
D11*
G36*
X216810000Y-140320000D02*
G01*
X215110000Y-140320000D01*
X215110000Y-139320000D01*
X216810000Y-139320000D01*
X216810000Y-140320000D01*
G37*
G36*
X101854100Y-96370000D02*
G01*
X99754100Y-96370000D01*
X99754100Y-95570000D01*
X101854100Y-95570000D01*
X101854100Y-96370000D01*
G37*
G36*
X130755000Y-52374700D02*
G01*
X129455000Y-52374700D01*
X129455000Y-51424700D01*
X130755000Y-51424700D01*
X130755000Y-52374700D01*
G37*
D13*
X106775100Y-75730000D02*
G75*
G03*
X106775100Y-75730000I-381000J0D01*
G01*
D11*
G36*
X132460000Y-82799700D02*
G01*
X130160000Y-82799700D01*
X130160000Y-80799700D01*
X132460000Y-80799700D01*
X132460000Y-82799700D01*
G37*
G36*
X121560000Y-95519700D02*
G01*
X119860000Y-95519700D01*
X119860000Y-94519700D01*
X121560000Y-94519700D01*
X121560000Y-95519700D01*
G37*
D12*
X211420000Y-129140000D02*
G75*
G03*
X211420000Y-129140000I-750000J0D01*
G01*
D11*
G36*
X189610000Y-111050000D02*
G01*
X187310000Y-111050000D01*
X187310000Y-109050000D01*
X189610000Y-109050000D01*
X189610000Y-111050000D01*
G37*
D14*
X214235000Y-58019700D02*
G75*
G03*
X214235000Y-58019700I-1025000J0D01*
G01*
D11*
G36*
X106312540Y-138558450D02*
G01*
X104047480Y-138957840D01*
X103700180Y-136988230D01*
X105965240Y-136588840D01*
X106312540Y-138558450D01*
G37*
D14*
X118985000Y-70369700D02*
G75*
G03*
X118985000Y-70369700I-1025000J0D01*
G01*
D12*
X154270000Y-41239700D02*
G75*
G03*
X154270000Y-41239700I-750000J0D01*
G01*
X179670000Y-67529700D02*
G75*
G03*
X179670000Y-67529700I-750000J0D01*
G01*
D11*
G36*
X121560000Y-75069700D02*
G01*
X119860000Y-75069700D01*
X119860000Y-74069700D01*
X121560000Y-74069700D01*
X121560000Y-75069700D01*
G37*
D15*
X161615000Y-46319700D02*
G75*
G03*
X161615000Y-46319700I-475000J0D01*
G01*
D11*
G36*
X144510000Y-112090000D02*
G01*
X142810000Y-112090000D01*
X142810000Y-111090000D01*
X144510000Y-111090000D01*
X144510000Y-112090000D01*
G37*
G36*
X126110000Y-87839700D02*
G01*
X123810000Y-87839700D01*
X123810000Y-85839700D01*
X126110000Y-85839700D01*
X126110000Y-87839700D01*
G37*
D12*
X217770000Y-55479700D02*
G75*
G03*
X217770000Y-55479700I-750000J0D01*
G01*
D10*
X160985000Y-84419700D02*
G75*
G03*
X160985000Y-84419700I-425000J0D01*
G01*
D15*
X151455000Y-84419700D02*
G75*
G03*
X151455000Y-84419700I-475000J0D01*
G01*
D11*
G36*
X97010000Y-118070000D02*
G01*
X95310000Y-118070000D01*
X95310000Y-117070000D01*
X97010000Y-117070000D01*
X97010000Y-118070000D01*
G37*
D15*
X170505000Y-89119700D02*
G75*
G03*
X170505000Y-89119700I-475000J0D01*
G01*
X132405000Y-86919700D02*
G75*
G03*
X132405000Y-86919700I-475000J0D01*
G01*
D11*
G36*
X159660000Y-108170000D02*
G01*
X157960000Y-108170000D01*
X157960000Y-107170000D01*
X159660000Y-107170000D01*
X159660000Y-108170000D01*
G37*
D13*
X106775100Y-47790000D02*
G75*
G03*
X106775100Y-47790000I-381000J0D01*
G01*
D12*
X173320000Y-103090000D02*
G75*
G03*
X173320000Y-103090000I-750000J0D01*
G01*
D11*
G36*
X141759000Y-58274700D02*
G01*
X140059000Y-58274700D01*
X140059000Y-57274700D01*
X141759000Y-57274700D01*
X141759000Y-58274700D01*
G37*
D14*
X138035000Y-86919700D02*
G75*
G03*
X138035000Y-86919700I-1025000J0D01*
G01*
D11*
G36*
X211310000Y-64119700D02*
G01*
X209610000Y-64119700D01*
X209610000Y-63119700D01*
X211310000Y-63119700D01*
X211310000Y-64119700D01*
G37*
D12*
X210150000Y-74529700D02*
G75*
G03*
X210150000Y-74529700I-750000J0D01*
G01*
D11*
G36*
X101971500Y-76887580D02*
G01*
X100828500Y-76887580D01*
X100828500Y-76252580D01*
X101971500Y-76252580D01*
X101971500Y-76887580D01*
G37*
D10*
X190085000Y-96119700D02*
G75*
G03*
X190085000Y-96119700I-425000J0D01*
G01*
X209135000Y-58019700D02*
G75*
G03*
X209135000Y-58019700I-425000J0D01*
G01*
D12*
X121250000Y-65289700D02*
G75*
G03*
X121250000Y-65289700I-750000J0D01*
G01*
D11*
G36*
X125609000Y-113105000D02*
G01*
X123909000Y-113105000D01*
X123909000Y-112105000D01*
X125609000Y-112105000D01*
X125609000Y-113105000D01*
G37*
D10*
X190085000Y-77069700D02*
G75*
G03*
X190085000Y-77069700I-425000J0D01*
G01*
D13*
X105468700Y-56680000D02*
G75*
G03*
X105468700Y-56680000I-381000J0D01*
G01*
D11*
G36*
X178710000Y-114270000D02*
G01*
X177010000Y-114270000D01*
X177010000Y-113270000D01*
X178710000Y-113270000D01*
X178710000Y-114270000D01*
G37*
G36*
X202310000Y-94539700D02*
G01*
X200010000Y-94539700D01*
X200010000Y-92539700D01*
X202310000Y-92539700D01*
X202310000Y-94539700D01*
G37*
D14*
X118985000Y-108470000D02*
G75*
G03*
X118985000Y-108470000I-1025000J0D01*
G01*
D13*
X105468700Y-71920000D02*
G75*
G03*
X105468700Y-71920000I-381000J0D01*
G01*
X105468700Y-77000000D02*
G75*
G03*
X105468700Y-77000000I-381000J0D01*
G01*
D10*
X180035000Y-108170000D02*
G75*
G03*
X180035000Y-108170000I-425000J0D01*
G01*
D12*
X178400000Y-64989700D02*
G75*
G03*
X178400000Y-64989700I-750000J0D01*
G01*
D11*
G36*
X126110000Y-106890000D02*
G01*
X123810000Y-106890000D01*
X123810000Y-104890000D01*
X126110000Y-104890000D01*
X126110000Y-106890000D01*
G37*
D10*
X190085000Y-115170000D02*
G75*
G03*
X190085000Y-115170000I-425000J0D01*
G01*
D13*
X91555100Y-52870000D02*
G75*
G03*
X91555100Y-52870000I-381000J0D01*
G01*
D10*
X132935000Y-48819700D02*
G75*
G03*
X132935000Y-48819700I-425000J0D01*
G01*
X180035000Y-51019700D02*
G75*
G03*
X180035000Y-51019700I-425000J0D01*
G01*
D12*
X121250000Y-46239700D02*
G75*
G03*
X121250000Y-46239700I-750000J0D01*
G01*
X122520000Y-86879700D02*
G75*
G03*
X122520000Y-86879700I-750000J0D01*
G01*
D11*
G36*
X131109000Y-113105000D02*
G01*
X129409000Y-113105000D01*
X129409000Y-112105000D01*
X131109000Y-112105000D01*
X131109000Y-113105000D01*
G37*
D12*
X211420000Y-91039700D02*
G75*
G03*
X211420000Y-91039700I-750000J0D01*
G01*
D11*
G36*
X202310000Y-56439700D02*
G01*
X200010000Y-56439700D01*
X200010000Y-54439700D01*
X202310000Y-54439700D01*
X202310000Y-56439700D01*
G37*
D12*
X159350000Y-41239700D02*
G75*
G03*
X159350000Y-41239700I-750000J0D01*
G01*
X96924870Y-140183360D02*
G75*
G03*
X96924870Y-140183360I-750000J0D01*
G01*
D11*
G36*
X127205000Y-52374700D02*
G01*
X125905000Y-52374700D01*
X125905000Y-51424700D01*
X127205000Y-51424700D01*
X127205000Y-52374700D01*
G37*
G36*
X174035000Y-99144700D02*
G01*
X172735000Y-99144700D01*
X172735000Y-98194700D01*
X174035000Y-98194700D01*
X174035000Y-99144700D01*
G37*
D10*
X103835000Y-111970000D02*
G75*
G03*
X103835000Y-111970000I-425000J0D01*
G01*
D15*
X208605000Y-77069700D02*
G75*
G03*
X208605000Y-77069700I-475000J0D01*
G01*
D11*
G36*
X121560000Y-94119700D02*
G01*
X119860000Y-94119700D01*
X119860000Y-93119700D01*
X121560000Y-93119700D01*
X121560000Y-94119700D01*
G37*
D12*
X89515740Y-145497940D02*
G75*
G03*
X89515740Y-145497940I-750000J0D01*
G01*
D11*
G36*
X212135000Y-107205000D02*
G01*
X210835000Y-107205000D01*
X210835000Y-106255000D01*
X212135000Y-106255000D01*
X212135000Y-107205000D01*
G37*
G36*
X215675000Y-104765000D02*
G01*
X214375000Y-104765000D01*
X214375000Y-103815000D01*
X215675000Y-103815000D01*
X215675000Y-104765000D01*
G37*
D12*
X114900000Y-86879700D02*
G75*
G03*
X114900000Y-86879700I-750000J0D01*
G01*
D15*
X113355000Y-108470000D02*
G75*
G03*
X113355000Y-108470000I-475000J0D01*
G01*
D11*
G36*
X102510000Y-118070000D02*
G01*
X100810000Y-118070000D01*
X100810000Y-117070000D01*
X102510000Y-117070000D01*
X102510000Y-118070000D01*
G37*
D12*
X133950000Y-103430000D02*
G75*
G03*
X133950000Y-103430000I-750000J0D01*
G01*
D11*
G36*
X135110000Y-72569700D02*
G01*
X133410000Y-72569700D01*
X133410000Y-71569700D01*
X135110000Y-71569700D01*
X135110000Y-72569700D01*
G37*
D12*
X192370000Y-110090000D02*
G75*
G03*
X192370000Y-110090000I-750000J0D01*
G01*
D10*
X94835000Y-111970000D02*
G75*
G03*
X94835000Y-111970000I-425000J0D01*
G01*
D11*
G36*
X140610000Y-110670000D02*
G01*
X138910000Y-110670000D01*
X138910000Y-109670000D01*
X140610000Y-109670000D01*
X140610000Y-110670000D01*
G37*
G36*
X211310000Y-140320000D02*
G01*
X209610000Y-140320000D01*
X209610000Y-139320000D01*
X211310000Y-139320000D01*
X211310000Y-140320000D01*
G37*
D10*
X171035000Y-70069700D02*
G75*
G03*
X171035000Y-70069700I-425000J0D01*
G01*
D16*
X178846000Y-135085000D02*
G75*
G03*
X178846000Y-135085000I-375000J0D01*
G01*
D11*
G36*
X104141590Y-132869000D02*
G01*
X101581090Y-133320480D01*
X101129600Y-130759980D01*
X103690100Y-130308500D01*
X104141590Y-132869000D01*
G37*
D18*
X167078000Y-98644700D02*
G75*
G03*
X167078000Y-98644700I-1075000J0D01*
G01*
D11*
G36*
X101035000Y-103945000D02*
G01*
X99735000Y-103945000D01*
X99735000Y-102995000D01*
X101035000Y-102995000D01*
X101035000Y-103945000D01*
G37*
G36*
X102510000Y-116670000D02*
G01*
X100810000Y-116670000D01*
X100810000Y-115670000D01*
X102510000Y-115670000D01*
X102510000Y-116670000D01*
G37*
G36*
X197760000Y-62719700D02*
G01*
X196060000Y-62719700D01*
X196060000Y-61719700D01*
X197760000Y-61719700D01*
X197760000Y-62719700D01*
G37*
G36*
X120535000Y-80344700D02*
G01*
X119235000Y-80344700D01*
X119235000Y-79394700D01*
X120535000Y-79394700D01*
X120535000Y-80344700D01*
G37*
D10*
X171035000Y-89119700D02*
G75*
G03*
X171035000Y-89119700I-425000J0D01*
G01*
D11*
G36*
X101971500Y-75886820D02*
G01*
X100828500Y-75886820D01*
X100828500Y-75251820D01*
X101971500Y-75251820D01*
X101971500Y-75886820D01*
G37*
D14*
X195185000Y-96119700D02*
G75*
G03*
X195185000Y-96119700I-1025000J0D01*
G01*
D11*
G36*
X164685000Y-93244700D02*
G01*
X163385000Y-93244700D01*
X163385000Y-92294700D01*
X164685000Y-92294700D01*
X164685000Y-93244700D01*
G37*
D15*
X116929820Y-133134870D02*
G75*
G03*
X116929820Y-133134870I-475000J0D01*
G01*
D12*
X86095540Y-136101010D02*
G75*
G03*
X86095540Y-136101010I-750000J0D01*
G01*
D11*
G36*
X150010000Y-112090000D02*
G01*
X148310000Y-112090000D01*
X148310000Y-111090000D01*
X150010000Y-111090000D01*
X150010000Y-112090000D01*
G37*
G36*
X154885000Y-94344700D02*
G01*
X153585000Y-94344700D01*
X153585000Y-93394700D01*
X154885000Y-93394700D01*
X154885000Y-94344700D01*
G37*
D15*
X199715000Y-58019700D02*
G75*
G03*
X199715000Y-58019700I-475000J0D01*
G01*
D11*
G36*
X164210000Y-82839700D02*
G01*
X161910000Y-82839700D01*
X161910000Y-80839700D01*
X164210000Y-80839700D01*
X164210000Y-82839700D01*
G37*
G36*
X172385000Y-60944700D02*
G01*
X171085000Y-60944700D01*
X171085000Y-59994700D01*
X172385000Y-59994700D01*
X172385000Y-60944700D01*
G37*
G36*
X116060000Y-56019700D02*
G01*
X114360000Y-56019700D01*
X114360000Y-55019700D01*
X116060000Y-55019700D01*
X116060000Y-56019700D01*
G37*
G36*
X217039000Y-125205000D02*
G01*
X215339000Y-125205000D01*
X215339000Y-124205000D01*
X217039000Y-124205000D01*
X217039000Y-125205000D01*
G37*
D15*
X123515000Y-70369700D02*
G75*
G03*
X123515000Y-70369700I-475000J0D01*
G01*
D10*
X141935000Y-105970000D02*
G75*
G03*
X141935000Y-105970000I-425000J0D01*
G01*
D11*
G36*
X211310000Y-121270000D02*
G01*
X209610000Y-121270000D01*
X209610000Y-120270000D01*
X211310000Y-120270000D01*
X211310000Y-121270000D01*
G37*
G36*
X95681500Y-75886820D02*
G01*
X94538500Y-75886820D01*
X94538500Y-75251820D01*
X95681500Y-75251820D01*
X95681500Y-75886820D01*
G37*
D12*
X197450000Y-52939700D02*
G75*
G03*
X197450000Y-52939700I-750000J0D01*
G01*
D13*
X90228700Y-69380000D02*
G75*
G03*
X90228700Y-69380000I-381000J0D01*
G01*
D15*
X218765000Y-77069700D02*
G75*
G03*
X218765000Y-77069700I-475000J0D01*
G01*
D11*
G36*
X217119000Y-88244700D02*
G01*
X215419000Y-88244700D01*
X215419000Y-87244700D01*
X217119000Y-87244700D01*
X217119000Y-88244700D01*
G37*
G36*
X216810000Y-102220000D02*
G01*
X215110000Y-102220000D01*
X215110000Y-101220000D01*
X216810000Y-101220000D01*
X216810000Y-102220000D01*
G37*
D16*
X178846000Y-130005000D02*
G75*
G03*
X178846000Y-130005000I-375000J0D01*
G01*
D12*
X191100000Y-93579700D02*
G75*
G03*
X191100000Y-93579700I-750000J0D01*
G01*
X114900000Y-48779700D02*
G75*
G03*
X114900000Y-48779700I-750000J0D01*
G01*
D11*
G36*
X164210000Y-63789700D02*
G01*
X161910000Y-63789700D01*
X161910000Y-61789700D01*
X164210000Y-61789700D01*
X164210000Y-63789700D01*
G37*
G36*
X135110000Y-110670000D02*
G01*
X133410000Y-110670000D01*
X133410000Y-109670000D01*
X135110000Y-109670000D01*
X135110000Y-110670000D01*
G37*
G36*
X116985000Y-80344700D02*
G01*
X115685000Y-80344700D01*
X115685000Y-79394700D01*
X116985000Y-79394700D01*
X116985000Y-80344700D01*
G37*
D10*
X209135000Y-134220000D02*
G75*
G03*
X209135000Y-134220000I-425000J0D01*
G01*
X122885000Y-51319700D02*
G75*
G03*
X122885000Y-51319700I-425000J0D01*
G01*
D11*
G36*
X164210000Y-101890000D02*
G01*
X161910000Y-101890000D01*
X161910000Y-99890000D01*
X164210000Y-99890000D01*
X164210000Y-101890000D01*
G37*
G36*
X154160000Y-51019700D02*
G01*
X152460000Y-51019700D01*
X152460000Y-50019700D01*
X154160000Y-50019700D01*
X154160000Y-51019700D01*
G37*
D12*
X172050000Y-105630000D02*
G75*
G03*
X172050000Y-105630000I-750000J0D01*
G01*
X103470000Y-109430000D02*
G75*
G03*
X103470000Y-109430000I-750000J0D01*
G01*
D10*
X116308640Y-133235580D02*
G75*
G03*
X116308640Y-133235580I-425000J0D01*
G01*
D11*
G36*
X151510000Y-42199700D02*
G01*
X149210000Y-42199700D01*
X149210000Y-40199700D01*
X151510000Y-40199700D01*
X151510000Y-42199700D01*
G37*
G36*
X183260000Y-68489700D02*
G01*
X180960000Y-68489700D01*
X180960000Y-66489700D01*
X183260000Y-66489700D01*
X183260000Y-68489700D01*
G37*
D10*
X171035000Y-108170000D02*
G75*
G03*
X171035000Y-108170000I-425000J0D01*
G01*
D11*
G36*
X154160000Y-52419700D02*
G01*
X152460000Y-52419700D01*
X152460000Y-51419700D01*
X154160000Y-51419700D01*
X154160000Y-52419700D01*
G37*
D12*
X135220000Y-81839700D02*
G75*
G03*
X135220000Y-81839700I-750000J0D01*
G01*
D10*
X218135000Y-134220000D02*
G75*
G03*
X218135000Y-134220000I-425000J0D01*
G01*
D11*
G36*
X216810000Y-119870000D02*
G01*
X215110000Y-119870000D01*
X215110000Y-118870000D01*
X216810000Y-118870000D01*
X216810000Y-119870000D01*
G37*
D13*
X105468700Y-69380000D02*
G75*
G03*
X105468700Y-69380000I-381000J0D01*
G01*
D11*
G36*
X216810000Y-121270000D02*
G01*
X215110000Y-121270000D01*
X215110000Y-120270000D01*
X216810000Y-120270000D01*
X216810000Y-121270000D01*
G37*
D10*
X151985000Y-84419700D02*
G75*
G03*
X151985000Y-84419700I-425000J0D01*
G01*
D12*
X133950000Y-84379700D02*
G75*
G03*
X133950000Y-84379700I-750000J0D01*
G01*
D18*
X128978000Y-58344700D02*
G75*
G03*
X128978000Y-58344700I-1075000J0D01*
G01*
D11*
G36*
X181049000Y-60334700D02*
G01*
X179349000Y-60334700D01*
X179349000Y-59334700D01*
X181049000Y-59334700D01*
X181049000Y-60334700D01*
G37*
G36*
X120435000Y-61344700D02*
G01*
X119135000Y-61344700D01*
X119135000Y-60394700D01*
X120435000Y-60394700D01*
X120435000Y-61344700D01*
G37*
G36*
X121560000Y-57419700D02*
G01*
X119860000Y-57419700D01*
X119860000Y-56419700D01*
X121560000Y-56419700D01*
X121560000Y-57419700D01*
G37*
D15*
X218765000Y-96119700D02*
G75*
G03*
X218765000Y-96119700I-475000J0D01*
G01*
D12*
X198720000Y-131680000D02*
G75*
G03*
X198720000Y-131680000I-750000J0D01*
G01*
D15*
X180665000Y-70069700D02*
G75*
G03*
X180665000Y-70069700I-475000J0D01*
G01*
D11*
G36*
X159660000Y-51019700D02*
G01*
X157960000Y-51019700D01*
X157960000Y-50019700D01*
X159660000Y-50019700D01*
X159660000Y-51019700D01*
G37*
D12*
X133950000Y-46279700D02*
G75*
G03*
X133950000Y-46279700I-750000J0D01*
G01*
D11*
G36*
X192985000Y-124845000D02*
G01*
X191685000Y-124845000D01*
X191685000Y-123895000D01*
X192985000Y-123895000D01*
X192985000Y-124845000D01*
G37*
G36*
X196535000Y-67944700D02*
G01*
X195235000Y-67944700D01*
X195235000Y-66994700D01*
X196535000Y-66994700D01*
X196535000Y-67944700D01*
G37*
G36*
X192260000Y-81769700D02*
G01*
X190560000Y-81769700D01*
X190560000Y-80769700D01*
X192260000Y-80769700D01*
X192260000Y-81769700D01*
G37*
G36*
X135905000Y-77644700D02*
G01*
X134605000Y-77644700D01*
X134605000Y-76694700D01*
X135905000Y-76694700D01*
X135905000Y-77644700D01*
G37*
G36*
X97854100Y-96370000D02*
G01*
X95754100Y-96370000D01*
X95754100Y-95570000D01*
X97854100Y-95570000D01*
X97854100Y-96370000D01*
G37*
G36*
X97965000Y-129395000D02*
G01*
X96665000Y-129395000D01*
X96665000Y-128445000D01*
X97965000Y-128445000D01*
X97965000Y-129395000D01*
G37*
D10*
X209135000Y-115170000D02*
G75*
G03*
X209135000Y-115170000I-425000J0D01*
G01*
D11*
G36*
X202585000Y-106245000D02*
G01*
X201285000Y-106245000D01*
X201285000Y-105295000D01*
X202585000Y-105295000D01*
X202585000Y-106245000D01*
G37*
G36*
X159660000Y-90519700D02*
G01*
X157960000Y-90519700D01*
X157960000Y-89519700D01*
X159660000Y-89519700D01*
X159660000Y-90519700D01*
G37*
G36*
X141759000Y-59674700D02*
G01*
X140059000Y-59674700D01*
X140059000Y-58674700D01*
X141759000Y-58674700D01*
X141759000Y-59674700D01*
G37*
D10*
X180035000Y-70069700D02*
G75*
G03*
X180035000Y-70069700I-425000J0D01*
G01*
D11*
G36*
X113410000Y-104350000D02*
G01*
X111110000Y-104350000D01*
X111110000Y-102350000D01*
X113410000Y-102350000D01*
X113410000Y-104350000D01*
G37*
G36*
X183127880Y-138540920D02*
G01*
X182492880Y-138540920D01*
X182492880Y-137397920D01*
X183127880Y-137397920D01*
X183127880Y-138540920D01*
G37*
D13*
X91555100Y-75730000D02*
G75*
G03*
X91555100Y-75730000I-381000J0D01*
G01*
D11*
G36*
X126110000Y-68789700D02*
G01*
X123810000Y-68789700D01*
X123810000Y-66789700D01*
X126110000Y-66789700D01*
X126110000Y-68789700D01*
G37*
D13*
X90228700Y-61760000D02*
G75*
G03*
X90228700Y-61760000I-381000J0D01*
G01*
D11*
G36*
X163835000Y-75244700D02*
G01*
X162535000Y-75244700D01*
X162535000Y-74294700D01*
X163835000Y-74294700D01*
X163835000Y-75244700D01*
G37*
D10*
X218135000Y-58019700D02*
G75*
G03*
X218135000Y-58019700I-425000J0D01*
G01*
D11*
G36*
X150010000Y-110690000D02*
G01*
X148310000Y-110690000D01*
X148310000Y-109690000D01*
X150010000Y-109690000D01*
X150010000Y-110690000D01*
G37*
D12*
X111177480Y-128206630D02*
G75*
G03*
X111177480Y-128206630I-750000J0D01*
G01*
D11*
G36*
X211310000Y-83169700D02*
G01*
X209610000Y-83169700D01*
X209610000Y-82169700D01*
X211310000Y-82169700D01*
X211310000Y-83169700D01*
G37*
G36*
X105810000Y-124370000D02*
G01*
X104110000Y-124370000D01*
X104110000Y-123370000D01*
X105810000Y-123370000D01*
X105810000Y-124370000D01*
G37*
G36*
X144510000Y-110690000D02*
G01*
X142810000Y-110690000D01*
X142810000Y-109690000D01*
X144510000Y-109690000D01*
X144510000Y-110690000D01*
G37*
G36*
X192985000Y-67944700D02*
G01*
X191685000Y-67944700D01*
X191685000Y-66994700D01*
X192985000Y-66994700D01*
X192985000Y-67944700D01*
G37*
D15*
X151455000Y-65369700D02*
G75*
G03*
X151455000Y-65369700I-475000J0D01*
G01*
D14*
X214235000Y-134220000D02*
G75*
G03*
X214235000Y-134220000I-1025000J0D01*
G01*
D13*
X106775100Y-68110000D02*
G75*
G03*
X106775100Y-68110000I-381000J0D01*
G01*
D12*
X192370000Y-52939700D02*
G75*
G03*
X192370000Y-52939700I-750000J0D01*
G01*
D14*
X214235000Y-77069700D02*
G75*
G03*
X214235000Y-77069700I-1025000J0D01*
G01*
D13*
X106775100Y-60490000D02*
G75*
G03*
X106775100Y-60490000I-381000J0D01*
G01*
D10*
X160985000Y-46319700D02*
G75*
G03*
X160985000Y-46319700I-425000J0D01*
G01*
D13*
X105468700Y-61760000D02*
G75*
G03*
X105468700Y-61760000I-381000J0D01*
G01*
D11*
G36*
X197760000Y-100820000D02*
G01*
X196060000Y-100820000D01*
X196060000Y-99820000D01*
X197760000Y-99820000D01*
X197760000Y-100820000D01*
G37*
G36*
X193185000Y-86744700D02*
G01*
X191885000Y-86744700D01*
X191885000Y-85794700D01*
X193185000Y-85794700D01*
X193185000Y-86744700D01*
G37*
D12*
X135220000Y-62789700D02*
G75*
G03*
X135220000Y-62789700I-750000J0D01*
G01*
D11*
G36*
X183260000Y-49439700D02*
G01*
X180960000Y-49439700D01*
X180960000Y-47439700D01*
X183260000Y-47439700D01*
X183260000Y-49439700D01*
G37*
G36*
X221360000Y-113590000D02*
G01*
X219060000Y-113590000D01*
X219060000Y-111590000D01*
X221360000Y-111590000D01*
X221360000Y-113590000D01*
G37*
G36*
X121560000Y-113170000D02*
G01*
X119860000Y-113170000D01*
X119860000Y-112170000D01*
X121560000Y-112170000D01*
X121560000Y-113170000D01*
G37*
G36*
X208660000Y-111050000D02*
G01*
X206360000Y-111050000D01*
X206360000Y-109050000D01*
X208660000Y-109050000D01*
X208660000Y-111050000D01*
G37*
D20*
X99259250Y-83769700D02*
G75*
G03*
X99259250Y-83769700I-349250J0D01*
G01*
D14*
X195185000Y-58019700D02*
G75*
G03*
X195185000Y-58019700I-1025000J0D01*
G01*
D11*
G36*
X192260000Y-138920000D02*
G01*
X190560000Y-138920000D01*
X190560000Y-137920000D01*
X192260000Y-137920000D01*
X192260000Y-138920000D01*
G37*
D13*
X106775100Y-63030000D02*
G75*
G03*
X106775100Y-63030000I-381000J0D01*
G01*
D11*
G36*
X116060000Y-114570000D02*
G01*
X114360000Y-114570000D01*
X114360000Y-113570000D01*
X116060000Y-113570000D01*
X116060000Y-114570000D01*
G37*
G36*
X151510000Y-80299700D02*
G01*
X149210000Y-80299700D01*
X149210000Y-78299700D01*
X151510000Y-78299700D01*
X151510000Y-80299700D01*
G37*
D15*
X151455000Y-103470000D02*
G75*
G03*
X151455000Y-103470000I-475000J0D01*
G01*
D12*
X92366220Y-135085040D02*
G75*
G03*
X92366220Y-135085040I-750000J0D01*
G01*
X172050000Y-48479700D02*
G75*
G03*
X172050000Y-48479700I-750000J0D01*
G01*
X122520000Y-105930000D02*
G75*
G03*
X122520000Y-105930000I-750000J0D01*
G01*
D11*
G36*
X154160000Y-71469700D02*
G01*
X152460000Y-71469700D01*
X152460000Y-70469700D01*
X154160000Y-70469700D01*
X154160000Y-71469700D01*
G37*
D17*
X92304100Y-93870000D02*
G75*
G03*
X92304100Y-93870000I-300000J0D01*
G01*
D15*
X180665000Y-108170000D02*
G75*
G03*
X180665000Y-108170000I-475000J0D01*
G01*
D11*
G36*
X197760000Y-64119700D02*
G01*
X196060000Y-64119700D01*
X196060000Y-63119700D01*
X197760000Y-63119700D01*
X197760000Y-64119700D01*
G37*
G36*
X183127880Y-134340920D02*
G01*
X182492880Y-134340920D01*
X182492880Y-133197920D01*
X183127880Y-133197920D01*
X183127880Y-134340920D01*
G37*
D12*
X121250000Y-103390000D02*
G75*
G03*
X121250000Y-103390000I-750000J0D01*
G01*
D15*
X132405000Y-48819700D02*
G75*
G03*
X132405000Y-48819700I-475000J0D01*
G01*
D18*
X128142000Y-98944700D02*
G75*
G03*
X128142000Y-98944700I-1075000J0D01*
G01*
D12*
X217770000Y-74529700D02*
G75*
G03*
X217770000Y-74529700I-750000J0D01*
G01*
D11*
G36*
X206125000Y-138105000D02*
G01*
X204825000Y-138105000D01*
X204825000Y-137155000D01*
X206125000Y-137155000D01*
X206125000Y-138105000D01*
G37*
D20*
X97173350Y-80540000D02*
G75*
G03*
X97173350Y-80540000I-349250J0D01*
G01*
D11*
G36*
X135110000Y-73969700D02*
G01*
X133410000Y-73969700D01*
X133410000Y-72969700D01*
X135110000Y-72969700D01*
X135110000Y-73969700D01*
G37*
D12*
X135220000Y-43739700D02*
G75*
G03*
X135220000Y-43739700I-750000J0D01*
G01*
X191100000Y-131680000D02*
G75*
G03*
X191100000Y-131680000I-750000J0D01*
G01*
D11*
G36*
X115885000Y-124345000D02*
G01*
X114585000Y-124345000D01*
X114585000Y-123395000D01*
X115885000Y-123395000D01*
X115885000Y-124345000D01*
G37*
D15*
X189555000Y-77069700D02*
G75*
G03*
X189555000Y-77069700I-475000J0D01*
G01*
D12*
X160620000Y-81879700D02*
G75*
G03*
X160620000Y-81879700I-750000J0D01*
G01*
D11*
G36*
X211619000Y-88244700D02*
G01*
X209919000Y-88244700D01*
X209919000Y-87244700D01*
X211619000Y-87244700D01*
X211619000Y-88244700D01*
G37*
D13*
X106775100Y-73190000D02*
G75*
G03*
X106775100Y-73190000I-381000J0D01*
G01*
D12*
X192370000Y-129140000D02*
G75*
G03*
X192370000Y-129140000I-750000J0D01*
G01*
D15*
X113355000Y-70369700D02*
G75*
G03*
X113355000Y-70369700I-475000J0D01*
G01*
D11*
G36*
X99881500Y-75886820D02*
G01*
X98738500Y-75886820D01*
X98738500Y-75251820D01*
X99881500Y-75251820D01*
X99881500Y-75886820D01*
G37*
D14*
X157085000Y-84419700D02*
G75*
G03*
X157085000Y-84419700I-1025000J0D01*
G01*
D12*
X141570000Y-46279700D02*
G75*
G03*
X141570000Y-46279700I-750000J0D01*
G01*
D11*
G36*
X196735000Y-86744700D02*
G01*
X195435000Y-86744700D01*
X195435000Y-85794700D01*
X196735000Y-85794700D01*
X196735000Y-86744700D01*
G37*
G36*
X113410000Y-47199700D02*
G01*
X111110000Y-47199700D01*
X111110000Y-45199700D01*
X113410000Y-45199700D01*
X113410000Y-47199700D01*
G37*
G36*
X139455000Y-77644700D02*
G01*
X138155000Y-77644700D01*
X138155000Y-76694700D01*
X139455000Y-76694700D01*
X139455000Y-77644700D01*
G37*
D12*
X211420000Y-110090000D02*
G75*
G03*
X211420000Y-110090000I-750000J0D01*
G01*
X192370000Y-91039700D02*
G75*
G03*
X192370000Y-91039700I-750000J0D01*
G01*
X173320000Y-64989700D02*
G75*
G03*
X173320000Y-64989700I-750000J0D01*
G01*
D13*
X90228700Y-64300000D02*
G75*
G03*
X90228700Y-64300000I-381000J0D01*
G01*
D12*
X197450000Y-110090000D02*
G75*
G03*
X197450000Y-110090000I-750000J0D01*
G01*
X140300000Y-62789700D02*
G75*
G03*
X140300000Y-62789700I-750000J0D01*
G01*
X154270000Y-98390000D02*
G75*
G03*
X154270000Y-98390000I-750000J0D01*
G01*
D11*
G36*
X208660000Y-53899700D02*
G01*
X206360000Y-53899700D01*
X206360000Y-51899700D01*
X208660000Y-51899700D01*
X208660000Y-53899700D01*
G37*
G36*
X173210000Y-93819700D02*
G01*
X171510000Y-93819700D01*
X171510000Y-92819700D01*
X173210000Y-92819700D01*
X173210000Y-93819700D01*
G37*
G36*
X174085000Y-81044700D02*
G01*
X172785000Y-81044700D01*
X172785000Y-80094700D01*
X174085000Y-80094700D01*
X174085000Y-81044700D01*
G37*
G36*
X151510000Y-61249700D02*
G01*
X149210000Y-61249700D01*
X149210000Y-59249700D01*
X151510000Y-59249700D01*
X151510000Y-61249700D01*
G37*
G36*
X97485000Y-103945000D02*
G01*
X96185000Y-103945000D01*
X96185000Y-102995000D01*
X97485000Y-102995000D01*
X97485000Y-103945000D01*
G37*
G36*
X135110000Y-54919700D02*
G01*
X133410000Y-54919700D01*
X133410000Y-53919700D01*
X135110000Y-53919700D01*
X135110000Y-54919700D01*
G37*
G36*
X217039000Y-123805000D02*
G01*
X215339000Y-123805000D01*
X215339000Y-122805000D01*
X217039000Y-122805000D01*
X217039000Y-123805000D01*
G37*
D10*
X122885000Y-108470000D02*
G75*
G03*
X122885000Y-108470000I-425000J0D01*
G01*
D11*
G36*
X221360000Y-94539700D02*
G01*
X219060000Y-94539700D01*
X219060000Y-92539700D01*
X221360000Y-92539700D01*
X221360000Y-94539700D01*
G37*
D12*
X216500000Y-110090000D02*
G75*
G03*
X216500000Y-110090000I-750000J0D01*
G01*
D11*
G36*
X116995000Y-99344700D02*
G01*
X115695000Y-99344700D01*
X115695000Y-98394700D01*
X116995000Y-98394700D01*
X116995000Y-99344700D01*
G37*
G36*
X170560000Y-84999700D02*
G01*
X168260000Y-84999700D01*
X168260000Y-82999700D01*
X170560000Y-82999700D01*
X170560000Y-84999700D01*
G37*
D14*
X214235000Y-115170000D02*
G75*
G03*
X214235000Y-115170000I-1025000J0D01*
G01*
D11*
G36*
X186549000Y-61734700D02*
G01*
X184849000Y-61734700D01*
X184849000Y-60734700D01*
X186549000Y-60734700D01*
X186549000Y-61734700D01*
G37*
D13*
X90228700Y-77000000D02*
G75*
G03*
X90228700Y-77000000I-381000J0D01*
G01*
D11*
G36*
X147259000Y-59674700D02*
G01*
X145559000Y-59674700D01*
X145559000Y-58674700D01*
X147259000Y-58674700D01*
X147259000Y-59674700D01*
G37*
D13*
X90228700Y-51600000D02*
G75*
G03*
X90228700Y-51600000I-381000J0D01*
G01*
D12*
X141570000Y-103430000D02*
G75*
G03*
X141570000Y-103430000I-750000J0D01*
G01*
X116170000Y-46239700D02*
G75*
G03*
X116170000Y-46239700I-750000J0D01*
G01*
D10*
X218135000Y-77069700D02*
G75*
G03*
X218135000Y-77069700I-425000J0D01*
G01*
D20*
X96759250Y-83769700D02*
G75*
G03*
X96759250Y-83769700I-349250J0D01*
G01*
D15*
X142565000Y-48819700D02*
G75*
G03*
X142565000Y-48819700I-475000J0D01*
G01*
D11*
G36*
X135110000Y-93019700D02*
G01*
X133410000Y-93019700D01*
X133410000Y-92019700D01*
X135110000Y-92019700D01*
X135110000Y-93019700D01*
G37*
D12*
X217770000Y-112630000D02*
G75*
G03*
X217770000Y-112630000I-750000J0D01*
G01*
D11*
G36*
X85525870Y-139227910D02*
G01*
X83082670Y-140117160D01*
X82193420Y-137673960D01*
X84636620Y-136784710D01*
X85525870Y-139227910D01*
G37*
G36*
X113410000Y-85299700D02*
G01*
X111110000Y-85299700D01*
X111110000Y-83299700D01*
X113410000Y-83299700D01*
X113410000Y-85299700D01*
G37*
G36*
X132460000Y-44699700D02*
G01*
X130160000Y-44699700D01*
X130160000Y-42699700D01*
X132460000Y-42699700D01*
X132460000Y-44699700D01*
G37*
G36*
X178710000Y-93819700D02*
G01*
X177010000Y-93819700D01*
X177010000Y-92819700D01*
X178710000Y-92819700D01*
X178710000Y-93819700D01*
G37*
G36*
X206095000Y-61644700D02*
G01*
X204795000Y-61644700D01*
X204795000Y-60694700D01*
X206095000Y-60694700D01*
X206095000Y-61644700D01*
G37*
D12*
X141570000Y-84379700D02*
G75*
G03*
X141570000Y-84379700I-750000J0D01*
G01*
D11*
G36*
X202310000Y-132640000D02*
G01*
X200010000Y-132640000D01*
X200010000Y-130640000D01*
X202310000Y-130640000D01*
X202310000Y-132640000D01*
G37*
G36*
X192260000Y-83169700D02*
G01*
X190560000Y-83169700D01*
X190560000Y-82169700D01*
X192260000Y-82169700D01*
X192260000Y-83169700D01*
G37*
G36*
X182127120Y-132240920D02*
G01*
X181492120Y-132240920D01*
X181492120Y-131097920D01*
X182127120Y-131097920D01*
X182127120Y-132240920D01*
G37*
D12*
X159350000Y-60289700D02*
G75*
G03*
X159350000Y-60289700I-750000J0D01*
G01*
X102200000Y-106890000D02*
G75*
G03*
X102200000Y-106890000I-750000J0D01*
G01*
X111177480Y-128206630D02*
G75*
G03*
X111177480Y-128206630I-750000J0D01*
G01*
D11*
G36*
X216810000Y-64119700D02*
G01*
X215110000Y-64119700D01*
X215110000Y-63119700D01*
X216810000Y-63119700D01*
X216810000Y-64119700D01*
G37*
G36*
X106210000Y-95169700D02*
G01*
X105810000Y-95169700D01*
X105810000Y-94569700D01*
X106210000Y-94569700D01*
X106210000Y-95169700D01*
G37*
G36*
X189610000Y-72949700D02*
G01*
X187310000Y-72949700D01*
X187310000Y-70949700D01*
X189610000Y-70949700D01*
X189610000Y-72949700D01*
G37*
D12*
X211420000Y-71989700D02*
G75*
G03*
X211420000Y-71989700I-750000J0D01*
G01*
D10*
X151985000Y-46319700D02*
G75*
G03*
X151985000Y-46319700I-425000J0D01*
G01*
D13*
X106775100Y-50330000D02*
G75*
G03*
X106775100Y-50330000I-381000J0D01*
G01*
D11*
G36*
X192260000Y-121270000D02*
G01*
X190560000Y-121270000D01*
X190560000Y-120270000D01*
X192260000Y-120270000D01*
X192260000Y-121270000D01*
G37*
G36*
X183127880Y-132240920D02*
G01*
X182492880Y-132240920D01*
X182492880Y-131097920D01*
X183127880Y-131097920D01*
X183127880Y-132240920D01*
G37*
D12*
X140300000Y-81839700D02*
G75*
G03*
X140300000Y-81839700I-750000J0D01*
G01*
D13*
X105468700Y-74460000D02*
G75*
G03*
X105468700Y-74460000I-381000J0D01*
G01*
D11*
G36*
X126110000Y-49739700D02*
G01*
X123810000Y-49739700D01*
X123810000Y-47739700D01*
X126110000Y-47739700D01*
X126110000Y-49739700D01*
G37*
D18*
X204760000Y-124695000D02*
G75*
G03*
X204760000Y-124695000I-1075000J0D01*
G01*
D13*
X105468700Y-54140000D02*
G75*
G03*
X105468700Y-54140000I-381000J0D01*
G01*
D11*
G36*
X145160000Y-104390000D02*
G01*
X142860000Y-104390000D01*
X142860000Y-102390000D01*
X145160000Y-102390000D01*
X145160000Y-104390000D01*
G37*
D10*
X141935000Y-86919700D02*
G75*
G03*
X141935000Y-86919700I-425000J0D01*
G01*
D11*
G36*
X132460000Y-63749700D02*
G01*
X130160000Y-63749700D01*
X130160000Y-61749700D01*
X132460000Y-61749700D01*
X132460000Y-63749700D01*
G37*
D12*
X217770000Y-93579700D02*
G75*
G03*
X217770000Y-93579700I-750000J0D01*
G01*
X106635460Y-131241450D02*
G75*
G03*
X106635460Y-131241450I-750000J0D01*
G01*
X160620000Y-62829700D02*
G75*
G03*
X160620000Y-62829700I-750000J0D01*
G01*
D10*
X107445370Y-134798420D02*
G75*
G03*
X107445370Y-134798420I-425000J0D01*
G01*
D12*
X115585540Y-138578760D02*
G75*
G03*
X115585540Y-138578760I-750000J0D01*
G01*
D13*
X91555100Y-68110000D02*
G75*
G03*
X91555100Y-68110000I-381000J0D01*
G01*
D12*
X216500000Y-129140000D02*
G75*
G03*
X216500000Y-129140000I-750000J0D01*
G01*
D21*
X90845000Y-87514700D02*
G75*
G03*
X90845000Y-87514700I-500000J0D01*
G01*
D11*
G36*
X173210000Y-55719700D02*
G01*
X171510000Y-55719700D01*
X171510000Y-54719700D01*
X173210000Y-54719700D01*
X173210000Y-55719700D01*
G37*
D15*
X142565000Y-86919700D02*
G75*
G03*
X142565000Y-86919700I-475000J0D01*
G01*
D12*
X116395180Y-135856810D02*
G75*
G03*
X116395180Y-135856810I-750000J0D01*
G01*
X153000000Y-62829700D02*
G75*
G03*
X153000000Y-62829700I-750000J0D01*
G01*
D11*
G36*
X116885000Y-61344700D02*
G01*
X115585000Y-61344700D01*
X115585000Y-60394700D01*
X116885000Y-60394700D01*
X116885000Y-61344700D01*
G37*
D13*
X90228700Y-49060000D02*
G75*
G03*
X90228700Y-49060000I-381000J0D01*
G01*
D11*
G36*
X175935000Y-60944700D02*
G01*
X174635000Y-60944700D01*
X174635000Y-59994700D01*
X175935000Y-59994700D01*
X175935000Y-60944700D01*
G37*
G36*
X192260000Y-102220000D02*
G01*
X190560000Y-102220000D01*
X190560000Y-101220000D01*
X192260000Y-101220000D01*
X192260000Y-102220000D01*
G37*
G36*
X116060000Y-76469700D02*
G01*
X114360000Y-76469700D01*
X114360000Y-75469700D01*
X116060000Y-75469700D01*
X116060000Y-76469700D01*
G37*
G36*
X211539000Y-125205000D02*
G01*
X209839000Y-125205000D01*
X209839000Y-124205000D01*
X211539000Y-124205000D01*
X211539000Y-125205000D01*
G37*
G36*
X145160000Y-47239700D02*
G01*
X142860000Y-47239700D01*
X142860000Y-45239700D01*
X145160000Y-45239700D01*
X145160000Y-47239700D01*
G37*
G36*
X139535000Y-96944700D02*
G01*
X138235000Y-96944700D01*
X138235000Y-95994700D01*
X139535000Y-95994700D01*
X139535000Y-96944700D01*
G37*
G36*
X192260000Y-62719700D02*
G01*
X190560000Y-62719700D01*
X190560000Y-61719700D01*
X192260000Y-61719700D01*
X192260000Y-62719700D01*
G37*
G36*
X208660000Y-130100000D02*
G01*
X206360000Y-130100000D01*
X206360000Y-128100000D01*
X208660000Y-128100000D01*
X208660000Y-130100000D01*
G37*
D12*
X85738310Y-141551920D02*
G75*
G03*
X85738310Y-141551920I-750000J0D01*
G01*
D11*
G36*
X173210000Y-74769700D02*
G01*
X171510000Y-74769700D01*
X171510000Y-73769700D01*
X173210000Y-73769700D01*
X173210000Y-74769700D01*
G37*
D15*
X94305000Y-111970000D02*
G75*
G03*
X94305000Y-111970000I-475000J0D01*
G01*
D12*
X210150000Y-112630000D02*
G75*
G03*
X210150000Y-112630000I-750000J0D01*
G01*
D14*
X195185000Y-77069700D02*
G75*
G03*
X195185000Y-77069700I-1025000J0D01*
G01*
D12*
X179670000Y-105630000D02*
G75*
G03*
X179670000Y-105630000I-750000J0D01*
G01*
D16*
X178846000Y-132545000D02*
G75*
G03*
X178846000Y-132545000I-375000J0D01*
G01*
D15*
X189555000Y-58019700D02*
G75*
G03*
X189555000Y-58019700I-475000J0D01*
G01*
D12*
X172050000Y-86579700D02*
G75*
G03*
X172050000Y-86579700I-750000J0D01*
G01*
X114900000Y-105930000D02*
G75*
G03*
X114900000Y-105930000I-750000J0D01*
G01*
D18*
X166242000Y-55844700D02*
G75*
G03*
X166242000Y-55844700I-1075000J0D01*
G01*
D11*
G36*
X178710000Y-55719700D02*
G01*
X177010000Y-55719700D01*
X177010000Y-54719700D01*
X178710000Y-54719700D01*
X178710000Y-55719700D01*
G37*
G36*
X154160000Y-70069700D02*
G01*
X152460000Y-70069700D01*
X152460000Y-69069700D01*
X154160000Y-69069700D01*
X154160000Y-70069700D01*
G37*
D13*
X91555100Y-55410000D02*
G75*
G03*
X91555100Y-55410000I-381000J0D01*
G01*
D11*
G36*
X197760000Y-102220000D02*
G01*
X196060000Y-102220000D01*
X196060000Y-101220000D01*
X197760000Y-101220000D01*
X197760000Y-102220000D01*
G37*
G36*
X192865000Y-107305000D02*
G01*
X191565000Y-107305000D01*
X191565000Y-106355000D01*
X192865000Y-106355000D01*
X192865000Y-107305000D01*
G37*
D10*
X141935000Y-67869700D02*
G75*
G03*
X141935000Y-67869700I-425000J0D01*
G01*
D11*
G36*
X221360000Y-56439700D02*
G01*
X219060000Y-56439700D01*
X219060000Y-54439700D01*
X221360000Y-54439700D01*
X221360000Y-56439700D01*
G37*
G36*
X211310000Y-81769700D02*
G01*
X209610000Y-81769700D01*
X209610000Y-80769700D01*
X211310000Y-80769700D01*
X211310000Y-81769700D01*
G37*
D10*
X160985000Y-65369700D02*
G75*
G03*
X160985000Y-65369700I-425000J0D01*
G01*
D15*
X208605000Y-96119700D02*
G75*
G03*
X208605000Y-96119700I-475000J0D01*
G01*
D12*
X116170000Y-103390000D02*
G75*
G03*
X116170000Y-103390000I-750000J0D01*
G01*
D15*
X180665000Y-89119700D02*
G75*
G03*
X180665000Y-89119700I-475000J0D01*
G01*
D11*
G36*
X197760000Y-140320000D02*
G01*
X196060000Y-140320000D01*
X196060000Y-139320000D01*
X197760000Y-139320000D01*
X197760000Y-140320000D01*
G37*
D15*
X189555000Y-134220000D02*
G75*
G03*
X189555000Y-134220000I-475000J0D01*
G01*
D13*
X91555100Y-57950000D02*
G75*
G03*
X91555100Y-57950000I-381000J0D01*
G01*
D11*
G36*
X154160000Y-108170000D02*
G01*
X152460000Y-108170000D01*
X152460000Y-107170000D01*
X154160000Y-107170000D01*
X154160000Y-108170000D01*
G37*
D13*
X106775100Y-70650000D02*
G75*
G03*
X106775100Y-70650000I-381000J0D01*
G01*
D14*
X195185000Y-134220000D02*
G75*
G03*
X195185000Y-134220000I-1025000J0D01*
G01*
D13*
X105468700Y-66840000D02*
G75*
G03*
X105468700Y-66840000I-381000J0D01*
G01*
D12*
X110582720Y-139460890D02*
G75*
G03*
X110582720Y-139460890I-750000J0D01*
G01*
D11*
G36*
X100310000Y-125770000D02*
G01*
X98610000Y-125770000D01*
X98610000Y-124770000D01*
X100310000Y-124770000D01*
X100310000Y-125770000D01*
G37*
D20*
X99713350Y-80540000D02*
G75*
G03*
X99713350Y-80540000I-349250J0D01*
G01*
D11*
G36*
X94727230Y-133165240D02*
G01*
X92847840Y-133849280D01*
X92061200Y-131687980D01*
X93940580Y-131003940D01*
X94727230Y-133165240D01*
G37*
G36*
X177585000Y-99144700D02*
G01*
X176285000Y-99144700D01*
X176285000Y-98194700D01*
X177585000Y-98194700D01*
X177585000Y-99144700D01*
G37*
G36*
X202575000Y-138105000D02*
G01*
X201275000Y-138105000D01*
X201275000Y-137155000D01*
X202575000Y-137155000D01*
X202575000Y-138105000D01*
G37*
D15*
X89270040Y-134760360D02*
G75*
G03*
X89270040Y-134760360I-475000J0D01*
G01*
D11*
G36*
X158435000Y-56244700D02*
G01*
X157135000Y-56244700D01*
X157135000Y-55294700D01*
X158435000Y-55294700D01*
X158435000Y-56244700D01*
G37*
G36*
X159660000Y-109570000D02*
G01*
X157960000Y-109570000D01*
X157960000Y-108570000D01*
X159660000Y-108570000D01*
X159660000Y-109570000D01*
G37*
G36*
X140610000Y-91619700D02*
G01*
X138910000Y-91619700D01*
X138910000Y-90619700D01*
X140610000Y-90619700D01*
X140610000Y-91619700D01*
G37*
G36*
X196415000Y-107305000D02*
G01*
X195115000Y-107305000D01*
X195115000Y-106355000D01*
X196415000Y-106355000D01*
X196415000Y-107305000D01*
G37*
D10*
X113885000Y-89419700D02*
G75*
G03*
X113885000Y-89419700I-425000J0D01*
G01*
D13*
X90228700Y-74460000D02*
G75*
G03*
X90228700Y-74460000I-381000J0D01*
G01*
D11*
G36*
X208660000Y-72949700D02*
G01*
X206360000Y-72949700D01*
X206360000Y-70949700D01*
X208660000Y-70949700D01*
X208660000Y-72949700D01*
G37*
D22*
%TO.C,LED\u002A\u002A*%
X137000000Y-53725000D03*
D23*
X135450000Y-53700000D03*
X137000000Y-52400000D03*
X137000000Y-55050000D03*
X138550000Y-53700000D03*
D22*
X137000000Y-53725000D03*
%TD*%
D24*
%TO.C,SW2*%
X73966254Y-155461056D03*
D25*
X75415663Y-163110606D03*
X83105368Y-154871647D03*
X82935220Y-157706351D03*
D26*
X83128803Y-160751056D03*
D25*
X78705958Y-152331647D03*
D26*
X73602523Y-155251056D03*
D27*
X78365663Y-158001056D03*
D25*
X80845790Y-163705350D03*
X76336106Y-153896351D03*
X72185536Y-158705350D03*
D24*
X82765072Y-160541056D03*
D28*
X72990792Y-161710606D03*
D29*
X76055921Y-150801647D03*
X85611238Y-159251351D03*
X83530469Y-165255350D03*
%TD*%
D23*
%TO.C,LED\u002A\u002A*%
X194150000Y-64225000D03*
X194150000Y-61575000D03*
D22*
X194150000Y-62900000D03*
X194150000Y-62900000D03*
D23*
X195700000Y-62875000D03*
X192600000Y-62875000D03*
%TD*%
%TO.C,LED\u002A\u002A*%
X181400000Y-60500000D03*
X184500000Y-60500000D03*
X182950000Y-59200000D03*
D22*
X182950000Y-60525000D03*
D23*
X182950000Y-61850000D03*
D22*
X182950000Y-60525000D03*
%TD*%
%TO.C,LED\u002A\u002A*%
X137025000Y-72775000D03*
X137025000Y-72775000D03*
D23*
X137025000Y-74100000D03*
X135475000Y-72750000D03*
X137025000Y-71450000D03*
X138575000Y-72750000D03*
%TD*%
%TO.C,LED\u002A\u002A*%
X102200000Y-125900000D03*
D22*
X102200000Y-124575000D03*
X102200000Y-124575000D03*
D23*
X102200000Y-123250000D03*
X103750000Y-124550000D03*
X100650000Y-124550000D03*
%TD*%
D22*
%TO.C,LED\u002A\u002A*%
X213425000Y-124025000D03*
X213425000Y-124025000D03*
D23*
X213425000Y-125350000D03*
X211875000Y-124000000D03*
X214975000Y-124000000D03*
X213425000Y-122700000D03*
%TD*%
D22*
%TO.C,LED\u002A\u002A*%
X156050000Y-89325000D03*
X156050000Y-89325000D03*
D23*
X156050000Y-88000000D03*
X157600000Y-89300000D03*
X156050000Y-90650000D03*
X154500000Y-89300000D03*
%TD*%
D22*
%TO.C,LED\u002A\u002A*%
X143650000Y-58475000D03*
D23*
X142100000Y-58450000D03*
X143650000Y-57150000D03*
X145200000Y-58450000D03*
D22*
X143650000Y-58475000D03*
D23*
X143650000Y-59800000D03*
%TD*%
%TO.C,LED\u002A\u002A*%
X194150000Y-118750000D03*
D22*
X194150000Y-120075000D03*
D23*
X195700000Y-120050000D03*
X194150000Y-121400000D03*
D22*
X194150000Y-120075000D03*
D23*
X192600000Y-120050000D03*
%TD*%
D22*
%TO.C,LED\u002A\u002A*%
X213525000Y-87025000D03*
D23*
X211975000Y-87000000D03*
X213525000Y-88350000D03*
D22*
X213525000Y-87025000D03*
D23*
X213525000Y-85700000D03*
X215075000Y-87000000D03*
%TD*%
%TO.C,LED\u002A\u002A*%
X116400000Y-75250000D03*
X119500000Y-75250000D03*
D22*
X117950000Y-75275000D03*
D23*
X117950000Y-73950000D03*
D22*
X117950000Y-75275000D03*
D23*
X117950000Y-76600000D03*
%TD*%
%TO.C,LED\u002A\u002A*%
X154500000Y-70250000D03*
X156050000Y-71600000D03*
D22*
X156050000Y-70275000D03*
D23*
X156050000Y-68950000D03*
D22*
X156050000Y-70275000D03*
D23*
X157600000Y-70250000D03*
%TD*%
%TO.C,LED\u002A\u002A*%
X157625000Y-108350000D03*
X156075000Y-107050000D03*
X154525000Y-108350000D03*
D22*
X156075000Y-108375000D03*
X156075000Y-108375000D03*
D23*
X156075000Y-109700000D03*
%TD*%
D22*
%TO.C,LED\u002A\u002A*%
X194175000Y-139125000D03*
D23*
X194175000Y-140450000D03*
X195725000Y-139100000D03*
X192625000Y-139100000D03*
X194175000Y-137800000D03*
D22*
X194175000Y-139125000D03*
%TD*%
D30*
%TO.C,D24*%
X74375000Y-169475000D03*
X70825000Y-169475000D03*
%TD*%
D22*
%TO.C,LED\u002A\u002A*%
X127525000Y-111925000D03*
D23*
X127525000Y-113250000D03*
X129075000Y-111900000D03*
X127525000Y-110600000D03*
X125975000Y-111900000D03*
D22*
X127525000Y-111925000D03*
%TD*%
D23*
%TO.C,LED\u002A\u002A*%
X214750000Y-139100000D03*
X211650000Y-139100000D03*
X213200000Y-140450000D03*
D22*
X213200000Y-139125000D03*
X213200000Y-139125000D03*
D23*
X213200000Y-137800000D03*
%TD*%
%TO.C,LED\u002A\u002A*%
X195700000Y-81950000D03*
D22*
X194150000Y-81975000D03*
X194150000Y-81975000D03*
D23*
X194150000Y-80650000D03*
X194150000Y-83300000D03*
X192600000Y-81950000D03*
%TD*%
D24*
%TO.C,SW2*%
X67579892Y-179295285D03*
D25*
X76469892Y-176755285D03*
X77659892Y-182995285D03*
X75199892Y-174215285D03*
X67659892Y-182995285D03*
X68849892Y-176755285D03*
X72659892Y-185195285D03*
D26*
X67159892Y-179295285D03*
X78159892Y-179295285D03*
D25*
X70119892Y-174215285D03*
D27*
X72659892Y-179295285D03*
D24*
X77739892Y-179295285D03*
D31*
X69859892Y-185195285D03*
D32*
X67059892Y-174215285D03*
X80759892Y-182995285D03*
X79559892Y-176755285D03*
%TD*%
D23*
%TO.C,LED\u002A\u002A*%
X100450000Y-116850000D03*
X98900000Y-118200000D03*
X98900000Y-115550000D03*
D22*
X98900000Y-116875000D03*
D23*
X97350000Y-116850000D03*
D22*
X98900000Y-116875000D03*
%TD*%
D23*
%TO.C,LED\u002A\u002A*%
X119500000Y-113350000D03*
D22*
X117950000Y-113375000D03*
D23*
X116400000Y-113350000D03*
X117950000Y-114700000D03*
D22*
X117950000Y-113375000D03*
D23*
X117950000Y-112050000D03*
%TD*%
D22*
%TO.C,LED\u002A\u002A*%
X137025000Y-91800000D03*
D23*
X137025000Y-93125000D03*
X135475000Y-91775000D03*
X137025000Y-90475000D03*
X138575000Y-91775000D03*
D22*
X137025000Y-91800000D03*
%TD*%
D30*
%TO.C,D24*%
X81775000Y-148000000D03*
X78225000Y-148000000D03*
%TD*%
D22*
%TO.C,LED\u002A\u002A*%
X117950000Y-56225000D03*
D23*
X116400000Y-56200000D03*
X119500000Y-56200000D03*
X117950000Y-57550000D03*
D22*
X117950000Y-56225000D03*
D23*
X117950000Y-54900000D03*
%TD*%
%TO.C,LED\u002A\u002A*%
X214750000Y-120050000D03*
D22*
X213200000Y-120075000D03*
D23*
X211650000Y-120050000D03*
D22*
X213200000Y-120075000D03*
D23*
X213200000Y-118750000D03*
X213200000Y-121400000D03*
%TD*%
%TO.C,LED\u002A\u002A*%
X211650000Y-62900000D03*
D22*
X213200000Y-62925000D03*
D23*
X213200000Y-64250000D03*
D22*
X213200000Y-62925000D03*
D23*
X214750000Y-62900000D03*
X213200000Y-61600000D03*
%TD*%
D33*
%TO.C,J\u002A*%
X92009200Y-93878400D03*
X99009200Y-93878400D03*
D34*
X102309200Y-91778400D03*
X93809200Y-95978400D03*
X96809200Y-95978400D03*
X100809200Y-95978400D03*
%TD*%
D23*
%TO.C,LED\u002A\u002A*%
X211650000Y-81950000D03*
X214750000Y-81950000D03*
X213200000Y-80650000D03*
D22*
X213200000Y-81975000D03*
X213200000Y-81975000D03*
D23*
X213200000Y-83300000D03*
%TD*%
%TO.C,LED\u002A\u002A*%
X156050000Y-52550000D03*
X157600000Y-51200000D03*
X154500000Y-51200000D03*
D22*
X156050000Y-51225000D03*
X156050000Y-51225000D03*
D23*
X156050000Y-49900000D03*
%TD*%
%TO.C,LED\u002A\u002A*%
X194150000Y-102350000D03*
X192600000Y-101000000D03*
X194150000Y-99700000D03*
X195700000Y-101000000D03*
D22*
X194150000Y-101025000D03*
X194150000Y-101025000D03*
%TD*%
D23*
%TO.C,LED\u002A\u002A*%
X147975000Y-110850000D03*
X146425000Y-112200000D03*
X144875000Y-110850000D03*
X146425000Y-109550000D03*
D22*
X146425000Y-110875000D03*
X146425000Y-110875000D03*
%TD*%
D23*
%TO.C,LED\u002A\u002A*%
X175100000Y-95350000D03*
X175100000Y-92700000D03*
X173550000Y-94000000D03*
X176650000Y-94000000D03*
D22*
X175100000Y-94025000D03*
X175100000Y-94025000D03*
%TD*%
D23*
%TO.C,LED\u002A\u002A*%
X213200000Y-102350000D03*
D22*
X213200000Y-101025000D03*
D23*
X211650000Y-101000000D03*
X214750000Y-101000000D03*
D22*
X213200000Y-101025000D03*
D23*
X213200000Y-99700000D03*
%TD*%
D22*
%TO.C,LED\u002A\u002A*%
X117975000Y-94325000D03*
D23*
X117975000Y-93000000D03*
X117975000Y-95650000D03*
X119525000Y-94300000D03*
D22*
X117975000Y-94325000D03*
D23*
X116425000Y-94300000D03*
%TD*%
D22*
%TO.C,LED\u002A\u002A*%
X137000000Y-110875000D03*
D23*
X137000000Y-109550000D03*
X135450000Y-110850000D03*
D22*
X137000000Y-110875000D03*
D23*
X138550000Y-110850000D03*
X137000000Y-112200000D03*
%TD*%
%TO.C,LED\u002A\u002A*%
X175100000Y-73650000D03*
X175100000Y-76300000D03*
X173550000Y-74950000D03*
X176650000Y-74950000D03*
D22*
X175100000Y-74975000D03*
X175100000Y-74975000D03*
%TD*%
%TO.C,LED\u002A\u002A*%
X175100000Y-113075000D03*
X175100000Y-113075000D03*
D23*
X176650000Y-113050000D03*
X175100000Y-114400000D03*
X173550000Y-113050000D03*
X175100000Y-111750000D03*
%TD*%
D22*
%TO.C,LED\u002A\u002A*%
X175125000Y-55925000D03*
D23*
X173575000Y-55900000D03*
X175125000Y-54600000D03*
D22*
X175125000Y-55925000D03*
D23*
X175125000Y-57250000D03*
X176675000Y-55900000D03*
%TD*%
D33*
%TO.C,J\u002A*%
X91998800Y-92119200D03*
X98998800Y-92119200D03*
D34*
X102298800Y-94219200D03*
X93798800Y-90019200D03*
X96798800Y-90019200D03*
X100798800Y-90019200D03*
%TD*%
M02*
