  0
SECTION
  2
HEADER
  9
$ANGBASE
  50
0.0
  9
$ANGDIR
  70
1
  9
$MEASUREMENT
  70
1
  0
ENDSEC
  0
SECTION
  2
TABLES
  0
TABLE
  2
LTYPE
  70
4
  0
LTYPE
  5
40F
  2
CONTINUOUS
  70
0
  3
Solid line
  72
65
  73
0
  40
0.0
  0
LTYPE
  5
410
  2
DASHDOT
 70
0
  3
Dash Dot ____ _ ____ _
 72
65
 73
4
 40
2.0
 49
1.25
 49
-0.25
 49
0.25
 49
-0.25
  0
LTYPE
  5
411
  2
DASHED
 70
0
  3
Dashed __ __ __ __ __
 72
65
 73
2
 40
0.75
 49
0.5
 49
-0.25
  0
LTYPE
  5
43B
  2
DOTTED
 70
0
  3
Dotted .  .  .  .
 72
65
 73
2
 40
0.2
 49
0.0
 49
-0.2
  0
ENDTAB
  0
TABLE
  2
STYLE
  70
4
  0
STYLE
  2
KICAD
  70
0
  40
0
  41
1
  42
1
  50
0
  71
0
  3
isocp.shx
  0
STYLE
  2
KICADB
  70
0
  40
0
  41
1
  42
1
  50
0
  71
0
  3
isocp.shx
  0
STYLE
  2
KICADI
  70
0
  40
0
  41
1
  42
1
  50
15
  71
0
  3
isocp.shx
  0
STYLE
  2
KICADBI
  70
0
  40
0
  41
1
  42
1
  50
15
  71
0
  3
isocp.shx
  0
ENDTAB
  0
TABLE
  2
LAYER
  70
1
  0
LAYER
  2
BLACK
  70
0
  62
7
  6
CONTINUOUS
  0
ENDTAB
  0
ENDSEC
  0
SECTION
  2
ENTITIES
0
LINE
8
BLACK
6
CONTINUOUS
10
164.436
20
-37.3315
11
164.597
21
-37.407
0
LINE
8
BLACK
6
CONTINUOUS
10
164.597
20
-37.407
11
164.744
21
-37.5095
0
LINE
8
BLACK
6
CONTINUOUS
10
164.744
20
-37.5095
11
164.87
21
-37.6359
0
LINE
8
BLACK
6
CONTINUOUS
10
164.87
20
-37.6359
11
164.973
21
-37.7822
0
LINE
8
BLACK
6
CONTINUOUS
10
164.973
20
-37.7822
11
165.048
21
-37.9441
0
LINE
8
BLACK
6
CONTINUOUS
10
165.048
20
-37.9441
11
165.094
21
-38.1167
0
LINE
8
BLACK
6
CONTINUOUS
10
165.094
20
-38.1167
11
165.11
21
-38.2947
0
LINE
8
BLACK
6
CONTINUOUS
10
165.11
20
-38.2947
11
165.11
21
-38.2947
0
LINE
8
BLACK
6
CONTINUOUS
10
165.11
20
-38.2947
11
165.11
21
-40.9947
0
LINE
8
BLACK
6
CONTINUOUS
10
165.11
20
-40.9947
11
165.107
21
-41.0022
0
LINE
8
BLACK
6
CONTINUOUS
10
165.107
20
-41.0022
11
165.121
21
-41.1647
0
LINE
8
BLACK
6
CONTINUOUS
10
165.121
20
-41.1647
11
165.165
21
-41.3295
0
LINE
8
BLACK
6
CONTINUOUS
10
165.165
20
-41.3295
11
165.237
21
-41.4841
0
LINE
8
BLACK
6
CONTINUOUS
10
165.237
20
-41.4841
11
165.335
21
-41.6238
0
LINE
8
BLACK
6
CONTINUOUS
10
165.335
20
-41.6238
11
165.456
21
-41.7445
0
LINE
8
BLACK
6
CONTINUOUS
10
165.456
20
-41.7445
11
165.596
21
-41.8423
0
LINE
8
BLACK
6
CONTINUOUS
10
165.596
20
-41.8423
11
165.75
21
-41.9144
0
LINE
8
BLACK
6
CONTINUOUS
10
165.75
20
-41.9144
11
165.915
21
-41.9586
0
LINE
8
BLACK
6
CONTINUOUS
10
165.915
20
-41.9586
11
166.078
21
-41.9728
0
LINE
8
BLACK
6
CONTINUOUS
10
166.078
20
-41.9728
11
166.085
21
-41.9697
0
LINE
8
BLACK
6
CONTINUOUS
10
166.085
20
-41.9697
11
183.135
21
-41.9697
0
LINE
8
BLACK
6
CONTINUOUS
10
183.135
20
-41.9697
11
183.313
21
-41.9853
0
LINE
8
BLACK
6
CONTINUOUS
10
183.313
20
-41.9853
11
183.486
21
-42.0315
0
LINE
8
BLACK
6
CONTINUOUS
10
183.486
20
-42.0315
11
183.647
21
-42.107
0
LINE
8
BLACK
6
CONTINUOUS
10
183.647
20
-42.107
11
183.794
21
-42.2095
0
LINE
8
BLACK
6
CONTINUOUS
10
183.794
20
-42.2095
11
183.92
21
-42.3359
0
LINE
8
BLACK
6
CONTINUOUS
10
183.92
20
-42.3359
11
184.023
21
-42.4822
0
LINE
8
BLACK
6
CONTINUOUS
10
184.023
20
-42.4822
11
184.098
21
-42.6441
0
LINE
8
BLACK
6
CONTINUOUS
10
184.098
20
-42.6441
11
184.144
21
-42.8167
0
LINE
8
BLACK
6
CONTINUOUS
10
184.144
20
-42.8167
11
184.16
21
-42.9947
0
LINE
8
BLACK
6
CONTINUOUS
10
184.16
20
-42.9947
11
184.16
21
-42.9947
0
LINE
8
BLACK
6
CONTINUOUS
10
184.16
20
-42.9947
11
184.16
21
-47.9947
0
LINE
8
BLACK
6
CONTINUOUS
10
184.16
20
-47.9947
11
184.157
21
-48.0022
0
LINE
8
BLACK
6
CONTINUOUS
10
184.157
20
-48.0022
11
184.171
21
-48.1647
0
LINE
8
BLACK
6
CONTINUOUS
10
184.171
20
-48.1647
11
184.215
21
-48.3295
0
LINE
8
BLACK
6
CONTINUOUS
10
184.215
20
-48.3295
11
184.287
21
-48.4841
0
LINE
8
BLACK
6
CONTINUOUS
10
184.287
20
-48.4841
11
184.385
21
-48.6238
0
LINE
8
BLACK
6
CONTINUOUS
10
184.385
20
-48.6238
11
184.506
21
-48.7445
0
LINE
8
BLACK
6
CONTINUOUS
10
184.506
20
-48.7445
11
184.646
21
-48.8423
0
LINE
8
BLACK
6
CONTINUOUS
10
184.646
20
-48.8423
11
184.8
21
-48.9144
0
LINE
8
BLACK
6
CONTINUOUS
10
184.8
20
-48.9144
11
184.965
21
-48.9586
0
LINE
8
BLACK
6
CONTINUOUS
10
184.965
20
-48.9586
11
185.128
21
-48.9728
0
LINE
8
BLACK
6
CONTINUOUS
10
185.128
20
-48.9728
11
185.135
21
-48.9697
0
LINE
8
BLACK
6
CONTINUOUS
10
185.135
20
-48.9697
11
221.235
21
-48.9697
0
LINE
8
BLACK
6
CONTINUOUS
10
221.235
20
-48.9697
11
221.413
21
-48.9853
0
LINE
8
BLACK
6
CONTINUOUS
10
221.413
20
-48.9853
11
221.586
21
-49.0315
0
LINE
8
BLACK
6
CONTINUOUS
10
221.586
20
-49.0315
11
221.747
21
-49.107
0
LINE
8
BLACK
6
CONTINUOUS
10
221.747
20
-49.107
11
221.894
21
-49.2095
0
LINE
8
BLACK
6
CONTINUOUS
10
221.894
20
-49.2095
11
222.02
21
-49.3359
0
LINE
8
BLACK
6
CONTINUOUS
10
222.02
20
-49.3359
11
222.123
21
-49.4822
0
LINE
8
BLACK
6
CONTINUOUS
10
222.123
20
-49.4822
11
222.198
21
-49.6441
0
LINE
8
BLACK
6
CONTINUOUS
10
222.198
20
-49.6441
11
222.244
21
-49.8167
0
LINE
8
BLACK
6
CONTINUOUS
10
222.244
20
-49.8167
11
222.26
21
-49.9947
0
LINE
8
BLACK
6
CONTINUOUS
10
222.26
20
-49.9947
11
222.26
21
-49.9947
0
LINE
8
BLACK
6
CONTINUOUS
10
222.26
20
-49.9947
11
222.26
21
-142.245
0
LINE
8
BLACK
6
CONTINUOUS
10
222.26
20
-142.245
11
222.244
21
-142.423
0
LINE
8
BLACK
6
CONTINUOUS
10
222.244
20
-142.423
11
222.198
21
-142.595
0
LINE
8
BLACK
6
CONTINUOUS
10
222.198
20
-142.595
11
222.123
21
-142.757
0
LINE
8
BLACK
6
CONTINUOUS
10
222.123
20
-142.757
11
222.02
21
-142.904
0
LINE
8
BLACK
6
CONTINUOUS
10
222.02
20
-142.904
11
221.894
21
-143.03
0
LINE
8
BLACK
6
CONTINUOUS
10
221.894
20
-143.03
11
221.747
21
-143.132
0
LINE
8
BLACK
6
CONTINUOUS
10
221.747
20
-143.132
11
221.586
21
-143.208
0
LINE
8
BLACK
6
CONTINUOUS
10
221.586
20
-143.208
11
221.413
21
-143.254
0
LINE
8
BLACK
6
CONTINUOUS
10
221.413
20
-143.254
11
221.235
21
-143.27
0
LINE
8
BLACK
6
CONTINUOUS
10
221.235
20
-143.27
11
221.235
21
-143.27
0
LINE
8
BLACK
6
CONTINUOUS
10
221.235
20
-143.27
11
176.246
21
-143.27
0
LINE
8
BLACK
6
CONTINUOUS
10
176.246
20
-143.27
11
176.13
21
-143.257
0
LINE
8
BLACK
6
CONTINUOUS
10
176.13
20
-143.257
11
176.019
21
-143.218
0
LINE
8
BLACK
6
CONTINUOUS
10
176.019
20
-143.218
11
175.919
21
-143.155
0
LINE
8
BLACK
6
CONTINUOUS
10
175.919
20
-143.155
11
175.836
21
-143.072
0
LINE
8
BLACK
6
CONTINUOUS
10
175.836
20
-143.072
11
175.773
21
-142.972
0
LINE
8
BLACK
6
CONTINUOUS
10
175.773
20
-142.972
11
175.735
21
-142.862
0
LINE
8
BLACK
6
CONTINUOUS
10
175.735
20
-142.862
11
175.721
21
-142.745
0
LINE
8
BLACK
6
CONTINUOUS
10
175.721
20
-142.745
11
175.721
21
-142.745
0
LINE
8
BLACK
6
CONTINUOUS
10
175.721
20
-142.745
11
175.721
21
-119.495
0
LINE
8
BLACK
6
CONTINUOUS
10
175.721
20
-119.495
11
175.724
21
-119.487
0
LINE
8
BLACK
6
CONTINUOUS
10
175.724
20
-119.487
11
175.71
21
-119.325
0
LINE
8
BLACK
6
CONTINUOUS
10
175.71
20
-119.325
11
175.666
21
-119.16
0
LINE
8
BLACK
6
CONTINUOUS
10
175.666
20
-119.16
11
175.594
21
-119.005
0
LINE
8
BLACK
6
CONTINUOUS
10
175.594
20
-119.005
11
175.496
21
-118.866
0
LINE
8
BLACK
6
CONTINUOUS
10
175.496
20
-118.866
11
175.375
21
-118.745
0
LINE
8
BLACK
6
CONTINUOUS
10
175.375
20
-118.745
11
175.236
21
-118.647
0
LINE
8
BLACK
6
CONTINUOUS
10
175.236
20
-118.647
11
175.081
21
-118.575
0
LINE
8
BLACK
6
CONTINUOUS
10
175.081
20
-118.575
11
174.916
21
-118.531
0
LINE
8
BLACK
6
CONTINUOUS
10
174.916
20
-118.531
11
174.754
21
-118.517
0
LINE
8
BLACK
6
CONTINUOUS
10
174.754
20
-118.517
11
174.746
21
-118.52
0
LINE
8
BLACK
6
CONTINUOUS
10
174.746
20
-118.52
11
166.276
21
-118.52
0
LINE
8
BLACK
6
CONTINUOUS
10
166.276
20
-118.52
11
166.098
21
-118.504
0
LINE
8
BLACK
6
CONTINUOUS
10
166.098
20
-118.504
11
165.926
21
-118.458
0
LINE
8
BLACK
6
CONTINUOUS
10
165.926
20
-118.458
11
165.764
21
-118.382
0
LINE
8
BLACK
6
CONTINUOUS
10
165.764
20
-118.382
11
165.618
21
-118.28
0
LINE
8
BLACK
6
CONTINUOUS
10
165.618
20
-118.28
11
165.491
21
-118.154
0
LINE
8
BLACK
6
CONTINUOUS
10
165.491
20
-118.154
11
165.389
21
-118.007
0
LINE
8
BLACK
6
CONTINUOUS
10
165.389
20
-118.007
11
165.313
21
-117.845
0
LINE
8
BLACK
6
CONTINUOUS
10
165.313
20
-117.845
11
165.267
21
-117.673
0
LINE
8
BLACK
6
CONTINUOUS
10
165.267
20
-117.673
11
165.251
21
-117.495
0
LINE
8
BLACK
6
CONTINUOUS
10
165.251
20
-117.495
11
165.251
21
-117.495
0
LINE
8
BLACK
6
CONTINUOUS
10
165.251
20
-117.495
11
165.251
21
-116.995
0
LINE
8
BLACK
6
CONTINUOUS
10
165.251
20
-116.995
11
165.254
21
-116.987
0
LINE
8
BLACK
6
CONTINUOUS
10
165.254
20
-116.987
11
165.24
21
-116.825
0
LINE
8
BLACK
6
CONTINUOUS
10
165.24
20
-116.825
11
165.196
21
-116.66
0
LINE
8
BLACK
6
CONTINUOUS
10
165.196
20
-116.66
11
165.124
21
-116.505
0
LINE
8
BLACK
6
CONTINUOUS
10
165.124
20
-116.505
11
165.026
21
-116.366
0
LINE
8
BLACK
6
CONTINUOUS
10
165.026
20
-116.366
11
164.906
21
-116.245
0
LINE
8
BLACK
6
CONTINUOUS
10
164.906
20
-116.245
11
164.766
21
-116.147
0
LINE
8
BLACK
6
CONTINUOUS
10
164.766
20
-116.147
11
164.611
21
-116.075
0
LINE
8
BLACK
6
CONTINUOUS
10
164.611
20
-116.075
11
164.446
21
-116.031
0
LINE
8
BLACK
6
CONTINUOUS
10
164.446
20
-116.031
11
164.284
21
-116.017
0
LINE
8
BLACK
6
CONTINUOUS
10
164.284
20
-116.017
11
164.276
21
-116.02
0
LINE
8
BLACK
6
CONTINUOUS
10
164.276
20
-116.02
11
128.921
21
-116.02
0
LINE
8
BLACK
6
CONTINUOUS
10
128.921
20
-116.02
11
128.913
21
-116.016
0
LINE
8
BLACK
6
CONTINUOUS
10
128.913
20
-116.016
11
128.669
21
-116.032
0
LINE
8
BLACK
6
CONTINUOUS
10
128.669
20
-116.032
11
128.421
21
-116.08
0
LINE
8
BLACK
6
CONTINUOUS
10
128.421
20
-116.08
11
128.18
21
-116.16
0
LINE
8
BLACK
6
CONTINUOUS
10
128.18
20
-116.16
11
127.952
21
-116.269
0
LINE
8
BLACK
6
CONTINUOUS
10
127.952
20
-116.269
11
127.74
21
-116.407
0
LINE
8
BLACK
6
CONTINUOUS
10
127.74
20
-116.407
11
127.547
21
-116.571
0
LINE
8
BLACK
6
CONTINUOUS
10
127.547
20
-116.571
11
127.382
21
-116.751
0
LINE
8
BLACK
6
CONTINUOUS
10
127.382
20
-116.751
11
127.38
21
-116.76
0
LINE
8
BLACK
6
CONTINUOUS
10
127.38
20
-116.76
11
127.38
21
-116.76
0
LINE
8
BLACK
6
CONTINUOUS
10
127.38
20
-116.76
11
127.205
21
-116.952
0
LINE
8
BLACK
6
CONTINUOUS
10
127.205
20
-116.952
11
127.008
21
-117.119
0
LINE
8
BLACK
6
CONTINUOUS
10
127.008
20
-117.119
11
126.791
21
-117.26
0
LINE
8
BLACK
6
CONTINUOUS
10
126.791
20
-117.26
11
126.557
21
-117.372
0
LINE
8
BLACK
6
CONTINUOUS
10
126.557
20
-117.372
11
126.312
21
-117.454
0
LINE
8
BLACK
6
CONTINUOUS
10
126.312
20
-117.454
11
126.057
21
-117.503
0
LINE
8
BLACK
6
CONTINUOUS
10
126.057
20
-117.503
11
125.799
21
-117.52
0
LINE
8
BLACK
6
CONTINUOUS
10
125.799
20
-117.52
11
125.799
21
-117.52
0
LINE
8
BLACK
6
CONTINUOUS
10
125.799
20
-117.52
11
121.785
21
-117.52
0
LINE
8
BLACK
6
CONTINUOUS
10
121.785
20
-117.52
11
121.776
21
-117.516
0
LINE
8
BLACK
6
CONTINUOUS
10
121.776
20
-117.516
11
121.474
21
-117.532
0
LINE
8
BLACK
6
CONTINUOUS
10
121.474
20
-117.532
11
121.166
21
-117.581
0
LINE
8
BLACK
6
CONTINUOUS
10
121.166
20
-117.581
11
120.864
21
-117.661
0
LINE
8
BLACK
6
CONTINUOUS
10
120.864
20
-117.661
11
120.573
21
-117.773
0
LINE
8
BLACK
6
CONTINUOUS
10
120.573
20
-117.773
11
120.295
21
-117.915
0
LINE
8
BLACK
6
CONTINUOUS
10
120.295
20
-117.915
11
120.034
21
-118.085
0
LINE
8
BLACK
6
CONTINUOUS
10
120.034
20
-118.085
11
119.792
21
-118.281
0
LINE
8
BLACK
6
CONTINUOUS
10
119.792
20
-118.281
11
119.571
21
-118.501
0
LINE
8
BLACK
6
CONTINUOUS
10
119.571
20
-118.501
11
119.375
21
-118.744
0
LINE
8
BLACK
6
CONTINUOUS
10
119.375
20
-118.744
11
119.205
21
-119.005
0
LINE
8
BLACK
6
CONTINUOUS
10
119.205
20
-119.005
11
119.063
21
-119.283
0
LINE
8
BLACK
6
CONTINUOUS
10
119.063
20
-119.283
11
118.952
21
-119.574
0
LINE
8
BLACK
6
CONTINUOUS
10
118.952
20
-119.574
11
118.871
21
-119.875
0
LINE
8
BLACK
6
CONTINUOUS
10
118.871
20
-119.875
11
118.822
21
-120.183
0
LINE
8
BLACK
6
CONTINUOUS
10
118.822
20
-120.183
11
118.806
21
-120.486
0
LINE
8
BLACK
6
CONTINUOUS
10
118.806
20
-120.486
11
118.81
21
-120.495
0
LINE
8
BLACK
6
CONTINUOUS
10
118.81
20
-120.495
11
118.81
21
-123.284
0
LINE
8
BLACK
6
CONTINUOUS
10
118.81
20
-123.284
11
118.81
21
-123.284
0
LINE
8
BLACK
6
CONTINUOUS
10
118.81
20
-123.284
11
118.809
21
-123.286
0
LINE
8
BLACK
6
CONTINUOUS
10
118.809
20
-123.286
11
118.814
21
-123.456
0
LINE
8
BLACK
6
CONTINUOUS
10
118.814
20
-123.456
11
118.829
21
-123.627
0
LINE
8
BLACK
6
CONTINUOUS
10
118.829
20
-123.627
11
118.853
21
-123.795
0
LINE
8
BLACK
6
CONTINUOUS
10
118.853
20
-123.795
11
118.855
21
-123.798
0
LINE
8
BLACK
6
CONTINUOUS
10
118.855
20
-123.798
11
121.585
21
-139.367
0
LINE
8
BLACK
6
CONTINUOUS
10
121.585
20
-139.367
11
121.585
21
-139.367
0
LINE
8
BLACK
6
CONTINUOUS
10
121.585
20
-139.367
11
121.614
21
-139.631
0
LINE
8
BLACK
6
CONTINUOUS
10
121.614
20
-139.631
11
121.608
21
-139.895
0
LINE
8
BLACK
6
CONTINUOUS
10
121.608
20
-139.895
11
121.568
21
-140.157
0
LINE
8
BLACK
6
CONTINUOUS
10
121.568
20
-140.157
11
121.493
21
-140.411
0
LINE
8
BLACK
6
CONTINUOUS
10
121.493
20
-140.411
11
121.387
21
-140.653
0
LINE
8
BLACK
6
CONTINUOUS
10
121.387
20
-140.653
11
121.249
21
-140.879
0
LINE
8
BLACK
6
CONTINUOUS
10
121.249
20
-140.879
11
121.084
21
-141.086
0
LINE
8
BLACK
6
CONTINUOUS
10
121.084
20
-141.086
11
120.892
21
-141.269
0
LINE
8
BLACK
6
CONTINUOUS
10
120.892
20
-141.269
11
120.679
21
-141.425
0
LINE
8
BLACK
6
CONTINUOUS
10
120.679
20
-141.425
11
120.447
21
-141.552
0
LINE
8
BLACK
6
CONTINUOUS
10
120.447
20
-141.552
11
120.2
21
-141.648
0
LINE
8
BLACK
6
CONTINUOUS
10
120.2
20
-141.648
11
119.943
21
-141.711
0
LINE
8
BLACK
6
CONTINUOUS
10
119.943
20
-141.711
11
119.943
21
-141.711
0
LINE
8
BLACK
6
CONTINUOUS
10
119.943
20
-141.711
11
102.831
21
-144.736
0
LINE
8
BLACK
6
CONTINUOUS
10
102.831
20
-144.736
11
102.831
21
-144.736
0
LINE
8
BLACK
6
CONTINUOUS
10
102.831
20
-144.736
11
102.828
21
-144.735
0
LINE
8
BLACK
6
CONTINUOUS
10
102.828
20
-144.735
11
102.661
21
-144.769
0
LINE
8
BLACK
6
CONTINUOUS
10
102.661
20
-144.769
11
102.495
21
-144.814
0
LINE
8
BLACK
6
CONTINUOUS
10
102.495
20
-144.814
11
102.353
21
-144.861
0
LINE
8
BLACK
6
CONTINUOUS
10
102.353
20
-144.861
11
102.344
21
-144.87
0
LINE
8
BLACK
6
CONTINUOUS
10
102.344
20
-144.87
11
94.7896
21
-147.604
0
LINE
8
BLACK
6
CONTINUOUS
10
94.7896
20
-147.604
11
81.6849
21
-170.302
0
LINE
8
BLACK
6
CONTINUOUS
10
81.6849
20
-170.302
11
81.6849
21
-187.295
0
LINE
8
BLACK
6
CONTINUOUS
10
81.6849
20
-187.295
11
81.6693
21
-187.473
0
LINE
8
BLACK
6
CONTINUOUS
10
81.6693
20
-187.473
11
81.6231
21
-187.646
0
LINE
8
BLACK
6
CONTINUOUS
10
81.6231
20
-187.646
11
81.5476
21
-187.808
0
LINE
8
BLACK
6
CONTINUOUS
10
81.5476
20
-187.808
11
81.4451
21
-187.954
0
LINE
8
BLACK
6
CONTINUOUS
10
81.4451
20
-187.954
11
81.3188
21
-188.08
0
LINE
8
BLACK
6
CONTINUOUS
10
81.3188
20
-188.08
11
81.1724
21
-188.183
0
LINE
8
BLACK
6
CONTINUOUS
10
81.1724
20
-188.183
11
81.0105
21
-188.258
0
LINE
8
BLACK
6
CONTINUOUS
10
81.0105
20
-188.258
11
80.8379
21
-188.305
0
LINE
8
BLACK
6
CONTINUOUS
10
80.8379
20
-188.305
11
80.6599
21
-188.32
0
LINE
8
BLACK
6
CONTINUOUS
10
80.6599
20
-188.32
11
80.6599
21
-188.32
0
LINE
8
BLACK
6
CONTINUOUS
10
80.6599
20
-188.32
11
62.6
21
-188.32
0
LINE
8
BLACK
6
CONTINUOUS
10
62.6
20
-188.32
11
62.422
21
-188.305
0
LINE
8
BLACK
6
CONTINUOUS
10
62.422
20
-188.305
11
62.2494
21
-188.258
0
LINE
8
BLACK
6
CONTINUOUS
10
62.2494
20
-188.258
11
62.0875
21
-188.183
0
LINE
8
BLACK
6
CONTINUOUS
10
62.0875
20
-188.183
11
61.9411
21
-188.08
0
LINE
8
BLACK
6
CONTINUOUS
10
61.9411
20
-188.08
11
61.8148
21
-187.954
0
LINE
8
BLACK
6
CONTINUOUS
10
61.8148
20
-187.954
11
61.7123
21
-187.808
0
LINE
8
BLACK
6
CONTINUOUS
10
61.7123
20
-187.808
11
61.6368
21
-187.646
0
LINE
8
BLACK
6
CONTINUOUS
10
61.6368
20
-187.646
11
61.5906
21
-187.473
0
LINE
8
BLACK
6
CONTINUOUS
10
61.5906
20
-187.473
11
61.575
21
-187.295
0
LINE
8
BLACK
6
CONTINUOUS
10
61.575
20
-187.295
11
61.575
21
-187.295
0
LINE
8
BLACK
6
CONTINUOUS
10
61.575
20
-187.295
11
61.575
21
-170.295
0
LINE
8
BLACK
6
CONTINUOUS
10
61.575
20
-170.295
11
61.5763
21
-170.292
0
LINE
8
BLACK
6
CONTINUOUS
10
61.5763
20
-170.292
11
61.5759
21
-170.289
0
LINE
8
BLACK
6
CONTINUOUS
10
61.5759
20
-170.289
11
64.3153
21
-160.289
0
LINE
8
BLACK
6
CONTINUOUS
10
64.3153
20
-160.289
11
64.3173
21
-160.286
0
LINE
8
BLACK
6
CONTINUOUS
10
64.3173
20
-160.286
11
64.3177
21
-160.283
0
LINE
8
BLACK
6
CONTINUOUS
10
64.3177
20
-160.283
11
79.3161
21
-134.305
0
LINE
8
BLACK
6
CONTINUOUS
10
79.3161
20
-134.305
11
79.3178
21
-134.292
0
LINE
8
BLACK
6
CONTINUOUS
10
79.3178
20
-134.292
11
88.2141
21
-118.993
0
LINE
8
BLACK
6
CONTINUOUS
10
88.2141
20
-118.993
11
88.2141
21
-43.2947
0
LINE
8
BLACK
6
CONTINUOUS
10
88.2141
20
-43.2947
11
88.2296
21
-43.1167
0
LINE
8
BLACK
6
CONTINUOUS
10
88.2296
20
-43.1167
11
88.2759
21
-42.9441
0
LINE
8
BLACK
6
CONTINUOUS
10
88.2759
20
-42.9441
11
88.3514
21
-42.7822
0
LINE
8
BLACK
6
CONTINUOUS
10
88.3514
20
-42.7822
11
88.4538
21
-42.6358
0
LINE
8
BLACK
6
CONTINUOUS
10
88.4538
20
-42.6358
11
88.5802
21
-42.5095
0
LINE
8
BLACK
6
CONTINUOUS
10
88.5802
20
-42.5095
11
88.7265
21
-42.407
0
LINE
8
BLACK
6
CONTINUOUS
10
88.7265
20
-42.407
11
88.8885
21
-42.3315
0
LINE
8
BLACK
6
CONTINUOUS
10
88.8885
20
-42.3315
11
89.0611
21
-42.2852
0
LINE
8
BLACK
6
CONTINUOUS
10
89.0611
20
-42.2852
11
89.239
21
-42.2696
0
LINE
8
BLACK
6
CONTINUOUS
10
89.239
20
-42.2696
11
89.239
21
-42.2697
0
LINE
8
BLACK
6
CONTINUOUS
10
89.239
20
-42.2697
11
92.239
21
-42.2697
0
LINE
8
BLACK
6
CONTINUOUS
10
92.239
20
-42.2697
11
92.2391
21
-42.2697
0
LINE
8
BLACK
6
CONTINUOUS
10
92.2391
20
-42.2697
11
92.2391
21
-42.2697
0
LINE
8
BLACK
6
CONTINUOUS
10
92.2391
20
-42.2697
11
92.3559
21
-42.2829
0
LINE
8
BLACK
6
CONTINUOUS
10
92.3559
20
-42.2829
11
92.4668
21
-42.3217
0
LINE
8
BLACK
6
CONTINUOUS
10
92.4668
20
-42.3217
11
92.5664
21
-42.3843
0
LINE
8
BLACK
6
CONTINUOUS
10
92.5664
20
-42.3843
11
92.6495
21
-42.4674
0
LINE
8
BLACK
6
CONTINUOUS
10
92.6495
20
-42.4674
11
92.712
21
-42.5669
0
LINE
8
BLACK
6
CONTINUOUS
10
92.712
20
-42.5669
11
92.7508
21
-42.6779
0
LINE
8
BLACK
6
CONTINUOUS
10
92.7508
20
-42.6779
11
92.764
21
-42.7945
0
LINE
8
BLACK
6
CONTINUOUS
10
92.764
20
-42.7945
11
92.764
21
-42.7947
0
LINE
8
BLACK
6
CONTINUOUS
10
92.764
20
-42.7947
11
92.764
21
-49.7947
0
LINE
8
BLACK
6
CONTINUOUS
10
92.764
20
-49.7947
11
92.761
21
-49.8021
0
LINE
8
BLACK
6
CONTINUOUS
10
92.761
20
-49.8021
11
92.7763
21
-49.9187
0
LINE
8
BLACK
6
CONTINUOUS
10
92.7763
20
-49.9187
11
92.8242
21
-50.0342
0
LINE
8
BLACK
6
CONTINUOUS
10
92.8242
20
-50.0342
11
92.9003
21
-50.1335
0
LINE
8
BLACK
6
CONTINUOUS
10
92.9003
20
-50.1335
11
92.9995
21
-50.2096
0
LINE
8
BLACK
6
CONTINUOUS
10
92.9995
20
-50.2096
11
93.1151
21
-50.2575
0
LINE
8
BLACK
6
CONTINUOUS
10
93.1151
20
-50.2575
11
93.2315
21
-50.2728
0
LINE
8
BLACK
6
CONTINUOUS
10
93.2315
20
-50.2728
11
93.239
21
-50.2697
0
LINE
8
BLACK
6
CONTINUOUS
10
93.239
20
-50.2697
11
103.039
21
-50.2697
0
LINE
8
BLACK
6
CONTINUOUS
10
103.039
20
-50.2697
11
103.047
21
-50.2728
0
LINE
8
BLACK
6
CONTINUOUS
10
103.047
20
-50.2728
11
103.163
21
-50.2575
0
LINE
8
BLACK
6
CONTINUOUS
10
103.163
20
-50.2575
11
103.279
21
-50.2096
0
LINE
8
BLACK
6
CONTINUOUS
10
103.279
20
-50.2096
11
103.378
21
-50.1335
0
LINE
8
BLACK
6
CONTINUOUS
10
103.378
20
-50.1335
11
103.454
21
-50.0343
0
LINE
8
BLACK
6
CONTINUOUS
10
103.454
20
-50.0343
11
103.502
21
-49.9187
0
LINE
8
BLACK
6
CONTINUOUS
10
103.502
20
-49.9187
11
103.517
21
-49.8022
0
LINE
8
BLACK
6
CONTINUOUS
10
103.517
20
-49.8022
11
103.514
21
-49.7947
0
LINE
8
BLACK
6
CONTINUOUS
10
103.514
20
-49.7947
11
103.514
21
-42.7947
0
LINE
8
BLACK
6
CONTINUOUS
10
103.514
20
-42.7947
11
103.527
21
-42.6779
0
LINE
8
BLACK
6
CONTINUOUS
10
103.527
20
-42.6779
11
103.566
21
-42.5669
0
LINE
8
BLACK
6
CONTINUOUS
10
103.566
20
-42.5669
11
103.629
21
-42.4674
0
LINE
8
BLACK
6
CONTINUOUS
10
103.629
20
-42.4674
11
103.712
21
-42.3842
0
LINE
8
BLACK
6
CONTINUOUS
10
103.712
20
-42.3842
11
103.811
21
-42.3217
0
LINE
8
BLACK
6
CONTINUOUS
10
103.811
20
-42.3217
11
103.922
21
-42.2828
0
LINE
8
BLACK
6
CONTINUOUS
10
103.922
20
-42.2828
11
104.039
21
-42.2696
0
LINE
8
BLACK
6
CONTINUOUS
10
104.039
20
-42.2696
11
104.039
21
-42.2697
0
LINE
8
BLACK
6
CONTINUOUS
10
104.039
20
-42.2697
11
104.039
21
-42.2697
0
LINE
8
BLACK
6
CONTINUOUS
10
104.039
20
-42.2697
11
104.039
21
-42.2697
0
LINE
8
BLACK
6
CONTINUOUS
10
104.039
20
-42.2697
11
126.985
21
-42.2697
0
LINE
8
BLACK
6
CONTINUOUS
10
126.985
20
-42.2697
11
126.992
21
-42.2728
0
LINE
8
BLACK
6
CONTINUOUS
10
126.992
20
-42.2728
11
127.155
21
-42.2586
0
LINE
8
BLACK
6
CONTINUOUS
10
127.155
20
-42.2586
11
127.32
21
-42.2144
0
LINE
8
BLACK
6
CONTINUOUS
10
127.32
20
-42.2144
11
127.474
21
-42.1423
0
LINE
8
BLACK
6
CONTINUOUS
10
127.474
20
-42.1423
11
127.614
21
-42.0444
0
LINE
8
BLACK
6
CONTINUOUS
10
127.614
20
-42.0444
11
127.735
21
-41.9238
0
LINE
8
BLACK
6
CONTINUOUS
10
127.735
20
-41.9238
11
127.833
21
-41.7841
0
LINE
8
BLACK
6
CONTINUOUS
10
127.833
20
-41.7841
11
127.905
21
-41.6294
0
LINE
8
BLACK
6
CONTINUOUS
10
127.905
20
-41.6294
11
127.949
21
-41.4647
0
LINE
8
BLACK
6
CONTINUOUS
10
127.949
20
-41.4647
11
127.963
21
-41.3021
0
LINE
8
BLACK
6
CONTINUOUS
10
127.963
20
-41.3021
11
127.96
21
-41.2947
0
LINE
8
BLACK
6
CONTINUOUS
10
127.96
20
-41.2947
11
127.96
21
-40.7947
0
LINE
8
BLACK
6
CONTINUOUS
10
127.96
20
-40.7947
11
127.976
21
-40.6167
0
LINE
8
BLACK
6
CONTINUOUS
10
127.976
20
-40.6167
11
128.022
21
-40.4441
0
LINE
8
BLACK
6
CONTINUOUS
10
128.022
20
-40.4441
11
128.097
21
-40.2822
0
LINE
8
BLACK
6
CONTINUOUS
10
128.097
20
-40.2822
11
128.2
21
-40.1358
0
LINE
8
BLACK
6
CONTINUOUS
10
128.2
20
-40.1358
11
128.326
21
-40.0095
0
LINE
8
BLACK
6
CONTINUOUS
10
128.326
20
-40.0095
11
128.472
21
-39.907
0
LINE
8
BLACK
6
CONTINUOUS
10
128.472
20
-39.907
11
128.634
21
-39.8315
0
LINE
8
BLACK
6
CONTINUOUS
10
128.634
20
-39.8315
11
128.807
21
-39.7853
0
LINE
8
BLACK
6
CONTINUOUS
10
128.807
20
-39.7853
11
128.985
21
-39.7697
0
LINE
8
BLACK
6
CONTINUOUS
10
128.985
20
-39.7697
11
128.985
21
-39.7697
0
LINE
8
BLACK
6
CONTINUOUS
10
128.985
20
-39.7697
11
146.035
21
-39.7697
0
LINE
8
BLACK
6
CONTINUOUS
10
146.035
20
-39.7697
11
146.042
21
-39.7728
0
LINE
8
BLACK
6
CONTINUOUS
10
146.042
20
-39.7728
11
146.205
21
-39.7586
0
LINE
8
BLACK
6
CONTINUOUS
10
146.205
20
-39.7586
11
146.37
21
-39.7144
0
LINE
8
BLACK
6
CONTINUOUS
10
146.37
20
-39.7144
11
146.524
21
-39.6423
0
LINE
8
BLACK
6
CONTINUOUS
10
146.524
20
-39.6423
11
146.664
21
-39.5444
0
LINE
8
BLACK
6
CONTINUOUS
10
146.664
20
-39.5444
11
146.785
21
-39.4238
0
LINE
8
BLACK
6
CONTINUOUS
10
146.785
20
-39.4238
11
146.883
21
-39.2841
0
LINE
8
BLACK
6
CONTINUOUS
10
146.883
20
-39.2841
11
146.955
21
-39.1294
0
LINE
8
BLACK
6
CONTINUOUS
10
146.955
20
-39.1294
11
146.999
21
-38.9647
0
LINE
8
BLACK
6
CONTINUOUS
10
146.999
20
-38.9647
11
147.013
21
-38.8021
0
LINE
8
BLACK
6
CONTINUOUS
10
147.013
20
-38.8021
11
147.01
21
-38.7947
0
LINE
8
BLACK
6
CONTINUOUS
10
147.01
20
-38.7947
11
147.01
21
-38.2947
0
LINE
8
BLACK
6
CONTINUOUS
10
147.01
20
-38.2947
11
147.026
21
-38.1167
0
LINE
8
BLACK
6
CONTINUOUS
10
147.026
20
-38.1167
11
147.072
21
-37.9441
0
LINE
8
BLACK
6
CONTINUOUS
10
147.072
20
-37.9441
11
147.147
21
-37.7822
0
LINE
8
BLACK
6
CONTINUOUS
10
147.147
20
-37.7822
11
147.25
21
-37.6358
0
LINE
8
BLACK
6
CONTINUOUS
10
147.25
20
-37.6358
11
147.376
21
-37.5095
0
LINE
8
BLACK
6
CONTINUOUS
10
147.376
20
-37.5095
11
147.522
21
-37.407
0
LINE
8
BLACK
6
CONTINUOUS
10
147.522
20
-37.407
11
147.684
21
-37.3315
0
LINE
8
BLACK
6
CONTINUOUS
10
147.684
20
-37.3315
11
147.857
21
-37.2853
0
LINE
8
BLACK
6
CONTINUOUS
10
147.857
20
-37.2853
11
148.035
21
-37.2697
0
LINE
8
BLACK
6
CONTINUOUS
10
148.035
20
-37.2697
11
148.035
21
-37.2697
0
LINE
8
BLACK
6
CONTINUOUS
10
148.035
20
-37.2697
11
164.085
21
-37.2697
0
LINE
8
BLACK
6
CONTINUOUS
10
164.085
20
-37.2697
11
164.263
21
-37.2853
0
LINE
8
BLACK
6
CONTINUOUS
10
164.263
20
-37.2853
11
164.436
21
-37.3315
0
LINE
8
BLACK
6
CONTINUOUS
10
128.978
20
-39.8166
11
128.815
21
-39.8308
0
LINE
8
BLACK
6
CONTINUOUS
10
128.815
20
-39.8308
11
128.65
21
-39.875
0
LINE
8
BLACK
6
CONTINUOUS
10
128.65
20
-39.875
11
128.496
21
-39.9471
0
LINE
8
BLACK
6
CONTINUOUS
10
128.496
20
-39.9471
11
128.356
21
-40.045
0
LINE
8
BLACK
6
CONTINUOUS
10
128.356
20
-40.045
11
128.235
21
-40.1656
0
LINE
8
BLACK
6
CONTINUOUS
10
128.235
20
-40.1656
11
128.137
21
-40.3053
0
LINE
8
BLACK
6
CONTINUOUS
10
128.137
20
-40.3053
11
128.065
21
-40.46
0
LINE
8
BLACK
6
CONTINUOUS
10
128.065
20
-40.46
11
128.021
21
-40.6248
0
LINE
8
BLACK
6
CONTINUOUS
10
128.021
20
-40.6248
11
128.007
21
-40.7873
0
LINE
8
BLACK
6
CONTINUOUS
10
128.007
20
-40.7873
11
128.01
21
-40.7947
0
LINE
8
BLACK
6
CONTINUOUS
10
128.01
20
-40.7947
11
128.01
21
-41.2947
0
LINE
8
BLACK
6
CONTINUOUS
10
128.01
20
-41.2947
11
127.994
21
-41.4727
0
LINE
8
BLACK
6
CONTINUOUS
10
127.994
20
-41.4727
11
127.948
21
-41.6453
0
LINE
8
BLACK
6
CONTINUOUS
10
127.948
20
-41.6453
11
127.873
21
-41.8072
0
LINE
8
BLACK
6
CONTINUOUS
10
127.873
20
-41.8072
11
127.77
21
-41.9536
0
LINE
8
BLACK
6
CONTINUOUS
10
127.77
20
-41.9536
11
127.644
21
-42.0799
0
LINE
8
BLACK
6
CONTINUOUS
10
127.644
20
-42.0799
11
127.497
21
-42.1824
0
LINE
8
BLACK
6
CONTINUOUS
10
127.497
20
-42.1824
11
127.336
21
-42.2579
0
LINE
8
BLACK
6
CONTINUOUS
10
127.336
20
-42.2579
11
127.163
21
-42.3041
0
LINE
8
BLACK
6
CONTINUOUS
10
127.163
20
-42.3041
11
126.985
21
-42.3197
0
LINE
8
BLACK
6
CONTINUOUS
10
126.985
20
-42.3197
11
126.985
21
-42.3197
0
LINE
8
BLACK
6
CONTINUOUS
10
126.985
20
-42.3197
11
104.039
21
-42.3197
0
LINE
8
BLACK
6
CONTINUOUS
10
104.039
20
-42.3197
11
104.031
21
-42.3166
0
LINE
8
BLACK
6
CONTINUOUS
10
104.031
20
-42.3166
11
103.915
21
-42.3319
0
LINE
8
BLACK
6
CONTINUOUS
10
103.915
20
-42.3319
11
103.799
21
-42.3798
0
LINE
8
BLACK
6
CONTINUOUS
10
103.799
20
-42.3798
11
103.7
21
-42.4559
0
LINE
8
BLACK
6
CONTINUOUS
10
103.7
20
-42.4559
11
103.624
21
-42.5551
0
LINE
8
BLACK
6
CONTINUOUS
10
103.624
20
-42.5551
11
103.576
21
-42.6707
0
LINE
8
BLACK
6
CONTINUOUS
10
103.576
20
-42.6707
11
103.561
21
-42.7872
0
LINE
8
BLACK
6
CONTINUOUS
10
103.561
20
-42.7872
11
103.564
21
-42.7947
0
LINE
8
BLACK
6
CONTINUOUS
10
103.564
20
-42.7947
11
103.564
21
-49.7947
0
LINE
8
BLACK
6
CONTINUOUS
10
103.564
20
-49.7947
11
103.551
21
-49.9115
0
LINE
8
BLACK
6
CONTINUOUS
10
103.551
20
-49.9115
11
103.512
21
-50.0225
0
LINE
8
BLACK
6
CONTINUOUS
10
103.512
20
-50.0225
11
103.45
21
-50.122
0
LINE
8
BLACK
6
CONTINUOUS
10
103.45
20
-50.122
11
103.366
21
-50.2052
0
LINE
8
BLACK
6
CONTINUOUS
10
103.366
20
-50.2052
11
103.267
21
-50.2677
0
LINE
8
BLACK
6
CONTINUOUS
10
103.267
20
-50.2677
11
103.156
21
-50.3066
0
LINE
8
BLACK
6
CONTINUOUS
10
103.156
20
-50.3066
11
103.039
21
-50.3197
0
LINE
8
BLACK
6
CONTINUOUS
10
103.039
20
-50.3197
11
103.039
21
-50.3197
0
LINE
8
BLACK
6
CONTINUOUS
10
103.039
20
-50.3197
11
93.239
21
-50.3197
0
LINE
8
BLACK
6
CONTINUOUS
10
93.239
20
-50.3197
11
93.1222
21
-50.3065
0
LINE
8
BLACK
6
CONTINUOUS
10
93.1222
20
-50.3065
11
93.0113
21
-50.2677
0
LINE
8
BLACK
6
CONTINUOUS
10
93.0113
20
-50.2677
11
92.9117
21
-50.2052
0
LINE
8
BLACK
6
CONTINUOUS
10
92.9117
20
-50.2052
11
92.8286
21
-50.122
0
LINE
8
BLACK
6
CONTINUOUS
10
92.8286
20
-50.122
11
92.7661
21
-50.0225
0
LINE
8
BLACK
6
CONTINUOUS
10
92.7661
20
-50.0225
11
92.7273
21
-49.9115
0
LINE
8
BLACK
6
CONTINUOUS
10
92.7273
20
-49.9115
11
92.7141
21
-49.7948
0
LINE
8
BLACK
6
CONTINUOUS
10
92.7141
20
-49.7948
11
92.7141
21
-49.7947
0
LINE
8
BLACK
6
CONTINUOUS
10
92.7141
20
-49.7947
11
92.7141
21
-42.7947
0
LINE
8
BLACK
6
CONTINUOUS
10
92.7141
20
-42.7947
11
92.7171
21
-42.7873
0
LINE
8
BLACK
6
CONTINUOUS
10
92.7171
20
-42.7873
11
92.7018
21
-42.6707
0
LINE
8
BLACK
6
CONTINUOUS
10
92.7018
20
-42.6707
11
92.6539
21
-42.5552
0
LINE
8
BLACK
6
CONTINUOUS
10
92.6539
20
-42.5552
11
92.5778
21
-42.456
0
LINE
8
BLACK
6
CONTINUOUS
10
92.5778
20
-42.456
11
92.4786
21
-42.3798
0
LINE
8
BLACK
6
CONTINUOUS
10
92.4786
20
-42.3798
11
92.363
21
-42.3319
0
LINE
8
BLACK
6
CONTINUOUS
10
92.363
20
-42.3319
11
92.2466
21
-42.3166
0
LINE
8
BLACK
6
CONTINUOUS
10
92.2466
20
-42.3166
11
92.239
21
-42.3197
0
LINE
8
BLACK
6
CONTINUOUS
10
92.239
20
-42.3197
11
89.239
21
-42.3197
0
LINE
8
BLACK
6
CONTINUOUS
10
89.239
20
-42.3197
11
89.2315
21
-42.3166
0
LINE
8
BLACK
6
CONTINUOUS
10
89.2315
20
-42.3166
11
89.0691
21
-42.3308
0
LINE
8
BLACK
6
CONTINUOUS
10
89.0691
20
-42.3308
11
88.9043
21
-42.375
0
LINE
8
BLACK
6
CONTINUOUS
10
88.9043
20
-42.375
11
88.7497
21
-42.4471
0
LINE
8
BLACK
6
CONTINUOUS
10
88.7497
20
-42.4471
11
88.6099
21
-42.5449
0
LINE
8
BLACK
6
CONTINUOUS
10
88.6099
20
-42.5449
11
88.4893
21
-42.6656
0
LINE
8
BLACK
6
CONTINUOUS
10
88.4893
20
-42.6656
11
88.3914
21
-42.8053
0
LINE
8
BLACK
6
CONTINUOUS
10
88.3914
20
-42.8053
11
88.3193
21
-42.96
0
LINE
8
BLACK
6
CONTINUOUS
10
88.3193
20
-42.96
11
88.2752
21
-43.1248
0
LINE
8
BLACK
6
CONTINUOUS
10
88.2752
20
-43.1248
11
88.261
21
-43.2873
0
LINE
8
BLACK
6
CONTINUOUS
10
88.261
20
-43.2873
11
88.264
21
-43.2947
0
LINE
8
BLACK
6
CONTINUOUS
10
88.264
20
-43.2947
11
88.264
21
-119
0
LINE
8
BLACK
6
CONTINUOUS
10
88.264
20
-119
11
88.2615
21
-119.006
0
LINE
8
BLACK
6
CONTINUOUS
10
88.2615
20
-119.006
11
88.2607
21
-119.013
0
LINE
8
BLACK
6
CONTINUOUS
10
88.2607
20
-119.013
11
79.3627
21
-134.315
0
LINE
8
BLACK
6
CONTINUOUS
10
79.3627
20
-134.315
11
79.361
21
-134.327
0
LINE
8
BLACK
6
CONTINUOUS
10
79.361
20
-134.327
11
64.3626
21
-160.305
0
LINE
8
BLACK
6
CONTINUOUS
10
64.3626
20
-160.305
11
61.625
21
-170.299
0
LINE
8
BLACK
6
CONTINUOUS
10
61.625
20
-170.299
11
61.625
21
-187.295
0
LINE
8
BLACK
6
CONTINUOUS
10
61.625
20
-187.295
11
61.6219
21
-187.303
0
LINE
8
BLACK
6
CONTINUOUS
10
61.6219
20
-187.303
11
61.6362
21
-187.465
0
LINE
8
BLACK
6
CONTINUOUS
10
61.6362
20
-187.465
11
61.6803
21
-187.63
0
LINE
8
BLACK
6
CONTINUOUS
10
61.6803
20
-187.63
11
61.7524
21
-187.785
0
LINE
8
BLACK
6
CONTINUOUS
10
61.7524
20
-187.785
11
61.8503
21
-187.924
0
LINE
8
BLACK
6
CONTINUOUS
10
61.8503
20
-187.924
11
61.9709
21
-188.045
0
LINE
8
BLACK
6
CONTINUOUS
10
61.9709
20
-188.045
11
62.1106
21
-188.143
0
LINE
8
BLACK
6
CONTINUOUS
10
62.1106
20
-188.143
11
62.2653
21
-188.215
0
LINE
8
BLACK
6
CONTINUOUS
10
62.2653
20
-188.215
11
62.43
21
-188.259
0
LINE
8
BLACK
6
CONTINUOUS
10
62.43
20
-188.259
11
62.5926
21
-188.273
0
LINE
8
BLACK
6
CONTINUOUS
10
62.5926
20
-188.273
11
62.6
21
-188.27
0
LINE
8
BLACK
6
CONTINUOUS
10
62.6
20
-188.27
11
80.6599
21
-188.27
0
LINE
8
BLACK
6
CONTINUOUS
10
80.6599
20
-188.27
11
80.6673
21
-188.273
0
LINE
8
BLACK
6
CONTINUOUS
10
80.6673
20
-188.273
11
80.8298
21
-188.259
0
LINE
8
BLACK
6
CONTINUOUS
10
80.8298
20
-188.259
11
80.9946
21
-188.215
0
LINE
8
BLACK
6
CONTINUOUS
10
80.9946
20
-188.215
11
81.1493
21
-188.143
0
LINE
8
BLACK
6
CONTINUOUS
10
81.1493
20
-188.143
11
81.289
21
-188.045
0
LINE
8
BLACK
6
CONTINUOUS
10
81.289
20
-188.045
11
81.4096
21
-187.924
0
LINE
8
BLACK
6
CONTINUOUS
10
81.4096
20
-187.924
11
81.5075
21
-187.785
0
LINE
8
BLACK
6
CONTINUOUS
10
81.5075
20
-187.785
11
81.5796
21
-187.63
0
LINE
8
BLACK
6
CONTINUOUS
10
81.5796
20
-187.63
11
81.6237
21
-187.465
0
LINE
8
BLACK
6
CONTINUOUS
10
81.6237
20
-187.465
11
81.638
21
-187.303
0
LINE
8
BLACK
6
CONTINUOUS
10
81.638
20
-187.303
11
81.638
21
-187.303
0
LINE
8
BLACK
6
CONTINUOUS
10
81.638
20
-187.303
11
81.6349
21
-187.295
0
LINE
8
BLACK
6
CONTINUOUS
10
81.6349
20
-187.295
11
81.6349
21
-170.295
0
LINE
8
BLACK
6
CONTINUOUS
10
81.6349
20
-170.295
11
81.6374
21
-170.289
0
LINE
8
BLACK
6
CONTINUOUS
10
81.6374
20
-170.289
11
81.6382
21
-170.283
0
LINE
8
BLACK
6
CONTINUOUS
10
81.6382
20
-170.283
11
94.7509
21
-147.571
0
LINE
8
BLACK
6
CONTINUOUS
10
94.7509
20
-147.571
11
94.7577
21
-147.566
0
LINE
8
BLACK
6
CONTINUOUS
10
94.7577
20
-147.566
11
94.764
21
-147.56
0
LINE
8
BLACK
6
CONTINUOUS
10
94.764
20
-147.56
11
102.306
21
-144.83
0
LINE
8
BLACK
6
CONTINUOUS
10
102.306
20
-144.83
11
102.314
21
-144.823
0
LINE
8
BLACK
6
CONTINUOUS
10
102.314
20
-144.823
11
102.481
21
-144.767
0
LINE
8
BLACK
6
CONTINUOUS
10
102.481
20
-144.767
11
102.65
21
-144.722
0
LINE
8
BLACK
6
CONTINUOUS
10
102.65
20
-144.722
11
102.822
21
-144.686
0
LINE
8
BLACK
6
CONTINUOUS
10
102.822
20
-144.686
11
102.822
21
-144.686
0
LINE
8
BLACK
6
CONTINUOUS
10
102.822
20
-144.686
11
119.934
21
-141.662
0
LINE
8
BLACK
6
CONTINUOUS
10
119.934
20
-141.662
11
119.934
21
-141.662
0
LINE
8
BLACK
6
CONTINUOUS
10
119.934
20
-141.662
11
119.944
21
-141.664
0
LINE
8
BLACK
6
CONTINUOUS
10
119.944
20
-141.664
11
120.186
21
-141.605
0
LINE
8
BLACK
6
CONTINUOUS
10
120.186
20
-141.605
11
120.428
21
-141.511
0
LINE
8
BLACK
6
CONTINUOUS
10
120.428
20
-141.511
11
120.654
21
-141.387
0
LINE
8
BLACK
6
CONTINUOUS
10
120.654
20
-141.387
11
120.863
21
-141.234
0
LINE
8
BLACK
6
CONTINUOUS
10
120.863
20
-141.234
11
121.05
21
-141.055
0
LINE
8
BLACK
6
CONTINUOUS
10
121.05
20
-141.055
11
121.212
21
-140.853
0
LINE
8
BLACK
6
CONTINUOUS
10
121.212
20
-140.853
11
121.346
21
-140.632
0
LINE
8
BLACK
6
CONTINUOUS
10
121.346
20
-140.632
11
121.45
21
-140.395
0
LINE
8
BLACK
6
CONTINUOUS
10
121.45
20
-140.395
11
121.523
21
-140.147
0
LINE
8
BLACK
6
CONTINUOUS
10
121.523
20
-140.147
11
121.562
21
-139.891
0
LINE
8
BLACK
6
CONTINUOUS
10
121.562
20
-139.891
11
121.568
21
-139.633
0
LINE
8
BLACK
6
CONTINUOUS
10
121.568
20
-139.633
11
121.541
21
-139.384
0
LINE
8
BLACK
6
CONTINUOUS
10
121.541
20
-139.384
11
121.536
21
-139.376
0
LINE
8
BLACK
6
CONTINUOUS
10
121.536
20
-139.376
11
118.805
21
-123.806
0
LINE
8
BLACK
6
CONTINUOUS
10
118.805
20
-123.806
11
118.78
21
-123.633
0
LINE
8
BLACK
6
CONTINUOUS
10
118.78
20
-123.633
11
118.765
21
-123.459
0
LINE
8
BLACK
6
CONTINUOUS
10
118.765
20
-123.459
11
118.76
21
-123.284
0
LINE
8
BLACK
6
CONTINUOUS
10
118.76
20
-123.284
11
118.76
21
-123.284
0
LINE
8
BLACK
6
CONTINUOUS
10
118.76
20
-123.284
11
118.76
21
-120.495
0
LINE
8
BLACK
6
CONTINUOUS
10
118.76
20
-120.495
11
118.777
21
-120.179
0
LINE
8
BLACK
6
CONTINUOUS
10
118.777
20
-120.179
11
118.826
21
-119.866
0
LINE
8
BLACK
6
CONTINUOUS
10
118.826
20
-119.866
11
118.908
21
-119.56
0
LINE
8
BLACK
6
CONTINUOUS
10
118.908
20
-119.56
11
119.022
21
-119.264
0
LINE
8
BLACK
6
CONTINUOUS
10
119.022
20
-119.264
11
119.165
21
-118.982
0
LINE
8
BLACK
6
CONTINUOUS
10
119.165
20
-118.982
11
119.338
21
-118.717
0
LINE
8
BLACK
6
CONTINUOUS
10
119.338
20
-118.717
11
119.537
21
-118.471
0
LINE
8
BLACK
6
CONTINUOUS
10
119.537
20
-118.471
11
119.761
21
-118.247
0
LINE
8
BLACK
6
CONTINUOUS
10
119.761
20
-118.247
11
120.007
21
-118.047
0
LINE
8
BLACK
6
CONTINUOUS
10
120.007
20
-118.047
11
120.272
21
-117.875
0
LINE
8
BLACK
6
CONTINUOUS
10
120.272
20
-117.875
11
120.555
21
-117.731
0
LINE
8
BLACK
6
CONTINUOUS
10
120.555
20
-117.731
11
120.85
21
-117.618
0
LINE
8
BLACK
6
CONTINUOUS
10
120.85
20
-117.618
11
121.156
21
-117.536
0
LINE
8
BLACK
6
CONTINUOUS
10
121.156
20
-117.536
11
121.469
21
-117.486
0
LINE
8
BLACK
6
CONTINUOUS
10
121.469
20
-117.486
11
121.785
21
-117.47
0
LINE
8
BLACK
6
CONTINUOUS
10
121.785
20
-117.47
11
121.785
21
-117.47
0
LINE
8
BLACK
6
CONTINUOUS
10
121.785
20
-117.47
11
125.799
21
-117.47
0
LINE
8
BLACK
6
CONTINUOUS
10
125.799
20
-117.47
11
125.807
21
-117.473
0
LINE
8
BLACK
6
CONTINUOUS
10
125.807
20
-117.473
11
126.052
21
-117.458
0
LINE
8
BLACK
6
CONTINUOUS
10
126.052
20
-117.458
11
126.3
21
-117.409
0
LINE
8
BLACK
6
CONTINUOUS
10
126.3
20
-117.409
11
126.54
21
-117.33
0
LINE
8
BLACK
6
CONTINUOUS
10
126.54
20
-117.33
11
126.768
21
-117.22
0
LINE
8
BLACK
6
CONTINUOUS
10
126.768
20
-117.22
11
126.98
21
-117.082
0
LINE
8
BLACK
6
CONTINUOUS
10
126.98
20
-117.082
11
127.173
21
-116.919
0
LINE
8
BLACK
6
CONTINUOUS
10
127.173
20
-116.919
11
127.338
21
-116.738
0
LINE
8
BLACK
6
CONTINUOUS
10
127.338
20
-116.738
11
127.341
21
-116.729
0
LINE
8
BLACK
6
CONTINUOUS
10
127.341
20
-116.729
11
127.341
21
-116.729
0
LINE
8
BLACK
6
CONTINUOUS
10
127.341
20
-116.729
11
127.515
21
-116.538
0
LINE
8
BLACK
6
CONTINUOUS
10
127.515
20
-116.538
11
127.713
21
-116.37
0
LINE
8
BLACK
6
CONTINUOUS
10
127.713
20
-116.37
11
127.93
21
-116.229
0
LINE
8
BLACK
6
CONTINUOUS
10
127.93
20
-116.229
11
128.163
21
-116.117
0
LINE
8
BLACK
6
CONTINUOUS
10
128.163
20
-116.117
11
128.409
21
-116.036
0
LINE
8
BLACK
6
CONTINUOUS
10
128.409
20
-116.036
11
128.663
21
-115.986
0
LINE
8
BLACK
6
CONTINUOUS
10
128.663
20
-115.986
11
128.921
21
-115.97
0
LINE
8
BLACK
6
CONTINUOUS
10
128.921
20
-115.97
11
128.921
21
-115.97
0
LINE
8
BLACK
6
CONTINUOUS
10
128.921
20
-115.97
11
164.276
21
-115.97
0
LINE
8
BLACK
6
CONTINUOUS
10
164.276
20
-115.97
11
164.454
21
-115.985
0
LINE
8
BLACK
6
CONTINUOUS
10
164.454
20
-115.985
11
164.627
21
-116.032
0
LINE
8
BLACK
6
CONTINUOUS
10
164.627
20
-116.032
11
164.789
21
-116.107
0
LINE
8
BLACK
6
CONTINUOUS
10
164.789
20
-116.107
11
164.935
21
-116.21
0
LINE
8
BLACK
6
CONTINUOUS
10
164.935
20
-116.21
11
165.062
21
-116.336
0
LINE
8
BLACK
6
CONTINUOUS
10
165.062
20
-116.336
11
165.164
21
-116.482
0
LINE
8
BLACK
6
CONTINUOUS
10
165.164
20
-116.482
11
165.24
21
-116.644
0
LINE
8
BLACK
6
CONTINUOUS
10
165.24
20
-116.644
11
165.286
21
-116.817
0
LINE
8
BLACK
6
CONTINUOUS
10
165.286
20
-116.817
11
165.301
21
-116.995
0
LINE
8
BLACK
6
CONTINUOUS
10
165.301
20
-116.995
11
165.301
21
-116.995
0
LINE
8
BLACK
6
CONTINUOUS
10
165.301
20
-116.995
11
165.301
21
-117.495
0
LINE
8
BLACK
6
CONTINUOUS
10
165.301
20
-117.495
11
165.298
21
-117.502
0
LINE
8
BLACK
6
CONTINUOUS
10
165.298
20
-117.502
11
165.313
21
-117.665
0
LINE
8
BLACK
6
CONTINUOUS
10
165.313
20
-117.665
11
165.357
21
-117.829
0
LINE
8
BLACK
6
CONTINUOUS
10
165.357
20
-117.829
11
165.429
21
-117.984
0
LINE
8
BLACK
6
CONTINUOUS
10
165.429
20
-117.984
11
165.527
21
-118.124
0
LINE
8
BLACK
6
CONTINUOUS
10
165.527
20
-118.124
11
165.647
21
-118.244
0
LINE
8
BLACK
6
CONTINUOUS
10
165.647
20
-118.244
11
165.787
21
-118.342
0
LINE
8
BLACK
6
CONTINUOUS
10
165.787
20
-118.342
11
165.942
21
-118.414
0
LINE
8
BLACK
6
CONTINUOUS
10
165.942
20
-118.414
11
166.106
21
-118.459
0
LINE
8
BLACK
6
CONTINUOUS
10
166.106
20
-118.459
11
166.269
21
-118.473
0
LINE
8
BLACK
6
CONTINUOUS
10
166.269
20
-118.473
11
166.276
21
-118.47
0
LINE
8
BLACK
6
CONTINUOUS
10
166.276
20
-118.47
11
174.746
21
-118.47
0
LINE
8
BLACK
6
CONTINUOUS
10
174.746
20
-118.47
11
174.924
21
-118.485
0
LINE
8
BLACK
6
CONTINUOUS
10
174.924
20
-118.485
11
175.097
21
-118.532
0
LINE
8
BLACK
6
CONTINUOUS
10
175.097
20
-118.532
11
175.259
21
-118.607
0
LINE
8
BLACK
6
CONTINUOUS
10
175.259
20
-118.607
11
175.405
21
-118.71
0
LINE
8
BLACK
6
CONTINUOUS
10
175.405
20
-118.71
11
175.532
21
-118.836
0
LINE
8
BLACK
6
CONTINUOUS
10
175.532
20
-118.836
11
175.634
21
-118.982
0
LINE
8
BLACK
6
CONTINUOUS
10
175.634
20
-118.982
11
175.71
21
-119.144
0
LINE
8
BLACK
6
CONTINUOUS
10
175.71
20
-119.144
11
175.756
21
-119.317
0
LINE
8
BLACK
6
CONTINUOUS
10
175.756
20
-119.317
11
175.771
21
-119.495
0
LINE
8
BLACK
6
CONTINUOUS
10
175.771
20
-119.495
11
175.771
21
-119.495
0
LINE
8
BLACK
6
CONTINUOUS
10
175.771
20
-119.495
11
175.771
21
-142.745
0
LINE
8
BLACK
6
CONTINUOUS
10
175.771
20
-142.745
11
175.768
21
-142.752
0
LINE
8
BLACK
6
CONTINUOUS
10
175.768
20
-142.752
11
175.784
21
-142.869
0
LINE
8
BLACK
6
CONTINUOUS
10
175.784
20
-142.869
11
175.831
21
-142.984
0
LINE
8
BLACK
6
CONTINUOUS
10
175.831
20
-142.984
11
175.908
21
-143.083
0
LINE
8
BLACK
6
CONTINUOUS
10
175.908
20
-143.083
11
176.007
21
-143.16
0
LINE
8
BLACK
6
CONTINUOUS
10
176.007
20
-143.16
11
176.122
21
-143.207
0
LINE
8
BLACK
6
CONTINUOUS
10
176.122
20
-143.207
11
176.239
21
-143.223
0
LINE
8
BLACK
6
CONTINUOUS
10
176.239
20
-143.223
11
176.239
21
-143.223
0
LINE
8
BLACK
6
CONTINUOUS
10
176.239
20
-143.223
11
176.241
21
-143.222
0
LINE
8
BLACK
6
CONTINUOUS
10
176.241
20
-143.222
11
176.246
21
-143.22
0
LINE
8
BLACK
6
CONTINUOUS
10
176.246
20
-143.22
11
221.235
21
-143.22
0
LINE
8
BLACK
6
CONTINUOUS
10
221.235
20
-143.22
11
221.242
21
-143.223
0
LINE
8
BLACK
6
CONTINUOUS
10
221.242
20
-143.223
11
221.405
21
-143.209
0
LINE
8
BLACK
6
CONTINUOUS
10
221.405
20
-143.209
11
221.57
21
-143.164
0
LINE
8
BLACK
6
CONTINUOUS
10
221.57
20
-143.164
11
221.724
21
-143.092
0
LINE
8
BLACK
6
CONTINUOUS
10
221.724
20
-143.092
11
221.864
21
-142.994
0
LINE
8
BLACK
6
CONTINUOUS
10
221.864
20
-142.994
11
221.985
21
-142.874
0
LINE
8
BLACK
6
CONTINUOUS
10
221.985
20
-142.874
11
222.083
21
-142.734
0
LINE
8
BLACK
6
CONTINUOUS
10
222.083
20
-142.734
11
222.155
21
-142.579
0
LINE
8
BLACK
6
CONTINUOUS
10
222.155
20
-142.579
11
222.199
21
-142.415
0
LINE
8
BLACK
6
CONTINUOUS
10
222.199
20
-142.415
11
222.213
21
-142.252
0
LINE
8
BLACK
6
CONTINUOUS
10
222.213
20
-142.252
11
222.21
21
-142.245
0
LINE
8
BLACK
6
CONTINUOUS
10
222.21
20
-142.245
11
222.21
21
-49.9947
0
LINE
8
BLACK
6
CONTINUOUS
10
222.21
20
-49.9947
11
222.213
21
-49.9873
0
LINE
8
BLACK
6
CONTINUOUS
10
222.213
20
-49.9873
11
222.199
21
-49.8248
0
LINE
8
BLACK
6
CONTINUOUS
10
222.199
20
-49.8248
11
222.155
21
-49.66
0
LINE
8
BLACK
6
CONTINUOUS
10
222.155
20
-49.66
11
222.083
21
-49.5053
0
LINE
8
BLACK
6
CONTINUOUS
10
222.083
20
-49.5053
11
221.985
21
-49.3656
0
LINE
8
BLACK
6
CONTINUOUS
10
221.985
20
-49.3656
11
221.864
21
-49.245
0
LINE
8
BLACK
6
CONTINUOUS
10
221.864
20
-49.245
11
221.724
21
-49.1471
0
LINE
8
BLACK
6
CONTINUOUS
10
221.724
20
-49.1471
11
221.57
21
-49.075
0
LINE
8
BLACK
6
CONTINUOUS
10
221.57
20
-49.075
11
221.405
21
-49.0309
0
LINE
8
BLACK
6
CONTINUOUS
10
221.405
20
-49.0309
11
221.242
21
-49.0166
0
LINE
8
BLACK
6
CONTINUOUS
10
221.242
20
-49.0166
11
221.235
21
-49.0197
0
LINE
8
BLACK
6
CONTINUOUS
10
221.235
20
-49.0197
11
185.135
21
-49.0197
0
LINE
8
BLACK
6
CONTINUOUS
10
185.135
20
-49.0197
11
184.957
21
-49.0041
0
LINE
8
BLACK
6
CONTINUOUS
10
184.957
20
-49.0041
11
184.784
21
-48.9579
0
LINE
8
BLACK
6
CONTINUOUS
10
184.784
20
-48.9579
11
184.622
21
-48.8824
0
LINE
8
BLACK
6
CONTINUOUS
10
184.622
20
-48.8824
11
184.476
21
-48.7799
0
LINE
8
BLACK
6
CONTINUOUS
10
184.476
20
-48.7799
11
184.35
21
-48.6536
0
LINE
8
BLACK
6
CONTINUOUS
10
184.35
20
-48.6536
11
184.247
21
-48.5072
0
LINE
8
BLACK
6
CONTINUOUS
10
184.247
20
-48.5072
11
184.172
21
-48.3453
0
LINE
8
BLACK
6
CONTINUOUS
10
184.172
20
-48.3453
11
184.126
21
-48.1727
0
LINE
8
BLACK
6
CONTINUOUS
10
184.126
20
-48.1727
11
184.11
21
-47.9947
0
LINE
8
BLACK
6
CONTINUOUS
10
184.11
20
-47.9947
11
184.11
21
-47.9947
0
LINE
8
BLACK
6
CONTINUOUS
10
184.11
20
-47.9947
11
184.11
21
-42.9947
0
LINE
8
BLACK
6
CONTINUOUS
10
184.11
20
-42.9947
11
184.113
21
-42.9873
0
LINE
8
BLACK
6
CONTINUOUS
10
184.113
20
-42.9873
11
184.099
21
-42.8248
0
LINE
8
BLACK
6
CONTINUOUS
10
184.099
20
-42.8248
11
184.055
21
-42.66
0
LINE
8
BLACK
6
CONTINUOUS
10
184.055
20
-42.66
11
183.983
21
-42.5053
0
LINE
8
BLACK
6
CONTINUOUS
10
183.983
20
-42.5053
11
183.885
21
-42.3656
0
LINE
8
BLACK
6
CONTINUOUS
10
183.885
20
-42.3656
11
183.764
21
-42.245
0
LINE
8
BLACK
6
CONTINUOUS
10
183.764
20
-42.245
11
183.624
21
-42.1471
0
LINE
8
BLACK
6
CONTINUOUS
10
183.624
20
-42.1471
11
183.47
21
-42.075
0
LINE
8
BLACK
6
CONTINUOUS
10
183.47
20
-42.075
11
183.305
21
-42.0309
0
LINE
8
BLACK
6
CONTINUOUS
10
183.305
20
-42.0309
11
183.142
21
-42.0166
0
LINE
8
BLACK
6
CONTINUOUS
10
183.142
20
-42.0166
11
183.135
21
-42.0197
0
LINE
8
BLACK
6
CONTINUOUS
10
183.135
20
-42.0197
11
166.085
21
-42.0197
0
LINE
8
BLACK
6
CONTINUOUS
10
166.085
20
-42.0197
11
165.907
21
-42.0041
0
LINE
8
BLACK
6
CONTINUOUS
10
165.907
20
-42.0041
11
165.734
21
-41.9579
0
LINE
8
BLACK
6
CONTINUOUS
10
165.734
20
-41.9579
11
165.572
21
-41.8824
0
LINE
8
BLACK
6
CONTINUOUS
10
165.572
20
-41.8824
11
165.426
21
-41.7799
0
LINE
8
BLACK
6
CONTINUOUS
10
165.426
20
-41.7799
11
165.3
21
-41.6536
0
LINE
8
BLACK
6
CONTINUOUS
10
165.3
20
-41.6536
11
165.197
21
-41.5072
0
LINE
8
BLACK
6
CONTINUOUS
10
165.197
20
-41.5072
11
165.122
21
-41.3453
0
LINE
8
BLACK
6
CONTINUOUS
10
165.122
20
-41.3453
11
165.076
21
-41.1727
0
LINE
8
BLACK
6
CONTINUOUS
10
165.076
20
-41.1727
11
165.06
21
-40.9947
0
LINE
8
BLACK
6
CONTINUOUS
10
165.06
20
-40.9947
11
165.06
21
-40.9947
0
LINE
8
BLACK
6
CONTINUOUS
10
165.06
20
-40.9947
11
165.06
21
-38.2947
0
LINE
8
BLACK
6
CONTINUOUS
10
165.06
20
-38.2947
11
165.063
21
-38.2873
0
LINE
8
BLACK
6
CONTINUOUS
10
165.063
20
-38.2873
11
165.049
21
-38.1248
0
LINE
8
BLACK
6
CONTINUOUS
10
165.049
20
-38.1248
11
165.005
21
-37.96
0
LINE
8
BLACK
6
CONTINUOUS
10
165.005
20
-37.96
11
164.933
21
-37.8053
0
LINE
8
BLACK
6
CONTINUOUS
10
164.933
20
-37.8053
11
164.835
21
-37.6656
0
LINE
8
BLACK
6
CONTINUOUS
10
164.835
20
-37.6656
11
164.714
21
-37.545
0
LINE
8
BLACK
6
CONTINUOUS
10
164.714
20
-37.545
11
164.574
21
-37.4471
0
LINE
8
BLACK
6
CONTINUOUS
10
164.574
20
-37.4471
11
164.42
21
-37.375
0
LINE
8
BLACK
6
CONTINUOUS
10
164.42
20
-37.375
11
164.255
21
-37.3309
0
LINE
8
BLACK
6
CONTINUOUS
10
164.255
20
-37.3309
11
164.092
21
-37.3166
0
LINE
8
BLACK
6
CONTINUOUS
10
164.092
20
-37.3166
11
164.085
21
-37.3197
0
LINE
8
BLACK
6
CONTINUOUS
10
164.085
20
-37.3197
11
148.035
21
-37.3197
0
LINE
8
BLACK
6
CONTINUOUS
10
148.035
20
-37.3197
11
148.028
21
-37.3166
0
LINE
8
BLACK
6
CONTINUOUS
10
148.028
20
-37.3166
11
147.865
21
-37.3308
0
LINE
8
BLACK
6
CONTINUOUS
10
147.865
20
-37.3308
11
147.7
21
-37.375
0
LINE
8
BLACK
6
CONTINUOUS
10
147.7
20
-37.375
11
147.546
21
-37.4471
0
LINE
8
BLACK
6
CONTINUOUS
10
147.546
20
-37.4471
11
147.406
21
-37.545
0
LINE
8
BLACK
6
CONTINUOUS
10
147.406
20
-37.545
11
147.285
21
-37.6656
0
LINE
8
BLACK
6
CONTINUOUS
10
147.285
20
-37.6656
11
147.187
21
-37.8053
0
LINE
8
BLACK
6
CONTINUOUS
10
147.187
20
-37.8053
11
147.115
21
-37.96
0
LINE
8
BLACK
6
CONTINUOUS
10
147.115
20
-37.96
11
147.071
21
-38.1248
0
LINE
8
BLACK
6
CONTINUOUS
10
147.071
20
-38.1248
11
147.057
21
-38.2873
0
LINE
8
BLACK
6
CONTINUOUS
10
147.057
20
-38.2873
11
147.06
21
-38.2947
0
LINE
8
BLACK
6
CONTINUOUS
10
147.06
20
-38.2947
11
147.06
21
-38.7947
0
LINE
8
BLACK
6
CONTINUOUS
10
147.06
20
-38.7947
11
147.044
21
-38.9727
0
LINE
8
BLACK
6
CONTINUOUS
10
147.044
20
-38.9727
11
146.998
21
-39.1453
0
LINE
8
BLACK
6
CONTINUOUS
10
146.998
20
-39.1453
11
146.923
21
-39.3072
0
LINE
8
BLACK
6
CONTINUOUS
10
146.923
20
-39.3072
11
146.82
21
-39.4536
0
LINE
8
BLACK
6
CONTINUOUS
10
146.82
20
-39.4536
11
146.694
21
-39.5799
0
LINE
8
BLACK
6
CONTINUOUS
10
146.694
20
-39.5799
11
146.547
21
-39.6824
0
LINE
8
BLACK
6
CONTINUOUS
10
146.547
20
-39.6824
11
146.386
21
-39.7579
0
LINE
8
BLACK
6
CONTINUOUS
10
146.386
20
-39.7579
11
146.213
21
-39.8041
0
LINE
8
BLACK
6
CONTINUOUS
10
146.213
20
-39.8041
11
146.035
21
-39.8197
0
LINE
8
BLACK
6
CONTINUOUS
10
146.035
20
-39.8197
11
146.035
21
-39.8197
0
LINE
8
BLACK
6
CONTINUOUS
10
146.035
20
-39.8197
11
128.985
21
-39.8197
0
LINE
8
BLACK
6
CONTINUOUS
10
128.985
20
-39.8197
11
128.978
21
-39.8166
  0
ENDSEC
  0
EOF
